ply
format ascii 1.0
element vertex 925
property float x
property float y
property float z
end_header
0 0 0
-0.0586074 -0.132284 -0.0395754
-0.117215 -0.264567 -0.0791508
-0.175822 -0.396851 -0.118726
-0.23443 -0.529135 -0.158302
-0.293037 -0.661418 -0.197877
-0.351644 -0.793702 -0.237452
-0.410252 -0.925985 -0.277028
-0.468859 -1.05827 -0.316603
-0.527467 -1.19055 -0.356179
-0.586074 -1.32284 -0.395754
-0.644681 -1.45512 -0.435329
-0.703289 -1.5874 -0.474905
-0.761896 -1.71969 -0.51448
-0.820504 -1.85197 -0.554055
-0.879111 -1.98425 -0.593631
-0.937718 -2.11654 -0.633206
-0.996326 -2.24882 -0.672782
-1.05493 -2.38111 -0.712357
-1.11354 -2.51339 -0.751932
-1.17215 -2.64567 -0.791508
-1.23076 -2.77796 -0.831083
-1.28936 -2.91024 -0.870659
-1.34797 -3.04252 -0.910234
-1.40658 -3.17481 -0.949809
-1.46519 -3.30709 -0.989385
-1.52379 -3.43937 -1.02896
-1.5824 -3.57166 -1.06854
-1.64101 -3.70394 -1.10811
-1.69961 -3.83623 -1.14769
-1.75822 -3.96851 -1.18726
-1.81683 -4.10079 -1.22684
-1.87544 -4.23308 -1.26641
-1.93404 -4.36536 -1.30599
-1.99265 -4.49764 -1.34556
-2.05126 -4.62993 -1.38514
-2.10987 -4.76221 -1.42471
-2.16847 -4.89449 -1.46429
-2.22708 -5.02678 -1.50386
-2.28569 -5.15906 -1.54344
-2.3443 -5.29135 -1.58302
-2.4029 -5.42363 -1.62259
-2.46151 -5.55591 -1.66217
-2.52012 -5.6882 -1.70174
-2.57873 -5.82048 -1.74132
-2.63733 -5.95276 -1.78089
-2.69594 -6.08505 -1.82047
-2.75455 -6.21733 -1.86004
-2.81316 -6.34961 -1.89962
-2.87176 -6.4819 -1.93919
-2.93037 -6.61418 -1.97877
-2.98898 -6.74647 -2.01834
-3.04759 -6.87875 -2.05792
-3.10619 -7.01103 -2.0975
-3.1648 -7.14332 -2.13707
-3.22341 -7.2756 -2.17665
-3.28201 -7.40788 -2.21622
-3.34062 -7.54017 -2.2558
-3.39923 -7.67245 -2.29537
-3.45784 -7.80473 -2.33495
-3.51644 -7.93702 -2.37452
-3.57505 -8.0693 -2.4141
-3.63366 -8.20159 -2.45367
-3.69227 -8.33387 -2.49325
-3.75087 -8.46615 -2.53282
-3.80948 -8.59844 -2.5724
-3.86809 -8.73072 -2.61198
-0.0425025 -0.137703 -0.0416103
-0.0850051 -0.275406 -0.0832206
-0.127508 -0.413109 -0.124831
-0.17001 -0.550812 -0.166441
-0.212513 -0.688515 -0.208052
-0.255015 -0.826218 -0.249662
-0.297518 -0.963921 -0.291272
-0.34002 -1.10162 -0.332883
-0.382523 -1.23933 -0.374493
-0.425025 -1.37703 -0.416103
-0.467528 -1.51473 -0.457714
-0.51003 -1.65244 -0.499324
-0.552533 -1.79014 -0.540934
-0.595035 -1.92784 -0.582545
-0.637538 -2.06554 -0.624155
-0.68004 -2.20325 -0.665765
-0.722543 -2.34095 -0.707376
-0.765046 -2.47865 -0.748986
-0.807548 -2.61636 -0.790596
-0.850051 -2.75406 -0.832206
-0.892553 -2.89176 -0.873817
-0.935056 -3.02947 -0.915427
-0.977558 -3.16717 -0.957037
-1.02006 -3.30487 -0.998648
-1.06256 -3.44257 -1.04026
-1.10507 -3.58028 -1.08187
-1.14757 -3.71798 -1.12348
-1.19007 -3.85568 -1.16509
-1.23257 -3.99339 -1.2067
-1.27508 -4.13109 -1.24831
-1.31758 -4.26879 -1.28992
-1.36008 -4.4065 -1.33153
-1.40258 -4.5442 -1.37314
-1.44509 -4.6819 -1.41475
-1.48759 -4.8196 -1.45636
-1.53009 -4.95731 -1.49797
-1.57259 -5.09501 -1.53958
-1.6151 -5.23271 -1.58119
-1.6576 -5.37042 -1.6228
-1.7001 -5.50812 -1.66441
-1.7426 -5.64582 -1.70602
-1.78511 -5.78353 -1.74763
-1.82761 -5.92123 -1.78924
-1.87011 -6.05893 -1.83085
-1.91261 -6.19663 -1.87246
-1.95512 -6.33434 -1.91407
-1.99762 -6.47204 -1.95569
-2.04012 -6.60974 -1.9973
-2.08262 -6.74745 -2.03891
-2.12513 -6.88515 -2.08052
-2.16763 -7.02285 -2.12213
-2.21013 -7.16056 -2.16374
-2.25263 -7.29826 -2.20535
-2.29514 -7.43596 -2.24696
-2.33764 -7.57366 -2.28857
-2.38014 -7.71137 -2.33018
-2.42264 -7.84907 -2.37179
-2.46515 -7.98677 -2.4134
-2.50765 -8.12448 -2.45501
-2.55015 -8.26218 -2.49662
-2.59265 -8.39988 -2.53823
-2.63516 -8.53759 -2.57984
-2.67766 -8.67529 -2.62145
-2.72016 -8.81299 -2.66306
-2.76266 -8.95069 -2.70467
-2.80517 -9.0884 -2.74628
-0.036703 -0.139269 -0.0419168
-0.0734061 -0.278538 -0.0838335
-0.110109 -0.417807 -0.12575
-0.146812 -0.557076 -0.167667
-0.183515 -0.696345 -0.209584
-0.220218 -0.835614 -0.251501
-0.256921 -0.974883 -0.293417
-0.293624 -1.11415 -0.335334
-0.330327 -1.25342 -0.377251
-0.36703 -1.39269 -0.419168
-0.403733 -1.53196 -0.461084
-0.440436 -1.67123 -0.503001
-0.47714 -1.8105 -0.544918
-0.513843 -1.94977 -0.586835
-0.550546 -2.08904 -0.628752
-0.587249 -2.2283 -0.670668
-0.623952 -2.36757 -0.712585
-0.660655 -2.50684 -0.754502
-0.697358 -2.64611 -0.796419
-0.734061 -2.78538 -0.838335
-0.770764 -2.92465 -0.880252
-0.807467 -3.06392 -0.922169
-0.84417 -3.20319 -0.964086
-0.880873 -3.34246 -1.006
-0.917576 -3.48173 -1.04792
-0.954279 -3.621 -1.08984
-0.990982 -3.76026 -1.13175
-1.02769 -3.89953 -1.17367
-1.06439 -4.0388 -1.21559
-1.10109 -4.17807 -1.2575
-1.13779 -4.31734 -1.29942
-1.1745 -4.45661 -1.34134
-1.2112 -4.59588 -1.38325
-1.2479 -4.73515 -1.42517
-1.28461 -4.87442 -1.46709
-1.32131 -5.01369 -1.509
-1.35801 -5.15296 -1.55092
-1.39472 -5.29222 -1.59284
-1.43142 -5.43149 -1.63475
-1.46812 -5.57076 -1.67667
-1.50482 -5.71003 -1.71859
-1.54153 -5.8493 -1.7605
-1.57823 -5.98857 -1.80242
-1.61493 -6.12784 -1.84434
-1.65164 -6.26711 -1.88625
-1.68834 -6.40638 -1.92817
-1.72504 -6.54565 -1.97009
-1.76175 -6.68491 -2.012
-1.79845 -6.82418 -2.05392
-1.83515 -6.96345 -2.09584
-1.87186 -7.10272 -2.13776
-1.90856 -7.24199 -2.17967
-1.94526 -7.38126 -2.22159
-1.98196 -7.52053 -2.26351
-2.01867 -7.6598 -2.30542
-2.05537 -7.79907 -2.34734
-2.09207 -7.93834 -2.38926
-2.12878 -8.07761 -2.43117
-2.16548 -8.21687 -2.47309
-2.20218 -8.35614 -2.51501
-2.23889 -8.49541 -2.55692
-2.27559 -8.63468 -2.59884
-2.31229 -8.77395 -2.64076
-2.34899 -8.91322 -2.68267
-2.3857 -9.05249 -2.72459
-2.4224 -9.19176 -2.76651
-0.0187962 -0.142428 -0.0431397
-0.0375923 -0.284856 -0.0862793
-0.0563885 -0.427283 -0.129419
-0.0751846 -0.569711 -0.172559
-0.0939808 -0.712139 -0.215698
-0.112777 -0.854567 -0.258838
-0.131573 -0.996995 -0.301978
-0.150369 -1.13942 -0.345117
-0.169165 -1.28185 -0.388257
-0.187962 -1.42428 -0.431397
-0.206758 -1.56671 -0.474536
-0.225554 -1.70913 -0.517676
-0.24435 -1.85156 -0.560816
-0.263146 -1.99399 -0.603955
-0.281942 -2.13642 -0.647095
-0.300739 -2.27884 -0.690235
-0.319535 -2.42127 -0.733374
-0.338331 -2.5637 -0.776514
-0.357127 -2.70613 -0.819654
-0.375923 -2.84856 -0.862793
-0.394719 -2.99098 -0.905933
-0.413515 -3.13341 -0.949073
-0.432312 -3.27584 -0.992212
-0.451108 -3.41827 -1.03535
-0.469904 -3.56069 -1.07849
-0.4887 -3.70312 -1.12163
-0.507496 -3.84555 -1.16477
-0.526292 -3.98798 -1.20791
-0.545089 -4.13041 -1.25105
-0.563885 -4.27283 -1.29419
-0.582681 -4.41526 -1.33733
-0.601477 -4.55769 -1.38047
-0.620273 -4.70012 -1.42361
-0.639069 -4.84254 -1.46675
-0.657866 -4.98497 -1.50989
-0.676662 -5.1274 -1.55303
-0.695458 -5.26983 -1.59617
-0.714254 -5.41226 -1.63931
-0.73305 -5.55468 -1.68245
-0.751846 -5.69711 -1.72559
-0.770642 -5.83954 -1.76873
-0.789439 -5.98197 -1.81187
-0.808235 -6.12439 -1.85501
-0.827031 -6.26682 -1.89815
-0.845827 -6.40925 -1.94128
-0.864623 -6.55168 -1.98442
-0.883419 -6.69411 -2.02756
-0.902216 -6.83653 -2.0707
-0.921012 -6.97896 -2.11384
-0.939808 -7.12139 -2.15698
-0.958604 -7.26382 -2.20012
-0.9774 -7.40624 -2.24326
-0.996196 -7.54867 -2.2864
-1.01499 -7.6911 -2.32954
-1.03379 -7.83353 -2.37268
-1.05258 -7.97596 -2.41582
-1.07138 -8.11838 -2.45896
-1.09018 -8.26081 -2.5021
-1.10897 -8.40324 -2.54524
-1.12777 -8.54567 -2.58838
-1.14657 -8.68809 -2.63152
-1.16536 -8.83052 -2.67466
-1.18416 -8.97295 -2.7178
-1.20295 -9.11538 -2.76094
-1.22175 -9.25781 -2.80408
-1.24055 -9.40023 -2.84722
0.142237 0.0302056 0.0368275
0.284474 0.0604112 0.073655
0.426711 0.0906168 0.110483
0.568948 0.120822 0.14731
0.711185 0.151028 0.184138
0.853422 0.181234 0.220965
0.995659 0.211439 0.257793
1.1379 0.241645 0.29462
1.28013 0.27185 0.331448
1.42237 0.302056 0.368275
1.56461 0.332262 0.405103
1.70684 0.362467 0.44193
1.84908 0.392673 0.478758
1.99132 0.422878 0.515585
2.13355 0.453084 0.552413
2.27579 0.48329 0.58924
2.41803 0.513495 0.626068
2.56027 0.543701 0.662895
2.7025 0.573906 0.699723
2.84474 0.604112 0.73655
2.98698 0.634318 0.773378
3.12921 0.664523 0.810205
3.27145 0.694729 0.847033
3.41369 0.724934 0.88386
3.55592 0.75514 0.920688
3.69816 0.785345 0.957515
3.8404 0.815551 0.994343
3.98264 0.845757 1.03117
4.12487 0.875962 1.068
4.26711 0.906168 1.10483
4.40935 0.936373 1.14165
4.55158 0.966579 1.17848
4.69382 0.996785 1.21531
4.83606 1.02699 1.25214
4.97829 1.0572 1.28896
5.12053 1.0874 1.32579
5.26277 1.11761 1.36262
5.405 1.14781 1.39945
5.54724 1.17802 1.43627
5.68948 1.20822 1.4731
5.83172 1.23843 1.50993
5.97395 1.26864 1.54676
6.11619 1.29884 1.58358
6.25843 1.32905 1.62041
6.40066 1.35925 1.65724
6.5429 1.38946 1.69407
6.68514 1.41966 1.73089
6.82737 1.44987 1.76772
6.96961 1.48007 1.80455
7.11185 1.51028 1.84138
7.25409 1.54049 1.8782
7.39632 1.57069 1.91503
7.53856 1.6009 1.95186
7.6808 1.6311 1.98869
7.82303 1.66131 2.02551
7.96527 1.69151 2.06234
8.10751 1.72172 2.09917
8.24974 1.75192 2.136
8.39198 1.78213 2.17282
8.53422 1.81234 2.20965
8.67646 1.84254 2.24648
8.81869 1.87275 2.28331
8.96093 1.90295 2.32013
9.10317 1.93316 2.35696
9.2454 1.96336 2.39379
9.38764 1.99357 2.43062
0.145476 -0.00386536 0.036358
0.290951 -0.00773071 0.072716
0.436427 -0.0115961 0.109074
0.581902 -0.0154614 0.145432
0.727378 -0.0193268 0.18179
0.872854 -0.0231921 0.218148
1.01833 -0.0270575 0.254506
1.1638 -0.0309228 0.290864
1.30928 -0.0347882 0.327222
1.45476 -0.0386536 0.36358
1.60023 -0.0425189 0.399938
1.74571 -0.0463843 0.436296
1.89118 -0.0502496 0.472654
2.03666 -0.054115 0.509012
2.18213 -0.0579803 0.54537
2.32761 -0.0618457 0.581728
2.47309 -0.065711 0.618086
2.61856 -0.0695764 0.654444
2.76404 -0.0734418 0.690802
2.90951 -0.0773071 0.72716
3.05499 -0.0811725 0.763518
3.20046 -0.0850378 0.799876
3.34594 -0.0889032 0.836234
3.49141 -0.0927685 0.872592
3.63689 -0.0966339 0.90895
3.78237 -0.100499 0.945308
3.92784 -0.104365 0.981666
4.07332 -0.10823 1.01802
4.21879 -0.112095 1.05438
4.36427 -0.115961 1.09074
4.50974 -0.119826 1.1271
4.65522 -0.123691 1.16346
4.8007 -0.127557 1.19981
4.94617 -0.131422 1.23617
5.09165 -0.135287 1.27253
5.23712 -0.139153 1.30889
5.3826 -0.143018 1.34525
5.52807 -0.146884 1.3816
5.67355 -0.150749 1.41796
5.81902 -0.154614 1.45432
5.9645 -0.15848 1.49068
6.10998 -0.162345 1.52704
6.25545 -0.16621 1.56339
6.40093 -0.170076 1.59975
6.5464 -0.173941 1.63611
6.69188 -0.177806 1.67247
6.83735 -0.181672 1.70883
6.98283 -0.185537 1.74518
7.12831 -0.189402 1.78154
7.27378 -0.193268 1.8179
7.41926 -0.197133 1.85426
7.56473 -0.200998 1.89062
7.71021 -0.204864 1.92697
7.85568 -0.208729 1.96333
8.00116 -0.212595 1.99969
8.14663 -0.21646 2.03605
8.29211 -0.220325 2.07241
8.43759 -0.224191 2.10876
8.58306 -0.228056 2.14512
8.72854 -0.231921 2.18148
8.87401 -0.235787 2.21784
9.01949 -0.239652 2.2542
9.16496 -0.243517 2.29055
9.31044 -0.247383 2.32691
9.45591 -0.251248 2.36327
9.60139 -0.255113 2.39963
0.136177 0.0278895 -0.0563748
0.272353 0.0557791 -0.11275
0.40853 0.0836686 -0.169125
0.544706 0.111558 -0.225499
0.680883 0.139448 -0.281874
0.817059 0.167337 -0.338249
0.953236 0.195227 -0.394624
1.08941 0.223116 -0.450999
1.22559 0.251006 -0.507374
1.36177 0.278895 -0.563748
1.49794 0.306785 -0.620123
1.63412 0.334674 -0.676498
1.7703 0.362564 -0.732873
1.90647 0.390453 -0.789248
2.04265 0.418343 -0.845623
2.17882 0.446233 -0.901997
2.315 0.474122 -0.958372
2.45118 0.502012 -1.01475
2.58735 0.529901 -1.07112
2.72353 0.557791 -1.1275
2.85971 0.58568 -1.18387
2.99588 0.61357 -1.24025
3.13206 0.641459 -1.29662
3.26824 0.669349 -1.353
3.40441 0.697238 -1.40937
3.54059 0.725128 -1.46575
3.67677 0.753017 -1.52212
3.81294 0.780907 -1.5785
3.94912 0.808796 -1.63487
4.0853 0.836686 -1.69125
4.22147 0.864575 -1.74762
4.35765 0.892465 -1.80399
4.49383 0.920355 -1.86037
4.63 0.948244 -1.91674
4.76618 0.976134 -1.97312
4.90236 1.00402 -2.02949
5.03853 1.03191 -2.08587
5.17471 1.0598 -2.14224
5.31089 1.08769 -2.19862
5.44706 1.11558 -2.25499
5.58324 1.14347 -2.31137
5.71941 1.17136 -2.36774
5.85559 1.19925 -2.42412
5.99177 1.22714 -2.48049
6.12794 1.25503 -2.53687
6.26412 1.28292 -2.59324
6.4003 1.31081 -2.64962
6.53647 1.3387 -2.70599
6.67265 1.36659 -2.76237
6.80883 1.39448 -2.81874
6.945 1.42237 -2.87512
7.08118 1.45026 -2.93149
7.21736 1.47815 -2.98787
7.35353 1.50603 -3.04424
7.48971 1.53392 -3.10062
7.62589 1.56181 -3.15699
7.76206 1.5897 -3.21337
7.89824 1.61759 -3.26974
8.03442 1.64548 -3.32612
8.17059 1.67337 -3.38249
8.30677 1.70126 -3.43887
8.44295 1.72915 -3.49524
8.57912 1.75704 -3.55161
8.7153 1.78493 -3.60799
8.85148 1.81282 -3.66436
8.98765 1.84071 -3.72074
0.139475 -0.00397023 -0.0550542
0.27895 -0.00794047 -0.110108
0.418425 -0.0119107 -0.165163
0.5579 -0.0158809 -0.220217
0.697375 -0.0198512 -0.275271
0.83685 -0.0238214 -0.330325
0.976325 -0.0277916 -0.385379
1.1158 -0.0317619 -0.440434
1.25527 -0.0357321 -0.495488
1.39475 -0.0397023 -0.550542
1.53422 -0.0436726 -0.605596
1.6737 -0.0476428 -0.66065
1.81317 -0.051613 -0.715705
1.95265 -0.0555833 -0.770759
2.09212 -0.0595535 -0.825813
2.2316 -0.0635237 -0.880867
2.37107 -0.067494 -0.935921
2.51055 -0.0714642 -0.990976
2.65002 -0.0754344 -1.04603
2.7895 -0.0794047 -1.10108
2.92897 -0.0833749 -1.15614
3.06845 -0.0873452 -1.21119
3.20792 -0.0913154 -1.26625
3.3474 -0.0952856 -1.3213
3.48687 -0.0992559 -1.37635
3.62635 -0.103226 -1.43141
3.76582 -0.107196 -1.48646
3.9053 -0.111167 -1.54152
4.04477 -0.115137 -1.59657
4.18425 -0.119107 -1.65163
4.32372 -0.123077 -1.70668
4.4632 -0.127047 -1.76173
4.60267 -0.131018 -1.81679
4.74215 -0.134988 -1.87184
4.88162 -0.138958 -1.9269
5.0211 -0.142928 -1.98195
5.16057 -0.146899 -2.03701
5.30005 -0.150869 -2.09206
5.43952 -0.154839 -2.14711
5.579 -0.158809 -2.20217
5.71847 -0.16278 -2.25722
5.85795 -0.16675 -2.31228
5.99742 -0.17072 -2.36733
6.1369 -0.17469 -2.42238
6.27637 -0.178661 -2.47744
6.41585 -0.182631 -2.53249
6.55532 -0.186601 -2.58755
6.6948 -0.190571 -2.6426
6.83427 -0.194541 -2.69766
6.97375 -0.198512 -2.75271
7.11322 -0.202482 -2.80776
7.2527 -0.206452 -2.86282
7.39217 -0.210422 -2.91787
7.53165 -0.214393 -2.97293
7.67112 -0.218363 -3.02798
7.8106 -0.222333 -3.08304
7.95007 -0.226303 -3.13809
8.08955 -0.230274 -3.19314
8.22902 -0.234244 -3.2482
8.3685 -0.238214 -3.30325
8.50797 -0.242184 -3.35831
8.64745 -0.246155 -3.41336
8.78692 -0.250125 -3.46841
8.9264 -0.254095 -3.52347
9.06587 -0.258065 -3.57852
9.20535 -0.262035 -3.63358
-0.000173669 0.142801 0.0459112
-0.000347339 0.285602 0.0918225
-0.000521008 0.428403 0.137734
-0.000694678 0.571204 0.183645
-0.000868347 0.714005 0.229556
-0.00104202 0.856806 0.275467
-0.00121569 0.999607 0.321379
-0.00138936 1.14241 0.36729
-0.00156302 1.28521 0.413201
-0.00173669 1.42801 0.459112
-0.00191036 1.57081 0.505024
-0.00208403 1.71361 0.550935
-0.0022577 1.85641 0.596846
-0.00243137 1.99921 0.642757
-0.00260504 2.14202 0.688669
-0.00277871 2.28482 0.73458
-0.00295238 2.42762 0.780491
-0.00312605 2.57042 0.826402
-0.00329972 2.71322 0.872314
-0.00347339 2.85602 0.918225
-0.00364706 2.99882 0.964136
-0.00382073 3.14162 1.01005
-0.0039944 3.28442 1.05596
-0.00416807 3.42722 1.10187
-0.00434174 3.57003 1.14778
-0.00451541 3.71283 1.19369
-0.00468907 3.85563 1.2396
-0.00486274 3.99843 1.28551
-0.00503641 4.14123 1.33143
-0.00521008 4.28403 1.37734
-0.00538375 4.42683 1.42325
-0.00555742 4.56963 1.46916
-0.00573109 4.71243 1.51507
-0.00590476 4.85523 1.56098
-0.00607843 4.99804 1.60689
-0.0062521 5.14084 1.6528
-0.00642577 5.28364 1.69872
-0.00659944 5.42644 1.74463
-0.00677311 5.56924 1.79054
-0.00694678 5.71204 1.83645
-0.00712045 5.85484 1.88236
-0.00729412 5.99764 1.92827
-0.00746779 6.14044 1.97418
-0.00764145 6.28324 2.02009
-0.00781512 6.42605 2.06601
-0.00798879 6.56885 2.11192
-0.00816246 6.71165 2.15783
-0.00833613 6.85445 2.20374
-0.0085098 6.99725 2.24965
-0.00868347 7.14005 2.29556
-0.00885714 7.28285 2.34147
-0.00903081 7.42565 2.38738
-0.00920448 7.56845 2.4333
-0.00937815 7.71125 2.47921
-0.00955182 7.85406 2.52512
-0.00972549 7.99686 2.57103
-0.00989916 8.13966 2.61694
-0.0100728 8.28246 2.66285
-0.0102465 8.42526 2.70876
-0.0104202 8.56806 2.75467
-0.0105938 8.71086 2.80059
-0.0107675 8.85366 2.8465
-0.0109412 8.99646 2.89241
-0.0111148 9.13926 2.93832
-0.0112885 9.28207 2.98423
-0.0114622 9.42487 3.03014
0.0207745 0.141235 0.0460543
0.0415491 0.282471 0.0921086
0.0623236 0.423706 0.138163
0.0830982 0.564941 0.184217
0.103873 0.706177 0.230271
0.124647 0.847412 0.276326
0.145422 0.988647 0.32238
0.166196 1.12988 0.368434
0.186971 1.27112 0.414489
0.207745 1.41235 0.460543
0.22852 1.55359 0.506597
0.249294 1.69482 0.552652
0.270069 1.83606 0.598706
0.290844 1.97729 0.64476
0.311618 2.11853 0.690814
0.332393 2.25977 0.736869
0.353167 2.401 0.782923
0.373942 2.54224 0.828977
0.394716 2.68347 0.875032
0.415491 2.82471 0.921086
0.436265 2.96594 0.96714
0.45704 3.10718 1.01319
0.477814 3.24841 1.05925
0.498589 3.38965 1.1053
0.519363 3.53088 1.15136
0.540138 3.67212 1.19741
0.560913 3.81335 1.24347
0.581687 3.95459 1.28952
0.602462 4.09582 1.33557
0.623236 4.23706 1.38163
0.644011 4.3783 1.42768
0.664785 4.51953 1.47374
0.68556 4.66077 1.51979
0.706334 4.802 1.56585
0.727109 4.94324 1.6119
0.747883 5.08447 1.65795
0.768658 5.22571 1.70401
0.789432 5.36694 1.75006
0.810207 5.50818 1.79612
0.830982 5.64941 1.84217
0.851756 5.79065 1.88823
0.872531 5.93188 1.93428
0.893305 6.07312 1.98033
0.91408 6.21435 2.02639
0.934854 6.35559 2.07244
0.955629 6.49683 2.1185
0.976403 6.63806 2.16455
0.997178 6.7793 2.21061
1.01795 6.92053 2.25666
1.03873 7.06177 2.30271
1.0595 7.203 2.34877
1.08028 7.34424 2.39482
1.10105 7.48547 2.44088
1.12183 7.62671 2.48693
1.1426 7.76794 2.53299
1.16337 7.90918 2.57904
1.18415 8.05041 2.62509
1.20492 8.19165 2.67115
1.2257 8.33288 2.7172
1.24647 8.47412 2.76326
1.26725 8.61536 2.80931
1.28802 8.75659 2.85537
1.3088 8.89783 2.90142
1.32957 9.03906 2.94747
1.35035 9.1803 2.99353
1.37112 9.32153 3.03958
-0.00044204 0.149962 0.00332941
-0.000884079 0.299925 0.00665882
-0.00132612 0.449887 0.00998824
-0.00176816 0.59985 0.0133176
-0.0022102 0.749812 0.0166471
-0.00265224 0.899774 0.0199765
-0.00309428 1.04974 0.0233059
-0.00353632 1.1997 0.0266353
-0.00397836 1.34966 0.0299647
-0.0044204 1.49962 0.0332941
-0.00486244 1.64959 0.0366235
-0.00530448 1.79955 0.0399529
-0.00574652 1.94951 0.0432824
-0.00618856 2.09947 0.0466118
-0.0066306 2.24944 0.0499412
-0.00707263 2.3994 0.0532706
-0.00751467 2.54936 0.0566
-0.00795671 2.69932 0.0599294
-0.00839875 2.84929 0.0632588
-0.00884079 2.99925 0.0665882
-0.00928283 3.14921 0.0699177
-0.00972487 3.29917 0.0732471
-0.0101669 3.44914 0.0765765
-0.010609 3.5991 0.0799059
-0.011051 3.74906 0.0832353
-0.011493 3.89902 0.0865647
-0.0119351 4.04898 0.0898941
-0.0123771 4.19895 0.0932235
-0.0128192 4.34891 0.096553
-0.0132612 4.49887 0.0998824
-0.0137032 4.64883 0.103212
-0.0141453 4.7988 0.106541
-0.0145873 4.94876 0.109871
-0.0150293 5.09872 0.1132
-0.0154714 5.24868 0.116529
-0.0159134 5.39865 0.119859
-0.0163555 5.54861 0.123188
-0.0167975 5.69857 0.126518
-0.0172395 5.84853 0.129847
-0.0176816 5.9985 0.133176
-0.0181236 6.14846 0.136506
-0.0185657 6.29842 0.139835
-0.0190077 6.44838 0.143165
-0.0194497 6.59835 0.146494
-0.0198918 6.74831 0.149824
-0.0203338 6.89827 0.153153
-0.0207759 7.04823 0.156482
-0.0212179 7.19819 0.159812
-0.0216599 7.34816 0.163141
-0.022102 7.49812 0.166471
-0.022544 7.64808 0.1698
-0.0229861 7.79804 0.173129
-0.0234281 7.94801 0.176459
-0.0238701 8.09797 0.179788
-0.0243122 8.24793 0.183118
-0.0247542 8.39789 0.186447
-0.0251963 8.54786 0.189777
-0.0256383 8.69782 0.193106
-0.0260803 8.84778 0.196435
-0.0265224 8.99774 0.199765
-0.0269644 9.14771 0.203094
-0.0274065 9.29767 0.206424
-0.0278485 9.44763 0.209753
-0.0282905 9.59759 0.213082
-0.0287326 9.74756 0.216412
-0.0291746 9.89752 0.219741
0.0243927 0.147971 0.00310709
0.0487853 0.295942 0.00621419
0.073178 0.443912 0.00932128
0.0975707 0.591883 0.0124284
0.121963 0.739854 0.0155355
0.146356 0.887825 0.0186426
0.170749 1.0358 0.0217497
0.195141 1.18377 0.0248567
0.219534 1.33174 0.0279638
0.243927 1.47971 0.0310709
0.268319 1.62768 0.034178
0.292712 1.77565 0.0372851
0.317105 1.92362 0.0403922
0.341497 2.07159 0.0434993
0.36589 2.21956 0.0466064
0.390283 2.36753 0.0497135
0.414675 2.5155 0.0528206
0.439068 2.66347 0.0559277
0.463461 2.81144 0.0590348
0.487853 2.95942 0.0621419
0.512246 3.10739 0.065249
0.536639 3.25536 0.0683561
0.561031 3.40333 0.0714631
0.585424 3.5513 0.0745702
0.609817 3.69927 0.0776773
0.634209 3.84724 0.0807844
0.658602 3.99521 0.0838915
0.682995 4.14318 0.0869986
0.707387 4.29115 0.0901057
0.73178 4.43912 0.0932128
0.756173 4.58709 0.0963199
0.780565 4.73506 0.099427
0.804958 4.88303 0.102534
0.829351 5.03101 0.105641
0.853743 5.17898 0.108748
0.878136 5.32695 0.111855
0.902529 5.47492 0.114962
0.926921 5.62289 0.11807
0.951314 5.77086 0.121177
0.975707 5.91883 0.124284
1.0001 6.0668 0.127391
1.02449 6.21477 0.130498
1.04888 6.36274 0.133605
1.07328 6.51071 0.136712
1.09767 6.65868 0.139819
1.12206 6.80665 0.142926
1.14646 6.95463 0.146033
1.17085 7.1026 0.14914
1.19524 7.25057 0.152248
1.21963 7.39854 0.155355
1.24403 7.54651 0.158462
1.26842 7.69448 0.161569
1.29281 7.84245 0.164676
1.3172 7.99042 0.167783
1.3416 8.13839 0.17089
1.36599 8.28636 0.173997
1.39038 8.43433 0.177104
1.41477 8.5823 0.180211
1.43917 8.73027 0.183319
1.46356 8.87825 0.186426
1.48795 9.02622 0.189533
1.51235 9.17419 0.19264
1.53674 9.32216 0.195747
1.56113 9.47013 0.198854
1.58552 9.6181 0.201961
1.60992 9.76607 0.205068
-0.120952 -0.0819699 0.0339348
-0.241904 -0.16394 0.0678696
-0.362856 -0.24591 0.101804
-0.483808 -0.32788 0.135739
-0.604759 -0.40985 0.169674
-0.725711 -0.49182 0.203609
-0.846663 -0.57379 0.237544
-0.967615 -0.655759 0.271479
-1.08857 -0.737729 0.305413
-1.20952 -0.819699 0.339348
-1.33047 -0.901669 0.373283
-1.45142 -0.983639 0.407218
-1.57237 -1.06561 0.441153
-1.69333 -1.14758 0.475087
-1.81428 -1.22955 0.509022
-1.93523 -1.31152 0.542957
-2.05618 -1.39349 0.576892
-2.17713 -1.47546 0.610827
-2.29809 -1.55743 0.644762
-2.41904 -1.6394 0.678696
-2.53999 -1.72137 0.712631
-2.66094 -1.80334 0.746566
-2.78189 -1.88531 0.780501
-2.90285 -1.96728 0.814436
-3.0238 -2.04925 0.84837
-3.14475 -2.13122 0.882305
-3.2657 -2.21319 0.91624
-3.38665 -2.29516 0.950175
-3.5076 -2.37713 0.98411
-3.62856 -2.4591 1.01804
-3.74951 -2.54107 1.05198
-3.87046 -2.62304 1.08591
-3.99141 -2.70501 1.11985
-4.11236 -2.78698 1.15378
-4.23332 -2.86895 1.18772
-4.35427 -2.95092 1.22165
-4.47522 -3.03289 1.25559
-4.59617 -3.11486 1.28952
-4.71712 -3.19683 1.32346
-4.83808 -3.2788 1.35739
-4.95903 -3.36077 1.39133
-5.07998 -3.44274 1.42526
-5.20093 -3.52471 1.4592
-5.32188 -3.60668 1.49313
-5.44283 -3.68865 1.52707
-5.56379 -3.77062 1.561
-5.68474 -3.85259 1.59494
-5.80569 -3.93456 1.62887
-5.92664 -4.01653 1.66281
-6.04759 -4.0985 1.69674
-6.16855 -4.18047 1.73068
-6.2895 -4.26244 1.76461
-6.41045 -4.34441 1.79855
-6.5314 -4.42638 1.83248
-6.65235 -4.50835 1.86641
-6.77331 -4.59032 1.90035
-6.89426 -4.67229 1.93428
-7.01521 -4.75426 1.96822
-7.13616 -4.83623 2.00215
-7.25711 -4.9182 2.03609
-7.37806 -5.00017 2.07002
-7.49902 -5.08214 2.10396
-7.61997 -5.16411 2.13789
-7.74092 -5.24608 2.17183
-7.86187 -5.32805 2.20576
-7.98282 -5.41002 2.2397
-0.124863 -0.0767064 0.0320199
-0.249727 -0.153413 0.0640398
-0.37459 -0.230119 0.0960597
-0.499453 -0.306825 0.12808
-0.624317 -0.383532 0.1601
-0.74918 -0.460238 0.192119
-0.874043 -0.536945 0.224139
-0.998907 -0.613651 0.256159
-1.12377 -0.690357 0.288179
-1.24863 -0.767064 0.320199
-1.3735 -0.84377 0.352219
-1.49836 -0.920476 0.384239
-1.62322 -0.997183 0.416259
-1.74809 -1.07389 0.448279
-1.87295 -1.1506 0.480299
-1.99781 -1.2273 0.512319
-2.12268 -1.30401 0.544339
-2.24754 -1.38071 0.576358
-2.3724 -1.45742 0.608378
-2.49727 -1.53413 0.640398
-2.62213 -1.61083 0.672418
-2.74699 -1.68754 0.704438
-2.87186 -1.76425 0.736458
-2.99672 -1.84095 0.768478
-3.12158 -1.91766 0.800498
-3.24645 -1.99437 0.832518
-3.37131 -2.07107 0.864538
-3.49617 -2.14778 0.896558
-3.62104 -2.22448 0.928578
-3.7459 -2.30119 0.960597
-3.87076 -2.3779 0.992617
-3.99563 -2.4546 1.02464
-4.12049 -2.53131 1.05666
-4.24535 -2.60802 1.08868
-4.37022 -2.68472 1.1207
-4.49508 -2.76143 1.15272
-4.61994 -2.83814 1.18474
-4.74481 -2.91484 1.21676
-4.86967 -2.99155 1.24878
-4.99453 -3.06825 1.2808
-5.1194 -3.14496 1.31282
-5.24426 -3.22167 1.34484
-5.36912 -3.29837 1.37686
-5.49399 -3.37508 1.40888
-5.61885 -3.45179 1.4409
-5.74371 -3.52849 1.47292
-5.86858 -3.6052 1.50494
-5.99344 -3.68191 1.53696
-6.1183 -3.75861 1.56898
-6.24317 -3.83532 1.601
-6.36803 -3.91202 1.63302
-6.49289 -3.98873 1.66504
-6.61776 -4.06544 1.69706
-6.74262 -4.14214 1.72908
-6.86748 -4.21885 1.7611
-6.99235 -4.29556 1.79312
-7.11721 -4.37226 1.82514
-7.24207 -4.44897 1.85716
-7.36694 -4.52568 1.88917
-7.4918 -4.60238 1.92119
-7.61666 -4.67909 1.95321
-7.74153 -4.75579 1.98523
-7.86639 -4.8325 2.01725
-7.99125 -4.90921 2.04927
-8.11612 -4.98591 2.08129
-8.24098 -5.06262 2.11331
