ply
format ascii 1.0
element vertex 897
property float x
property float y
property float z
end_header
0 0 0
-0.208549 -0.438347 -0.119828
-0.271114 -0.569852 -0.155777
-0.333678 -0.701356 -0.191725
-0.396243 -0.83286 -0.227674
-0.458808 -0.964364 -0.263622
-0.521372 -1.09587 -0.299571
-0.583937 -1.22737 -0.335519
-0.646502 -1.35888 -0.371468
-0.709066 -1.49038 -0.407416
-0.771631 -1.62189 -0.443365
-0.834196 -1.75339 -0.479313
-0.89676 -1.88489 -0.515262
-0.959325 -2.0164 -0.55121
-1.02189 -2.1479 -0.587159
-1.08445 -2.27941 -0.623107
-1.14702 -2.41091 -0.659056
-1.20958 -2.54242 -0.695004
-1.27215 -2.67392 -0.730953
-1.33471 -2.80542 -0.766901
-1.39728 -2.93693 -0.80285
-1.45984 -3.06843 -0.838798
-1.52241 -3.19994 -0.874747
-1.58497 -3.33144 -0.910695
-1.64754 -3.46295 -0.946644
-1.7101 -3.59445 -0.982592
-1.77267 -3.72595 -1.01854
-1.83523 -3.85746 -1.05449
-1.8978 -3.98896 -1.09044
-1.96036 -4.12047 -1.12639
-2.02292 -4.25197 -1.16233
-2.08549 -4.38347 -1.19828
-2.14805 -4.51498 -1.23423
-2.21062 -4.64648 -1.27018
-2.27318 -4.77799 -1.30613
-2.33575 -4.90949 -1.34208
-2.39831 -5.041 -1.37803
-2.46088 -5.1725 -1.41397
-2.52344 -5.304 -1.44992
-2.58601 -5.43551 -1.48587
-2.64857 -5.56701 -1.52182
-2.71114 -5.69852 -1.55777
-2.7737 -5.83002 -1.59372
-2.83627 -5.96153 -1.62967
-2.89883 -6.09303 -1.66561
-2.96139 -6.22453 -1.70156
-3.02396 -6.35604 -1.73751
-3.08652 -6.48754 -1.77346
-3.14909 -6.61905 -1.80941
-3.21165 -6.75055 -1.84536
-3.27422 -6.88206 -1.88131
-3.33678 -7.01356 -1.91725
-3.39935 -7.14506 -1.9532
-3.46191 -7.27657 -1.98915
-3.52448 -7.40807 -2.0251
-3.58704 -7.53958 -2.06105
-3.64961 -7.67108 -2.097
-3.71217 -7.80259 -2.13294
-3.77474 -7.93409 -2.16889
-3.8373 -8.06559 -2.20484
-3.89986 -8.1971 -2.24079
-3.96243 -8.3286 -2.27674
-4.02499 -8.46011 -2.31269
-4.08756 -8.59161 -2.34864
-4.15012 -8.72311 -2.38458
-0.148284 -0.460302 -0.127019
-0.192769 -0.598393 -0.165124
-0.237255 -0.736483 -0.20323
-0.28174 -0.874574 -0.241336
-0.326225 -1.01266 -0.279441
-0.37071 -1.15076 -0.317547
-0.415196 -1.28885 -0.355653
-0.459681 -1.42694 -0.393758
-0.504166 -1.56503 -0.431864
-0.548651 -1.70312 -0.46997
-0.593137 -1.84121 -0.508075
-0.637622 -1.9793 -0.546181
-0.682107 -2.11739 -0.584287
-0.726593 -2.25548 -0.622392
-0.771078 -2.39357 -0.660498
-0.815563 -2.53166 -0.698604
-0.860048 -2.66975 -0.736709
-0.904534 -2.80784 -0.774815
-0.949019 -2.94593 -0.812921
-0.993504 -3.08402 -0.851026
-1.03799 -3.22211 -0.889132
-1.08247 -3.36021 -0.927237
-1.12696 -3.4983 -0.965343
-1.17145 -3.63639 -1.00345
-1.21593 -3.77448 -1.04155
-1.26042 -3.91257 -1.07966
-1.3049 -4.05066 -1.11777
-1.34939 -4.18875 -1.15587
-1.39387 -4.32684 -1.19398
-1.43836 -4.46493 -1.23208
-1.48284 -4.60302 -1.27019
-1.52733 -4.74111 -1.30829
-1.57181 -4.8792 -1.3464
-1.6163 -5.01729 -1.38451
-1.66078 -5.15538 -1.42261
-1.70527 -5.29347 -1.46072
-1.74975 -5.43156 -1.49882
-1.79424 -5.56966 -1.53693
-1.83872 -5.70775 -1.57503
-1.88321 -5.84584 -1.61314
-1.92769 -5.98393 -1.65124
-1.97218 -6.12202 -1.68935
-2.01666 -6.26011 -1.72746
-2.06115 -6.3982 -1.76556
-2.10564 -6.53629 -1.80367
-2.15012 -6.67438 -1.84177
-2.19461 -6.81247 -1.87988
-2.23909 -6.95056 -1.91798
-2.28358 -7.08865 -1.95609
-2.32806 -7.22674 -1.9942
-2.37255 -7.36483 -2.0323
-2.41703 -7.50292 -2.07041
-2.46152 -7.64101 -2.10851
-2.506 -7.77911 -2.14662
-2.55049 -7.9172 -2.18472
-2.59497 -8.05529 -2.22283
-2.63946 -8.19338 -2.26094
-2.68394 -8.33147 -2.29904
-2.72843 -8.46956 -2.33715
-2.77291 -8.60765 -2.37525
-2.8174 -8.74574 -2.41336
-2.86188 -8.88383 -2.45146
-2.90637 -9.02192 -2.48957
-2.95086 -9.16001 -2.52767
-0.134843 -0.4635 -0.130328
-0.175296 -0.60255 -0.169427
-0.215748 -0.7416 -0.208525
-0.256201 -0.880649 -0.247624
-0.296654 -1.0197 -0.286722
-0.337107 -1.15875 -0.32582
-0.37756 -1.2978 -0.364919
-0.418013 -1.43685 -0.404017
-0.458465 -1.5759 -0.443116
-0.498918 -1.71495 -0.482214
-0.539371 -1.854 -0.521313
-0.579824 -1.99305 -0.560411
-0.620277 -2.1321 -0.59951
-0.660729 -2.27115 -0.638608
-0.701182 -2.4102 -0.677707
-0.741635 -2.54925 -0.716805
-0.782088 -2.6883 -0.755903
-0.822541 -2.82735 -0.795002
-0.862994 -2.9664 -0.8341
-0.903446 -3.10545 -0.873199
-0.943899 -3.2445 -0.912297
-0.984352 -3.38355 -0.951396
-1.0248 -3.5226 -0.990494
-1.06526 -3.66165 -1.02959
-1.10571 -3.8007 -1.06869
-1.14616 -3.93975 -1.10779
-1.18662 -4.0788 -1.14689
-1.22707 -4.21785 -1.18599
-1.26752 -4.3569 -1.22508
-1.30797 -4.49595 -1.26418
-1.34843 -4.635 -1.30328
-1.38888 -4.77405 -1.34238
-1.42933 -4.9131 -1.38148
-1.46979 -5.05215 -1.42058
-1.51024 -5.1912 -1.45968
-1.55069 -5.33025 -1.49877
-1.59114 -5.4693 -1.53787
-1.6316 -5.60835 -1.57697
-1.67205 -5.7474 -1.61607
-1.7125 -5.88645 -1.65517
-1.75296 -6.0255 -1.69427
-1.79341 -6.16455 -1.73336
-1.83386 -6.3036 -1.77246
-1.87431 -6.44265 -1.81156
-1.91477 -6.5817 -1.85066
-1.95522 -6.72075 -1.88976
-1.99567 -6.8598 -1.92886
-2.03613 -6.99885 -1.96796
-2.07658 -7.1379 -2.00705
-2.11703 -7.27695 -2.04615
-2.15748 -7.416 -2.08525
-2.19794 -7.55505 -2.12435
-2.23839 -7.6941 -2.16345
-2.27884 -7.83315 -2.20255
-2.3193 -7.9722 -2.24164
-2.35975 -8.11125 -2.28074
-2.4002 -8.2503 -2.31984
-2.44065 -8.38935 -2.35894
-2.48111 -8.5284 -2.39804
-2.52156 -8.66744 -2.43714
-2.56201 -8.80649 -2.47624
-2.60247 -8.94554 -2.51533
-2.64292 -9.08459 -2.55443
-2.68337 -9.22364 -2.59353
-0.0734157 -0.476186 -0.133631
-0.0954403 -0.619041 -0.173721
-0.117465 -0.761897 -0.21381
-0.13949 -0.904753 -0.2539
-0.161514 -1.04761 -0.293989
-0.183539 -1.19046 -0.334079
-0.205564 -1.33332 -0.374168
-0.227589 -1.47618 -0.414257
-0.249613 -1.61903 -0.454347
-0.271638 -1.76189 -0.494436
-0.293663 -1.90474 -0.534526
-0.315687 -2.0476 -0.574615
-0.337712 -2.19045 -0.614704
-0.359737 -2.33331 -0.654794
-0.381761 -2.47617 -0.694883
-0.403786 -2.61902 -0.734973
-0.425811 -2.76188 -0.775062
-0.447835 -2.90473 -0.815152
-0.46986 -3.04759 -0.855241
-0.491885 -3.19044 -0.89533
-0.51391 -3.3333 -0.93542
-0.535934 -3.47616 -0.975509
-0.557959 -3.61901 -1.0156
-0.579984 -3.76187 -1.05569
-0.602008 -3.90472 -1.09578
-0.624033 -4.04758 -1.13587
-0.646058 -4.19043 -1.17596
-0.668082 -4.33329 -1.21605
-0.690107 -4.47615 -1.25614
-0.712132 -4.619 -1.29622
-0.734157 -4.76186 -1.33631
-0.756181 -4.90471 -1.3764
-0.778206 -5.04757 -1.41649
-0.800231 -5.19042 -1.45658
-0.822255 -5.33328 -1.49667
-0.84428 -5.47614 -1.53676
-0.866305 -5.61899 -1.57685
-0.888329 -5.76185 -1.61694
-0.910354 -5.9047 -1.65703
-0.932379 -6.04756 -1.69712
-0.954403 -6.19041 -1.73721
-0.976428 -6.33327 -1.7773
-0.998453 -6.47613 -1.81739
-1.02048 -6.61898 -1.85748
-1.0425 -6.76184 -1.89757
-1.06453 -6.90469 -1.93766
-1.08655 -7.04755 -1.97774
-1.10858 -7.1904 -2.01783
-1.1306 -7.33326 -2.05792
-1.15263 -7.47611 -2.09801
-1.17465 -7.61897 -2.1381
-1.19668 -7.76183 -2.17819
-1.2187 -7.90468 -2.21828
-1.24072 -8.04754 -2.25837
-1.26275 -8.19039 -2.29846
-1.28477 -8.33325 -2.33855
-1.3068 -8.4761 -2.37864
-1.32882 -8.61896 -2.41873
-1.35085 -8.76182 -2.45882
-1.37287 -8.90467 -2.49891
-1.3949 -9.04753 -2.539
-1.41692 -9.19038 -2.57909
-1.43895 -9.33324 -2.61918
-1.46097 -9.47609 -2.65927
0.473845 0.0864054 0.134181
0.615999 0.112327 0.174436
0.758153 0.138249 0.21469
0.900306 0.16417 0.254945
1.04246 0.190092 0.295199
1.18461 0.216013 0.335453
1.32677 0.241935 0.375708
1.46892 0.267857 0.415962
1.61107 0.293778 0.456217
1.75323 0.3197 0.496471
1.89538 0.345622 0.536725
2.03754 0.371543 0.57698
2.17969 0.397465 0.617234
2.32184 0.423386 0.657489
2.464 0.449308 0.697743
2.60615 0.47523 0.737997
2.7483 0.501151 0.778252
2.89046 0.527073 0.818506
3.03261 0.552995 0.858761
3.17476 0.578916 0.899015
3.31692 0.604838 0.939269
3.45907 0.630759 0.979524
3.60123 0.656681 1.01978
3.74338 0.682603 1.06003
3.88553 0.708524 1.10029
4.02769 0.734446 1.14054
4.16984 0.760367 1.1808
4.31199 0.786289 1.22105
4.45415 0.812211 1.2613
4.5963 0.838132 1.30156
4.73845 0.864054 1.34181
4.88061 0.889976 1.38207
5.02276 0.915897 1.42232
5.16491 0.941819 1.46258
5.30707 0.96774 1.50283
5.44922 0.993662 1.54309
5.59138 1.01958 1.58334
5.73353 1.04551 1.62359
5.87568 1.07143 1.66385
6.01784 1.09735 1.7041
6.15999 1.12327 1.74436
6.30214 1.14919 1.78461
6.4443 1.17511 1.82487
6.58645 1.20103 1.86512
6.7286 1.22696 1.90538
6.87076 1.25288 1.94563
7.01291 1.2788 1.98588
7.15507 1.30472 2.02614
7.29722 1.33064 2.06639
7.43937 1.35656 2.10665
7.58153 1.38249 2.1469
7.72368 1.40841 2.18716
7.86583 1.43433 2.22741
8.00799 1.46025 2.26766
8.15014 1.48617 2.30792
8.29229 1.51209 2.34817
8.43445 1.53802 2.38843
8.5766 1.56394 2.42868
8.71876 1.58986 2.46894
8.86091 1.61578 2.50919
9.00306 1.6417 2.54945
9.14522 1.66762 2.5897
9.28737 1.69355 2.62995
9.42952 1.71947 2.67021
0.481052 -0.0241831 0.134181
0.625367 -0.031438 0.174436
0.769682 -0.0386929 0.21469
0.913998 -0.0459478 0.254945
1.05831 -0.0532027 0.295199
1.20263 -0.0604576 0.335453
1.34694 -0.0677126 0.375708
1.49126 -0.0749675 0.415962
1.63558 -0.0822224 0.456217
1.77989 -0.0894773 0.496471
1.92421 -0.0967322 0.536725
2.06852 -0.103987 0.57698
2.21284 -0.111242 0.617234
2.35715 -0.118497 0.657489
2.50147 -0.125752 0.697743
2.64578 -0.133007 0.737997
2.7901 -0.140262 0.778252
2.93441 -0.147517 0.818506
3.07873 -0.154772 0.858761
3.22305 -0.162026 0.899015
3.36736 -0.169281 0.939269
3.51168 -0.176536 0.979524
3.65599 -0.183791 1.01978
3.80031 -0.191046 1.06003
3.94462 -0.198301 1.10029
4.08894 -0.205556 1.14054
4.23325 -0.212811 1.1808
4.37757 -0.220066 1.22105
4.52188 -0.227321 1.2613
4.6662 -0.234576 1.30156
4.81052 -0.241831 1.34181
4.95483 -0.249085 1.38207
5.09915 -0.25634 1.42232
5.24346 -0.263595 1.46258
5.38778 -0.27085 1.50283
5.53209 -0.278105 1.54309
5.67641 -0.28536 1.58334
5.82072 -0.292615 1.62359
5.96504 -0.29987 1.66385
6.10935 -0.307125 1.7041
6.25367 -0.31438 1.74436
6.39798 -0.321635 1.78461
6.5423 -0.32889 1.82487
6.68662 -0.336144 1.86512
6.83093 -0.343399 1.90538
6.97525 -0.350654 1.94563
7.11956 -0.357909 1.98588
7.26388 -0.365164 2.02614
7.40819 -0.372419 2.06639
7.55251 -0.379674 2.10665
7.69682 -0.386929 2.1469
7.84114 -0.394184 2.18716
7.98545 -0.401439 2.22741
8.12977 -0.408694 2.26766
8.27409 -0.415949 2.30792
8.4184 -0.423203 2.34817
8.56272 -0.430458 2.38843
8.70703 -0.437713 2.42868
8.85135 -0.444968 2.46894
8.99566 -0.452223 2.50919
9.13998 -0.459478 2.54945
9.28429 -0.466733 2.5897
9.42861 -0.473988 2.62995
9.57292 -0.481243 2.67021
0.459542 0.0854244 -0.177549
0.597405 0.111052 -0.230813
0.735268 0.136679 -0.284078
0.87313 0.162306 -0.337343
1.01099 0.187934 -0.390607
1.14886 0.213561 -0.443872
1.28672 0.239188 -0.497136
1.42458 0.264816 -0.550401
1.56244 0.290443 -0.603666
1.70031 0.31607 -0.65693
1.83817 0.341698 -0.710195
1.97603 0.367325 -0.76346
2.11389 0.392952 -0.816724
2.25176 0.418579 -0.869989
2.38962 0.444207 -0.923253
2.52748 0.469834 -0.976518
2.66535 0.495461 -1.02978
2.80321 0.521089 -1.08305
2.94107 0.546716 -1.13631
3.07893 0.572343 -1.18958
3.2168 0.597971 -1.24284
3.35466 0.623598 -1.29611
3.49252 0.649225 -1.34937
3.63038 0.674853 -1.40264
3.76825 0.70048 -1.4559
3.90611 0.726107 -1.50916
4.04397 0.751735 -1.56243
4.18183 0.777362 -1.61569
4.3197 0.802989 -1.66896
4.45756 0.828616 -1.72222
4.59542 0.854244 -1.77549
4.73329 0.879871 -1.82875
4.87115 0.905498 -1.88202
5.00901 0.931126 -1.93528
5.14687 0.956753 -1.98855
5.28474 0.98238 -2.04181
5.4226 1.00801 -2.09508
5.56046 1.03363 -2.14834
5.69832 1.05926 -2.2016
5.83619 1.08489 -2.25487
5.97405 1.11052 -2.30813
6.11191 1.13614 -2.3614
6.24978 1.16177 -2.41466
6.38764 1.1874 -2.46793
6.5255 1.21303 -2.52119
6.66336 1.23865 -2.57446
6.80123 1.26428 -2.62772
6.93909 1.28991 -2.68099
7.07695 1.31554 -2.73425
7.21481 1.34116 -2.78752
7.35268 1.36679 -2.84078
7.49054 1.39242 -2.89404
7.6284 1.41804 -2.94731
7.76626 1.44367 -3.00057
7.90413 1.4693 -3.05384
8.04199 1.49493 -3.1071
8.17985 1.52055 -3.16037
8.31772 1.54618 -3.21363
8.45558 1.57181 -3.2669
8.59344 1.59744 -3.32016
8.7313 1.62306 -3.37343
8.86917 1.64869 -3.42669
9.00703 1.67432 -3.47996
9.14489 1.69995 -3.53322
0.466132 -0.0250337 -0.179148
0.605972 -0.0325438 -0.232893
0.745811 -0.0400539 -0.286638
0.885651 -0.0475641 -0.340382
1.02549 -0.0550742 -0.394127
1.16533 -0.0625843 -0.447871
1.30517 -0.0700944 -0.501616
1.44501 -0.0776045 -0.55536
1.58485 -0.0851146 -0.609105
1.72469 -0.0926248 -0.662849
1.86453 -0.100135 -0.716594
2.00437 -0.107645 -0.770338
2.14421 -0.115155 -0.824083
2.28405 -0.122665 -0.877827
2.42389 -0.130175 -0.931572
2.56373 -0.137685 -0.985316
2.70357 -0.145196 -1.03906
2.84341 -0.152706 -1.09281
2.98325 -0.160216 -1.14655
3.12309 -0.167726 -1.20029
3.26292 -0.175236 -1.25404
3.40276 -0.182746 -1.30778
3.5426 -0.190256 -1.36153
3.68244 -0.197766 -1.41527
3.82228 -0.205276 -1.46902
3.96212 -0.212787 -1.52276
4.10196 -0.220297 -1.57651
4.2418 -0.227807 -1.63025
4.38164 -0.235317 -1.684
4.52148 -0.242827 -1.73774
4.66132 -0.250337 -1.79148
4.80116 -0.257847 -1.84523
4.941 -0.265357 -1.89897
5.08084 -0.272868 -1.95272
5.22068 -0.280378 -2.00646
5.36052 -0.287888 -2.06021
5.50036 -0.295398 -2.11395
5.6402 -0.302908 -2.1677
5.78004 -0.310418 -2.22144
5.91988 -0.317928 -2.27519
6.05972 -0.325438 -2.32893
6.19956 -0.332948 -2.38267
6.3394 -0.340459 -2.43642
6.47924 -0.347969 -2.49016
6.61908 -0.355479 -2.54391
6.75892 -0.362989 -2.59765
6.89876 -0.370499 -2.6514
7.03859 -0.378009 -2.70514
7.17843 -0.385519 -2.75889
7.31827 -0.393029 -2.81263
7.45811 -0.400539 -2.86638
7.59795 -0.40805 -2.92012
7.73779 -0.41556 -2.97386
7.87763 -0.42307 -3.02761
8.01747 -0.43058 -3.08135
8.15731 -0.43809 -3.1351
8.29715 -0.4456 -3.18884
8.43699 -0.45311 -3.24259
8.57683 -0.46062 -3.29633
8.71667 -0.468131 -3.35008
8.85651 -0.475641 -3.40382
8.99635 -0.483151 -3.45757
9.13619 -0.490661 -3.51131
9.27603 -0.498171 -3.56505
0.00698902 0.470912 0.167907
0.00908573 0.612186 0.21828
0.0111824 0.753459 0.268652
0.0132791 0.894733 0.319024
0.0153759 1.03601 0.369396
0.0174726 1.17728 0.419768
0.0195693 1.31855 0.470141
0.021666 1.45983 0.520513
0.0237627 1.6011 0.570885
0.0258594 1.74237 0.621257
0.0279561 1.88365 0.67163
0.0300528 2.02492 0.722002
0.0321495 2.1662 0.772374
0.0342462 2.30747 0.822746
0.0363429 2.44874 0.873118
0.0384396 2.59002 0.923491
0.0405363 2.73129 0.973863
0.0426331 2.87256 1.02424
0.0447298 3.01384 1.07461
0.0468265 3.15511 1.12498
0.0489232 3.29639 1.17535
0.0510199 3.43766 1.22572
0.0531166 3.57893 1.2761
0.0552133 3.72021 1.32647
0.05731 3.86148 1.37684
0.0594067 4.00275 1.42721
0.0615034 4.14403 1.47759
0.0636001 4.2853 1.52796
0.0656968 4.42657 1.57833
0.0677935 4.56785 1.6287
0.0698902 4.70912 1.67907
0.071987 4.8504 1.72945
0.0740837 4.99167 1.77982
0.0761804 5.13294 1.83019
0.0782771 5.27422 1.88056
0.0803738 5.41549 1.93094
0.0824705 5.55676 1.98131
0.0845672 5.69804 2.03168
0.0866639 5.83931 2.08205
0.0887606 5.98058 2.13242
0.0908573 6.12186 2.1828
0.092954 6.26313 2.23317
0.0950507 6.40441 2.28354
0.0971474 6.54568 2.33391
0.0992442 6.68695 2.38429
0.101341 6.82823 2.43466
0.103438 6.9695 2.48503
0.105534 7.11077 2.5354
0.107631 7.25205 2.58577
0.109728 7.39332 2.63615
0.111824 7.53459 2.68652
0.113921 7.67587 2.73689
0.116018 7.81714 2.78726
0.118115 7.95842 2.83764
0.120211 8.09969 2.88801
0.122308 8.24096 2.93838
0.124405 8.38224 2.98875
0.126501 8.52351 3.03912
0.128598 8.66478 3.0895
0.130695 8.80606 3.13987
0.132791 8.94733 3.19024
0.134888 9.0886 3.24061
0.136985 9.22988 3.29099
0.139082 9.37115 3.34136
0.0809124 0.464735 0.165755
0.105186 0.604155 0.215482
0.12946 0.743576 0.265208
0.153734 0.882996 0.314935
0.178007 1.02242 0.364661
0.202281 1.16184 0.414388
0.226555 1.30126 0.464114
0.250828 1.44068 0.513841
0.275102 1.5801 0.563567
0.299376 1.71952 0.613294
0.32365 1.85894 0.66302
0.347923 1.99836 0.712747
0.372197 2.13778 0.762473
0.396471 2.2772 0.8122
0.420745 2.41662 0.861927
0.445018 2.55604 0.911653
0.469292 2.69546 0.96138
0.493566 2.83488 1.01111
0.517839 2.9743 1.06083
0.542113 3.11372 1.11056
0.566387 3.25314 1.16029
0.590661 3.39256 1.21001
0.614934 3.53198 1.25974
0.639208 3.6714 1.30947
0.663482 3.81083 1.35919
0.687756 3.95025 1.40892
0.712029 4.08967 1.45864
0.736303 4.22909 1.50837
0.760577 4.36851 1.5581
0.78485 4.50793 1.60782
0.809124 4.64735 1.65755
0.833398 4.78677 1.70728
0.857672 4.92619 1.757
0.881945 5.06561 1.80673
0.906219 5.20503 1.85646
0.930493 5.34445 1.90618
0.954766 5.48387 1.95591
0.97904 5.62329 2.00564
1.00331 5.76271 2.05536
1.02759 5.90213 2.10509
1.05186 6.04155 2.15482
1.07614 6.18097 2.20454
1.10041 6.32039 2.25427
1.12468 6.45981 2.304
1.14896 6.59923 2.35372
1.17323 6.73865 2.40345
1.1975 6.87807 2.45318
1.22178 7.0175 2.5029
1.24605 7.15692 2.55263
1.27032 7.29634 2.60236
1.2946 7.43576 2.65208
1.31887 7.57518 2.70181
1.34315 7.7146 2.75153
1.36742 7.85402 2.80126
1.39169 7.99344 2.85099
1.41597 8.13286 2.90071
1.44024 8.27228 2.95044
1.46451 8.4117 3.00017
1.48879 8.55112 3.04989
1.51306 8.69054 3.09962
1.53734 8.82996 3.14935
1.56161 8.96938 3.19907
1.58588 9.1088 3.2488
1.61016 9.24822 3.29853
0.00627255 0.49949 0.021683
0.00815431 0.649337 0.0281879
0.0100361 0.799184 0.0346928
0.0119178 0.949031 0.0411976
0.0137996 1.09888 0.0477025
0.0156814 1.24873 0.0542074
0.0175631 1.39857 0.0607123
0.0194449 1.54842 0.0672172
0.0213267 1.69827 0.0737221
0.0232084 1.84811 0.080227
0.0250902 1.99796 0.0867319
0.026972 2.14781 0.0932368
0.0288537 2.29766 0.0997417
0.0307355 2.4475 0.106247
0.0326172 2.59735 0.112751
0.034499 2.7472 0.119256
0.0363808 2.89704 0.125761
0.0382625 3.04689 0.132266
0.0401443 3.19674 0.138771
0.0420261 3.34658 0.145276
0.0439078 3.49643 0.151781
0.0457896 3.64628 0.158286
0.0476714 3.79613 0.164791
0.0495531 3.94597 0.171295
0.0514349 4.09582 0.1778
0.0533167 4.24567 0.184305
0.0551984 4.39551 0.19081
0.0570802 4.54536 0.197315
0.0589619 4.69521 0.20382
0.0608437 4.84506 0.210325
0.0627255 4.9949 0.21683
0.0646072 5.14475 0.223335
0.066489 5.2946 0.22984
0.0683708 5.44444 0.236344
0.0702525 5.59429 0.242849
0.0721343 5.74414 0.249354
0.0740161 5.89398 0.255859
0.0758978 6.04383 0.262364
0.0777796 6.19368 0.268869
0.0796614 6.34353 0.275374
0.0815431 6.49337 0.281879
0.0834249 6.64322 0.288384
0.0853066 6.79307 0.294888
0.0871884 6.94291 0.301393
0.0890702 7.09276 0.307898
0.0909519 7.24261 0.314403
0.0928337 7.39246 0.320908
0.0947155 7.5423 0.327413
0.0965972 7.69215 0.333918
0.098479 7.842 0.340423
0.100361 7.99184 0.346928
0.102243 8.14169 0.353432
0.104124 8.29154 0.359937
0.106006 8.44139 0.366442
0.107888 8.59123 0.372947
0.10977 8.74108 0.379452
0.111651 8.89093 0.385957
0.113533 9.04077 0.392462
0.115415 9.19062 0.398967
0.117297 9.34047 0.405472
0.119178 9.49031 0.411976
0.12106 9.64016 0.418481
0.122942 9.79001 0.424986
0.124824 9.93986 0.431491
0.0800695 0.493143 0.0199721
0.10409 0.641086 0.0259637
0.128111 0.789029 0.0319554
0.152132 0.936972 0.037947
0.176153 1.08491 0.0439386
0.200174 1.23286 0.0499303
0.224194 1.3808 0.0559219
0.248215 1.52874 0.0619135
0.272236 1.67669 0.0679052
0.296257 1.82463 0.0738968
0.320278 1.97257 0.0798884
0.344299 2.12051 0.0858801
0.368319 2.26846 0.0918717
0.39234 2.4164 0.0978633
0.416361 2.56434 0.103855
0.440382 2.71229 0.109847
0.464403 2.86023 0.115838
0.488424 3.00817 0.12183
0.512445 3.15612 0.127821
0.536465 3.30406 0.133813
0.560486 3.452 0.139805
0.584507 3.59994 0.145796
0.608528 3.74789 0.151788
0.632549 3.89583 0.15778
0.65657 4.04377 0.163771
0.68059 4.19172 0.169763
0.704611 4.33966 0.175755
0.728632 4.4876 0.181746
0.752653 4.63554 0.187738
0.776674 4.78349 0.193729
0.800695 4.93143 0.199721
0.824715 5.07937 0.205713
0.848736 5.22732 0.211704
0.872757 5.37526 0.217696
0.896778 5.5232 0.223688
0.920799 5.67114 0.229679
0.94482 5.81909 0.235671
0.96884 5.96703 0.241663
0.992861 6.11497 0.247654
1.01688 6.26292 0.253646
1.0409 6.41086 0.259637
1.06492 6.5588 0.265629
1.08894 6.70674 0.271621
1.11297 6.85469 0.277612
1.13699 7.00263 0.283604
1.16101 7.15057 0.289596
1.18503 7.29852 0.295587
1.20905 7.44646 0.301579
1.23307 7.5944 0.30757
1.25709 7.74234 0.313562
1.28111 7.89029 0.319554
1.30513 8.03823 0.325545
1.32915 8.18617 0.331537
1.35317 8.33412 0.337529
1.37719 8.48206 0.34352
1.40122 8.63 0.349512
1.42524 8.77795 0.355504
1.44926 8.92589 0.361495
1.47328 9.07383 0.367487
1.4973 9.22177 0.373478
1.52132 9.36972 0.37947
1.54534 9.51766 0.385462
1.56936 9.6656 0.391453
1.59338 9.81355 0.397445
-0.40262 -0.269687 0.12315
-0.523406 -0.350593 0.160096
-0.644192 -0.4315 0.197041
-0.764978 -0.512406 0.233986
-0.885764 -0.593312 0.270931
-1.00655 -0.674218 0.307876
-1.12734 -0.755124 0.344821
-1.24812 -0.836031 0.381766
-1.36891 -0.916937 0.418711
-1.48969 -0.997843 0.455657
-1.61048 -1.07875 0.492602
-1.73127 -1.15966 0.529547
-1.85205 -1.24056 0.566492
-1.97284 -1.32147 0.603437
-2.09362 -1.40237 0.640382
-2.21441 -1.48328 0.677327
-2.3352 -1.56419 0.714272
-2.45598 -1.64509 0.751217
-2.57677 -1.726 0.788163
-2.69755 -1.8069 0.825108
-2.81834 -1.88781 0.862053
-2.93912 -1.96872 0.898998
-3.05991 -2.04962 0.935943
-3.1807 -2.13053 0.972888
-3.30148 -2.21144 1.00983
-3.42227 -2.29234 1.04678
-3.54305 -2.37325 1.08372
-3.66384 -2.45415 1.12067
-3.78463 -2.53506 1.15761
-3.90541 -2.61597 1.19456
-4.0262 -2.69687 1.2315
-4.14698 -2.77778 1.26845
-4.26777 -2.85869 1.30539
-4.38856 -2.93959 1.34234
-4.50934 -3.0205 1.37928
-4.63013 -3.1014 1.41623
-4.75091 -3.18231 1.45317
-4.8717 -3.26322 1.49012
-4.99249 -3.34412 1.52707
-5.11327 -3.42503 1.56401
-5.23406 -3.50593 1.60096
-5.35484 -3.58684 1.6379
-5.47563 -3.66775 1.67485
-5.59642 -3.74865 1.71179
-5.7172 -3.82956 1.74874
-5.83799 -3.91047 1.78568
-5.95877 -3.99137 1.82263
-6.07956 -4.07228 1.85957
-6.20035 -4.15318 1.89652
-6.32113 -4.23409 1.93346
-6.44192 -4.315 1.97041
-6.5627 -4.3959 2.00735
-6.68349 -4.47681 2.0443
-6.80428 -4.55772 2.08124
-6.92506 -4.63862 2.11819
-7.04585 -4.71953 2.15513
-7.16663 -4.80043 2.19208
-7.28742 -4.88134 2.22902
-7.40821 -4.96225 2.26597
-7.52899 -5.04315 2.30291
-7.64978 -5.12406 2.33986
-7.77056 -5.20496 2.3768
-7.89135 -5.28587 2.41375
-8.01213 -5.36678 2.45069
-0.419499 -0.246903 0.114279
-0.545348 -0.320974 0.148563
-0.671198 -0.395045 0.182847
-0.797048 -0.469116 0.21713
-0.922897 -0.543187 0.251414
-1.04875 -0.617257 0.285698
-1.1746 -0.691328 0.319982
-1.30045 -0.765399 0.354265
-1.4263 -0.83947 0.388549
-1.55215 -0.913541 0.422833
-1.67799 -0.987612 0.457117
-1.80384 -1.06168 0.4914
-1.92969 -1.13575 0.525684
-2.05554 -1.20982 0.559968
-2.18139 -1.2839 0.594252
-2.30724 -1.35797 0.628535
-2.43309 -1.43204 0.662819
-2.55894 -1.50611 0.697103
-2.68479 -1.58018 0.731387
-2.81064 -1.65425 0.76567
-2.93649 -1.72832 0.799954
-3.06234 -1.80239 0.834238
-3.18819 -1.87646 0.868522
-3.31404 -1.95053 0.902805
-3.43989 -2.0246 0.937089
-3.56574 -2.09868 0.971373
-3.69159 -2.17275 1.00566
-3.81744 -2.24682 1.03994
-3.94329 -2.32089 1.07422
-4.06914 -2.39496 1.10851
-4.19499 -2.46903 1.14279
-4.32084 -2.5431 1.17708
-4.44669 -2.61717 1.21136
-4.57254 -2.69124 1.24564
-4.69839 -2.76531 1.27993
-4.82424 -2.83938 1.31421
-4.95008 -2.91346 1.34849
-5.07593 -2.98753 1.38278
-5.20178 -3.0616 1.41706
-5.32763 -3.13567 1.45135
-5.45348 -3.20974 1.48563
-5.57933 -3.28381 1.51991
-5.70518 -3.35788 1.5542
-5.83103 -3.43195 1.58848
-5.95688 -3.50602 1.62276
-6.08273 -3.58009 1.65705
-6.20858 -3.65416 1.69133
-6.33443 -3.72824 1.72562
-6.46028 -3.80231 1.7599
-6.58613 -3.87638 1.79418
-6.71198 -3.95045 1.82847
-6.83783 -4.02452 1.86275
-6.96368 -4.09859 1.89703
-7.08953 -4.17266 1.93132
-7.21538 -4.24673 1.9656
-7.34123 -4.3208 1.99989
-7.46708 -4.39487 2.03417
-7.59293 -4.46894 2.06845
-7.71878 -4.54302 2.10274
-7.84463 -4.61709 2.13702
-7.97048 -4.69116 2.1713
-8.09633 -4.76523 2.20559
-8.22218 -4.8393 2.23987
-8.34802 -4.91337 2.27416
