ply
format ascii 1.0
element vertex 897
property float x
property float y
property float z
end_header
0 0 0
-0.195358 -0.440945 -0.131918
-0.253965 -0.573229 -0.171493
-0.312573 -0.705513 -0.211069
-0.37118 -0.837796 -0.250644
-0.429788 -0.97008 -0.29022
-0.488395 -1.10236 -0.329795
-0.547002 -1.23465 -0.36937
-0.60561 -1.36693 -0.408946
-0.664217 -1.49921 -0.448521
-0.722825 -1.6315 -0.488096
-0.781432 -1.76378 -0.527672
-0.840039 -1.89607 -0.567247
-0.898647 -2.02835 -0.606823
-0.957254 -2.16063 -0.646398
-1.01586 -2.29292 -0.685973
-1.07447 -2.4252 -0.725549
-1.13308 -2.55748 -0.765124
-1.19168 -2.68977 -0.8047
-1.25029 -2.82205 -0.844275
-1.3089 -2.95433 -0.88385
-1.36751 -3.08662 -0.923426
-1.42611 -3.2189 -0.963001
-1.48472 -3.35119 -1.00258
-1.54333 -3.48347 -1.04215
-1.60194 -3.61575 -1.08173
-1.66054 -3.74804 -1.1213
-1.71915 -3.88032 -1.16088
-1.77776 -4.0126 -1.20045
-1.83637 -4.14489 -1.24003
-1.89497 -4.27717 -1.2796
-1.95358 -4.40945 -1.31918
-2.01219 -4.54174 -1.35876
-2.07079 -4.67402 -1.39833
-2.1294 -4.80631 -1.43791
-2.18801 -4.93859 -1.47748
-2.24662 -5.07087 -1.51706
-2.30522 -5.20316 -1.55663
-2.36383 -5.33544 -1.59621
-2.42244 -5.46772 -1.63578
-2.48105 -5.60001 -1.67536
-2.53965 -5.73229 -1.71493
-2.59826 -5.86457 -1.75451
-2.65687 -5.99686 -1.79408
-2.71548 -6.12914 -1.83366
-2.77408 -6.26143 -1.87324
-2.83269 -6.39371 -1.91281
-2.8913 -6.52599 -1.95239
-2.94991 -6.65828 -1.99196
-3.00851 -6.79056 -2.03154
-3.06712 -6.92284 -2.07111
-3.12573 -7.05513 -2.11069
-3.18434 -7.18741 -2.15026
-3.24294 -7.31969 -2.18984
-3.30155 -7.45198 -2.22941
-3.36016 -7.58426 -2.26899
-3.41877 -7.71655 -2.30856
-3.47737 -7.84883 -2.34814
-3.53598 -7.98111 -2.38772
-3.59459 -8.1134 -2.42729
-3.65319 -8.24568 -2.46687
-3.7118 -8.37796 -2.50644
-3.77041 -8.51025 -2.54602
-3.82902 -8.64253 -2.58559
-3.88762 -8.77481 -2.62517
-0.141675 -0.45901 -0.138701
-0.184178 -0.596713 -0.180311
-0.22668 -0.734416 -0.221922
-0.269183 -0.872119 -0.263532
-0.311685 -1.00982 -0.305142
-0.354188 -1.14752 -0.346753
-0.39669 -1.28523 -0.388363
-0.439193 -1.42293 -0.429973
-0.481695 -1.56063 -0.471584
-0.524198 -1.69834 -0.513194
-0.5667 -1.83604 -0.554804
-0.609203 -1.97374 -0.596415
-0.651705 -2.11145 -0.638025
-0.694208 -2.24915 -0.679635
-0.736711 -2.38685 -0.721246
-0.779213 -2.52455 -0.762856
-0.821716 -2.66226 -0.804466
-0.864218 -2.79996 -0.846077
-0.906721 -2.93766 -0.887687
-0.949223 -3.07537 -0.929297
-0.991726 -3.21307 -0.970908
-1.03423 -3.35077 -1.01252
-1.07673 -3.48848 -1.05413
-1.11923 -3.62618 -1.09574
-1.16174 -3.76388 -1.13735
-1.20424 -3.90158 -1.17896
-1.24674 -4.03929 -1.22057
-1.28924 -4.17699 -1.26218
-1.33175 -4.31469 -1.30379
-1.37425 -4.4524 -1.3454
-1.41675 -4.5901 -1.38701
-1.45925 -4.7278 -1.42862
-1.50176 -4.86551 -1.47023
-1.54426 -5.00321 -1.51184
-1.58676 -5.14091 -1.55345
-1.62926 -5.27861 -1.59506
-1.67177 -5.41632 -1.63667
-1.71427 -5.55402 -1.67828
-1.75677 -5.69172 -1.71989
-1.79927 -5.82943 -1.7615
-1.84178 -5.96713 -1.80311
-1.88428 -6.10483 -1.84472
-1.92678 -6.24254 -1.88633
-1.96928 -6.38024 -1.92795
-2.01179 -6.51794 -1.96956
-2.05429 -6.65564 -2.01117
-2.09679 -6.79335 -2.05278
-2.13929 -6.93105 -2.09439
-2.1818 -7.06875 -2.136
-2.2243 -7.20646 -2.17761
-2.2668 -7.34416 -2.21922
-2.3093 -7.48186 -2.26083
-2.35181 -7.61957 -2.30244
-2.39431 -7.75727 -2.34405
-2.43681 -7.89497 -2.38566
-2.47931 -8.03267 -2.42727
-2.52182 -8.17038 -2.46888
-2.56432 -8.30808 -2.51049
-2.60682 -8.44578 -2.5521
-2.64932 -8.58349 -2.59371
-2.69183 -8.72119 -2.63532
-2.73433 -8.85889 -2.67693
-2.77683 -8.9966 -2.71854
-2.81933 -9.1343 -2.76015
-0.122343 -0.46423 -0.139723
-0.159047 -0.603499 -0.181639
-0.19575 -0.742768 -0.223556
-0.232453 -0.882037 -0.265473
-0.269156 -1.02131 -0.30739
-0.305859 -1.16058 -0.349306
-0.342562 -1.29984 -0.391223
-0.379265 -1.43911 -0.43314
-0.415968 -1.57838 -0.475057
-0.452671 -1.71765 -0.516973
-0.489374 -1.85692 -0.55889
-0.526077 -1.99619 -0.600807
-0.56278 -2.13546 -0.642724
-0.599483 -2.27473 -0.684641
-0.636186 -2.414 -0.726557
-0.672889 -2.55327 -0.768474
-0.709592 -2.69254 -0.810391
-0.746295 -2.8318 -0.852308
-0.782998 -2.97107 -0.894224
-0.819701 -3.11034 -0.936141
-0.856404 -3.24961 -0.978058
-0.893107 -3.38888 -1.01997
-0.92981 -3.52815 -1.06189
-0.966513 -3.66742 -1.10381
-1.00322 -3.80669 -1.14572
-1.03992 -3.94596 -1.18764
-1.07662 -4.08523 -1.22956
-1.11333 -4.22449 -1.27148
-1.15003 -4.36376 -1.31339
-1.18673 -4.50303 -1.35531
-1.22343 -4.6423 -1.39723
-1.26014 -4.78157 -1.43914
-1.29684 -4.92084 -1.48106
-1.33354 -5.06011 -1.52298
-1.37025 -5.19938 -1.56489
-1.40695 -5.33865 -1.60681
-1.44365 -5.47792 -1.64873
-1.48036 -5.61719 -1.69064
-1.51706 -5.75645 -1.73256
-1.55376 -5.89572 -1.77448
-1.59047 -6.03499 -1.81639
-1.62717 -6.17426 -1.85831
-1.66387 -6.31353 -1.90023
-1.70057 -6.4528 -1.94214
-1.73728 -6.59207 -1.98406
-1.77398 -6.73134 -2.02598
-1.81068 -6.87061 -2.06789
-1.84739 -7.00988 -2.10981
-1.88409 -7.14915 -2.15173
-1.92079 -7.28841 -2.19364
-1.9575 -7.42768 -2.23556
-1.9942 -7.56695 -2.27748
-2.0309 -7.70622 -2.31939
-2.0676 -7.84549 -2.36131
-2.10431 -7.98476 -2.40323
-2.14101 -8.12403 -2.44514
-2.17771 -8.2633 -2.48706
-2.21442 -8.40257 -2.52898
-2.25112 -8.54184 -2.5709
-2.28782 -8.6811 -2.61281
-2.32453 -8.82037 -2.65473
-2.36123 -8.95964 -2.69665
-2.39793 -9.09891 -2.73856
-2.43464 -9.23818 -2.78048
-0.0626539 -0.474759 -0.143799
-0.08145 -0.617187 -0.186939
-0.100246 -0.759615 -0.230078
-0.119042 -0.902043 -0.273218
-0.137838 -1.04447 -0.316358
-0.156635 -1.1869 -0.359497
-0.175431 -1.32933 -0.402637
-0.194227 -1.47175 -0.445776
-0.213023 -1.61418 -0.488916
-0.231819 -1.75661 -0.532056
-0.250615 -1.89904 -0.575195
-0.269412 -2.04146 -0.618335
-0.288208 -2.18389 -0.661475
-0.307004 -2.32632 -0.704614
-0.3258 -2.46875 -0.747754
-0.344596 -2.61118 -0.790894
-0.363392 -2.7536 -0.834033
-0.382189 -2.89603 -0.877173
-0.400985 -3.03846 -0.920313
-0.419781 -3.18089 -0.963452
-0.438577 -3.32332 -1.00659
-0.457373 -3.46574 -1.04973
-0.476169 -3.60817 -1.09287
-0.494965 -3.7506 -1.13601
-0.513762 -3.89303 -1.17915
-0.532558 -4.03545 -1.22229
-0.551354 -4.17788 -1.26543
-0.57015 -4.32031 -1.30857
-0.588946 -4.46274 -1.35171
-0.607742 -4.60517 -1.39485
-0.626539 -4.74759 -1.43799
-0.645335 -4.89002 -1.48113
-0.664131 -5.03245 -1.52427
-0.682927 -5.17488 -1.56741
-0.701723 -5.3173 -1.61055
-0.720519 -5.45973 -1.65369
-0.739316 -5.60216 -1.69683
-0.758112 -5.74459 -1.73997
-0.776908 -5.88702 -1.78311
-0.795704 -6.02944 -1.82625
-0.8145 -6.17187 -1.86939
-0.833296 -6.3143 -1.91252
-0.852092 -6.45673 -1.95566
-0.870889 -6.59915 -1.9988
-0.889685 -6.74158 -2.04194
-0.908481 -6.88401 -2.08508
-0.927277 -7.02644 -2.12822
-0.946073 -7.16887 -2.17136
-0.964869 -7.31129 -2.2145
-0.983666 -7.45372 -2.25764
-1.00246 -7.59615 -2.30078
-1.02126 -7.73858 -2.34392
-1.04005 -7.881 -2.38706
-1.05885 -8.02343 -2.4302
-1.07765 -8.16586 -2.47334
-1.09644 -8.30829 -2.51648
-1.11524 -8.45072 -2.55962
-1.13403 -8.59314 -2.60276
-1.15283 -8.73557 -2.6459
-1.17163 -8.878 -2.68904
-1.19042 -9.02043 -2.73218
-1.20922 -9.16285 -2.77532
-1.22802 -9.30528 -2.81846
-1.24681 -9.44771 -2.8616
0.474123 0.100685 0.122758
0.61636 0.130891 0.159586
0.758597 0.161097 0.196413
0.900834 0.191302 0.233241
1.04307 0.221508 0.270068
1.18531 0.251713 0.306896
1.32755 0.281919 0.343723
1.46978 0.312124 0.380551
1.61202 0.34233 0.417378
1.75426 0.372536 0.454206
1.89649 0.402741 0.491033
2.03873 0.432947 0.527861
2.18097 0.463152 0.564688
2.3232 0.493358 0.601516
2.46544 0.523564 0.638343
2.60768 0.553769 0.675171
2.74991 0.583975 0.711998
2.89215 0.61418 0.748826
3.03439 0.644386 0.785654
3.17663 0.674592 0.822481
3.31886 0.704797 0.859309
3.4611 0.735003 0.896136
3.60334 0.765208 0.932964
3.74557 0.795414 0.969791
3.88781 0.82562 1.00662
4.03005 0.855825 1.04345
4.17228 0.886031 1.08027
4.31452 0.916236 1.1171
4.45676 0.946442 1.15393
4.599 0.976648 1.19076
4.74123 1.00685 1.22758
4.88347 1.03706 1.26441
5.02571 1.06726 1.30124
5.16794 1.09747 1.33807
5.31018 1.12768 1.37489
5.45242 1.15788 1.41172
5.59465 1.18809 1.44855
5.73689 1.21829 1.48538
5.87913 1.2485 1.5222
6.02137 1.2787 1.55903
6.1636 1.30891 1.59586
6.30584 1.33911 1.63269
6.44808 1.36932 1.66951
6.59031 1.39953 1.70634
6.73255 1.42973 1.74317
6.87479 1.45994 1.78
7.01702 1.49014 1.81682
7.15926 1.52035 1.85365
7.3015 1.55055 1.89048
7.44373 1.58076 1.92731
7.58597 1.61097 1.96413
7.72821 1.64117 2.00096
7.87045 1.67138 2.03779
8.01268 1.70158 2.07462
8.15492 1.73179 2.11144
8.29716 1.76199 2.14827
8.43939 1.7922 2.1851
8.58163 1.8224 2.22193
8.72387 1.85261 2.25875
8.8661 1.88282 2.29558
9.00834 1.91302 2.33241
9.15058 1.94323 2.36924
9.29282 1.97343 2.40606
9.43505 2.00364 2.44289
0.484919 -0.0128845 0.121193
0.630394 -0.0167499 0.157551
0.77587 -0.0206152 0.193909
0.921346 -0.0244806 0.230267
1.06682 -0.0283459 0.266625
1.2123 -0.0322113 0.302983
1.35777 -0.0360766 0.339341
1.50325 -0.039942 0.375699
1.64872 -0.0438074 0.412057
1.7942 -0.0476727 0.448416
1.93967 -0.0515381 0.484774
2.08515 -0.0554034 0.521132
2.23063 -0.0592688 0.55749
2.3761 -0.0631341 0.593848
2.52158 -0.0669995 0.630206
2.66705 -0.0708648 0.666564
2.81253 -0.0747302 0.702922
2.958 -0.0785956 0.73928
3.10348 -0.0824609 0.775638
3.24896 -0.0863263 0.811996
3.39443 -0.0901916 0.848354
3.53991 -0.094057 0.884712
3.68538 -0.0979223 0.92107
3.83086 -0.101788 0.957428
3.97633 -0.105653 0.993786
4.12181 -0.109518 1.03014
4.26728 -0.113384 1.0665
4.41276 -0.117249 1.10286
4.55824 -0.121114 1.13922
4.70371 -0.12498 1.17558
4.84919 -0.128845 1.21193
4.99466 -0.132711 1.24829
5.14014 -0.136576 1.28465
5.28561 -0.140441 1.32101
5.43109 -0.144307 1.35737
5.57657 -0.148172 1.39372
5.72204 -0.152037 1.43008
5.86752 -0.155903 1.46644
6.01299 -0.159768 1.5028
6.15847 -0.163633 1.53916
6.30394 -0.167499 1.57551
6.44942 -0.171364 1.61187
6.59489 -0.175229 1.64823
6.74037 -0.179095 1.68459
6.88585 -0.18296 1.72095
7.03132 -0.186826 1.7573
7.1768 -0.190691 1.79366
7.32227 -0.194556 1.83002
7.46775 -0.198422 1.86638
7.61322 -0.202287 1.90274
7.7587 -0.206152 1.93909
7.90417 -0.210018 1.97545
8.04965 -0.213883 2.01181
8.19513 -0.217748 2.04817
8.3406 -0.221614 2.08453
8.48608 -0.225479 2.12088
8.63155 -0.229344 2.15724
8.77703 -0.23321 2.1936
8.9225 -0.237075 2.22996
9.06798 -0.24094 2.26632
9.21346 -0.244806 2.30267
9.35893 -0.248671 2.33903
9.50441 -0.252537 2.37539
9.64988 -0.256402 2.41175
0.453922 0.0929651 -0.187916
0.590098 0.120855 -0.244291
0.726275 0.148744 -0.300666
0.862451 0.176634 -0.357041
0.998628 0.204523 -0.413415
1.1348 0.232413 -0.46979
1.27098 0.260302 -0.526165
1.40716 0.288192 -0.58254
1.54333 0.316081 -0.638915
1.67951 0.343971 -0.69529
1.81569 0.37186 -0.751664
1.95186 0.39975 -0.808039
2.08804 0.427639 -0.864414
2.22422 0.455529 -0.920789
2.36039 0.483419 -0.977164
2.49657 0.511308 -1.03354
2.63275 0.539198 -1.08991
2.76892 0.567087 -1.14629
2.9051 0.594977 -1.20266
3.04128 0.622866 -1.25904
3.17745 0.650756 -1.31541
3.31363 0.678645 -1.37179
3.44981 0.706535 -1.42816
3.58598 0.734424 -1.48454
3.72216 0.762314 -1.54091
3.85834 0.790203 -1.59729
3.99451 0.818093 -1.65366
4.13069 0.845982 -1.71004
4.26687 0.873872 -1.76641
4.40304 0.901762 -1.82279
4.53922 0.929651 -1.87916
4.67539 0.957541 -1.93554
4.81157 0.98543 -1.99191
4.94775 1.01332 -2.04829
5.08392 1.04121 -2.10466
5.2201 1.0691 -2.16104
5.35628 1.09699 -2.21741
5.49245 1.12488 -2.27379
5.62863 1.15277 -2.33016
5.76481 1.18066 -2.38653
5.90098 1.20855 -2.44291
6.03716 1.23644 -2.49928
6.17334 1.26433 -2.55566
6.30951 1.29221 -2.61203
6.44569 1.3201 -2.66841
6.58187 1.34799 -2.72478
6.71804 1.37588 -2.78116
6.85422 1.40377 -2.83753
6.9904 1.43166 -2.89391
7.12657 1.45955 -2.95028
7.26275 1.48744 -3.00666
7.39893 1.51533 -3.06303
7.5351 1.54322 -3.11941
7.67128 1.57111 -3.17578
7.80746 1.599 -3.23216
7.94363 1.62689 -3.28853
8.07981 1.65478 -3.34491
8.21598 1.68267 -3.40128
8.35216 1.71056 -3.45766
8.48834 1.73845 -3.51403
8.62451 1.76634 -3.57041
8.76069 1.79423 -3.62678
8.89687 1.82212 -3.68316
9.03304 1.85001 -3.73953
0.464917 -0.0132341 -0.183514
0.604392 -0.0172043 -0.238568
0.743867 -0.0211746 -0.293622
0.883342 -0.0251448 -0.348677
1.02282 -0.0291151 -0.403731
1.16229 -0.0330853 -0.458785
1.30177 -0.0370555 -0.513839
1.44124 -0.0410258 -0.568893
1.58072 -0.044996 -0.623948
1.72019 -0.0489662 -0.679002
1.85967 -0.0529365 -0.734056
1.99914 -0.0569067 -0.78911
2.13862 -0.0608769 -0.844164
2.27809 -0.0648472 -0.899219
2.41757 -0.0688174 -0.954273
2.55704 -0.0727876 -1.00933
2.69652 -0.0767579 -1.06438
2.83599 -0.0807281 -1.11944
2.97547 -0.0846983 -1.17449
3.11494 -0.0886686 -1.22954
3.25442 -0.0926388 -1.2846
3.39389 -0.096609 -1.33965
3.53337 -0.100579 -1.39471
3.67284 -0.104549 -1.44976
3.81232 -0.10852 -1.50481
3.95179 -0.11249 -1.55987
4.09127 -0.11646 -1.61492
4.23074 -0.12043 -1.66998
4.37022 -0.124401 -1.72503
4.50969 -0.128371 -1.78009
4.64917 -0.132341 -1.83514
4.78864 -0.136311 -1.89019
4.92812 -0.140282 -1.94525
5.06759 -0.144252 -2.0003
5.20707 -0.148222 -2.05536
5.34654 -0.152192 -2.11041
5.48602 -0.156163 -2.16547
5.62549 -0.160133 -2.22052
5.76497 -0.164103 -2.27557
5.90444 -0.168073 -2.33063
6.04392 -0.172043 -2.38568
6.18339 -0.176014 -2.44074
6.32287 -0.179984 -2.49579
6.46234 -0.183954 -2.55084
6.60182 -0.187924 -2.6059
6.74129 -0.191895 -2.66095
6.88077 -0.195865 -2.71601
7.02024 -0.199835 -2.77106
7.15972 -0.203805 -2.82612
7.29919 -0.207776 -2.88117
7.43867 -0.211746 -2.93622
7.57814 -0.215716 -2.99128
7.71762 -0.219686 -3.04633
7.85709 -0.223657 -3.10139
7.99657 -0.227627 -3.15644
8.13604 -0.231597 -3.21149
8.27552 -0.235567 -3.26655
8.41499 -0.239537 -3.3216
8.55447 -0.243508 -3.37666
8.69394 -0.247478 -3.43171
8.83342 -0.251448 -3.48677
8.97289 -0.255418 -3.54182
9.11237 -0.259389 -3.59687
9.25184 -0.263359 -3.65193
-0.000578898 0.476003 0.153037
-0.000752568 0.618804 0.198949
-0.000926237 0.761605 0.24486
-0.00109991 0.904406 0.290771
-0.00127358 1.04721 0.336682
-0.00144725 1.19001 0.382594
-0.00162091 1.33281 0.428505
-0.00179458 1.47561 0.474416
-0.00196825 1.61841 0.520327
-0.00214192 1.76121 0.566239
-0.00231559 1.90401 0.61215
-0.00248926 2.04681 0.658061
-0.00266293 2.18962 0.703972
-0.0028366 2.33242 0.749884
-0.00301027 2.47522 0.795795
-0.00318394 2.61802 0.841706
-0.00335761 2.76082 0.887617
-0.00353128 2.90362 0.933529
-0.00370495 3.04642 0.97944
-0.00387862 3.18922 1.02535
-0.00405229 3.33202 1.07126
-0.00422596 3.47482 1.11717
-0.00439963 3.61763 1.16308
-0.00457329 3.76043 1.209
-0.00474696 3.90323 1.25491
-0.00492063 4.04603 1.30082
-0.0050943 4.18883 1.34673
-0.00526797 4.33163 1.39264
-0.00544164 4.47443 1.43855
-0.00561531 4.61723 1.48446
-0.00578898 4.76003 1.53037
-0.00596265 4.90283 1.57629
-0.00613632 5.04564 1.6222
-0.00630999 5.18844 1.66811
-0.00648366 5.33124 1.71402
-0.00665733 5.47404 1.75993
-0.006831 5.61684 1.80584
-0.00700467 5.75964 1.85175
-0.00717834 5.90244 1.89766
-0.00735201 6.04524 1.94358
-0.00752568 6.18804 1.98949
-0.00769934 6.33084 2.0354
-0.00787301 6.47365 2.08131
-0.00804668 6.61645 2.12722
-0.00822035 6.75925 2.17313
-0.00839402 6.90205 2.21904
-0.00856769 7.04485 2.26495
-0.00874136 7.18765 2.31087
-0.00891503 7.33045 2.35678
-0.0090887 7.47325 2.40269
-0.00926237 7.61605 2.4486
-0.00943604 7.75885 2.49451
-0.00960971 7.90166 2.54042
-0.00978338 8.04446 2.58633
-0.00995705 8.18726 2.63224
-0.0101307 8.33006 2.67816
-0.0103044 8.47286 2.72407
-0.0104781 8.61566 2.76998
-0.0106517 8.75846 2.81589
-0.0108254 8.90126 2.8618
-0.0109991 9.04406 2.90771
-0.0111727 9.18686 2.95362
-0.0113464 9.32967 2.99953
-0.0115201 9.47247 3.04545
0.0692485 0.470784 0.153514
0.090023 0.61202 0.199569
0.110798 0.753255 0.245623
0.131572 0.89449 0.291677
0.152347 1.03573 0.337731
0.173121 1.17696 0.383786
0.193896 1.3182 0.42984
0.21467 1.45943 0.475894
0.235445 1.60067 0.521949
0.256219 1.7419 0.568003
0.276994 1.88314 0.614057
0.297768 2.02437 0.660112
0.318543 2.16561 0.706166
0.339317 2.30684 0.75222
0.360092 2.44808 0.798274
0.380867 2.58931 0.844329
0.401641 2.73055 0.890383
0.422416 2.87179 0.936437
0.44319 3.01302 0.982492
0.463965 3.15426 1.02855
0.484739 3.29549 1.0746
0.505514 3.43673 1.12065
0.526288 3.57796 1.16671
0.547063 3.7192 1.21276
0.567837 3.86043 1.25882
0.588612 4.00167 1.30487
0.609386 4.1429 1.35093
0.630161 4.28414 1.39698
0.650936 4.42537 1.44303
0.67171 4.56661 1.48909
0.692485 4.70784 1.53514
0.713259 4.84908 1.5812
0.734034 4.99032 1.62725
0.754808 5.13155 1.67331
0.775583 5.27279 1.71936
0.796357 5.41402 1.76541
0.817132 5.55526 1.81147
0.837906 5.69649 1.85752
0.858681 5.83773 1.90358
0.879455 5.97896 1.94963
0.90023 6.1202 1.99569
0.921005 6.26143 2.04174
0.941779 6.40267 2.08779
0.962554 6.5439 2.13385
0.983328 6.68514 2.1799
1.0041 6.82637 2.22596
1.02488 6.96761 2.27201
1.04565 7.10885 2.31807
1.06643 7.25008 2.36412
1.0872 7.39132 2.41017
1.10798 7.53255 2.45623
1.12875 7.67379 2.50228
1.14952 7.81502 2.54834
1.1703 7.95626 2.59439
1.19107 8.09749 2.64045
1.21185 8.23873 2.6865
1.23262 8.37996 2.73255
1.2534 8.5212 2.77861
1.27417 8.66243 2.82466
1.29495 8.80367 2.87072
1.31572 8.9449 2.91677
1.3365 9.08614 2.96283
1.35727 9.22738 3.00888
1.37804 9.36861 3.05493
-0.00147347 0.499875 0.011098
-0.00191551 0.649837 0.0144275
-0.00235754 0.799799 0.0177569
-0.00279958 0.949762 0.0210863
-0.00324162 1.09972 0.0244157
-0.00368366 1.24969 0.0277451
-0.0041257 1.39965 0.0310745
-0.00456774 1.54961 0.0344039
-0.00500978 1.69957 0.0377333
-0.00545182 1.84954 0.0410628
-0.00589386 1.9995 0.0443922
-0.0063359 2.14946 0.0477216
-0.00677794 2.29942 0.051051
-0.00721998 2.44939 0.0543804
-0.00766202 2.59935 0.0577098
-0.00810406 2.74931 0.0610392
-0.0085461 2.89927 0.0643686
-0.00898814 3.04924 0.0676981
-0.00943018 3.1992 0.0710275
-0.00987222 3.34916 0.0743569
-0.0103143 3.49912 0.0776863
-0.0107563 3.64908 0.0810157
-0.0111983 3.79905 0.0843451
-0.0116404 3.94901 0.0876745
-0.0120824 4.09897 0.0910039
-0.0125245 4.24893 0.0943333
-0.0129665 4.3989 0.0976628
-0.0134085 4.54886 0.100992
-0.0138506 4.69882 0.104322
-0.0142926 4.84878 0.107651
-0.0147347 4.99875 0.11098
-0.0151767 5.14871 0.11431
-0.0156187 5.29867 0.117639
-0.0160608 5.44863 0.120969
-0.0165028 5.5986 0.124298
-0.0169449 5.74856 0.127627
-0.0173869 5.89852 0.130957
-0.0178289 6.04848 0.134286
-0.018271 6.19845 0.137616
-0.018713 6.34841 0.140945
-0.0191551 6.49837 0.144275
-0.0195971 6.64833 0.147604
-0.0200391 6.7983 0.150933
-0.0204812 6.94826 0.154263
-0.0209232 7.09822 0.157592
-0.0213653 7.24818 0.160922
-0.0218073 7.39814 0.164251
-0.0222493 7.54811 0.16758
-0.0226914 7.69807 0.17091
-0.0231334 7.84803 0.174239
-0.0235754 7.99799 0.177569
-0.0240175 8.14796 0.180898
-0.0244595 8.29792 0.184227
-0.0249016 8.44788 0.187557
-0.0253436 8.59784 0.190886
-0.0257856 8.74781 0.194216
-0.0262277 8.89777 0.197545
-0.0266697 9.04773 0.200875
-0.0271118 9.19769 0.204204
-0.0275538 9.34766 0.207533
-0.0279958 9.49762 0.210863
-0.0284379 9.64758 0.214192
-0.0288799 9.79754 0.217522
-0.029322 9.94751 0.220851
0.0813089 0.493236 0.010357
0.105702 0.641207 0.0134641
0.130094 0.789177 0.0165712
0.154487 0.937148 0.0196783
0.17888 1.08512 0.0227854
0.203272 1.23309 0.0258924
0.227665 1.38106 0.0289995
0.252058 1.52903 0.0321066
0.27645 1.677 0.0352137
0.300843 1.82497 0.0383208
0.325236 1.97294 0.0414279
0.349628 2.12091 0.044535
0.374021 2.26888 0.0476421
0.398414 2.41686 0.0507492
0.422806 2.56483 0.0538563
0.447199 2.7128 0.0569634
0.471592 2.86077 0.0600705
0.495984 3.00874 0.0631776
0.520377 3.15671 0.0662847
0.54477 3.30468 0.0693918
0.569162 3.45265 0.0724988
0.593555 3.60062 0.0756059
0.617948 3.74859 0.078713
0.64234 3.89656 0.0818201
0.666733 4.04453 0.0849272
0.691126 4.1925 0.0880343
0.715518 4.34048 0.0911414
0.739911 4.48845 0.0942485
0.764304 4.63642 0.0973556
0.788696 4.78439 0.100463
0.813089 4.93236 0.10357
0.837482 5.08033 0.106677
0.861874 5.2283 0.109784
0.886267 5.37627 0.112891
0.91066 5.52424 0.115998
0.935052 5.67221 0.119105
0.959445 5.82018 0.122212
0.983838 5.96815 0.125319
1.00823 6.11612 0.128427
1.03262 6.2641 0.131534
1.05702 6.41207 0.134641
1.08141 6.56004 0.137748
1.1058 6.70801 0.140855
1.13019 6.85598 0.143962
1.15459 7.00395 0.147069
1.17898 7.15192 0.150176
1.20337 7.29989 0.153283
1.22776 7.44786 0.15639
1.25216 7.59583 0.159497
1.27655 7.7438 0.162605
1.30094 7.89177 0.165712
1.32534 8.03974 0.168819
1.34973 8.18771 0.171926
1.37412 8.33569 0.175033
1.39851 8.48366 0.17814
1.42291 8.63163 0.181247
1.4473 8.7796 0.184354
1.47169 8.92757 0.187461
1.49608 9.07554 0.190568
1.52048 9.22351 0.193675
1.54487 9.37148 0.196783
1.56926 9.51945 0.19989
1.59365 9.66742 0.202997
1.61805 9.81539 0.206104
-0.403173 -0.273233 0.113116
-0.524125 -0.355203 0.147051
-0.645077 -0.437173 0.180986
-0.766029 -0.519143 0.214921
-0.88698 -0.601113 0.248855
-1.00793 -0.683083 0.28279
-1.12888 -0.765053 0.316725
-1.24984 -0.847023 0.35066
-1.37079 -0.928993 0.384595
-1.49174 -1.01096 0.418529
-1.61269 -1.09293 0.452464
-1.73364 -1.1749 0.486399
-1.8546 -1.25687 0.520334
-1.97555 -1.33884 0.554269
-2.0965 -1.42081 0.588203
-2.21745 -1.50278 0.622138
-2.3384 -1.58475 0.656073
-2.45935 -1.66672 0.690008
-2.58031 -1.74869 0.723943
-2.70126 -1.83066 0.757878
-2.82221 -1.91263 0.791812
-2.94316 -1.9946 0.825747
-3.06411 -2.07657 0.859682
-3.18507 -2.15854 0.893617
-3.30602 -2.24051 0.927552
-3.42697 -2.32248 0.961486
-3.54792 -2.40445 0.995421
-3.66887 -2.48642 1.02936
-3.78983 -2.56839 1.06329
-3.91078 -2.65036 1.09723
-4.03173 -2.73233 1.13116
-4.15268 -2.8143 1.1651
-4.27363 -2.89627 1.19903
-4.39459 -2.97824 1.23297
-4.51554 -3.06021 1.2669
-4.63649 -3.14218 1.30083
-4.75744 -3.22415 1.33477
-4.87839 -3.30612 1.3687
-4.99934 -3.38809 1.40264
-5.1203 -3.47006 1.43657
-5.24125 -3.55203 1.47051
-5.3622 -3.634 1.50444
-5.48315 -3.71597 1.53838
-5.6041 -3.79794 1.57231
-5.72506 -3.87991 1.60625
-5.84601 -3.96188 1.64018
-5.96696 -4.04385 1.67412
-6.08791 -4.12582 1.70805
-6.20886 -4.20779 1.74199
-6.32982 -4.28976 1.77592
-6.45077 -4.37173 1.80986
-6.57172 -4.4537 1.84379
-6.69267 -4.53567 1.87773
-6.81362 -4.61764 1.91166
-6.93457 -4.69961 1.9456
-7.05553 -4.78158 1.97953
-7.17648 -4.86355 2.01347
-7.29743 -4.94552 2.0474
-7.41838 -5.02749 2.08134
-7.53933 -5.10946 2.11527
-7.66029 -5.19143 2.14921
-7.78124 -5.2734 2.18314
-7.90219 -5.35537 2.21707
-8.02314 -5.43734 2.25101
-0.416211 -0.255688 0.106733
-0.541075 -0.332394 0.138753
-0.665938 -0.409101 0.170773
-0.790801 -0.485807 0.202793
-0.915665 -0.562513 0.234813
-1.04053 -0.63922 0.266833
-1.16539 -0.715926 0.298853
-1.29025 -0.792632 0.330872
-1.41512 -0.869339 0.362892
-1.53998 -0.946045 0.394912
-1.66484 -1.02275 0.426932
-1.78971 -1.09946 0.458952
-1.91457 -1.17616 0.490972
-2.03943 -1.25287 0.522992
-2.1643 -1.32958 0.555012
-2.28916 -1.40628 0.587032
-2.41402 -1.48299 0.619052
-2.53889 -1.5597 0.651072
-2.66375 -1.6364 0.683092
-2.78861 -1.71311 0.715111
-2.91348 -1.78982 0.747131
-3.03834 -1.86652 0.779151
-3.16321 -1.94323 0.811171
-3.28807 -2.01993 0.843191
-3.41293 -2.09664 0.875211
-3.5378 -2.17335 0.907231
-3.66266 -2.25005 0.939251
-3.78752 -2.32676 0.971271
-3.91239 -2.40347 1.00329
-4.03725 -2.48017 1.03531
-4.16211 -2.55688 1.06733
-4.28698 -2.63359 1.09935
-4.41184 -2.71029 1.13137
-4.5367 -2.787 1.16339
-4.66157 -2.8637 1.19541
-4.78643 -2.94041 1.22743
-4.91129 -3.01712 1.25945
-5.03616 -3.09382 1.29147
-5.16102 -3.17053 1.32349
-5.28588 -3.24724 1.35551
-5.41075 -3.32394 1.38753
-5.53561 -3.40065 1.41955
-5.66047 -3.47736 1.45157
-5.78534 -3.55406 1.48359
-5.9102 -3.63077 1.51561
-6.03506 -3.70747 1.54763
-6.15993 -3.78418 1.57965
-6.28479 -3.86089 1.61167
-6.40965 -3.93759 1.64369
-6.53452 -4.0143 1.67571
-6.65938 -4.09101 1.70773
-6.78424 -4.16771 1.73975
-6.90911 -4.24442 1.77177
-7.03397 -4.32113 1.80379
-7.15883 -4.39783 1.83581
-7.2837 -4.47454 1.86783
-7.40856 -4.55124 1.89985
-7.53342 -4.62795 1.93187
-7.65829 -4.70466 1.96389
-7.78315 -4.78136 1.99591
-7.90801 -4.85807 2.02793
-8.03288 -4.93478 2.05995
-8.15774 -5.01148 2.09197
-8.2826 -5.08819 2.12399
