ply
format ascii 1.0
element vertex 50
property float x
property float y
property float z
end_header
22 8.33975 10
19.5 12.6699 10
17 17 10
14.5 21.3301 10
12 25.6603 10
22 8.33975 5
19.5 12.6699 5
17 17 5
14.5 21.3301 5
12 25.6603 5
22 8.33975 2.05084e-12
19.5 12.6699 2.48314e-12
17 17 2.91544e-12
14.5 21.3301 3.34775e-12
12 25.6603 3.78003e-12
22 8.33975 -5
19.5 12.6699 -5
17 17 -5
14.5 21.3301 -5
12 25.6603 -5
22 8.33975 -10
19.5 12.6699 -10
17 17 -10
14.5 21.3301 -10
12 25.6603 -10
23 10.0718 8
21 13.5359 8
19 17 8
17 20.4641 8
15 23.9282 8
23 10.0718 4
21 13.5359 4
19 17 4
17 20.4641 4
15 23.9282 4
23 10.0718 1.12036e-12
21 13.5359 1.4662e-12
19 17 1.81204e-12
17 20.4641 2.15788e-12
15 23.9282 2.50372e-12
23 10.0718 -4
21 13.5359 -4
19 17 -4
17 20.4641 -4
15 23.9282 -4
23 10.0718 -8
21 13.5359 -8
19 17 -8
17 20.4641 -8
15 23.9282 -8
