ply
format ascii 1.0
element vertex 30
property float x
property float y
property float z
end_header
13.1506 22.2224 5
13.1506 22.2224 5
8.82051 24.7224 -10
13.1506 22.2224 10
8.82051 24.7224 -5
17.4808 21.7224 -8
4.49039 27.2224 -10
4.49039 27.2224 10
7.08846 27.7224 8
14.0167 23.7224 4
0.160231 29.7225 10
10.5526 25.7224 8
3.62436 29.7224 0
13.1506 22.2224 0
17.4808 19.7224 -10
8.82051 24.7224 0
0.160231 29.7225 0
17.4808 21.7224 -4
4.49039 27.2224 -10
4.49039 27.2224 0
0.160231 29.7225 0
10.5526 25.7224 0
8.82051 24.7224 -10
17.4808 19.7224 -5
13.1506 22.2224 -5
17.4808 19.7224 5
17.4808 19.7224 5
4.49039 27.2224 10
3.62436 29.7224 4
10.5526 25.7224 4
