ply
format ascii 1.0
element vertex 26
property float x
property float y
property float z
end_header
-10 -10 -9.65353
-10 -10 0.346467
-10 -10 10.3465
-10 5.03225e-15 -9.65353
-10 3.94525e-15 0.346467
-10 2.85824e-15 10.3465
-10 10 -9.65353
-10 10 0.346467
-10 10 10.3465
-2.73416e-15 -10 -9.65353
-1.57995e-15 -10 0.346467
-4.25748e-16 -10 10.3465
-9.57798e-16 3.25589e-15 -9.65353
1.35061e-15 1.08189e-15 10.3465
8.18559e-16 10 -9.65353
1.97276e-15 10 0.346467
3.12697e-15 10 10.3465
10 -10 -9.65353
10 -10 0.346467
10 -10 10.3465
10 1.47954e-15 -9.65353
10 3.92533e-16 0.346467
10 -6.94469e-16 10.3465
10 10 -9.65353
10 10 0.346467
10 10 10.3465
