ply
format ascii 1.0
comment created by 3d_to_ply
element vertex 27
property float32 x
property float32 y
property float32 z
property uint8 red
property uint8 green
property uint8 blue
end_header
-3.660254 -13.660254 -5.000000 255 255 255
-3.660254 -13.660254 5.000000 255 255 255
-3.660254 -13.660254 15.000000 255 255 255
-8.660254 -5.000000 -5.000000 255 255 255
-8.660254 -5.000000 5.000000 255 255 255
-8.660254 -5.000000 15.000000 255 255 255
-13.660254 3.660254 -5.000000 255 255 255
-13.660254 3.660254 5.000000 255 255 255
-13.660254 3.660254 15.000000 255 255 255
5.000000 -8.660254 -5.000000 255 255 255
5.000000 -8.660254 5.000000 255 255 255
5.000000 -8.660254 15.000000 255 255 255
0.000000 0.000000 -5.000000 255 255 255
0.000000 0.000000 5.000000 255 255 255
0.000000 0.000000 15.000000 255 255 255
-5.000000 8.660254 -5.000000 255 255 255
-5.000000 8.660254 5.000000 255 255 255
-5.000000 8.660254 15.000000 255 255 255
13.660254 -3.660254 -5.000000 255 255 255
13.660254 -3.660254 5.000000 255 255 255
13.660254 -3.660254 15.000000 255 255 255
8.660254 5.000000 -5.000000 255 255 255
8.660254 5.000000 5.000000 255 255 255
8.660254 5.000000 15.000000 255 255 255
3.660254 13.660254 -5.000000 255 255 255
3.660254 13.660254 5.000000 255 255 255
3.660254 13.660254 15.000000 255 255 255
