ply
format ascii 1.0
element vertex 925
property float x
property float y
property float z
end_header
0 0 0
0.147896 0.00688781 0.0240674
0.295793 0.0137756 0.0481349
0.443689 0.0206634 0.0722023
0.591585 0.0275512 0.0962697
0.739482 0.034439 0.120337
0.887378 0.0413268 0.144405
1.03527 0.0482146 0.168472
1.18317 0.0551024 0.192539
1.33107 0.0619902 0.216607
1.47896 0.0688781 0.240674
1.62686 0.0757659 0.264742
1.77476 0.0826537 0.288809
1.92265 0.0895415 0.312877
2.07055 0.0964293 0.336944
2.21844 0.103317 0.361012
2.36634 0.110205 0.385079
2.51424 0.117093 0.409146
2.66213 0.12398 0.433214
2.81003 0.130868 0.457281
2.95793 0.137756 0.481349
3.10582 0.144644 0.505416
3.25372 0.151532 0.529484
3.40161 0.15842 0.553551
3.54951 0.165307 0.577618
3.69741 0.172195 0.601686
3.8453 0.179083 0.625753
3.9932 0.185971 0.649821
4.1411 0.192859 0.673888
4.28899 0.199746 0.697956
4.43689 0.206634 0.722023
4.58479 0.213522 0.746091
4.73268 0.22041 0.770158
4.88058 0.227298 0.794225
5.02847 0.234185 0.818293
5.17637 0.241073 0.84236
5.32427 0.247961 0.866428
5.47216 0.254849 0.890495
5.62006 0.261737 0.914563
5.76796 0.268624 0.93863
5.91585 0.275512 0.962697
6.06375 0.2824 0.986765
6.21164 0.289288 1.01083
6.35954 0.296176 1.0349
6.50744 0.303063 1.05897
6.65533 0.309951 1.08303
6.80323 0.316839 1.1071
6.95113 0.323727 1.13117
7.09902 0.330615 1.15524
7.24692 0.337502 1.1793
7.39482 0.34439 1.20337
7.54271 0.351278 1.22744
7.69061 0.358166 1.25151
7.8385 0.365054 1.27557
7.9864 0.371941 1.29964
8.1343 0.378829 1.32371
8.28219 0.385717 1.34778
8.43009 0.392605 1.37184
8.57799 0.399493 1.39591
8.72588 0.406381 1.41998
8.87378 0.413268 1.44405
9.02167 0.420156 1.46811
9.16957 0.427044 1.49218
9.31747 0.433932 1.51625
9.46536 0.44082 1.54032
9.61326 0.447707 1.56438
9.76116 0.454595 1.58845
0.147968 -0.00857171 0.0230672
0.295935 -0.0171434 0.0461343
0.443903 -0.0257151 0.0692015
0.591871 -0.0342868 0.0922687
0.739838 -0.0428585 0.115336
0.887806 -0.0514303 0.138403
1.03577 -0.060002 0.16147
1.18374 -0.0685737 0.184537
1.33171 -0.0771454 0.207604
1.47968 -0.0857171 0.230672
1.62764 -0.0942888 0.253739
1.77561 -0.102861 0.276806
1.92358 -0.111432 0.299873
2.07155 -0.120004 0.32294
2.21952 -0.128576 0.346007
2.36748 -0.137147 0.369075
2.51545 -0.145719 0.392142
2.66342 -0.154291 0.415209
2.81139 -0.162862 0.438276
2.95935 -0.171434 0.461343
3.10732 -0.180006 0.48441
3.25529 -0.188578 0.507478
3.40326 -0.197149 0.530545
3.55122 -0.205721 0.553612
3.69919 -0.214293 0.576679
3.84716 -0.222864 0.599746
3.99513 -0.231436 0.622813
4.14309 -0.240008 0.645881
4.29106 -0.24858 0.668948
4.43903 -0.257151 0.692015
4.587 -0.265723 0.715082
4.73497 -0.274295 0.738149
4.88293 -0.282866 0.761216
5.0309 -0.291438 0.784284
5.17887 -0.30001 0.807351
5.32684 -0.308582 0.830418
5.4748 -0.317153 0.853485
5.62277 -0.325725 0.876552
5.77074 -0.334297 0.899619
5.91871 -0.342868 0.922687
6.06667 -0.35144 0.945754
6.21464 -0.360012 0.968821
6.36261 -0.368584 0.991888
6.51058 -0.377155 1.01496
6.65855 -0.385727 1.03802
6.80651 -0.394299 1.06109
6.95448 -0.40287 1.08416
7.10245 -0.411442 1.10722
7.25042 -0.420014 1.13029
7.39838 -0.428585 1.15336
7.54635 -0.437157 1.17643
7.69432 -0.445729 1.19949
7.84229 -0.454301 1.22256
7.99025 -0.462872 1.24563
8.13822 -0.471444 1.26869
8.28619 -0.480016 1.29176
8.43416 -0.488587 1.31483
8.58212 -0.497159 1.3379
8.73009 -0.505731 1.36096
8.87806 -0.514303 1.38403
9.02603 -0.522874 1.4071
9.174 -0.531446 1.43016
9.32196 -0.540018 1.45323
9.46993 -0.548589 1.4763
9.6179 -0.557161 1.49937
9.76587 -0.565733 1.52243
0.147786 -0.0136379 0.0217548
0.295572 -0.0272758 0.0435095
0.443358 -0.0409137 0.0652643
0.591144 -0.0545516 0.087019
0.738931 -0.0681895 0.108774
0.886717 -0.0818274 0.130529
1.0345 -0.0954653 0.152283
1.18229 -0.109103 0.174038
1.33008 -0.122741 0.195793
1.47786 -0.136379 0.217548
1.62565 -0.150017 0.239302
1.77343 -0.163655 0.261057
1.92122 -0.177293 0.282812
2.06901 -0.190931 0.304567
2.21679 -0.204569 0.326321
2.36458 -0.218206 0.348076
2.51236 -0.231844 0.369831
2.66015 -0.245482 0.391586
2.80794 -0.25912 0.41334
2.95572 -0.272758 0.435095
3.10351 -0.286396 0.45685
3.25129 -0.300034 0.478605
3.39908 -0.313672 0.500359
3.54687 -0.32731 0.522114
3.69465 -0.340948 0.543869
3.84244 -0.354586 0.565624
3.99023 -0.368223 0.587378
4.13801 -0.381861 0.609133
4.2858 -0.395499 0.630888
4.43358 -0.409137 0.652643
4.58137 -0.422775 0.674397
4.72916 -0.436413 0.696152
4.87694 -0.450051 0.717907
5.02473 -0.463689 0.739662
5.17251 -0.477327 0.761417
5.3203 -0.490965 0.783171
5.46809 -0.504603 0.804926
5.61587 -0.51824 0.826681
5.76366 -0.531878 0.848436
5.91144 -0.545516 0.87019
6.05923 -0.559154 0.891945
6.20702 -0.572792 0.9137
6.3548 -0.58643 0.935455
6.50259 -0.600068 0.957209
6.65038 -0.613706 0.978964
6.79816 -0.627344 1.00072
6.94595 -0.640982 1.02247
7.09373 -0.654619 1.04423
7.24152 -0.668257 1.06598
7.38931 -0.681895 1.08774
7.53709 -0.695533 1.10949
7.68488 -0.709171 1.13125
7.83266 -0.722809 1.153
7.98045 -0.736447 1.17476
8.12824 -0.750085 1.19651
8.27602 -0.763723 1.21827
8.42381 -0.777361 1.24002
8.5716 -0.790999 1.26178
8.71938 -0.804636 1.28353
8.86717 -0.818274 1.30529
9.01495 -0.831912 1.32704
9.16274 -0.84555 1.34879
9.31053 -0.859188 1.37055
9.45831 -0.872826 1.3923
9.6061 -0.886464 1.41406
9.75388 -0.900102 1.43581
0.145572 -0.0295655 0.020851
0.291143 -0.059131 0.0417021
0.436715 -0.0886965 0.0625531
0.582287 -0.118262 0.0834042
0.727858 -0.147828 0.104255
0.87343 -0.177393 0.125106
1.019 -0.206959 0.145957
1.16457 -0.236524 0.166808
1.31015 -0.26609 0.187659
1.45572 -0.295655 0.20851
1.60129 -0.325221 0.229362
1.74686 -0.354786 0.250213
1.89243 -0.384352 0.271064
2.038 -0.413917 0.291915
2.18358 -0.443483 0.312766
2.32915 -0.473048 0.333617
2.47472 -0.502614 0.354468
2.62029 -0.532179 0.375319
2.76586 -0.561745 0.39617
2.91143 -0.59131 0.417021
3.05701 -0.620876 0.437872
3.20258 -0.650441 0.458723
3.34815 -0.680007 0.479574
3.49372 -0.709572 0.500425
3.63929 -0.739138 0.521276
3.78486 -0.768703 0.542127
3.93044 -0.798269 0.562978
4.07601 -0.827834 0.583829
4.22158 -0.8574 0.60468
4.36715 -0.886965 0.625531
4.51272 -0.916531 0.646382
4.65829 -0.946097 0.667233
4.80387 -0.975662 0.688085
4.94944 -1.00523 0.708936
5.09501 -1.03479 0.729787
5.24058 -1.06436 0.750638
5.38615 -1.09392 0.771489
5.53172 -1.12349 0.79234
5.6773 -1.15306 0.813191
5.82287 -1.18262 0.834042
5.96844 -1.21219 0.854893
6.11401 -1.24175 0.875744
6.25958 -1.27132 0.896595
6.40515 -1.30088 0.917446
6.55073 -1.33045 0.938297
6.6963 -1.36001 0.959148
6.84187 -1.38958 0.979999
6.98744 -1.41914 1.00085
7.13301 -1.44871 1.0217
7.27858 -1.47828 1.04255
7.42416 -1.50784 1.0634
7.56973 -1.53741 1.08425
7.7153 -1.56697 1.10511
7.86087 -1.59654 1.12596
8.00644 -1.6261 1.14681
8.15201 -1.65567 1.16766
8.29759 -1.68523 1.18851
8.44316 -1.7148 1.20936
8.58873 -1.74437 1.23021
8.7343 -1.77393 1.25106
8.87987 -1.8035 1.27191
9.02544 -1.83306 1.29276
9.17102 -1.86263 1.31362
9.31659 -1.89219 1.33447
9.46216 -1.92176 1.35532
9.60773 -1.95132 1.37617
-0.0489835 -0.139999 0.0223818
-0.0979669 -0.279998 0.0447636
-0.14695 -0.419997 0.0671454
-0.195934 -0.559995 0.0895272
-0.244917 -0.699994 0.111909
-0.293901 -0.839993 0.134291
-0.342884 -0.979992 0.156673
-0.391868 -1.11999 0.179054
-0.440851 -1.25999 0.201436
-0.489835 -1.39999 0.223818
-0.538818 -1.53999 0.2462
-0.587802 -1.67999 0.268582
-0.636785 -1.81998 0.290963
-0.685769 -1.95998 0.313345
-0.734752 -2.09998 0.335727
-0.783736 -2.23998 0.358109
-0.832719 -2.37998 0.38049
-0.881703 -2.51998 0.402872
-0.930686 -2.65998 0.425254
-0.979669 -2.79998 0.447636
-1.02865 -2.93998 0.470018
-1.07764 -3.07997 0.492399
-1.12662 -3.21997 0.514781
-1.1756 -3.35997 0.537163
-1.22459 -3.49997 0.559545
-1.27357 -3.63997 0.581927
-1.32255 -3.77997 0.604308
-1.37154 -3.91997 0.62669
-1.42052 -4.05997 0.649072
-1.4695 -4.19997 0.671454
-1.51849 -4.33996 0.693836
-1.56747 -4.47996 0.716217
-1.61645 -4.61996 0.738599
-1.66544 -4.75996 0.760981
-1.71442 -4.89996 0.783363
-1.76341 -5.03996 0.805745
-1.81239 -5.17996 0.828126
-1.86137 -5.31996 0.850508
-1.91036 -5.45995 0.87289
-1.95934 -5.59995 0.895272
-2.00832 -5.73995 0.917654
-2.05731 -5.87995 0.940035
-2.10629 -6.01995 0.962417
-2.15527 -6.15995 0.984799
-2.20426 -6.29995 1.00718
-2.25324 -6.43995 1.02956
-2.30222 -6.57995 1.05194
-2.35121 -6.71994 1.07433
-2.40019 -6.85994 1.09671
-2.44917 -6.99994 1.11909
-2.49816 -7.13994 1.14147
-2.54714 -7.27994 1.16385
-2.59612 -7.41994 1.18624
-2.64511 -7.55994 1.20862
-2.69409 -7.69994 1.231
-2.74307 -7.83993 1.25338
-2.79206 -7.97993 1.27576
-2.84104 -8.11993 1.29814
-2.89003 -8.25993 1.32053
-2.93901 -8.39993 1.34291
-2.98799 -8.53993 1.36529
-3.03698 -8.67993 1.38767
-3.08596 -8.81993 1.41005
-3.13494 -8.95993 1.43243
-3.18393 -9.09992 1.45482
-3.23291 -9.23992 1.4772
-0.0193958 -0.148521 0.00809027
-0.0387916 -0.297041 0.0161805
-0.0581873 -0.445562 0.0242708
-0.0775831 -0.594082 0.0323611
-0.0969789 -0.742603 0.0404513
-0.116375 -0.891123 0.0485416
-0.13577 -1.03964 0.0566319
-0.155166 -1.18816 0.0647221
-0.174562 -1.33668 0.0728124
-0.193958 -1.48521 0.0809027
-0.213354 -1.63373 0.088993
-0.232749 -1.78225 0.0970832
-0.252145 -1.93077 0.105173
-0.271541 -2.07929 0.113264
-0.290937 -2.22781 0.121354
-0.310332 -2.37633 0.129444
-0.329728 -2.52485 0.137535
-0.349124 -2.67337 0.145625
-0.36852 -2.82189 0.153715
-0.387916 -2.97041 0.161805
-0.407311 -3.11893 0.169896
-0.426707 -3.26745 0.177986
-0.446103 -3.41597 0.186076
-0.465499 -3.56449 0.194166
-0.484894 -3.71301 0.202257
-0.50429 -3.86153 0.210347
-0.523686 -4.01005 0.218437
-0.543082 -4.15858 0.226528
-0.562478 -4.3071 0.234618
-0.581873 -4.45562 0.242708
-0.601269 -4.60414 0.250798
-0.620665 -4.75266 0.258889
-0.640061 -4.90118 0.266979
-0.659456 -5.0497 0.275069
-0.678852 -5.19822 0.283159
-0.698248 -5.34674 0.29125
-0.717644 -5.49526 0.29934
-0.73704 -5.64378 0.30743
-0.756435 -5.7923 0.31552
-0.775831 -5.94082 0.323611
-0.795227 -6.08934 0.331701
-0.814623 -6.23786 0.339791
-0.834018 -6.38638 0.347882
-0.853414 -6.5349 0.355972
-0.87281 -6.68342 0.364062
-0.892206 -6.83194 0.372152
-0.911602 -6.98047 0.380243
-0.930997 -7.12899 0.388333
-0.950393 -7.27751 0.396423
-0.969789 -7.42603 0.404513
-0.989185 -7.57455 0.412604
-1.00858 -7.72307 0.420694
-1.02798 -7.87159 0.428784
-1.04737 -8.02011 0.436875
-1.06677 -8.16863 0.444965
-1.08616 -8.31715 0.453055
-1.10556 -8.46567 0.461145
-1.12496 -8.61419 0.469236
-1.14435 -8.76271 0.477326
-1.16375 -8.91123 0.485416
-1.18314 -9.05975 0.493506
-1.20254 -9.20827 0.501597
-1.22193 -9.35679 0.509687
-1.24133 -9.50531 0.517777
-1.26073 -9.65384 0.525867
-1.28012 -9.80236 0.533958
-0.00875797 -0.127749 0.0781252
-0.0175159 -0.255498 0.15625
-0.0262739 -0.383246 0.234376
-0.0350319 -0.510995 0.312501
-0.0437898 -0.638744 0.390626
-0.0525478 -0.766493 0.468751
-0.0613058 -0.894242 0.546876
-0.0700637 -1.02199 0.625001
-0.0788217 -1.14974 0.703127
-0.0875797 -1.27749 0.781252
-0.0963376 -1.40524 0.859377
-0.105096 -1.53299 0.937502
-0.113854 -1.66073 1.01563
-0.122612 -1.78848 1.09375
-0.131369 -1.91623 1.17188
-0.140127 -2.04398 1.25
-0.148885 -2.17173 1.32813
-0.157643 -2.29948 1.40625
-0.166401 -2.42723 1.48438
-0.175159 -2.55498 1.5625
-0.183917 -2.68272 1.64063
-0.192675 -2.81047 1.71875
-0.201433 -2.93822 1.79688
-0.210191 -3.06597 1.875
-0.218949 -3.19372 1.95313
-0.227707 -3.32147 2.03125
-0.236465 -3.44922 2.10938
-0.245223 -3.57697 2.18751
-0.253981 -3.70471 2.26563
-0.262739 -3.83246 2.34376
-0.271497 -3.96021 2.42188
-0.280255 -4.08796 2.50001
-0.289013 -4.21571 2.57813
-0.297771 -4.34346 2.65626
-0.306529 -4.47121 2.73438
-0.315287 -4.59896 2.81251
-0.324045 -4.72671 2.89063
-0.332803 -4.85445 2.96876
-0.341561 -4.9822 3.04688
-0.350319 -5.10995 3.12501
-0.359077 -5.2377 3.20313
-0.367835 -5.36545 3.28126
-0.376593 -5.4932 3.35938
-0.385351 -5.62095 3.43751
-0.394108 -5.7487 3.51563
-0.402866 -5.87644 3.59376
-0.411624 -6.00419 3.67188
-0.420382 -6.13194 3.75001
-0.42914 -6.25969 3.82813
-0.437898 -6.38744 3.90626
-0.446656 -6.51519 3.98438
-0.455414 -6.64294 4.06251
-0.464172 -6.77069 4.14063
-0.47293 -6.89843 4.21876
-0.481688 -7.02618 4.29689
-0.490446 -7.15393 4.37501
-0.499204 -7.28168 4.45314
-0.507962 -7.40943 4.53126
-0.51672 -7.53718 4.60939
-0.525478 -7.66493 4.68751
-0.534236 -7.79268 4.76564
-0.542994 -7.92042 4.84376
-0.551752 -8.04817 4.92189
-0.56051 -8.17592 5.00001
-0.569268 -8.30367 5.07814
-0.578026 -8.43142 5.15626
0.0135649 -0.133371 0.0672909
0.0271299 -0.266743 0.134582
0.0406948 -0.400114 0.201873
0.0542598 -0.533485 0.269164
0.0678247 -0.666857 0.336455
0.0813897 -0.800228 0.403746
0.0949546 -0.9336 0.471037
0.10852 -1.06697 0.538328
0.122084 -1.20034 0.605618
0.135649 -1.33371 0.672909
0.149214 -1.46709 0.7402
0.162779 -1.60046 0.807491
0.176344 -1.73383 0.874782
0.189909 -1.8672 0.942073
0.203474 -2.00057 1.00936
0.217039 -2.13394 1.07666
0.230604 -2.26731 1.14395
0.244169 -2.40068 1.21124
0.257734 -2.53406 1.27853
0.271299 -2.66743 1.34582
0.284864 -2.8008 1.41311
0.298429 -2.93417 1.4804
0.311994 -3.06754 1.54769
0.325559 -3.20091 1.61498
0.339124 -3.33428 1.68227
0.352689 -3.46766 1.74956
0.366253 -3.60103 1.81686
0.379818 -3.7344 1.88415
0.393383 -3.86777 1.95144
0.406948 -4.00114 2.01873
0.420513 -4.13451 2.08602
0.434078 -4.26788 2.15331
0.447643 -4.40126 2.2206
0.461208 -4.53463 2.28789
0.474773 -4.668 2.35518
0.488338 -4.80137 2.42247
0.501903 -4.93474 2.48976
0.515468 -5.06811 2.55706
0.529033 -5.20148 2.62435
0.542598 -5.33485 2.69164
0.556163 -5.46823 2.75893
0.569728 -5.6016 2.82622
0.583293 -5.73497 2.89351
0.596858 -5.86834 2.9608
0.610422 -6.00171 3.02809
0.623987 -6.13508 3.09538
0.637552 -6.26845 3.16267
0.651117 -6.40183 3.22997
0.664682 -6.5352 3.29726
0.678247 -6.66857 3.36455
0.691812 -6.80194 3.43184
0.705377 -6.93531 3.49913
0.718942 -7.06868 3.56642
0.732507 -7.20205 3.63371
0.746072 -7.33543 3.701
0.759637 -7.4688 3.76829
0.773202 -7.60217 3.83558
0.786767 -7.73554 3.90287
0.800332 -7.86891 3.97017
0.813897 -8.00228 4.03746
0.827462 -8.13565 4.10475
0.841027 -8.26902 4.17204
0.854591 -8.4024 4.23933
0.868156 -8.53577 4.30662
0.881721 -8.66914 4.37391
0.895286 -8.80251 4.4412
-0.137293 0.0299544 0.0524714
-0.274587 0.0599088 0.104943
-0.41188 0.0898633 0.157414
-0.549174 0.119818 0.209885
-0.686467 0.149772 0.262357
-0.823761 0.179727 0.314828
-0.961054 0.209681 0.3673
-1.09835 0.239635 0.419771
-1.23564 0.26959 0.472242
-1.37293 0.299544 0.524714
-1.51023 0.329499 0.577185
-1.64752 0.359453 0.629656
-1.78481 0.389407 0.682128
-1.92211 0.419362 0.734599
-2.0594 0.449316 0.78707
-2.1967 0.479271 0.839542
-2.33399 0.509225 0.892013
-2.47128 0.53918 0.944485
-2.60858 0.569134 0.996956
-2.74587 0.599088 1.04943
-2.88316 0.629043 1.1019
-3.02046 0.658997 1.15437
-3.15775 0.688952 1.20684
-3.29504 0.718906 1.25931
-3.43234 0.74886 1.31178
-3.56963 0.778815 1.36426
-3.70692 0.808769 1.41673
-3.84422 0.838724 1.4692
-3.98151 0.868678 1.52167
-4.1188 0.898633 1.57414
-4.2561 0.928587 1.62661
-4.39339 0.958541 1.67908
-4.53068 0.988496 1.73156
-4.66798 1.01845 1.78403
-4.80527 1.0484 1.8365
-4.94256 1.07836 1.88897
-5.07986 1.10831 1.94144
-5.21715 1.13827 1.99391
-5.35444 1.16822 2.04638
-5.49174 1.19818 2.09885
-5.62903 1.22813 2.15133
-5.76632 1.25809 2.2038
-5.90362 1.28804 2.25627
-6.04091 1.31799 2.30874
-6.1782 1.34795 2.36121
-6.3155 1.3779 2.41368
-6.45279 1.40786 2.46615
-6.59009 1.43781 2.51863
-6.72738 1.46777 2.5711
-6.86467 1.49772 2.62357
-7.00197 1.52768 2.67604
-7.13926 1.55763 2.72851
-7.27655 1.58758 2.78098
-7.41385 1.61754 2.83345
-7.55114 1.64749 2.88593
-7.68843 1.67745 2.9384
-7.82573 1.7074 2.99087
-7.96302 1.73736 3.04334
-8.10031 1.76731 3.09581
-8.23761 1.79727 3.14828
-8.3749 1.82722 3.20075
-8.51219 1.85717 3.25322
-8.64949 1.88713 3.3057
-8.78678 1.91708 3.35817
-8.92407 1.94704 3.41064
-9.06137 1.97699 3.46311
-0.142098 0.00922651 0.0471489
-0.284196 0.018453 0.0942978
-0.426294 0.0276795 0.141447
-0.568392 0.0369061 0.188596
-0.71049 0.0461326 0.235745
-0.852588 0.0553591 0.282893
-0.994686 0.0645856 0.330042
-1.13678 0.0738121 0.377191
-1.27888 0.0830386 0.42434
-1.42098 0.0922651 0.471489
-1.56308 0.101492 0.518638
-1.70518 0.110718 0.565787
-1.84727 0.119945 0.612936
-1.98937 0.129171 0.660085
-2.13147 0.138398 0.707234
-2.27357 0.147624 0.754382
-2.41567 0.156851 0.801531
-2.55776 0.166077 0.84868
-2.69986 0.175304 0.895829
-2.84196 0.18453 0.942978
-2.98406 0.193757 0.990127
-3.12616 0.202983 1.03728
-3.26825 0.21221 1.08442
-3.41035 0.221436 1.13157
-3.55245 0.230663 1.17872
-3.69455 0.239889 1.22587
-3.83665 0.249116 1.27302
-3.97875 0.258342 1.32017
-4.12084 0.267569 1.36732
-4.26294 0.276795 1.41447
-4.40504 0.286022 1.46162
-4.54714 0.295248 1.50876
-4.68924 0.304475 1.55591
-4.83133 0.313701 1.60306
-4.97343 0.322928 1.65021
-5.11553 0.332154 1.69736
-5.25763 0.341381 1.74451
-5.39973 0.350608 1.79166
-5.54182 0.359834 1.83881
-5.68392 0.369061 1.88596
-5.82602 0.378287 1.9331
-5.96812 0.387514 1.98025
-6.11022 0.39674 2.0274
-6.25231 0.405967 2.07455
-6.39441 0.415193 2.1217
-6.53651 0.42442 2.16885
-6.67861 0.433646 2.216
-6.82071 0.442873 2.26315
-6.9628 0.452099 2.3103
-7.1049 0.461326 2.35745
-7.247 0.470552 2.40459
-7.3891 0.479779 2.45174
-7.5312 0.489005 2.49889
-7.67329 0.498232 2.54604
-7.81539 0.507458 2.59319
-7.95749 0.516685 2.64034
-8.09959 0.525911 2.68749
-8.24169 0.535138 2.73464
-8.38378 0.544364 2.78179
-8.52588 0.553591 2.82893
-8.66798 0.562817 2.87608
-8.81008 0.572044 2.92323
-8.95218 0.58127 2.97038
-9.09427 0.590497 3.01753
-9.23637 0.599723 3.06468
-9.37847 0.60895 3.11183
-0.118138 0.0173555 0.0907865
-0.236276 0.034711 0.181573
-0.354414 0.0520665 0.272359
-0.472552 0.0694221 0.363146
-0.59069 0.0867776 0.453932
-0.708828 0.104133 0.544719
-0.826966 0.121489 0.635505
-0.945104 0.138844 0.726292
-1.06324 0.1562 0.817078
-1.18138 0.173555 0.907865
-1.29952 0.190911 0.998651
-1.41766 0.208266 1.08944
-1.53579 0.225622 1.18022
-1.65393 0.242977 1.27101
-1.77207 0.260333 1.3618
-1.89021 0.277688 1.45258
-2.00835 0.295044 1.54337
-2.12648 0.312399 1.63416
-2.24462 0.329755 1.72494
-2.36276 0.34711 1.81573
-2.4809 0.364466 1.90652
-2.59904 0.381821 1.9973
-2.71718 0.399177 2.08809
-2.83531 0.416532 2.17888
-2.95345 0.433888 2.26966
-3.07159 0.451243 2.36045
-3.18973 0.468599 2.45124
-3.30787 0.485954 2.54202
-3.426 0.50331 2.63281
-3.54414 0.520665 2.72359
-3.66228 0.538021 2.81438
-3.78042 0.555377 2.90517
-3.89856 0.572732 2.99595
-4.01669 0.590088 3.08674
-4.13483 0.607443 3.17753
-4.25297 0.624799 3.26831
-4.37111 0.642154 3.3591
-4.48925 0.65951 3.44989
-4.60738 0.676865 3.54067
-4.72552 0.694221 3.63146
-4.84366 0.711576 3.72225
-4.9618 0.728932 3.81303
-5.07994 0.746287 3.90382
-5.19807 0.763643 3.99461
-5.31621 0.780998 4.08539
-5.43435 0.798354 4.17618
-5.55249 0.815709 4.26697
-5.67063 0.833065 4.35775
-5.78876 0.85042 4.44854
-5.9069 0.867776 4.53932
-6.02504 0.885131 4.63011
-6.14318 0.902487 4.7209
-6.26132 0.919842 4.81168
-6.37945 0.937198 4.90247
-6.49759 0.954553 4.99326
-6.61573 0.971909 5.08404
-6.73387 0.989264 5.17483
-6.85201 1.00662 5.26562
-6.97014 1.02398 5.3564
-7.08828 1.04133 5.44719
-7.20642 1.05869 5.53798
-7.32456 1.07604 5.62876
-7.4427 1.0934 5.71955
-7.56083 1.11075 5.81034
-7.67897 1.12811 5.90112
-7.79711 1.14546 5.99191
-0.123261 -0.00600569 0.0852683
-0.246522 -0.0120114 0.170537
-0.369783 -0.0180171 0.255805
-0.493043 -0.0240228 0.341073
-0.616304 -0.0300285 0.426342
-0.739565 -0.0360342 0.51161
-0.862826 -0.0420399 0.596878
-0.986087 -0.0480456 0.682147
-1.10935 -0.0540512 0.767415
-1.23261 -0.0600569 0.852683
-1.35587 -0.0660626 0.937952
-1.47913 -0.0720683 1.02322
-1.60239 -0.078074 1.10849
-1.72565 -0.0840797 1.19376
-1.84891 -0.0900854 1.27903
-1.97217 -0.0960911 1.36429
-2.09543 -0.102097 1.44956
-2.2187 -0.108102 1.53483
-2.34196 -0.114108 1.6201
-2.46522 -0.120114 1.70537
-2.58848 -0.12612 1.79064
-2.71174 -0.132125 1.8759
-2.835 -0.138131 1.96117
-2.95826 -0.144137 2.04644
-3.08152 -0.150142 2.13171
-3.20478 -0.156148 2.21698
-3.32804 -0.162154 2.30225
-3.4513 -0.168159 2.38751
-3.57457 -0.174165 2.47278
-3.69783 -0.180171 2.55805
-3.82109 -0.186177 2.64332
-3.94435 -0.192182 2.72859
-4.06761 -0.198188 2.81386
-4.19087 -0.204194 2.89912
-4.31413 -0.210199 2.98439
-4.43739 -0.216205 3.06966
-4.56065 -0.222211 3.15493
-4.68391 -0.228216 3.2402
-4.80717 -0.234222 3.32547
-4.93043 -0.240228 3.41073
-5.0537 -0.246233 3.496
-5.17696 -0.252239 3.58127
-5.30022 -0.258245 3.66654
-5.42348 -0.264251 3.75181
-5.54674 -0.270256 3.83708
-5.67 -0.276262 3.92234
-5.79326 -0.282268 4.00761
-5.91652 -0.288273 4.09288
-6.03978 -0.294279 4.17815
-6.16304 -0.300285 4.26342
-6.2863 -0.30629 4.34869
-6.40957 -0.312296 4.43395
-6.53283 -0.318302 4.51922
-6.65609 -0.324307 4.60449
-6.77935 -0.330313 4.68976
-6.90261 -0.336319 4.77503
-7.02587 -0.342325 4.8603
-7.14913 -0.34833 4.94556
-7.27239 -0.354336 5.03083
-7.39565 -0.360342 5.1161
-7.51891 -0.366347 5.20137
-7.64217 -0.372353 5.28664
-7.76543 -0.378359 5.37191
-7.8887 -0.384364 5.45717
-8.01196 -0.39037 5.54244
-8.13522 -0.396376 5.62771
0.101561 0.106647 -0.0284909
0.203122 0.213294 -0.0569818
0.304684 0.319941 -0.0854728
0.406245 0.426588 -0.113964
0.507806 0.533235 -0.142455
0.609367 0.639882 -0.170946
0.710929 0.746529 -0.199436
0.81249 0.853176 -0.227927
0.914051 0.959823 -0.256418
1.01561 1.06647 -0.284909
1.11717 1.17312 -0.3134
1.21873 1.27976 -0.341891
1.3203 1.38641 -0.370382
1.42186 1.49306 -0.398873
1.52342 1.5997 -0.427364
1.62498 1.70635 -0.455855
1.72654 1.813 -0.484346
1.8281 1.91965 -0.512837
1.92966 2.02629 -0.541328
2.03122 2.13294 -0.569818
2.13279 2.23959 -0.598309
2.23435 2.34623 -0.6268
2.33591 2.45288 -0.655291
2.43747 2.55953 -0.683782
2.53903 2.66617 -0.712273
2.64059 2.77282 -0.740764
2.74215 2.87947 -0.769255
2.84371 2.98612 -0.797746
2.94528 3.09276 -0.826237
3.04684 3.19941 -0.854728
3.1484 3.30606 -0.883219
3.24996 3.4127 -0.91171
3.35152 3.51935 -0.9402
3.45308 3.626 -0.968691
3.55464 3.73264 -0.997182
3.6562 3.83929 -1.02567
3.75777 3.94594 -1.05416
3.85933 4.05259 -1.08266
3.96089 4.15923 -1.11115
4.06245 4.26588 -1.13964
4.16401 4.37253 -1.16813
4.26557 4.47917 -1.19662
4.36713 4.58582 -1.22511
4.46869 4.69247 -1.2536
4.57026 4.79911 -1.28209
4.67182 4.90576 -1.31058
4.77338 5.01241 -1.33907
4.87494 5.11906 -1.36756
4.9765 5.2257 -1.39606
5.07806 5.33235 -1.42455
5.17962 5.439 -1.45304
5.28118 5.54564 -1.48153
5.38275 5.65229 -1.51002
5.48431 5.75894 -1.53851
5.58587 5.86558 -1.567
5.68743 5.97223 -1.59549
5.78899 6.07888 -1.62398
5.89055 6.18553 -1.65247
5.99211 6.29217 -1.68096
6.09367 6.39882 -1.70946
6.19524 6.50547 -1.73795
6.2968 6.61211 -1.76644
6.39836 6.71876 -1.79493
6.49992 6.82541 -1.82342
6.60148 6.93205 -1.85191
6.70304 7.0387 -1.8804
0.0975961 0.111048 -0.0253655
0.195192 0.222095 -0.0507311
0.292788 0.333143 -0.0760966
0.390384 0.444191 -0.101462
0.48798 0.555239 -0.126828
0.585576 0.666286 -0.152193
0.683172 0.777334 -0.177559
0.780769 0.888382 -0.202924
0.878365 0.99943 -0.22829
0.975961 1.11048 -0.253655
1.07356 1.22152 -0.279021
1.17115 1.33257 -0.304387
1.26875 1.44362 -0.329752
1.36634 1.55467 -0.355118
1.46394 1.66572 -0.380483
1.56154 1.77676 -0.405849
1.65913 1.88781 -0.431214
1.75673 1.99886 -0.45658
1.85433 2.10991 -0.481945
1.95192 2.22095 -0.507311
2.04952 2.332 -0.532677
2.14711 2.44305 -0.558042
2.24471 2.5541 -0.583408
2.34231 2.66515 -0.608773
2.4399 2.77619 -0.634139
2.5375 2.88724 -0.659504
2.63509 2.99829 -0.68487
2.73269 3.10934 -0.710235
2.83029 3.22038 -0.735601
2.92788 3.33143 -0.760966
3.02548 3.44248 -0.786332
3.12307 3.55353 -0.811698
3.22067 3.66457 -0.837063
3.31827 3.77562 -0.862429
3.41586 3.88667 -0.887794
3.51346 3.99772 -0.91316
3.61105 4.10877 -0.938525
3.70865 4.21981 -0.963891
3.80625 4.33086 -0.989256
3.90384 4.44191 -1.01462
4.00144 4.55296 -1.03999
4.09903 4.664 -1.06535
4.19663 4.77505 -1.09072
4.29423 4.8861 -1.11608
4.39182 4.99715 -1.14145
4.48942 5.1082 -1.16682
4.58702 5.21924 -1.19218
4.68461 5.33029 -1.21755
4.78221 5.44134 -1.24291
4.8798 5.55239 -1.26828
4.9774 5.66343 -1.29364
5.075 5.77448 -1.31901
5.17259 5.88553 -1.34437
5.27019 5.99658 -1.36974
5.36778 6.10762 -1.39511
5.46538 6.21867 -1.42047
5.56298 6.32972 -1.44584
5.66057 6.44077 -1.4712
5.75817 6.55182 -1.49657
5.85576 6.66286 -1.52193
5.95336 6.77391 -1.5473
6.05096 6.88496 -1.57266
6.14855 6.99601 -1.59803
6.24615 7.10705 -1.6234
6.34374 7.2181 -1.64876
6.44134 7.32915 -1.67413
