ply
format ascii 1.0
element vertex 925
property float x
property float y
property float z
end_header
0 0 0
0.139612 -0.0251289 0.0487561
0.279223 -0.0502577 0.0975121
0.418835 -0.0753866 0.146268
0.558446 -0.100515 0.195024
0.698058 -0.125644 0.24378
0.837669 -0.150773 0.292536
0.977281 -0.175902 0.341292
1.11689 -0.201031 0.390048
1.2565 -0.22616 0.438805
1.39612 -0.251289 0.487561
1.53573 -0.276417 0.536317
1.67534 -0.301546 0.585073
1.81495 -0.326675 0.633829
1.95456 -0.351804 0.682585
2.09417 -0.376933 0.731341
2.23378 -0.402062 0.780097
2.3734 -0.427191 0.828853
2.51301 -0.452319 0.877609
2.65262 -0.477448 0.926365
2.79223 -0.502577 0.975121
2.93184 -0.527706 1.02388
3.07145 -0.552835 1.07263
3.21107 -0.577964 1.12139
3.35068 -0.603093 1.17015
3.49029 -0.628221 1.2189
3.6299 -0.65335 1.26766
3.76951 -0.678479 1.31641
3.90912 -0.703608 1.36517
4.04874 -0.728737 1.41393
4.18835 -0.753866 1.46268
4.32796 -0.778995 1.51144
4.46757 -0.804123 1.56019
4.60718 -0.829252 1.60895
4.74679 -0.854381 1.65771
4.8864 -0.87951 1.70646
5.02602 -0.904639 1.75522
5.16563 -0.929768 1.80397
5.30524 -0.954897 1.85273
5.44485 -0.980026 1.90149
5.58446 -1.00515 1.95024
5.72407 -1.03028 1.999
5.86369 -1.05541 2.04775
6.0033 -1.08054 2.09651
6.14291 -1.10567 2.14527
6.28252 -1.1308 2.19402
6.42213 -1.15593 2.24278
6.56174 -1.18106 2.29153
6.70135 -1.20619 2.34029
6.84097 -1.23131 2.38905
6.98058 -1.25644 2.4378
7.12019 -1.28157 2.48656
7.2598 -1.3067 2.53532
7.39941 -1.33183 2.58407
7.53902 -1.35696 2.63283
7.67864 -1.38209 2.68158
7.81825 -1.40722 2.73034
7.95786 -1.43234 2.7791
8.09747 -1.45747 2.82785
8.23708 -1.4826 2.87661
8.37669 -1.50773 2.92536
8.5163 -1.53286 2.97412
8.65592 -1.55799 3.02288
8.79553 -1.58312 3.07163
8.93514 -1.60825 3.12039
9.07475 -1.63338 3.16914
9.21436 -1.6585 3.2179
0.135545 -0.0445206 0.04632
0.271089 -0.0890413 0.09264
0.406634 -0.133562 0.13896
0.542179 -0.178083 0.18528
0.677724 -0.222603 0.2316
0.813268 -0.267124 0.27792
0.948813 -0.311645 0.32424
1.08436 -0.356165 0.37056
1.2199 -0.400686 0.41688
1.35545 -0.445206 0.4632
1.49099 -0.489727 0.50952
1.62654 -0.534248 0.55584
1.76208 -0.578768 0.60216
1.89763 -0.623289 0.64848
2.03317 -0.66781 0.6948
2.16872 -0.71233 0.74112
2.30426 -0.756851 0.78744
2.43981 -0.801372 0.83376
2.57535 -0.845892 0.88008
2.71089 -0.890413 0.9264
2.84644 -0.934934 0.97272
2.98198 -0.979454 1.01904
3.11753 -1.02397 1.06536
3.25307 -1.0685 1.11168
3.38862 -1.11302 1.158
3.52416 -1.15754 1.20432
3.65971 -1.20206 1.25064
3.79525 -1.24658 1.29696
3.9308 -1.2911 1.34328
4.06634 -1.33562 1.3896
4.20189 -1.38014 1.43592
4.33743 -1.42466 1.48224
4.47298 -1.46918 1.52856
4.60852 -1.5137 1.57488
4.74407 -1.55822 1.6212
4.87961 -1.60274 1.66752
5.01515 -1.64726 1.71384
5.1507 -1.69178 1.76016
5.28624 -1.73631 1.80648
5.42179 -1.78083 1.8528
5.55733 -1.82535 1.89912
5.69288 -1.86987 1.94544
5.82842 -1.91439 1.99176
5.96397 -1.95891 2.03808
6.09951 -2.00343 2.0844
6.23506 -2.04795 2.13072
6.3706 -2.09247 2.17704
6.50615 -2.13699 2.22336
6.64169 -2.18151 2.26968
6.77724 -2.22603 2.316
6.91278 -2.27055 2.36232
7.04833 -2.31507 2.40864
7.18387 -2.35959 2.45496
7.31942 -2.40411 2.50128
7.45496 -2.44864 2.5476
7.5905 -2.49316 2.59392
7.72605 -2.53768 2.64024
7.86159 -2.5822 2.68656
7.99714 -2.62672 2.73288
8.13268 -2.67124 2.7792
8.26823 -2.71576 2.82552
8.40377 -2.76028 2.87184
8.53932 -2.8048 2.91816
8.67486 -2.84932 2.96448
8.81041 -2.89384 3.0108
8.94595 -2.93836 3.05712
0.147955 -0.0243696 0.00393795
0.29591 -0.0487392 0.00787591
0.443864 -0.0731088 0.0118139
0.591819 -0.0974784 0.0157518
0.739774 -0.121848 0.0196898
0.887729 -0.146218 0.0236277
1.03568 -0.170587 0.0275657
1.18364 -0.194957 0.0315036
1.33159 -0.219326 0.0354416
1.47955 -0.243696 0.0393795
1.6275 -0.268066 0.0433175
1.77546 -0.292435 0.0472554
1.92341 -0.316805 0.0511934
2.07137 -0.341174 0.0551314
2.21932 -0.365544 0.0590693
2.36728 -0.389914 0.0630073
2.51523 -0.414283 0.0669452
2.66319 -0.438653 0.0708832
2.81114 -0.463022 0.0748211
2.9591 -0.487392 0.0787591
3.10705 -0.511762 0.082697
3.25501 -0.536131 0.086635
3.40296 -0.560501 0.0905729
3.55091 -0.58487 0.0945109
3.69887 -0.60924 0.0984488
3.84682 -0.63361 0.102387
3.99478 -0.657979 0.106325
4.14273 -0.682349 0.110263
4.29069 -0.706718 0.114201
4.43864 -0.731088 0.118139
4.5866 -0.755458 0.122077
4.73455 -0.779827 0.126015
4.88251 -0.804197 0.129952
5.03046 -0.828566 0.13389
5.17842 -0.852936 0.137828
5.32637 -0.877306 0.141766
5.47433 -0.901675 0.145704
5.62228 -0.926045 0.149642
5.77024 -0.950414 0.15358
5.91819 -0.974784 0.157518
6.06615 -0.999154 0.161456
6.2141 -1.02352 0.165394
6.36206 -1.04789 0.169332
6.51001 -1.07226 0.17327
6.65796 -1.09663 0.177208
6.80592 -1.121 0.181146
6.95387 -1.14537 0.185084
7.10183 -1.16974 0.189022
7.24978 -1.19411 0.19296
7.39774 -1.21848 0.196898
7.54569 -1.24285 0.200836
7.69365 -1.26722 0.204774
7.8416 -1.29159 0.208712
7.98956 -1.31596 0.21265
8.13751 -1.34033 0.216587
8.28547 -1.3647 0.220525
8.43342 -1.38907 0.224463
8.58138 -1.41344 0.228401
8.72933 -1.43781 0.232339
8.87729 -1.46218 0.236277
9.02524 -1.48655 0.240215
9.1732 -1.51092 0.244153
9.32115 -1.53528 0.248091
9.46911 -1.55965 0.252029
9.61706 -1.58402 0.255967
9.76502 -1.60839 0.259905
0.142733 -0.0459809 0.00359559
0.285467 -0.0919618 0.00719118
0.4282 -0.137943 0.0107868
0.570934 -0.183924 0.0143824
0.713667 -0.229905 0.017978
0.8564 -0.275885 0.0215736
0.999134 -0.321866 0.0251691
1.14187 -0.367847 0.0287647
1.2846 -0.413828 0.0323603
1.42733 -0.459809 0.0359559
1.57007 -0.50579 0.0395515
1.7128 -0.551771 0.0431471
1.85553 -0.597752 0.0467427
1.99827 -0.643733 0.0503383
2.141 -0.689714 0.0539339
2.28373 -0.735695 0.0575295
2.42647 -0.781675 0.0611251
2.5692 -0.827656 0.0647207
2.71193 -0.873637 0.0683162
2.85467 -0.919618 0.0719118
2.9974 -0.965599 0.0755074
3.14014 -1.01158 0.079103
3.28287 -1.05756 0.0826986
3.4256 -1.10354 0.0862942
3.56834 -1.14952 0.0898898
3.71107 -1.1955 0.0934854
3.8538 -1.24148 0.097081
3.99654 -1.28747 0.100677
4.13927 -1.33345 0.104272
4.282 -1.37943 0.107868
4.42474 -1.42541 0.111463
4.56747 -1.47139 0.115059
4.7102 -1.51737 0.118655
4.85294 -1.56335 0.12225
4.99567 -1.60933 0.125846
5.1384 -1.65531 0.129441
5.28114 -1.70129 0.133037
5.42387 -1.74727 0.136632
5.5666 -1.79326 0.140228
5.70934 -1.83924 0.143824
5.85207 -1.88522 0.147419
5.9948 -1.9312 0.151015
6.13754 -1.97718 0.15461
6.28027 -2.02316 0.158206
6.423 -2.06914 0.161802
6.56574 -2.11512 0.165397
6.70847 -2.1611 0.168993
6.8512 -2.20708 0.172588
6.99394 -2.25306 0.176184
7.13667 -2.29905 0.17978
7.2794 -2.34503 0.183375
7.42214 -2.39101 0.186971
7.56487 -2.43699 0.190566
7.7076 -2.48297 0.194162
7.85034 -2.52895 0.197758
7.99307 -2.57493 0.201353
8.1358 -2.62091 0.204949
8.27854 -2.66689 0.208544
8.42127 -2.71287 0.21214
8.564 -2.75885 0.215736
8.70674 -2.80484 0.219331
8.84947 -2.85082 0.222927
8.99221 -2.8968 0.226522
9.13494 -2.94278 0.230118
9.27767 -2.98876 0.233713
9.42041 -3.03474 0.237309
0.0255682 -0.132488 0.065523
0.0511364 -0.264975 0.131046
0.0767046 -0.397463 0.196569
0.102273 -0.529951 0.262092
0.127841 -0.662439 0.327615
0.153409 -0.794926 0.393138
0.178977 -0.927414 0.458661
0.204546 -1.0599 0.524184
0.230114 -1.19239 0.589707
0.255682 -1.32488 0.65523
0.28125 -1.45737 0.720753
0.306818 -1.58985 0.786276
0.332387 -1.72234 0.851799
0.357955 -1.85483 0.917322
0.383523 -1.98732 0.982845
0.409091 -2.1198 1.04837
0.434659 -2.25229 1.11389
0.460228 -2.38478 1.17941
0.485796 -2.51727 1.24494
0.511364 -2.64975 1.31046
0.536932 -2.78224 1.37598
0.5625 -2.91473 1.44151
0.588068 -3.04722 1.50703
0.613637 -3.17971 1.57255
0.639205 -3.31219 1.63808
0.664773 -3.44468 1.7036
0.690341 -3.57717 1.76912
0.715909 -3.70966 1.83464
0.741478 -3.84214 1.90017
0.767046 -3.97463 1.96569
0.792614 -4.10712 2.03121
0.818182 -4.23961 2.09674
0.84375 -4.3721 2.16226
0.869319 -4.50458 2.22778
0.894887 -4.63707 2.29331
0.920455 -4.76956 2.35883
0.946023 -4.90205 2.42435
0.971591 -5.03453 2.48987
0.99716 -5.16702 2.5554
1.02273 -5.29951 2.62092
1.0483 -5.432 2.68644
1.07386 -5.56449 2.75197
1.09943 -5.69697 2.81749
1.125 -5.82946 2.88301
1.15057 -5.96195 2.94854
1.17614 -6.09444 3.01406
1.20171 -6.22692 3.07958
1.22727 -6.35941 3.1451
1.25284 -6.4919 3.21063
1.27841 -6.62439 3.27615
1.30398 -6.75688 3.34167
1.32955 -6.88936 3.4072
1.35511 -7.02185 3.47272
1.38068 -7.15434 3.53824
1.40625 -7.28683 3.60377
1.43182 -7.41931 3.66929
1.45739 -7.5518 3.73481
1.48296 -7.68429 3.80033
1.50852 -7.81678 3.86586
1.53409 -7.94926 3.93138
1.55966 -8.08175 3.9969
1.58523 -8.21424 4.06243
1.6108 -8.34673 4.12795
1.63636 -8.47922 4.19347
1.66193 -8.6117 4.259
1.6875 -8.74419 4.32452
0.00585147 -0.134805 0.065523
0.0117029 -0.269611 0.131046
0.0175544 -0.404416 0.196569
0.0234059 -0.539222 0.262092
0.0292573 -0.674027 0.327615
0.0351088 -0.808832 0.393138
0.0409603 -0.943638 0.458661
0.0468117 -1.07844 0.524184
0.0526632 -1.21325 0.589707
0.0585147 -1.34805 0.65523
0.0643662 -1.48286 0.720753
0.0702176 -1.61766 0.786276
0.0760691 -1.75247 0.851799
0.0819206 -1.88728 0.917322
0.087772 -2.02208 0.982845
0.0936235 -2.15689 1.04837
0.099475 -2.29169 1.11389
0.105326 -2.4265 1.17941
0.111178 -2.5613 1.24494
0.117029 -2.69611 1.31046
0.122881 -2.83091 1.37598
0.128732 -2.96572 1.44151
0.134584 -3.10052 1.50703
0.140435 -3.23533 1.57255
0.146287 -3.37014 1.63808
0.152138 -3.50494 1.7036
0.15799 -3.63975 1.76912
0.163841 -3.77455 1.83464
0.169693 -3.90936 1.90017
0.175544 -4.04416 1.96569
0.181396 -4.17897 2.03121
0.187247 -4.31377 2.09674
0.193098 -4.44858 2.16226
0.19895 -4.58338 2.22778
0.204801 -4.71819 2.29331
0.210653 -4.85299 2.35883
0.216504 -4.9878 2.42435
0.222356 -5.12261 2.48987
0.228207 -5.25741 2.5554
0.234059 -5.39222 2.62092
0.23991 -5.52702 2.68644
0.245762 -5.66183 2.75197
0.251613 -5.79663 2.81749
0.257465 -5.93144 2.88301
0.263316 -6.06624 2.94854
0.269168 -6.20105 3.01406
0.275019 -6.33585 3.07958
0.28087 -6.47066 3.1451
0.286722 -6.60546 3.21063
0.292573 -6.74027 3.27615
0.298425 -6.87508 3.34167
0.304276 -7.00988 3.4072
0.310128 -7.14469 3.47272
0.315979 -7.27949 3.53824
0.321831 -7.4143 3.60377
0.327682 -7.5491 3.66929
0.333534 -7.68391 3.73481
0.339385 -7.81871 3.80033
0.345237 -7.95352 3.86586
0.351088 -8.08832 3.93138
0.35694 -8.22313 3.9969
0.362791 -8.35793 4.06243
0.368643 -8.49274 4.12795
0.374494 -8.62755 4.19347
0.380345 -8.76235 4.259
0.386197 -8.89716 4.32452
0.0277968 -0.144925 0.0269087
0.0555937 -0.28985 0.0538174
0.0833905 -0.434775 0.0807261
0.111187 -0.5797 0.107635
0.138984 -0.724625 0.134543
0.166781 -0.86955 0.161452
0.194578 -1.01448 0.188361
0.222375 -1.1594 0.215269
0.250172 -1.30433 0.242178
0.277968 -1.44925 0.269087
0.305765 -1.59418 0.295996
0.333562 -1.7391 0.322904
0.361359 -1.88403 0.349813
0.389156 -2.02895 0.376722
0.416953 -2.17388 0.40363
0.444749 -2.3188 0.430539
0.472546 -2.46373 0.457448
0.500343 -2.60865 0.484356
0.52814 -2.75358 0.511265
0.555937 -2.8985 0.538174
0.583734 -3.04343 0.565082
0.61153 -3.18835 0.591991
0.639327 -3.33328 0.6189
0.667124 -3.4782 0.645808
0.694921 -3.62313 0.672717
0.722718 -3.76805 0.699626
0.750515 -3.91298 0.726534
0.778312 -4.0579 0.753443
0.806108 -4.20283 0.780352
0.833905 -4.34775 0.807261
0.861702 -4.49268 0.834169
0.889499 -4.6376 0.861078
0.917296 -4.78253 0.887987
0.945093 -4.92745 0.914895
0.972889 -5.07238 0.941804
1.00069 -5.2173 0.968713
1.02848 -5.36223 0.995621
1.05628 -5.50715 1.02253
1.08408 -5.65208 1.04944
1.11187 -5.797 1.07635
1.13967 -5.94193 1.10326
1.16747 -6.08685 1.13016
1.19526 -6.23178 1.15707
1.22306 -6.3767 1.18398
1.25086 -6.52163 1.21089
1.27865 -6.66655 1.2378
1.30645 -6.81148 1.26471
1.33425 -6.9564 1.29162
1.36205 -7.10133 1.31853
1.38984 -7.24625 1.34543
1.41764 -7.39118 1.37234
1.44544 -7.5361 1.39925
1.47323 -7.68103 1.42616
1.50103 -7.82595 1.45307
1.52883 -7.97088 1.47998
1.55662 -8.1158 1.50689
1.58442 -8.26073 1.53379
1.61222 -8.40565 1.5607
1.64001 -8.55058 1.58761
1.66781 -8.6955 1.61452
1.69561 -8.84043 1.64143
1.7234 -8.98535 1.66834
1.7512 -9.13028 1.69525
1.779 -9.2752 1.72216
1.80679 -9.42013 1.74906
1.83459 -9.56505 1.77597
0.00589444 -0.147449 0.0269087
0.0117889 -0.294898 0.0538174
0.0176833 -0.442347 0.0807261
0.0235777 -0.589796 0.107635
0.0294722 -0.737245 0.134543
0.0353666 -0.884693 0.161452
0.041261 -1.03214 0.188361
0.0471555 -1.17959 0.215269
0.0530499 -1.32704 0.242178
0.0589444 -1.47449 0.269087
0.0648388 -1.62194 0.295996
0.0707332 -1.76939 0.322904
0.0766277 -1.91684 0.349813
0.0825221 -2.06428 0.376722
0.0884165 -2.21173 0.40363
0.094311 -2.35918 0.430539
0.100205 -2.50663 0.457448
0.1061 -2.65408 0.484356
0.111994 -2.80153 0.511265
0.117889 -2.94898 0.538174
0.123783 -3.09643 0.565082
0.129678 -3.24388 0.591991
0.135572 -3.39132 0.6189
0.141466 -3.53877 0.645808
0.147361 -3.68622 0.672717
0.153255 -3.83367 0.699626
0.15915 -3.98112 0.726534
0.165044 -4.12857 0.753443
0.170939 -4.27602 0.780352
0.176833 -4.42347 0.807261
0.182727 -4.57092 0.834169
0.188622 -4.71836 0.861078
0.194516 -4.86581 0.887987
0.200411 -5.01326 0.914895
0.206305 -5.16071 0.941804
0.2122 -5.30816 0.968713
0.218094 -5.45561 0.995621
0.223989 -5.60306 1.02253
0.229883 -5.75051 1.04944
0.235777 -5.89796 1.07635
0.241672 -6.0454 1.10326
0.247566 -6.19285 1.13016
0.253461 -6.3403 1.15707
0.259355 -6.48775 1.18398
0.26525 -6.6352 1.21089
0.271144 -6.78265 1.2378
0.277038 -6.9301 1.26471
0.282933 -7.07755 1.29162
0.288827 -7.225 1.31853
0.294722 -7.37245 1.34543
0.300616 -7.51989 1.37234
0.306511 -7.66734 1.39925
0.312405 -7.81479 1.42616
0.3183 -7.96224 1.45307
0.324194 -8.10969 1.47998
0.330088 -8.25714 1.50689
0.335983 -8.40459 1.53379
0.341877 -8.55204 1.5607
0.347772 -8.69949 1.58761
0.353666 -8.84693 1.61452
0.359561 -8.99438 1.64143
0.365455 -9.14183 1.66834
0.371349 -9.28928 1.69525
0.377244 -9.43673 1.72216
0.383138 -9.58418 1.74906
0.389033 -9.73163 1.77597
-0.0918123 0.111096 0.0415723
-0.183625 0.222191 0.0831447
-0.275437 0.333287 0.124717
-0.367249 0.444382 0.166289
-0.459062 0.555478 0.207862
-0.550874 0.666574 0.249434
-0.642686 0.777669 0.291006
-0.734499 0.888765 0.332579
-0.826311 0.999861 0.374151
-0.918123 1.11096 0.415723
-1.00994 1.22205 0.457296
-1.10175 1.33315 0.498868
-1.19356 1.44424 0.54044
-1.28537 1.55534 0.582013
-1.37719 1.66643 0.623585
-1.469 1.77753 0.665157
-1.56081 1.88863 0.70673
-1.65262 1.99972 0.748302
-1.74443 2.11082 0.789874
-1.83625 2.22191 0.831447
-1.92806 2.33301 0.873019
-2.01987 2.4441 0.914591
-2.11168 2.5552 0.956164
-2.2035 2.66629 0.997736
-2.29531 2.77739 1.03931
-2.38712 2.88849 1.08088
-2.47893 2.99958 1.12245
-2.57075 3.11068 1.16403
-2.66256 3.22177 1.2056
-2.75437 3.33287 1.24717
-2.84618 3.44396 1.28874
-2.93799 3.55506 1.33031
-3.02981 3.66616 1.37189
-3.12162 3.77725 1.41346
-3.21343 3.88835 1.45503
-3.30524 3.99944 1.4966
-3.39706 4.11054 1.53818
-3.48887 4.22163 1.57975
-3.58068 4.33273 1.62132
-3.67249 4.44382 1.66289
-3.76431 4.55492 1.70447
-3.85612 4.66602 1.74604
-3.94793 4.77711 1.78761
-4.03974 4.88821 1.82918
-4.13156 4.9993 1.87076
-4.22337 5.1104 1.91233
-4.31518 5.22149 1.9539
-4.40699 5.33259 1.99547
-4.4988 5.44369 2.03704
-4.59062 5.55478 2.07862
-4.68243 5.66588 2.12019
-4.77424 5.77697 2.16176
-4.86605 5.88807 2.20333
-4.95787 5.99916 2.24491
-5.04968 6.11026 2.28648
-5.14149 6.22135 2.32805
-5.2333 6.33245 2.36962
-5.32512 6.44355 2.4112
-5.41693 6.55464 2.45277
-5.50874 6.66574 2.49434
-5.60055 6.77683 2.53591
-5.69236 6.88793 2.57748
-5.78418 6.99902 2.61906
-5.87599 7.11012 2.66063
-5.9678 7.22122 2.7022
-6.05961 7.33231 2.74377
-0.0852264 0.117135 0.0389331
-0.170453 0.234271 0.0778662
-0.255679 0.351406 0.116799
-0.340906 0.468541 0.155732
-0.426132 0.585676 0.194666
-0.511358 0.702812 0.233599
-0.596585 0.819947 0.272532
-0.681811 0.937082 0.311465
-0.767038 1.05422 0.350398
-0.852264 1.17135 0.389331
-0.93749 1.28849 0.428264
-1.02272 1.40562 0.467197
-1.10794 1.52276 0.50613
-1.19317 1.63989 0.545064
-1.2784 1.75703 0.583997
-1.36362 1.87416 0.62293
-1.44885 1.9913 0.661863
-1.53408 2.10843 0.700796
-1.6193 2.22557 0.739729
-1.70453 2.34271 0.778662
-1.78975 2.45984 0.817595
-1.87498 2.57698 0.856528
-1.96021 2.69411 0.895462
-2.04543 2.81125 0.934395
-2.13066 2.92838 0.973328
-2.21589 3.04552 1.01226
-2.30111 3.16265 1.05119
-2.38634 3.27979 1.09013
-2.47157 3.39692 1.12906
-2.55679 3.51406 1.16799
-2.64202 3.63119 1.20693
-2.72724 3.74833 1.24586
-2.81247 3.86546 1.28479
-2.8977 3.9826 1.32373
-2.98292 4.09973 1.36266
-3.06815 4.21687 1.40159
-3.15338 4.33401 1.44053
-3.2386 4.45114 1.47946
-3.32383 4.56828 1.51839
-3.40906 4.68541 1.55732
-3.49428 4.80255 1.59626
-3.57951 4.91968 1.63519
-3.66474 5.03682 1.67412
-3.74996 5.15395 1.71306
-3.83519 5.27109 1.75199
-3.92041 5.38822 1.79092
-4.00564 5.50536 1.82986
-4.09087 5.62249 1.86879
-4.17609 5.73963 1.90772
-4.26132 5.85676 1.94666
-4.34655 5.9739 1.98559
-4.43177 6.09103 2.02452
-4.517 6.20817 2.06345
-4.60223 6.3253 2.10239
-4.68745 6.44244 2.14132
-4.77268 6.55958 2.18025
-4.8579 6.67671 2.21919
-4.94313 6.79385 2.25812
-5.02836 6.91098 2.29705
-5.11358 7.02812 2.33599
-5.19881 7.14525 2.37492
-5.28404 7.26239 2.41385
-5.36926 7.37952 2.45279
-5.45449 7.49666 2.49172
-5.53972 7.61379 2.53065
-5.62494 7.73093 2.56959
-0.144588 0.00809625 -0.0390985
-0.289176 0.0161925 -0.0781969
-0.433765 0.0242887 -0.117295
-0.578353 0.032385 -0.156394
-0.722941 0.0404812 -0.195492
-0.867529 0.0485775 -0.234591
-1.01212 0.0566737 -0.273689
-1.15671 0.06477 -0.312788
-1.30129 0.0728662 -0.351886
-1.44588 0.0809625 -0.390985
-1.59047 0.0890587 -0.430083
-1.73506 0.097155 -0.469181
-1.87965 0.105251 -0.50828
-2.02424 0.113347 -0.547378
-2.16882 0.121444 -0.586477
-2.31341 0.12954 -0.625575
-2.458 0.137636 -0.664674
-2.60259 0.145732 -0.703772
-2.74718 0.153829 -0.742871
-2.89176 0.161925 -0.781969
-3.03635 0.170021 -0.821068
-3.18094 0.178117 -0.860166
-3.32553 0.186214 -0.899264
-3.47012 0.19431 -0.938363
-3.61471 0.202406 -0.977461
-3.75929 0.210502 -1.01656
-3.90388 0.218599 -1.05566
-4.04847 0.226695 -1.09476
-4.19306 0.234791 -1.13386
-4.33765 0.242887 -1.17295
-4.48224 0.250984 -1.21205
-4.62682 0.25908 -1.25115
-4.77141 0.267176 -1.29025
-4.916 0.275272 -1.32935
-5.06059 0.283369 -1.36845
-5.20518 0.291465 -1.40754
-5.34977 0.299561 -1.44664
-5.49435 0.307657 -1.48574
-5.63894 0.315754 -1.52484
-5.78353 0.32385 -1.56394
-5.92812 0.331946 -1.60304
-6.07271 0.340042 -1.64214
-6.21729 0.348139 -1.68123
-6.36188 0.356235 -1.72033
-6.50647 0.364331 -1.75943
-6.65106 0.372427 -1.79853
-6.79565 0.380524 -1.83763
-6.94024 0.38862 -1.87673
-7.08482 0.396716 -1.91582
-7.22941 0.404812 -1.95492
-7.374 0.412909 -1.99402
-7.51859 0.421005 -2.03312
-7.66318 0.429101 -2.07222
-7.80777 0.437197 -2.11132
-7.95235 0.445294 -2.15041
-8.09694 0.45339 -2.18951
-8.24153 0.461486 -2.22861
-8.38612 0.469582 -2.26771
-8.53071 0.477679 -2.30681
-8.67529 0.485775 -2.34591
-8.81988 0.493871 -2.38501
-8.96447 0.501967 -2.4241
-9.10906 0.510064 -2.4632
-9.25365 0.51816 -2.5023
-9.39824 0.526256 -2.5414
-9.54282 0.534352 -2.5805
-0.143695 -0.017973 -0.0390985
-0.28739 -0.0359459 -0.0781969
-0.431085 -0.0539189 -0.117295
-0.57478 -0.0718918 -0.156394
-0.718476 -0.0898648 -0.195492
-0.862171 -0.107838 -0.234591
-1.00587 -0.125811 -0.273689
-1.14956 -0.143784 -0.312788
-1.29326 -0.161757 -0.351886
-1.43695 -0.17973 -0.390985
-1.58065 -0.197702 -0.430083
-1.72434 -0.215675 -0.469181
-1.86804 -0.233648 -0.50828
-2.01173 -0.251621 -0.547378
-2.15543 -0.269594 -0.586477
-2.29912 -0.287567 -0.625575
-2.44282 -0.30554 -0.664674
-2.58651 -0.323513 -0.703772
-2.73021 -0.341486 -0.742871
-2.8739 -0.359459 -0.781969
-3.0176 -0.377432 -0.821068
-3.16129 -0.395405 -0.860166
-3.30499 -0.413378 -0.899264
-3.44868 -0.431351 -0.938363
-3.59238 -0.449324 -0.977461
-3.73607 -0.467297 -1.01656
-3.87977 -0.48527 -1.05566
-4.02346 -0.503243 -1.09476
-4.16716 -0.521216 -1.13386
-4.31085 -0.539189 -1.17295
-4.45455 -0.557162 -1.21205
-4.59824 -0.575135 -1.25115
-4.74194 -0.593107 -1.29025
-4.88563 -0.61108 -1.32935
-5.02933 -0.629053 -1.36845
-5.17302 -0.647026 -1.40754
-5.31672 -0.664999 -1.44664
-5.46041 -0.682972 -1.48574
-5.60411 -0.700945 -1.52484
-5.7478 -0.718918 -1.56394
-5.8915 -0.736891 -1.60304
-6.03519 -0.754864 -1.64214
-6.17889 -0.772837 -1.68123
-6.32258 -0.79081 -1.72033
-6.46628 -0.808783 -1.75943
-6.60997 -0.826756 -1.79853
-6.75367 -0.844729 -1.83763
-6.89737 -0.862702 -1.87673
-7.04106 -0.880675 -1.91582
-7.18476 -0.898648 -1.95492
-7.32845 -0.916621 -1.99402
-7.47215 -0.934594 -2.03312
-7.61584 -0.952567 -2.07222
-7.75954 -0.970539 -2.11132
-7.90323 -0.988512 -2.15041
-8.04693 -1.00649 -2.18951
-8.19062 -1.02446 -2.22861
-8.33432 -1.04243 -2.26771
-8.47801 -1.0604 -2.30681
-8.62171 -1.07838 -2.34591
-8.7654 -1.09635 -2.38501
-8.9091 -1.11432 -2.4241
-9.05279 -1.1323 -2.4632
-9.19649 -1.15027 -2.5023
-9.34018 -1.16824 -2.5414
-9.48388 -1.18621 -2.5805
-0.143016 -0.0218822 -0.0395942
-0.286031 -0.0437645 -0.0791883
-0.429047 -0.0656467 -0.118783
-0.572063 -0.087529 -0.158377
-0.715078 -0.109411 -0.197971
-0.858094 -0.131293 -0.237565
-1.00111 -0.153176 -0.277159
-1.14413 -0.175058 -0.316753
-1.28714 -0.19694 -0.356348
-1.43016 -0.218822 -0.395942
-1.57317 -0.240705 -0.435536
-1.71619 -0.262587 -0.47513
-1.8592 -0.284469 -0.514724
-2.00222 -0.306351 -0.554318
-2.14523 -0.328234 -0.593913
-2.28825 -0.350116 -0.633507
-2.43127 -0.371998 -0.673101
-2.57428 -0.39388 -0.712695
-2.7173 -0.415763 -0.752289
-2.86031 -0.437645 -0.791883
-3.00333 -0.459527 -0.831478
-3.14634 -0.481409 -0.871072
-3.28936 -0.503291 -0.910666
-3.43238 -0.525174 -0.95026
-3.57539 -0.547056 -0.989854
-3.71841 -0.568938 -1.02945
-3.86142 -0.59082 -1.06904
-4.00444 -0.612703 -1.10864
-4.14745 -0.634585 -1.14823
-4.29047 -0.656467 -1.18783
-4.43348 -0.678349 -1.22742
-4.5765 -0.700232 -1.26701
-4.71952 -0.722114 -1.30661
-4.86253 -0.743996 -1.3462
-5.00555 -0.765878 -1.3858
-5.14856 -0.787761 -1.42539
-5.29158 -0.809643 -1.46498
-5.43459 -0.831525 -1.50458
-5.57761 -0.853407 -1.54417
-5.72063 -0.87529 -1.58377
-5.86364 -0.897172 -1.62336
-6.00666 -0.919054 -1.66296
-6.14967 -0.940936 -1.70255
-6.29269 -0.962818 -1.74214
-6.4357 -0.984701 -1.78174
-6.57872 -1.00658 -1.82133
-6.72173 -1.02847 -1.86093
-6.86475 -1.05035 -1.90052
-7.00777 -1.07223 -1.94011
-7.15078 -1.09411 -1.97971
-7.2938 -1.11599 -2.0193
-7.43681 -1.13788 -2.0589
-7.57983 -1.15976 -2.09849
-7.72284 -1.18164 -2.13809
-7.86586 -1.20352 -2.17768
-8.00888 -1.22541 -2.21727
-8.15189 -1.24729 -2.25687
-8.29491 -1.26917 -2.29646
-8.43792 -1.29105 -2.33606
-8.58094 -1.31293 -2.37565
-8.72395 -1.33482 -2.41524
-8.86697 -1.3567 -2.45484
-9.00998 -1.37858 -2.49443
-9.153 -1.40046 -2.53403
-9.29602 -1.42235 -2.57362
-9.43903 -1.44423 -2.61322
-0.138754 -0.0419178 -0.0386023
-0.277509 -0.0838355 -0.0772046
-0.416263 -0.125753 -0.115807
-0.555017 -0.167671 -0.154409
-0.693772 -0.209589 -0.193011
-0.832526 -0.251507 -0.231614
-0.97128 -0.293424 -0.270216
-1.11003 -0.335342 -0.308818
-1.24879 -0.37726 -0.347421
-1.38754 -0.419178 -0.386023
-1.5263 -0.461095 -0.424625
-1.66505 -0.503013 -0.463227
-1.80381 -0.544931 -0.50183
-1.94256 -0.586849 -0.540432
-2.08132 -0.628766 -0.579034
-2.22007 -0.670684 -0.617636
-2.35882 -0.712602 -0.656239
-2.49758 -0.75452 -0.694841
-2.63633 -0.796437 -0.733443
-2.77509 -0.838355 -0.772046
-2.91384 -0.880273 -0.810648
-3.0526 -0.922191 -0.84925
-3.19135 -0.964108 -0.887852
-3.3301 -1.00603 -0.926455
-3.46886 -1.04794 -0.965057
-3.60761 -1.08986 -1.00366
-3.74637 -1.13178 -1.04226
-3.88512 -1.1737 -1.08086
-4.02388 -1.21561 -1.11947
-4.16263 -1.25753 -1.15807
-4.30138 -1.29945 -1.19667
-4.44014 -1.34137 -1.23527
-4.57889 -1.38329 -1.27388
-4.71765 -1.4252 -1.31248
-4.8564 -1.46712 -1.35108
-4.99516 -1.50904 -1.38968
-5.13391 -1.55096 -1.42828
-5.27266 -1.59287 -1.46689
-5.41142 -1.63479 -1.50549
-5.55017 -1.67671 -1.54409
-5.68893 -1.71863 -1.58269
-5.82768 -1.76055 -1.6213
-5.96644 -1.80246 -1.6599
-6.10519 -1.84438 -1.6985
-6.24395 -1.8863 -1.7371
-6.3827 -1.92822 -1.7757
-6.52145 -1.97013 -1.81431
-6.66021 -2.01205 -1.85291
-6.79896 -2.05397 -1.89151
-6.93772 -2.09589 -1.93011
-7.07647 -2.13781 -1.96872
-7.21523 -2.17972 -2.00732
-7.35398 -2.22164 -2.04592
-7.49273 -2.26356 -2.08452
-7.63149 -2.30548 -2.12313
-7.77024 -2.34739 -2.16173
-7.909 -2.38931 -2.20033
-8.04775 -2.43123 -2.23893
-8.18651 -2.47315 -2.27753
-8.32526 -2.51507 -2.31614
-8.46401 -2.55698 -2.35474
-8.60277 -2.5989 -2.39334
-8.74152 -2.64082 -2.43194
-8.88028 -2.68274 -2.47055
-9.01903 -2.72465 -2.50915
-9.15779 -2.76657 -2.54775
