ply
format ascii 1.0
element vertex 30
property float x
property float y
property float z
end_header
-9.9282 1.19615 1
3.66025 13.6603 -3
-7.66025 -6.73205 11
0.732051 2.73205 1
-5 8.66025 9
-9.66025 -3.26795 15
-3.26795 9.66025 5
-3.73205 2.4641 1
9.9282 -1.19615 15
1.9282 12.6603 11
-3.73205 2.4641 -1
6.4641 -3.19615 3
11.6603 -0.196152 9
-6.4641 3.19615 9
-8.19615 2.19615 13
-5.73205 5.9282 13
3.19615 6.4641 9
1.4641 5.4641 -1
5.73205 -5.9282 5
0.535898 -8.9282 11
-7.9282 -2.26795 9
2.73205 -0.732051 -3
4.73205 -4.19615 1
-7.9282 -2.26795 11
-8.9282 -0.535898 -1
-5.66025 -10.1962 3
5.73205 -5.9282 -3
2.4641 3.73205 -1
0.267949 -4.4641 -5
11.6603 -0.196152 5
