ply
format ascii 1.0
element vertex 50
property float x
property float y
property float z
end_header
-12 -25.6603 10
-14.5 -21.3301 10
-17 -17 10
-19.5 -12.6699 10
-22 -8.33975 10
-12 -25.6603 5
-14.5 -21.3301 5
-17 -17 5
-19.5 -12.6699 5
-22 -8.33975 5
-12 -25.6603 7.88045e-13
-14.5 -21.3301 1.49535e-12
-17 -17 2.20264e-12
-19.5 -12.6699 2.90994e-12
-22 -8.33975 3.61724e-12
-12 -25.6603 -5
-14.5 -21.3301 -5
-17 -17 -5
-19.5 -12.6699 -5
-22 -8.33975 -5
-12 -25.6603 -10
-14.5 -21.3301 -10
-17 -17 -10
-19.5 -12.6699 -10
-22 -8.33975 -10
-15 -23.9282 8
-17 -20.4641 8
-19 -17 8
-21 -13.5359 8
-23 -10.0718 8
-15 -23.9282 4
-17 -20.4641 4
-19 -17 4
-21 -13.5359 4
-23 -10.0718 4
-15 -23.9282 1.41636e-12
-17 -20.4641 1.9822e-12
-19 -17 2.54804e-12
-21 -13.5359 3.11388e-12
-23 -10.0718 3.67972e-12
-15 -23.9282 -4
-17 -20.4641 -4
-19 -17 -4
-21 -13.5359 -4
-23 -10.0718 -4
-15 -23.9282 -8
-17 -20.4641 -8
-19 -17 -8
-21 -13.5359 -8
-23 -10.0718 -8
