ply
format ascii 1.0
element vertex 30
property float x
property float y
property float z
end_header
0.705758 -24.2224 5
0.705758 -24.2224 5
-3.62436 -21.7224 -10
0.705758 -24.2224 10
-3.62436 -21.7224 -5
1.5718 -26.7224 -8
-7.95448 -19.2224 -10
-7.95448 -19.2224 10
-8.82051 -20.7224 8
-1.89231 -24.7224 4
-12.2846 -16.7224 10
-5.35641 -22.7224 8
-12.2846 -18.7224 0
0.705758 -24.2224 0
5.03592 -26.7225 -10
-3.62436 -21.7224 0
-12.2846 -16.7224 0
1.5718 -26.7224 -4
-7.95448 -19.2224 -10
-7.95448 -19.2224 0
-12.2846 -16.7224 0
-5.35641 -22.7224 0
-3.62436 -21.7224 -10
5.03592 -26.7225 -5
0.705758 -24.2224 -5
5.03592 -26.7225 5
5.03592 -26.7225 5
-7.95448 -19.2224 10
-12.2846 -18.7224 4
-5.35641 -22.7224 4
