ply
format ascii 1.0
element vertex 925
property float x
property float y
property float z
end_header
0 0 0
-0.0687835 -0.111557 -0.0729643
-0.137567 -0.223115 -0.145929
-0.206351 -0.334672 -0.218893
-0.275134 -0.446229 -0.291857
-0.343918 -0.557787 -0.364821
-0.412701 -0.669344 -0.437786
-0.481485 -0.780901 -0.51075
-0.550268 -0.892459 -0.583714
-0.619052 -1.00402 -0.656678
-0.687835 -1.11557 -0.729643
-0.756619 -1.22713 -0.802607
-0.825403 -1.33869 -0.875571
-0.894186 -1.45025 -0.948536
-0.96297 -1.5618 -1.0215
-1.03175 -1.67336 -1.09446
-1.10054 -1.78492 -1.16743
-1.16932 -1.89647 -1.24039
-1.2381 -2.00803 -1.31336
-1.30689 -2.11959 -1.38632
-1.37567 -2.23115 -1.45929
-1.44445 -2.3427 -1.53225
-1.51324 -2.45426 -1.60521
-1.58202 -2.56582 -1.67818
-1.65081 -2.67738 -1.75114
-1.71959 -2.78893 -1.82411
-1.78837 -2.90049 -1.89707
-1.85716 -3.01205 -1.97004
-1.92594 -3.12361 -2.043
-1.99472 -3.23516 -2.11596
-2.06351 -3.34672 -2.18893
-2.13229 -3.45828 -2.26189
-2.20107 -3.56983 -2.33486
-2.26986 -3.68139 -2.40782
-2.33864 -3.79295 -2.48079
-2.40742 -3.90451 -2.55375
-2.47621 -4.01606 -2.62671
-2.54499 -4.12762 -2.69968
-2.61377 -4.23918 -2.77264
-2.68256 -4.35074 -2.84561
-2.75134 -4.46229 -2.91857
-2.82013 -4.57385 -2.99154
-2.88891 -4.68541 -3.0645
-2.95769 -4.79697 -3.13746
-3.02648 -4.90852 -3.21043
-3.09526 -5.02008 -3.28339
-3.16404 -5.13164 -3.35636
-3.23283 -5.24319 -3.42932
-3.30161 -5.35475 -3.50229
-3.37039 -5.46631 -3.57525
-3.43918 -5.57787 -3.64821
-3.50796 -5.68942 -3.72118
-3.57674 -5.80098 -3.79414
-3.64553 -5.91254 -3.86711
-3.71431 -6.0241 -3.94007
-3.7831 -6.13565 -4.01303
-3.85188 -6.24721 -4.086
-3.92066 -6.35877 -4.15896
-3.98945 -6.47033 -4.23193
-4.05823 -6.58188 -4.30489
-4.12701 -6.69344 -4.37786
-4.1958 -6.805 -4.45082
-4.26458 -6.91655 -4.52378
-4.33336 -7.02811 -4.59675
-4.40215 -7.13967 -4.66971
-4.47093 -7.25123 -4.74268
-4.53971 -7.36278 -4.81564
-0.0523475 -0.117912 -0.0765271
-0.104695 -0.235825 -0.153054
-0.157043 -0.353737 -0.229581
-0.20939 -0.47165 -0.306108
-0.261738 -0.589562 -0.382636
-0.314085 -0.707474 -0.459163
-0.366433 -0.825387 -0.53569
-0.41878 -0.943299 -0.612217
-0.471128 -1.06121 -0.688744
-0.523475 -1.17912 -0.765271
-0.575823 -1.29704 -0.841798
-0.62817 -1.41495 -0.918325
-0.680518 -1.53286 -0.994853
-0.732865 -1.65077 -1.07138
-0.785213 -1.76869 -1.14791
-0.83756 -1.8866 -1.22443
-0.889908 -2.00451 -1.30096
-0.942255 -2.12242 -1.37749
-0.994603 -2.24034 -1.45402
-1.04695 -2.35825 -1.53054
-1.0993 -2.47616 -1.60707
-1.15165 -2.59407 -1.6836
-1.20399 -2.71199 -1.76012
-1.25634 -2.8299 -1.83665
-1.30869 -2.94781 -1.91318
-1.36104 -3.06572 -1.98971
-1.41338 -3.18364 -2.06623
-1.46573 -3.30155 -2.14276
-1.51808 -3.41946 -2.21929
-1.57043 -3.53737 -2.29581
-1.62277 -3.65528 -2.37234
-1.67512 -3.7732 -2.44887
-1.72747 -3.89111 -2.52539
-1.77982 -4.00902 -2.60192
-1.83216 -4.12693 -2.67845
-1.88451 -4.24485 -2.75498
-1.93686 -4.36276 -2.8315
-1.98921 -4.48067 -2.90803
-2.04155 -4.59858 -2.98456
-2.0939 -4.7165 -3.06108
-2.14625 -4.83441 -3.13761
-2.1986 -4.95232 -3.21414
-2.25094 -5.07023 -3.29067
-2.30329 -5.18815 -3.36719
-2.35564 -5.30606 -3.44372
-2.40799 -5.42397 -3.52025
-2.46033 -5.54188 -3.59677
-2.51268 -5.6598 -3.6733
-2.56503 -5.77771 -3.74983
-2.61738 -5.89562 -3.82636
-2.66972 -6.01353 -3.90288
-2.72207 -6.13145 -3.97941
-2.77442 -6.24936 -4.05594
-2.82677 -6.36727 -4.13246
-2.87911 -6.48518 -4.20899
-2.93146 -6.6031 -4.28552
-2.98381 -6.72101 -4.36205
-3.03616 -6.83892 -4.43857
-3.0885 -6.95683 -4.5151
-3.14085 -7.07474 -4.59163
-3.1932 -7.19266 -4.66815
-3.24555 -7.31057 -4.74468
-3.29789 -7.42848 -4.82121
-3.35024 -7.54639 -4.89774
-3.40259 -7.66431 -4.97426
-3.45494 -7.78222 -5.05079
-0.0484205 -0.1192 -0.0771154
-0.0968409 -0.2384 -0.154231
-0.145261 -0.3576 -0.231346
-0.193682 -0.476801 -0.308462
-0.242102 -0.596001 -0.385577
-0.290523 -0.715201 -0.462692
-0.338943 -0.834401 -0.539808
-0.387364 -0.953601 -0.616923
-0.435784 -1.0728 -0.694039
-0.484205 -1.192 -0.771154
-0.532625 -1.3112 -0.84827
-0.581046 -1.4304 -0.925385
-0.629466 -1.5496 -1.0025
-0.677887 -1.6688 -1.07962
-0.726307 -1.788 -1.15673
-0.774728 -1.9072 -1.23385
-0.823148 -2.0264 -1.31096
-0.871568 -2.1456 -1.38808
-0.919989 -2.2648 -1.46519
-0.968409 -2.384 -1.54231
-1.01683 -2.5032 -1.61942
-1.06525 -2.6224 -1.69654
-1.11367 -2.7416 -1.77365
-1.16209 -2.8608 -1.85077
-1.21051 -2.98 -1.92789
-1.25893 -3.0992 -2.005
-1.30735 -3.2184 -2.08212
-1.35577 -3.3376 -2.15923
-1.40419 -3.4568 -2.23635
-1.45261 -3.576 -2.31346
-1.50103 -3.6952 -2.39058
-1.54946 -3.8144 -2.46769
-1.59788 -3.9336 -2.54481
-1.6463 -4.0528 -2.62192
-1.69472 -4.172 -2.69904
-1.74314 -4.2912 -2.77615
-1.79156 -4.4104 -2.85327
-1.83998 -4.5296 -2.93039
-1.8884 -4.64881 -3.0075
-1.93682 -4.76801 -3.08462
-1.98524 -4.88721 -3.16173
-2.03366 -5.00641 -3.23885
-2.08208 -5.12561 -3.31596
-2.1305 -5.24481 -3.39308
-2.17892 -5.36401 -3.47019
-2.22734 -5.48321 -3.54731
-2.27576 -5.60241 -3.62442
-2.32418 -5.72161 -3.70154
-2.3726 -5.84081 -3.77866
-2.42102 -5.96001 -3.85577
-2.46944 -6.07921 -3.93289
-2.51786 -6.19841 -4.01
-2.56629 -6.31761 -4.08712
-2.61471 -6.43681 -4.16423
-2.66313 -6.55601 -4.24135
-2.71155 -6.67521 -4.31846
-2.75997 -6.79441 -4.39558
-2.80839 -6.91361 -4.47269
-2.85681 -7.03281 -4.54981
-2.90523 -7.15201 -4.62692
-2.95365 -7.27121 -4.70404
-3.00207 -7.39041 -4.78116
-3.05049 -7.50961 -4.85827
-3.09891 -7.62881 -4.93539
-3.14733 -7.74801 -5.0125
-3.19575 -7.86721 -5.08962
-0.0314999 -0.123362 -0.0793071
-0.0629997 -0.246724 -0.158614
-0.0944996 -0.370086 -0.237921
-0.125999 -0.493447 -0.317228
-0.157499 -0.616809 -0.396535
-0.188999 -0.740171 -0.475843
-0.220499 -0.863533 -0.55515
-0.251999 -0.986895 -0.634457
-0.283499 -1.11026 -0.713764
-0.314999 -1.23362 -0.793071
-0.346499 -1.35698 -0.872378
-0.377998 -1.48034 -0.951685
-0.409498 -1.6037 -1.03099
-0.440998 -1.72707 -1.1103
-0.472498 -1.85043 -1.18961
-0.503998 -1.97379 -1.26891
-0.535498 -2.09715 -1.34822
-0.566998 -2.22051 -1.42753
-0.598497 -2.34387 -1.50683
-0.629997 -2.46724 -1.58614
-0.661497 -2.5906 -1.66545
-0.692997 -2.71396 -1.74476
-0.724497 -2.83732 -1.82406
-0.755997 -2.96068 -1.90337
-0.787497 -3.08405 -1.98268
-0.818997 -3.20741 -2.06198
-0.850496 -3.33077 -2.14129
-0.881996 -3.45413 -2.2206
-0.913496 -3.57749 -2.29991
-0.944996 -3.70086 -2.37921
-0.976496 -3.82422 -2.45852
-1.008 -3.94758 -2.53783
-1.0395 -4.07094 -2.61713
-1.071 -4.1943 -2.69644
-1.1025 -4.31766 -2.77575
-1.134 -4.44103 -2.85506
-1.1655 -4.56439 -2.93436
-1.19699 -4.68775 -3.01367
-1.22849 -4.81111 -3.09298
-1.25999 -4.93447 -3.17228
-1.29149 -5.05784 -3.25159
-1.32299 -5.1812 -3.3309
-1.35449 -5.30456 -3.41021
-1.38599 -5.42792 -3.48951
-1.41749 -5.55128 -3.56882
-1.44899 -5.67464 -3.64813
-1.48049 -5.79801 -3.72743
-1.51199 -5.92137 -3.80674
-1.54349 -6.04473 -3.88605
-1.57499 -6.16809 -3.96535
-1.60649 -6.29145 -4.04466
-1.63799 -6.41482 -4.12397
-1.66949 -6.53818 -4.20328
-1.70099 -6.66154 -4.28258
-1.73249 -6.7849 -4.36189
-1.76399 -6.90826 -4.4412
-1.79549 -7.03162 -4.5205
-1.82699 -7.15499 -4.59981
-1.85849 -7.27835 -4.67912
-1.88999 -7.40171 -4.75843
-1.92149 -7.52507 -4.83773
-1.95299 -7.64843 -4.91704
-1.98449 -7.7718 -4.99635
-2.01599 -7.89516 -5.07565
-2.04749 -8.01852 -5.15496
-2.07899 -8.14188 -5.23427
0.146922 0.0153177 -0.026066
0.293843 0.0306355 -0.0521319
0.440765 0.0459532 -0.0781979
0.587686 0.0612709 -0.104264
0.734608 0.0765887 -0.13033
0.881529 0.0919064 -0.156396
1.02845 0.107224 -0.182462
1.17537 0.122542 -0.208528
1.32229 0.13786 -0.234594
1.46922 0.153177 -0.26066
1.61614 0.168495 -0.286726
1.76306 0.183813 -0.312792
1.90998 0.199131 -0.338858
2.0569 0.214448 -0.364923
2.20382 0.229766 -0.390989
2.35074 0.245084 -0.417055
2.49767 0.260401 -0.443121
2.64459 0.275719 -0.469187
2.79151 0.291037 -0.495253
2.93843 0.306355 -0.521319
3.08535 0.321672 -0.547385
3.23227 0.33699 -0.573451
3.37919 0.352308 -0.599517
3.52612 0.367626 -0.625583
3.67304 0.382943 -0.651649
3.81996 0.398261 -0.677715
3.96688 0.413579 -0.703781
4.1138 0.428896 -0.729847
4.26072 0.444214 -0.755913
4.40765 0.459532 -0.781979
4.55457 0.47485 -0.808045
4.70149 0.490167 -0.834111
4.84841 0.505485 -0.860177
4.99533 0.520803 -0.886243
5.14225 0.536121 -0.912309
5.28917 0.551438 -0.938375
5.4361 0.566756 -0.964441
5.58302 0.582074 -0.990507
5.72994 0.597392 -1.01657
5.87686 0.612709 -1.04264
6.02378 0.628027 -1.0687
6.1707 0.643345 -1.09477
6.31763 0.658662 -1.12084
6.46455 0.67398 -1.1469
6.61147 0.689298 -1.17297
6.75839 0.704616 -1.19903
6.90531 0.719933 -1.2251
7.05223 0.735251 -1.25117
7.19915 0.750569 -1.27723
7.34608 0.765887 -1.3033
7.493 0.781204 -1.32936
7.63992 0.796522 -1.35543
7.78684 0.81184 -1.3815
7.93376 0.827157 -1.40756
8.08068 0.842475 -1.43363
8.22761 0.857793 -1.45969
8.37453 0.873111 -1.48576
8.52145 0.888428 -1.51183
8.66837 0.903746 -1.53789
8.81529 0.919064 -1.56396
8.96221 0.934382 -1.59002
9.10913 0.949699 -1.61609
9.25606 0.965017 -1.64216
9.40298 0.980335 -1.66822
9.5499 0.995653 -1.69429
9.69682 1.01097 -1.72035
0.146384 -0.0186488 -0.0269087
0.292767 -0.0372975 -0.0538174
0.439151 -0.0559463 -0.0807261
0.585534 -0.074595 -0.107635
0.731918 -0.0932438 -0.134543
0.878301 -0.111893 -0.161452
1.02468 -0.130541 -0.188361
1.17107 -0.14919 -0.215269
1.31745 -0.167839 -0.242178
1.46384 -0.186488 -0.269087
1.61022 -0.205136 -0.295996
1.7566 -0.223785 -0.322904
1.90299 -0.242434 -0.349813
2.04937 -0.261083 -0.376722
2.19575 -0.279731 -0.40363
2.34214 -0.29838 -0.430539
2.48852 -0.317029 -0.457448
2.6349 -0.335678 -0.484356
2.78129 -0.354326 -0.511265
2.92767 -0.372975 -0.538174
3.07405 -0.391624 -0.565082
3.22044 -0.410273 -0.591991
3.36682 -0.428921 -0.6189
3.51321 -0.44757 -0.645808
3.65959 -0.466219 -0.672717
3.80597 -0.484868 -0.699626
3.95236 -0.503516 -0.726534
4.09874 -0.522165 -0.753443
4.24512 -0.540814 -0.780352
4.39151 -0.559463 -0.807261
4.53789 -0.578111 -0.834169
4.68427 -0.59676 -0.861078
4.83066 -0.615409 -0.887987
4.97704 -0.634058 -0.914895
5.12342 -0.652706 -0.941804
5.26981 -0.671355 -0.968713
5.41619 -0.690004 -0.995621
5.56258 -0.708653 -1.02253
5.70896 -0.727302 -1.04944
5.85534 -0.74595 -1.07635
6.00173 -0.764599 -1.10326
6.14811 -0.783248 -1.13016
6.29449 -0.801897 -1.15707
6.44088 -0.820545 -1.18398
6.58726 -0.839194 -1.21089
6.73364 -0.857843 -1.2378
6.88003 -0.876492 -1.26471
7.02641 -0.89514 -1.29162
7.17279 -0.913789 -1.31853
7.31918 -0.932438 -1.34543
7.46556 -0.951087 -1.37234
7.61195 -0.969735 -1.39925
7.75833 -0.988384 -1.42616
7.90471 -1.00703 -1.45307
8.0511 -1.02568 -1.47998
8.19748 -1.04433 -1.50689
8.34386 -1.06298 -1.53379
8.49025 -1.08163 -1.5607
8.63663 -1.10028 -1.58761
8.78301 -1.11893 -1.61452
8.9294 -1.13757 -1.64143
9.07578 -1.15622 -1.66834
9.22216 -1.17487 -1.69525
9.36855 -1.19352 -1.72216
9.51493 -1.21217 -1.74906
9.66131 -1.23082 -1.77597
0.114142 0.0117685 -0.0966075
0.228285 0.0235371 -0.193215
0.342427 0.0353056 -0.289822
0.45657 0.0470742 -0.38643
0.570712 0.0588427 -0.483037
0.684855 0.0706113 -0.579645
0.798997 0.0823798 -0.676252
0.913139 0.0941484 -0.77286
1.02728 0.105917 -0.869467
1.14142 0.117685 -0.966075
1.25557 0.129454 -1.06268
1.36971 0.141223 -1.15929
1.48385 0.152991 -1.2559
1.59799 0.16476 -1.3525
1.71214 0.176528 -1.44911
1.82628 0.188297 -1.54572
1.94042 0.200065 -1.64233
2.05456 0.211834 -1.73893
2.16871 0.223602 -1.83554
2.28285 0.235371 -1.93215
2.39699 0.24714 -2.02876
2.51113 0.258908 -2.12536
2.62528 0.270677 -2.22197
2.73942 0.282445 -2.31858
2.85356 0.294214 -2.41519
2.9677 0.305982 -2.51179
3.08185 0.317751 -2.6084
3.19599 0.329519 -2.70501
3.31013 0.341288 -2.80162
3.42427 0.353056 -2.89822
3.53842 0.364825 -2.99483
3.65256 0.376594 -3.09144
3.7667 0.388362 -3.18805
3.88084 0.400131 -3.28465
3.99499 0.411899 -3.38126
4.10913 0.423668 -3.47787
4.22327 0.435436 -3.57448
4.33741 0.447205 -3.67108
4.45155 0.458973 -3.76769
4.5657 0.470742 -3.8643
4.67984 0.482511 -3.96091
4.79398 0.494279 -4.05751
4.90812 0.506048 -4.15412
5.02227 0.517816 -4.25073
5.13641 0.529585 -4.34734
5.25055 0.541353 -4.44394
5.36469 0.553122 -4.54055
5.47884 0.56489 -4.63716
5.59298 0.576659 -4.73377
5.70712 0.588427 -4.83037
5.82126 0.600196 -4.92698
5.93541 0.611965 -5.02359
6.04955 0.623733 -5.1202
6.16369 0.635502 -5.2168
6.27783 0.64727 -5.31341
6.39198 0.659039 -5.41002
6.50612 0.670807 -5.50663
6.62026 0.682576 -5.60323
6.7344 0.694344 -5.69984
6.84855 0.706113 -5.79645
6.96269 0.717882 -5.89306
7.07683 0.72965 -5.98966
7.19097 0.741419 -6.08627
7.30512 0.753187 -6.18288
7.41926 0.764956 -6.27949
7.5334 0.776724 -6.37609
0.113135 -0.0146756 -0.0973912
0.226271 -0.0293512 -0.194782
0.339406 -0.0440268 -0.292173
0.452541 -0.0587024 -0.389565
0.565676 -0.0733781 -0.486956
0.678812 -0.0880537 -0.584347
0.791947 -0.102729 -0.681738
0.905082 -0.117405 -0.779129
1.01822 -0.132081 -0.87652
1.13135 -0.146756 -0.973912
1.24449 -0.161432 -1.0713
1.35762 -0.176107 -1.16869
1.47076 -0.190783 -1.26609
1.58389 -0.205459 -1.36348
1.69703 -0.220134 -1.46087
1.81016 -0.23481 -1.55826
1.9233 -0.249485 -1.65565
2.03643 -0.264161 -1.75304
2.14957 -0.278837 -1.85043
2.26271 -0.293512 -1.94782
2.37584 -0.308188 -2.04521
2.48898 -0.322863 -2.14261
2.60211 -0.337539 -2.24
2.71525 -0.352215 -2.33739
2.82838 -0.36689 -2.43478
2.94152 -0.381566 -2.53217
3.05465 -0.396242 -2.62956
3.16779 -0.410917 -2.72695
3.28092 -0.425593 -2.82434
3.39406 -0.440268 -2.92173
3.50719 -0.454944 -3.01913
3.62033 -0.46962 -3.11652
3.73346 -0.484295 -3.21391
3.8466 -0.498971 -3.3113
3.95973 -0.513646 -3.40869
4.07287 -0.528322 -3.50608
4.186 -0.542998 -3.60347
4.29914 -0.557673 -3.70086
4.41228 -0.572349 -3.79826
4.52541 -0.587024 -3.89565
4.63855 -0.6017 -3.99304
4.75168 -0.616376 -4.09043
4.86482 -0.631051 -4.18782
4.97795 -0.645727 -4.28521
5.09109 -0.660403 -4.3826
5.20422 -0.675078 -4.47999
5.31736 -0.689754 -4.57738
5.43049 -0.704429 -4.67478
5.54363 -0.719105 -4.77217
5.65676 -0.733781 -4.86956
5.7699 -0.748456 -4.96695
5.88303 -0.763132 -5.06434
5.99617 -0.777807 -5.16173
6.1093 -0.792483 -5.25912
6.22244 -0.807159 -5.35651
6.33557 -0.821834 -5.45391
6.44871 -0.83651 -5.5513
6.56185 -0.851185 -5.64869
6.67498 -0.865861 -5.74608
6.78812 -0.880537 -5.84347
6.90125 -0.895212 -5.94086
7.01439 -0.909888 -6.03825
7.12752 -0.924564 -6.13564
7.24066 -0.939239 -6.23303
7.35379 -0.953915 -6.33043
7.46693 -0.96859 -6.42782
0.0166418 0.146625 0.0269087
0.0332836 0.293251 0.0538174
0.0499254 0.439876 0.0807261
0.0665672 0.586501 0.107635
0.0832089 0.733126 0.134543
0.0998507 0.879752 0.161452
0.116493 1.02638 0.188361
0.133134 1.173 0.215269
0.149776 1.31963 0.242178
0.166418 1.46625 0.269087
0.18306 1.61288 0.295996
0.199701 1.7595 0.322904
0.216343 1.90613 0.349813
0.232985 2.05275 0.376722
0.249627 2.19938 0.40363
0.266269 2.346 0.430539
0.28291 2.49263 0.457448
0.299552 2.63926 0.484356
0.316194 2.78588 0.511265
0.332836 2.93251 0.538174
0.349478 3.07913 0.565082
0.366119 3.22576 0.591991
0.382761 3.37238 0.6189
0.399403 3.51901 0.645808
0.416045 3.66563 0.672717
0.432687 3.81226 0.699626
0.449328 3.95888 0.726534
0.46597 4.10551 0.753443
0.482612 4.25213 0.780352
0.499254 4.39876 0.807261
0.515895 4.54538 0.834169
0.532537 4.69201 0.861078
0.549179 4.83863 0.887987
0.565821 4.98526 0.914895
0.582463 5.13188 0.941804
0.599104 5.27851 0.968713
0.615746 5.42514 0.995621
0.632388 5.57176 1.02253
0.64903 5.71839 1.04944
0.665672 5.86501 1.07635
0.682313 6.01164 1.10326
0.698955 6.15826 1.13016
0.715597 6.30489 1.15707
0.732239 6.45151 1.18398
0.748881 6.59814 1.21089
0.765522 6.74476 1.2378
0.782164 6.89139 1.26471
0.798806 7.03801 1.29162
0.815448 7.18464 1.31853
0.832089 7.33126 1.34543
0.848731 7.47789 1.37234
0.865373 7.62451 1.39925
0.882015 7.77114 1.42616
0.898657 7.91777 1.45307
0.915298 8.06439 1.47998
0.93194 8.21102 1.50689
0.948582 8.35764 1.53379
0.965224 8.50427 1.5607
0.981866 8.65089 1.58761
0.998507 8.79752 1.61452
1.01515 8.94414 1.64143
1.03179 9.09077 1.66834
1.04843 9.23739 1.69525
1.06507 9.38402 1.72216
1.08172 9.53064 1.74906
1.09836 9.67727 1.77597
0.0394715 0.142316 0.0262346
0.078943 0.284631 0.0524692
0.118415 0.426947 0.0787037
0.157886 0.569263 0.104938
0.197358 0.711578 0.131173
0.236829 0.853894 0.157407
0.276301 0.99621 0.183642
0.315772 1.13853 0.209877
0.355244 1.28084 0.236111
0.394715 1.42316 0.262346
0.434187 1.56547 0.28858
0.473658 1.70779 0.314815
0.51313 1.8501 0.341049
0.552601 1.99242 0.367284
0.592073 2.13473 0.393519
0.631544 2.27705 0.419753
0.671016 2.41937 0.445988
0.710487 2.56168 0.472222
0.749959 2.704 0.498457
0.78943 2.84631 0.524692
0.828902 2.98863 0.550926
0.868373 3.13094 0.577161
0.907845 3.27326 0.603395
0.947316 3.41558 0.62963
0.986788 3.55789 0.655864
1.02626 3.70021 0.682099
1.06573 3.84252 0.708334
1.1052 3.98484 0.734568
1.14467 4.12715 0.760803
1.18415 4.26947 0.787037
1.22362 4.41179 0.813272
1.26309 4.5541 0.839506
1.30256 4.69642 0.865741
1.34203 4.83873 0.891976
1.3815 4.98105 0.91821
1.42097 5.12336 0.944445
1.46045 5.26568 0.970679
1.49992 5.408 0.996914
1.53939 5.55031 1.02315
1.57886 5.69263 1.04938
1.61833 5.83494 1.07562
1.6578 5.97726 1.10185
1.69728 6.11957 1.12809
1.73675 6.26189 1.15432
1.77622 6.4042 1.18056
1.81569 6.54652 1.20679
1.85516 6.68884 1.23303
1.89463 6.83115 1.25926
1.9341 6.97347 1.28549
1.97358 7.11578 1.31173
2.01305 7.2581 1.33796
2.05252 7.40041 1.3642
2.09199 7.54273 1.39043
2.13146 7.68505 1.41667
2.17093 7.82736 1.4429
2.2104 7.96968 1.46914
2.24988 8.11199 1.49537
2.28935 8.25431 1.52161
2.32882 8.39662 1.54784
2.36829 8.53894 1.57407
2.40776 8.68126 1.60031
2.44723 8.82357 1.62654
2.48671 8.96589 1.65278
2.52618 9.1082 1.67901
2.56565 9.25052 1.70525
2.60512 9.39283 1.73148
0.0162694 0.147861 -0.0192959
0.0325387 0.295723 -0.0385919
0.0488081 0.443584 -0.0578878
0.0650775 0.591445 -0.0771838
0.0813469 0.739307 -0.0964797
0.0976162 0.887168 -0.115776
0.113886 1.03503 -0.135072
0.130155 1.18289 -0.154368
0.146424 1.33075 -0.173663
0.162694 1.47861 -0.192959
0.178963 1.62647 -0.212255
0.195232 1.77434 -0.231551
0.211502 1.9222 -0.250847
0.227771 2.07006 -0.270143
0.244041 2.21792 -0.289439
0.26031 2.36578 -0.308735
0.276579 2.51364 -0.328031
0.292849 2.6615 -0.347327
0.309118 2.80937 -0.366623
0.325387 2.95723 -0.385919
0.341657 3.10509 -0.405215
0.357926 3.25295 -0.424511
0.374196 3.40081 -0.443807
0.390465 3.54867 -0.463103
0.406734 3.69653 -0.482399
0.423004 3.84439 -0.501695
0.439273 3.99226 -0.52099
0.455542 4.14012 -0.540286
0.471812 4.28798 -0.559582
0.488081 4.43584 -0.578878
0.504351 4.5837 -0.598174
0.52062 4.73156 -0.61747
0.536889 4.87942 -0.636766
0.553159 5.02729 -0.656062
0.569428 5.17515 -0.675358
0.585697 5.32301 -0.694654
0.601967 5.47087 -0.71395
0.618236 5.61873 -0.733246
0.634506 5.76659 -0.752542
0.650775 5.91445 -0.771838
0.667044 6.06231 -0.791134
0.683314 6.21018 -0.81043
0.699583 6.35804 -0.829726
0.715852 6.5059 -0.849022
0.732122 6.65376 -0.868317
0.748391 6.80162 -0.887613
0.764661 6.94948 -0.906909
0.78093 7.09734 -0.926205
0.797199 7.24521 -0.945501
0.813469 7.39307 -0.964797
0.829738 7.54093 -0.984093
0.846007 7.68879 -1.00339
0.862277 7.83665 -1.02268
0.878546 7.98451 -1.04198
0.894816 8.13237 -1.06128
0.911085 8.28023 -1.08057
0.927354 8.4281 -1.09987
0.943624 8.57596 -1.11916
0.959893 8.72382 -1.13846
0.976162 8.87168 -1.15776
0.992432 9.01954 -1.17705
1.0087 9.1674 -1.19635
1.02497 9.31526 -1.21564
1.04124 9.46313 -1.23494
1.05751 9.61099 -1.25424
1.07378 9.75885 -1.27353
0.0394112 0.143368 -0.0198053
0.0788224 0.286737 -0.0396105
0.118234 0.430105 -0.0594158
0.157645 0.573474 -0.0792211
0.197056 0.716842 -0.0990263
0.236467 0.860211 -0.118832
0.275879 1.00358 -0.138637
0.31529 1.14695 -0.158442
0.354701 1.29032 -0.178247
0.394112 1.43368 -0.198053
0.433523 1.57705 -0.217858
0.472935 1.72042 -0.237663
0.512346 1.86379 -0.257468
0.551757 2.00716 -0.277274
0.591168 2.15053 -0.297079
0.630579 2.29389 -0.316884
0.669991 2.43726 -0.33669
0.709402 2.58063 -0.356495
0.748813 2.724 -0.3763
0.788224 2.86737 -0.396105
0.827636 3.01074 -0.415911
0.867047 3.15411 -0.435716
0.906458 3.29747 -0.455521
0.945869 3.44084 -0.475326
0.98528 3.58421 -0.495132
1.02469 3.72758 -0.514937
1.0641 3.87095 -0.534742
1.10351 4.01432 -0.554547
1.14293 4.15768 -0.574353
1.18234 4.30105 -0.594158
1.22175 4.44442 -0.613963
1.26116 4.58779 -0.633769
1.30057 4.73116 -0.653574
1.33998 4.87453 -0.673379
1.37939 5.0179 -0.693184
1.4188 5.16126 -0.71299
1.45821 5.30463 -0.732795
1.49763 5.448 -0.7526
1.53704 5.59137 -0.772405
1.57645 5.73474 -0.792211
1.61586 5.87811 -0.812016
1.65527 6.02147 -0.831821
1.69468 6.16484 -0.851626
1.73409 6.30821 -0.871432
1.7735 6.45158 -0.891237
1.81292 6.59495 -0.911042
1.85233 6.73832 -0.930848
1.89174 6.88168 -0.950653
1.93115 7.02505 -0.970458
1.97056 7.16842 -0.990263
2.00997 7.31179 -1.01007
2.04938 7.45516 -1.02987
2.08879 7.59853 -1.04968
2.12821 7.7419 -1.06948
2.16762 7.88526 -1.08929
2.20703 8.02863 -1.10909
2.24644 8.172 -1.1289
2.28585 8.31537 -1.14871
2.32526 8.45874 -1.16851
2.36467 8.60211 -1.18832
2.40408 8.74547 -1.20812
2.4435 8.88884 -1.22793
2.48291 9.03221 -1.24773
2.52232 9.17558 -1.26754
2.56173 9.31895 -1.28734
2.60114 9.46232 -1.30715
-0.131409 -0.069662 0.0194657
-0.262818 -0.139324 0.0389315
-0.394227 -0.208986 0.0583972
-0.525636 -0.278648 0.077863
-0.657044 -0.34831 0.0973287
-0.788453 -0.417972 0.116794
-0.919862 -0.487634 0.13626
-1.05127 -0.557296 0.155726
-1.18268 -0.626958 0.175192
-1.31409 -0.69662 0.194657
-1.4455 -0.766282 0.214123
-1.57691 -0.835943 0.233589
-1.70832 -0.905605 0.253055
-1.83972 -0.975267 0.27252
-1.97113 -1.04493 0.291986
-2.10254 -1.11459 0.311452
-2.23395 -1.18425 0.330918
-2.36536 -1.25392 0.350383
-2.49677 -1.32358 0.369849
-2.62818 -1.39324 0.389315
-2.75959 -1.4629 0.408781
-2.891 -1.53256 0.428246
-3.0224 -1.60223 0.447712
-3.15381 -1.67189 0.467178
-3.28522 -1.74155 0.486644
-3.41663 -1.81121 0.506109
-3.54804 -1.88087 0.525575
-3.67945 -1.95053 0.545041
-3.81086 -2.0202 0.564507
-3.94227 -2.08986 0.583972
-4.07368 -2.15952 0.603438
-4.20508 -2.22918 0.622904
-4.33649 -2.29884 0.64237
-4.4679 -2.36851 0.661835
-4.59931 -2.43817 0.681301
-4.73072 -2.50783 0.700767
-4.86213 -2.57749 0.720232
-4.99354 -2.64715 0.739698
-5.12495 -2.71682 0.759164
-5.25636 -2.78648 0.77863
-5.38776 -2.85614 0.798095
-5.51917 -2.9258 0.817561
-5.65058 -2.99546 0.837027
-5.78199 -3.06513 0.856493
-5.9134 -3.13479 0.875958
-6.04481 -3.20445 0.895424
-6.17622 -3.27411 0.91489
-6.30763 -3.34377 0.934356
-6.43904 -3.41344 0.953821
-6.57044 -3.4831 0.973287
-6.70185 -3.55276 0.992753
-6.83326 -3.62242 1.01222
-6.96467 -3.69208 1.03168
-7.09608 -3.76175 1.05115
-7.22749 -3.83141 1.07062
-7.3589 -3.90107 1.09008
-7.49031 -3.97073 1.10955
-7.62172 -4.04039 1.12901
-7.75312 -4.11006 1.14848
-7.88453 -4.17972 1.16794
-8.01594 -4.24938 1.18741
-8.14735 -4.31904 1.20688
-8.27876 -4.3887 1.22634
-8.41017 -4.45837 1.24581
-8.54158 -4.52803 1.26527
-8.67299 -4.59769 1.28474
-0.135569 -0.0614877 0.0184466
-0.271138 -0.122975 0.0368931
-0.406707 -0.184463 0.0553397
-0.542276 -0.245951 0.0737863
-0.677845 -0.307439 0.0922329
-0.813415 -0.368926 0.110679
-0.948984 -0.430414 0.129126
-1.08455 -0.491902 0.147573
-1.22012 -0.55339 0.166019
-1.35569 -0.614877 0.184466
-1.49126 -0.676365 0.202912
-1.62683 -0.737853 0.221359
-1.7624 -0.799341 0.239805
-1.89797 -0.860828 0.258252
-2.03354 -0.922316 0.276699
-2.16911 -0.983804 0.295145
-2.30467 -1.04529 0.313592
-2.44024 -1.10678 0.332038
-2.57581 -1.16827 0.350485
-2.71138 -1.22975 0.368931
-2.84695 -1.29124 0.387378
-2.98252 -1.35273 0.405825
-3.11809 -1.41422 0.424271
-3.25366 -1.47571 0.442718
-3.38923 -1.53719 0.461164
-3.5248 -1.59868 0.479611
-3.66037 -1.66017 0.498057
-3.79593 -1.72166 0.516504
-3.9315 -1.78314 0.534951
-4.06707 -1.84463 0.553397
-4.20264 -1.90612 0.571844
-4.33821 -1.96761 0.59029
-4.47378 -2.0291 0.608737
-4.60935 -2.09058 0.627183
-4.74492 -2.15207 0.64563
-4.88049 -2.21356 0.664077
-5.01606 -2.27505 0.682523
-5.15163 -2.33653 0.70097
-5.28719 -2.39802 0.719416
-5.42276 -2.45951 0.737863
-5.55833 -2.521 0.756309
-5.6939 -2.58249 0.774756
-5.82947 -2.64397 0.793203
-5.96504 -2.70546 0.811649
-6.10061 -2.76695 0.830096
-6.23618 -2.82844 0.848542
-6.37175 -2.88992 0.866989
-6.50732 -2.95141 0.885435
-6.64289 -3.0129 0.903882
-6.77845 -3.07439 0.922329
-6.91402 -3.13588 0.940775
-7.04959 -3.19736 0.959222
-7.18516 -3.25885 0.977668
-7.32073 -3.32034 0.996115
-7.4563 -3.38183 1.01456
-7.59187 -3.44331 1.03301
-7.72744 -3.5048 1.05145
-7.86301 -3.56629 1.0699
-7.99858 -3.62778 1.08835
-8.13415 -3.68926 1.10679
-8.26972 -3.75075 1.12524
-8.40528 -3.81224 1.14369
-8.54085 -3.87373 1.16213
-8.67642 -3.93522 1.18058
-8.81199 -3.9967 1.19903
-8.94756 -4.05819 1.21747
