ply
format ascii 1.0
element vertex 925
property float x
property float y
property float z
end_header
0 0 0
-0.0629541 -0.110372 -0.0797174
-0.125908 -0.220744 -0.159435
-0.188862 -0.331115 -0.239152
-0.251816 -0.441487 -0.318869
-0.31477 -0.551859 -0.398587
-0.377724 -0.662231 -0.478304
-0.440679 -0.772602 -0.558022
-0.503633 -0.882974 -0.637739
-0.566587 -0.993346 -0.717456
-0.629541 -1.10372 -0.797174
-0.692495 -1.21409 -0.876891
-0.755449 -1.32446 -0.956608
-0.818403 -1.43483 -1.03633
-0.881357 -1.5452 -1.11604
-0.944311 -1.65558 -1.19576
-1.00727 -1.76595 -1.27548
-1.07022 -1.87632 -1.3552
-1.13317 -1.98669 -1.43491
-1.19613 -2.09706 -1.51463
-1.25908 -2.20744 -1.59435
-1.32204 -2.31781 -1.67406
-1.38499 -2.42818 -1.75378
-1.44794 -2.53855 -1.8335
-1.5109 -2.64892 -1.91322
-1.57385 -2.75929 -1.99293
-1.63681 -2.86967 -2.07265
-1.69976 -2.98004 -2.15237
-1.76271 -3.09041 -2.23209
-1.82567 -3.20078 -2.3118
-1.88862 -3.31115 -2.39152
-1.95158 -3.42152 -2.47124
-2.01453 -3.5319 -2.55096
-2.07748 -3.64227 -2.63067
-2.14044 -3.75264 -2.71039
-2.20339 -3.86301 -2.79011
-2.26635 -3.97338 -2.86983
-2.3293 -4.08376 -2.94954
-2.39225 -4.19413 -3.02926
-2.45521 -4.3045 -3.10898
-2.51816 -4.41487 -3.18869
-2.58112 -4.52524 -3.26841
-2.64407 -4.63561 -3.34813
-2.70703 -4.74599 -3.42785
-2.76998 -4.85636 -3.50756
-2.83293 -4.96673 -3.58728
-2.89589 -5.0771 -3.667
-2.95884 -5.18747 -3.74672
-3.0218 -5.29784 -3.82643
-3.08475 -5.40822 -3.90615
-3.1477 -5.51859 -3.98587
-3.21066 -5.62896 -4.06559
-3.27361 -5.73933 -4.1453
-3.33657 -5.8497 -4.22502
-3.39952 -5.96008 -4.30474
-3.46247 -6.07045 -4.38446
-3.52543 -6.18082 -4.46417
-3.58838 -6.29119 -4.54389
-3.65134 -6.40156 -4.62361
-3.71429 -6.51193 -4.70332
-3.77724 -6.62231 -4.78304
-3.8402 -6.73268 -4.86276
-3.90315 -6.84305 -4.94248
-3.96611 -6.95342 -5.02219
-4.02906 -7.06379 -5.10191
-4.09201 -7.17416 -5.18163
-4.15497 -7.28454 -5.26135
-0.0485766 -0.115162 -0.0829345
-0.0971533 -0.230323 -0.165869
-0.14573 -0.345485 -0.248804
-0.194307 -0.460646 -0.331738
-0.242883 -0.575808 -0.414673
-0.29146 -0.690969 -0.497607
-0.340037 -0.806131 -0.580542
-0.388613 -0.921292 -0.663476
-0.43719 -1.03645 -0.746411
-0.485766 -1.15162 -0.829345
-0.534343 -1.26678 -0.91228
-0.58292 -1.38194 -0.995214
-0.631496 -1.4971 -1.07815
-0.680073 -1.61226 -1.16108
-0.72865 -1.72742 -1.24402
-0.777226 -1.84258 -1.32695
-0.825803 -1.95775 -1.40989
-0.87438 -2.07291 -1.49282
-0.922956 -2.18807 -1.57576
-0.971533 -2.30323 -1.65869
-1.02011 -2.41839 -1.74163
-1.06869 -2.53355 -1.82456
-1.11726 -2.64871 -1.90749
-1.16584 -2.76388 -1.99043
-1.21442 -2.87904 -2.07336
-1.26299 -2.9942 -2.1563
-1.31157 -3.10936 -2.23923
-1.36015 -3.22452 -2.32217
-1.40872 -3.33968 -2.4051
-1.4573 -3.45485 -2.48804
-1.50588 -3.57001 -2.57097
-1.55445 -3.68517 -2.65391
-1.60303 -3.80033 -2.73684
-1.65161 -3.91549 -2.81977
-1.70018 -4.03065 -2.90271
-1.74876 -4.14581 -2.98564
-1.79734 -4.26098 -3.06858
-1.84591 -4.37614 -3.15151
-1.89449 -4.4913 -3.23445
-1.94307 -4.60646 -3.31738
-1.99164 -4.72162 -3.40032
-2.04022 -4.83678 -3.48325
-2.0888 -4.95194 -3.56619
-2.13737 -5.06711 -3.64912
-2.18595 -5.18227 -3.73205
-2.23453 -5.29743 -3.81499
-2.2831 -5.41259 -3.89792
-2.33168 -5.52775 -3.98086
-2.38026 -5.64291 -4.06379
-2.42883 -5.75808 -4.14673
-2.47741 -5.87324 -4.22966
-2.52599 -5.9884 -4.3126
-2.57456 -6.10356 -4.39553
-2.62314 -6.21872 -4.47846
-2.67172 -6.33388 -4.5614
-2.72029 -6.44904 -4.64433
-2.76887 -6.56421 -4.72727
-2.81745 -6.67937 -4.8102
-2.86602 -6.79453 -4.89314
-2.9146 -6.90969 -4.97607
-2.96318 -7.02485 -5.05901
-3.01175 -7.14001 -5.14194
-3.06033 -7.25517 -5.22488
-3.10891 -7.37034 -5.30781
-3.15748 -7.4855 -5.39074
-3.20606 -7.60066 -5.47368
-0.0436847 -0.117027 -0.0830446
-0.0873695 -0.234053 -0.166089
-0.131054 -0.35108 -0.249134
-0.174739 -0.468107 -0.332178
-0.218424 -0.585133 -0.415223
-0.262108 -0.70216 -0.498267
-0.305793 -0.819187 -0.581312
-0.349478 -0.936213 -0.664357
-0.393163 -1.05324 -0.747401
-0.436847 -1.17027 -0.830446
-0.480532 -1.28729 -0.91349
-0.524217 -1.40432 -0.996535
-0.567902 -1.52135 -1.07958
-0.611586 -1.63837 -1.16262
-0.655271 -1.7554 -1.24567
-0.698956 -1.87243 -1.32871
-0.742641 -1.98945 -1.41176
-0.786325 -2.10648 -1.4948
-0.83001 -2.22351 -1.57785
-0.873695 -2.34053 -1.66089
-0.917379 -2.45756 -1.74394
-0.961064 -2.57459 -1.82698
-1.00475 -2.69161 -1.91003
-1.04843 -2.80864 -1.99307
-1.09212 -2.92567 -2.07611
-1.1358 -3.04269 -2.15916
-1.17949 -3.15972 -2.2422
-1.22317 -3.27675 -2.32525
-1.26686 -3.39377 -2.40829
-1.31054 -3.5108 -2.49134
-1.35423 -3.62783 -2.57438
-1.39791 -3.74485 -2.65743
-1.4416 -3.86188 -2.74047
-1.48528 -3.97891 -2.82352
-1.52897 -4.09593 -2.90656
-1.57265 -4.21296 -2.9896
-1.61634 -4.32999 -3.07265
-1.66002 -4.44701 -3.15569
-1.7037 -4.56404 -3.23874
-1.74739 -4.68107 -3.32178
-1.79107 -4.79809 -3.40483
-1.83476 -4.91512 -3.48787
-1.87844 -5.03215 -3.57092
-1.92213 -5.14917 -3.65396
-1.96581 -5.2662 -3.73701
-2.0095 -5.38323 -3.82005
-2.05318 -5.50025 -3.9031
-2.09687 -5.61728 -3.98614
-2.14055 -5.73431 -4.06918
-2.18424 -5.85133 -4.15223
-2.22792 -5.96836 -4.23527
-2.27161 -6.08539 -4.31832
-2.31529 -6.20241 -4.40136
-2.35898 -6.31944 -4.48441
-2.40266 -6.43647 -4.56745
-2.44635 -6.55349 -4.6505
-2.49003 -6.67052 -4.73354
-2.53371 -6.78755 -4.81659
-2.5774 -6.90457 -4.89963
-2.62108 -7.0216 -4.98267
-2.66477 -7.13863 -5.06572
-2.70845 -7.25565 -5.14876
-2.75214 -7.37268 -5.23181
-2.79582 -7.48971 -5.31485
-2.83951 -7.60673 -5.3979
-2.88319 -7.72376 -5.48094
-0.0280501 -0.119988 -0.0855341
-0.0561002 -0.239976 -0.171068
-0.0841503 -0.359964 -0.256602
-0.1122 -0.479952 -0.342137
-0.14025 -0.59994 -0.427671
-0.168301 -0.719928 -0.513205
-0.196351 -0.839916 -0.598739
-0.224401 -0.959903 -0.684273
-0.252451 -1.07989 -0.769807
-0.280501 -1.19988 -0.855341
-0.308551 -1.31987 -0.940876
-0.336601 -1.43986 -1.02641
-0.364651 -1.55984 -1.11194
-0.392701 -1.67983 -1.19748
-0.420751 -1.79982 -1.28301
-0.448801 -1.91981 -1.36855
-0.476851 -2.03979 -1.45408
-0.504902 -2.15978 -1.53961
-0.532952 -2.27977 -1.62515
-0.561002 -2.39976 -1.71068
-0.589052 -2.51975 -1.79622
-0.617102 -2.63973 -1.88175
-0.645152 -2.75972 -1.96729
-0.673202 -2.87971 -2.05282
-0.701252 -2.9997 -2.13835
-0.729302 -3.11969 -2.22389
-0.757352 -3.23967 -2.30942
-0.785402 -3.35966 -2.39496
-0.813453 -3.47965 -2.48049
-0.841503 -3.59964 -2.56602
-0.869553 -3.71963 -2.65156
-0.897603 -3.83961 -2.73709
-0.925653 -3.9596 -2.82263
-0.953703 -4.07959 -2.90816
-0.981753 -4.19958 -2.99369
-1.0098 -4.31957 -3.07923
-1.03785 -4.43955 -3.16476
-1.0659 -4.55954 -3.2503
-1.09395 -4.67953 -3.33583
-1.122 -4.79952 -3.42137
-1.15005 -4.91951 -3.5069
-1.1781 -5.03949 -3.59243
-1.20615 -5.15948 -3.67797
-1.2342 -5.27947 -3.7635
-1.26225 -5.39946 -3.84904
-1.2903 -5.51944 -3.93457
-1.31835 -5.63943 -4.0201
-1.3464 -5.75942 -4.10564
-1.37445 -5.87941 -4.19117
-1.4025 -5.9994 -4.27671
-1.43055 -6.11938 -4.36224
-1.4586 -6.23937 -4.44778
-1.48665 -6.35936 -4.53331
-1.5147 -6.47935 -4.61884
-1.54275 -6.59934 -4.70438
-1.5708 -6.71932 -4.78991
-1.59885 -6.83931 -4.87545
-1.62691 -6.9593 -4.96098
-1.65496 -7.07929 -5.04651
-1.68301 -7.19928 -5.13205
-1.71106 -7.31926 -5.21758
-1.73911 -7.43925 -5.30312
-1.76716 -7.55924 -5.38865
-1.79521 -7.67923 -5.47418
-1.82326 -7.79922 -5.55972
-1.85131 -7.9192 -5.64525
0.144954 0.0130379 -0.0363081
0.289908 0.0260758 -0.0726163
0.434863 0.0391137 -0.108924
0.579817 0.0521516 -0.145233
0.724771 0.0651896 -0.181541
0.869725 0.0782275 -0.217849
1.01468 0.0912654 -0.254157
1.15963 0.104303 -0.290465
1.30459 0.117341 -0.326773
1.44954 0.130379 -0.363081
1.5945 0.143417 -0.39939
1.73945 0.156455 -0.435698
1.88441 0.169493 -0.472006
2.02936 0.182531 -0.508314
2.17431 0.195569 -0.544622
2.31927 0.208607 -0.58093
2.46422 0.221644 -0.617238
2.60918 0.234682 -0.653547
2.75413 0.24772 -0.689855
2.89908 0.260758 -0.726163
3.04404 0.273796 -0.762471
3.18899 0.286834 -0.798779
3.33395 0.299872 -0.835087
3.4789 0.31291 -0.871396
3.62386 0.325948 -0.907704
3.76881 0.338986 -0.944012
3.91376 0.352024 -0.98032
4.05872 0.365062 -1.01663
4.20367 0.378099 -1.05294
4.34863 0.391137 -1.08924
4.49358 0.404175 -1.12555
4.63854 0.417213 -1.16186
4.78349 0.430251 -1.19817
4.92844 0.443289 -1.23448
5.0734 0.456327 -1.27079
5.21835 0.469365 -1.30709
5.36331 0.482403 -1.3434
5.50826 0.495441 -1.37971
5.65322 0.508479 -1.41602
5.79817 0.521516 -1.45233
5.94312 0.534554 -1.48863
6.08808 0.547592 -1.52494
6.23303 0.56063 -1.56125
6.37799 0.573668 -1.59756
6.52294 0.586706 -1.63387
6.66789 0.599744 -1.67017
6.81285 0.612782 -1.70648
6.9578 0.62582 -1.74279
7.10276 0.638858 -1.7791
7.24771 0.651896 -1.81541
7.39267 0.664933 -1.85172
7.53762 0.677971 -1.88802
7.68257 0.691009 -1.92433
7.82753 0.704047 -1.96064
7.97248 0.717085 -1.99695
8.11744 0.730123 -2.03326
8.26239 0.743161 -2.06956
8.40735 0.756199 -2.10587
8.5523 0.769237 -2.14218
8.69725 0.782275 -2.17849
8.84221 0.795313 -2.2148
8.98716 0.808351 -2.25111
9.13212 0.821388 -2.28741
9.27707 0.834426 -2.32372
9.42203 0.847464 -2.36003
9.56698 0.860502 -2.39634
0.143562 -0.0208284 -0.0381609
0.287123 -0.0416568 -0.0763218
0.430685 -0.0624852 -0.114483
0.574246 -0.0833136 -0.152644
0.717808 -0.104142 -0.190804
0.861369 -0.12497 -0.228965
1.00493 -0.145799 -0.267126
1.14849 -0.166627 -0.305287
1.29205 -0.187456 -0.343448
1.43562 -0.208284 -0.381609
1.57918 -0.229112 -0.41977
1.72274 -0.249941 -0.457931
1.8663 -0.270769 -0.496092
2.00986 -0.291598 -0.534253
2.15342 -0.312426 -0.572413
2.29699 -0.333254 -0.610574
2.44055 -0.354083 -0.648735
2.58411 -0.374911 -0.686896
2.72767 -0.395739 -0.725057
2.87123 -0.416568 -0.763218
3.01479 -0.437396 -0.801379
3.15835 -0.458225 -0.83954
3.30192 -0.479053 -0.877701
3.44548 -0.499881 -0.915862
3.58904 -0.52071 -0.954022
3.7326 -0.541538 -0.992183
3.87616 -0.562367 -1.03034
4.01972 -0.583195 -1.06851
4.16329 -0.604023 -1.10667
4.30685 -0.624852 -1.14483
4.45041 -0.64568 -1.18299
4.59397 -0.666509 -1.22115
4.73753 -0.687337 -1.25931
4.88109 -0.708165 -1.29747
5.02465 -0.728994 -1.33563
5.16822 -0.749822 -1.37379
5.31178 -0.770651 -1.41195
5.45534 -0.791479 -1.45011
5.5989 -0.812307 -1.48827
5.74246 -0.833136 -1.52644
5.88602 -0.853964 -1.5646
6.02959 -0.874793 -1.60276
6.17315 -0.895621 -1.64092
6.31671 -0.916449 -1.67908
6.46027 -0.937278 -1.71724
6.60383 -0.958106 -1.7554
6.74739 -0.978935 -1.79356
6.89096 -0.999763 -1.83172
7.03452 -1.02059 -1.86988
7.17808 -1.04142 -1.90804
7.32164 -1.06225 -1.94621
7.4652 -1.08308 -1.98437
7.60876 -1.1039 -2.02253
7.75232 -1.12473 -2.06069
7.89589 -1.14556 -2.09885
8.03945 -1.16639 -2.13701
8.18301 -1.18722 -2.17517
8.32657 -1.20805 -2.21333
8.47013 -1.22888 -2.25149
8.61369 -1.2497 -2.28965
8.75726 -1.27053 -2.32781
8.90082 -1.29136 -2.36598
9.04438 -1.31219 -2.40414
9.18794 -1.33302 -2.4423
9.3315 -1.35385 -2.48046
9.47506 -1.37467 -2.51862
0.112965 0.00920498 -0.0982556
0.22593 0.01841 -0.196511
0.338895 0.0276149 -0.294767
0.45186 0.0368199 -0.393022
0.564825 0.0460249 -0.491278
0.677791 0.0552299 -0.589533
0.790756 0.0644349 -0.687789
0.903721 0.0736398 -0.786045
1.01669 0.0828448 -0.8843
1.12965 0.0920498 -0.982556
1.24262 0.101255 -1.08081
1.35558 0.11046 -1.17907
1.46855 0.119665 -1.27732
1.58151 0.12887 -1.37558
1.69448 0.138075 -1.47383
1.80744 0.14728 -1.57209
1.92041 0.156485 -1.67034
2.03337 0.16569 -1.7686
2.14634 0.174895 -1.86686
2.2593 0.1841 -1.96511
2.37227 0.193305 -2.06337
2.48523 0.20251 -2.16162
2.5982 0.211715 -2.25988
2.71116 0.22092 -2.35813
2.82413 0.230124 -2.45639
2.93709 0.239329 -2.55464
3.05006 0.248534 -2.6529
3.16302 0.257739 -2.75116
3.27599 0.266944 -2.84941
3.38895 0.276149 -2.94767
3.50192 0.285354 -3.04592
3.61488 0.294559 -3.14418
3.72785 0.303764 -3.24243
3.84081 0.312969 -3.34069
3.95378 0.322174 -3.43895
4.06674 0.331379 -3.5372
4.17971 0.340584 -3.63546
4.29267 0.349789 -3.73371
4.40564 0.358994 -3.83197
4.5186 0.368199 -3.93022
4.63157 0.377404 -4.02848
4.74453 0.386609 -4.12673
4.8575 0.395814 -4.22499
4.97046 0.405019 -4.32325
5.08343 0.414224 -4.4215
5.19639 0.423429 -4.51976
5.30936 0.432634 -4.61801
5.42232 0.441839 -4.71627
5.53529 0.451044 -4.81452
5.64825 0.460249 -4.91278
5.76122 0.469454 -5.01103
5.87418 0.478659 -5.10929
5.98715 0.487864 -5.20755
6.10011 0.497069 -5.3058
6.21308 0.506274 -5.40406
6.32604 0.515479 -5.50231
6.43901 0.524684 -5.60057
6.55198 0.533889 -5.69882
6.66494 0.543094 -5.79708
6.77791 0.552299 -5.89533
6.89087 0.561504 -5.99359
7.00384 0.570709 -6.09185
7.1168 0.579914 -6.1901
7.22977 0.589119 -6.28836
7.34273 0.598324 -6.38661
7.4557 0.607529 -6.48487
0.111174 -0.0161485 -0.0993962
0.222348 -0.0322969 -0.198792
0.333522 -0.0484454 -0.298189
0.444695 -0.0645938 -0.397585
0.555869 -0.0807423 -0.496981
0.667043 -0.0968908 -0.596377
0.778217 -0.113039 -0.695773
0.889391 -0.129188 -0.795169
1.00056 -0.145336 -0.894566
1.11174 -0.161485 -0.993962
1.22291 -0.177633 -1.09336
1.33409 -0.193782 -1.19275
1.44526 -0.20993 -1.29215
1.55643 -0.226078 -1.39155
1.66761 -0.242227 -1.49094
1.77878 -0.258375 -1.59034
1.88996 -0.274524 -1.68974
2.00113 -0.290672 -1.78913
2.1123 -0.306821 -1.88853
2.22348 -0.322969 -1.98792
2.33465 -0.339118 -2.08732
2.44582 -0.355266 -2.18672
2.557 -0.371415 -2.28611
2.66817 -0.387563 -2.38551
2.77935 -0.403712 -2.4849
2.89052 -0.41986 -2.5843
3.00169 -0.436008 -2.6837
3.11287 -0.452157 -2.78309
3.22404 -0.468305 -2.88249
3.33522 -0.484454 -2.98189
3.44639 -0.500602 -3.08128
3.55756 -0.516751 -3.18068
3.66874 -0.532899 -3.28007
3.77991 -0.549048 -3.37947
3.89108 -0.565196 -3.47887
4.00226 -0.581345 -3.57826
4.11343 -0.597493 -3.67766
4.22461 -0.613642 -3.77706
4.33578 -0.62979 -3.87645
4.44695 -0.645938 -3.97585
4.55813 -0.662087 -4.07524
4.6693 -0.678235 -4.17464
4.78048 -0.694384 -4.27404
4.89165 -0.710532 -4.37343
5.00282 -0.726681 -4.47283
5.114 -0.742829 -4.57222
5.22517 -0.758978 -4.67162
5.33634 -0.775126 -4.77102
5.44752 -0.791275 -4.87041
5.55869 -0.807423 -4.96981
5.66987 -0.823572 -5.06921
5.78104 -0.83972 -5.1686
5.89221 -0.855868 -5.268
6.00339 -0.872017 -5.36739
6.11456 -0.888165 -5.46679
6.22574 -0.904314 -5.56619
6.33691 -0.920462 -5.66558
6.44808 -0.936611 -5.76498
6.55926 -0.952759 -5.86437
6.67043 -0.968908 -5.96377
6.7816 -0.985056 -6.06317
6.89278 -1.0012 -6.16256
7.00395 -1.01735 -6.26196
7.11513 -1.0335 -6.36136
7.2263 -1.04965 -6.46075
7.33747 -1.0658 -6.56015
0.0168123 0.147942 0.0181761
0.0336245 0.295885 0.0363521
0.0504368 0.443827 0.0545282
0.067249 0.59177 0.0727043
0.0840613 0.739712 0.0908803
0.100874 0.887655 0.109056
0.117686 1.0356 0.127232
0.134498 1.18354 0.145409
0.15131 1.33148 0.163585
0.168123 1.47942 0.181761
0.184935 1.62737 0.199937
0.201747 1.77531 0.218113
0.218559 1.92325 0.236289
0.235372 2.07119 0.254465
0.252184 2.21914 0.272641
0.268996 2.36708 0.290817
0.285808 2.51502 0.308993
0.302621 2.66296 0.327169
0.319433 2.81091 0.345345
0.336245 2.95885 0.363521
0.353057 3.10679 0.381697
0.36987 3.25473 0.399873
0.386682 3.40268 0.418049
0.403494 3.55062 0.436226
0.420306 3.69856 0.454402
0.437119 3.8465 0.472578
0.453931 3.99445 0.490754
0.470743 4.14239 0.50893
0.487555 4.29033 0.527106
0.504368 4.43827 0.545282
0.52118 4.58622 0.563458
0.537992 4.73416 0.581634
0.554804 4.8821 0.59981
0.571617 5.03004 0.617986
0.588429 5.17799 0.636162
0.605241 5.32593 0.654338
0.622053 5.47387 0.672514
0.638866 5.62181 0.69069
0.655678 5.76976 0.708866
0.67249 5.9177 0.727043
0.689302 6.06564 0.745219
0.706115 6.21358 0.763395
0.722927 6.36153 0.781571
0.739739 6.50947 0.799747
0.756551 6.65741 0.817923
0.773364 6.80535 0.836099
0.790176 6.9533 0.854275
0.806988 7.10124 0.872451
0.823801 7.24918 0.890627
0.840613 7.39712 0.908803
0.857425 7.54507 0.926979
0.874237 7.69301 0.945155
0.89105 7.84095 0.963331
0.907862 7.98889 0.981507
0.924674 8.13684 0.999683
0.941486 8.28478 1.01786
0.958299 8.43272 1.03604
0.975111 8.58066 1.05421
0.991923 8.72861 1.07239
1.00874 8.87655 1.09056
1.02555 9.02449 1.10874
1.04236 9.17243 1.12692
1.05917 9.32038 1.14509
1.07598 9.46832 1.16327
1.0928 9.61626 1.18144
1.10961 9.7642 1.19962
0.0383052 0.14373 0.0193461
0.0766105 0.287461 0.0386922
0.114916 0.431191 0.0580382
0.153221 0.574922 0.0773843
0.191526 0.718652 0.0967304
0.229831 0.862383 0.116076
0.268137 1.00611 0.135423
0.306442 1.14984 0.154769
0.344747 1.29357 0.174115
0.383052 1.4373 0.193461
0.421358 1.58103 0.212807
0.459663 1.72477 0.232153
0.497968 1.8685 0.251499
0.536273 2.01223 0.270845
0.574579 2.15596 0.290191
0.612884 2.29969 0.309537
0.651189 2.44342 0.328883
0.689494 2.58715 0.348229
0.7278 2.73088 0.367575
0.766105 2.87461 0.386922
0.80441 3.01834 0.406268
0.842715 3.16207 0.425614
0.881021 3.3058 0.44496
0.919326 3.44953 0.464306
0.957631 3.59326 0.483652
0.995936 3.73699 0.502998
1.03424 3.88072 0.522344
1.07255 4.02445 0.54169
1.11085 4.16818 0.561036
1.14916 4.31191 0.580382
1.18746 4.45564 0.599728
1.22577 4.59937 0.619074
1.26407 4.7431 0.638421
1.30238 4.88683 0.657767
1.34068 5.03057 0.677113
1.37899 5.1743 0.696459
1.41729 5.31803 0.715805
1.4556 5.46176 0.735151
1.4939 5.60549 0.754497
1.53221 5.74922 0.773843
1.57051 5.89295 0.793189
1.60882 6.03668 0.812535
1.64713 6.18041 0.831881
1.68543 6.32414 0.851227
1.72374 6.46787 0.870574
1.76204 6.6116 0.88992
1.80035 6.75533 0.909266
1.83865 6.89906 0.928612
1.87696 7.04279 0.947958
1.91526 7.18652 0.967304
1.95357 7.33025 0.98665
1.99187 7.47398 1.006
2.03018 7.61771 1.02534
2.06848 7.76144 1.04469
2.10679 7.90517 1.06403
2.14509 8.0489 1.08338
2.1834 8.19263 1.10273
2.2217 8.33637 1.12207
2.26001 8.4801 1.14142
2.29831 8.62383 1.16076
2.33662 8.76756 1.18011
2.37492 8.91129 1.19946
2.41323 9.05502 1.2188
2.45154 9.19875 1.23815
2.48984 9.34248 1.2575
2.52815 9.48621 1.27684
0.0173635 0.146625 -0.0264521
0.0347271 0.293249 -0.0529041
0.0520906 0.439874 -0.0793562
0.0694542 0.586499 -0.105808
0.0868177 0.733123 -0.13226
0.104181 0.879748 -0.158712
0.121545 1.02637 -0.185164
0.138908 1.173 -0.211617
0.156272 1.31962 -0.238069
0.173635 1.46625 -0.264521
0.190999 1.61287 -0.290973
0.208363 1.7595 -0.317425
0.225726 1.90612 -0.343877
0.24309 2.05275 -0.370329
0.260453 2.19937 -0.396781
0.277817 2.34599 -0.423233
0.29518 2.49262 -0.449685
0.312544 2.63924 -0.476137
0.329907 2.78587 -0.502589
0.347271 2.93249 -0.529041
0.364634 3.07912 -0.555493
0.381998 3.22574 -0.581946
0.399362 3.37237 -0.608398
0.416725 3.51899 -0.63485
0.434089 3.66562 -0.661302
0.451452 3.81224 -0.687754
0.468816 3.95887 -0.714206
0.486179 4.10549 -0.740658
0.503543 4.25212 -0.76711
0.520906 4.39874 -0.793562
0.53827 4.54536 -0.820014
0.555633 4.69199 -0.846466
0.572997 4.83861 -0.872918
0.590361 4.98524 -0.89937
0.607724 5.13186 -0.925822
0.625088 5.27849 -0.952274
0.642451 5.42511 -0.978727
0.659815 5.57174 -1.00518
0.677178 5.71836 -1.03163
0.694542 5.86499 -1.05808
0.711905 6.01161 -1.08453
0.729269 6.15824 -1.11099
0.746632 6.30486 -1.13744
0.763996 6.45149 -1.16389
0.78136 6.59811 -1.19034
0.798723 6.74474 -1.2168
0.816087 6.89136 -1.24325
0.83345 7.03798 -1.2697
0.850814 7.18461 -1.29615
0.868177 7.33123 -1.3226
0.885541 7.47786 -1.34906
0.902904 7.62448 -1.37551
0.920268 7.77111 -1.40196
0.937631 7.91773 -1.42841
0.954995 8.06436 -1.45486
0.972359 8.21098 -1.48132
0.989722 8.35761 -1.50777
1.00709 8.50423 -1.53422
1.02445 8.65086 -1.56067
1.04181 8.79748 -1.58712
1.05918 8.94411 -1.61358
1.07654 9.09073 -1.64003
1.0939 9.23735 -1.66648
1.11127 9.38398 -1.69293
1.12863 9.5306 -1.71938
1.14599 9.67723 -1.74584
0.0414289 0.141861 -0.0256728
0.0828577 0.283722 -0.0513456
0.124287 0.425583 -0.0770184
0.165715 0.567444 -0.102691
0.207144 0.709305 -0.128364
0.248573 0.851166 -0.154037
0.290002 0.993027 -0.17971
0.331431 1.13489 -0.205382
0.37286 1.27675 -0.231055
0.414289 1.41861 -0.256728
0.455718 1.56047 -0.282401
0.497146 1.70233 -0.308074
0.538575 1.84419 -0.333746
0.580004 1.98605 -0.359419
0.621433 2.12792 -0.385092
0.662862 2.26978 -0.410765
0.704291 2.41164 -0.436438
0.74572 2.5535 -0.46211
0.787149 2.69536 -0.487783
0.828577 2.83722 -0.513456
0.870006 2.97908 -0.539129
0.911435 3.12094 -0.564802
0.952864 3.2628 -0.590474
0.994293 3.40467 -0.616147
1.03572 3.54653 -0.64182
1.07715 3.68839 -0.667493
1.11858 3.83025 -0.693166
1.16001 3.97211 -0.718838
1.20144 4.11397 -0.744511
1.24287 4.25583 -0.770184
1.2843 4.39769 -0.795857
1.32572 4.53955 -0.82153
1.36715 4.68141 -0.847202
1.40858 4.82328 -0.872875
1.45001 4.96514 -0.898548
1.49144 5.107 -0.924221
1.53287 5.24886 -0.949894
1.5743 5.39072 -0.975566
1.61573 5.53258 -1.00124
1.65715 5.67444 -1.02691
1.69858 5.8163 -1.05258
1.74001 5.95816 -1.07826
1.78144 6.10002 -1.10393
1.82287 6.24189 -1.1296
1.8643 6.38375 -1.15528
1.90573 6.52561 -1.18095
1.94716 6.66747 -1.20662
1.98859 6.80933 -1.23229
2.03001 6.95119 -1.25797
2.07144 7.09305 -1.28364
2.11287 7.23491 -1.30931
2.1543 7.37677 -1.33499
2.19573 7.51864 -1.36066
2.23716 7.6605 -1.38633
2.27859 7.80236 -1.412
2.32002 7.94422 -1.43768
2.36145 8.08608 -1.46335
2.40287 8.22794 -1.48902
2.4443 8.3698 -1.5147
2.48573 8.51166 -1.54037
2.52716 8.65352 -1.56604
2.56859 8.79538 -1.59171
2.61002 8.93725 -1.61739
2.65145 9.07911 -1.64306
2.69288 9.22097 -1.66873
2.73431 9.36283 -1.6944
-0.132657 -0.0690852 0.0113769
-0.265313 -0.13817 0.0227539
-0.39797 -0.207255 0.0341308
-0.530627 -0.276341 0.0455078
-0.663284 -0.345426 0.0568847
-0.79594 -0.414511 0.0682616
-0.928597 -0.483596 0.0796386
-1.06125 -0.552681 0.0910155
-1.19391 -0.621766 0.102392
-1.32657 -0.690852 0.113769
-1.45922 -0.759937 0.125146
-1.59188 -0.829022 0.136523
-1.72454 -0.898107 0.1479
-1.85719 -0.967192 0.159277
-1.98985 -1.03628 0.170654
-2.12251 -1.10536 0.182031
-2.25516 -1.17445 0.193408
-2.38782 -1.24353 0.204785
-2.52048 -1.31262 0.216162
-2.65313 -1.3817 0.227539
-2.78579 -1.45079 0.238916
-2.91845 -1.51987 0.250293
-3.0511 -1.58896 0.26167
-3.18376 -1.65804 0.273047
-3.31642 -1.72713 0.284423
-3.44907 -1.79621 0.2958
-3.58173 -1.8653 0.307177
-3.71439 -1.93438 0.318554
-3.84704 -2.00347 0.329931
-3.9797 -2.07255 0.341308
-4.11236 -2.14164 0.352685
-4.24502 -2.21073 0.364062
-4.37767 -2.27981 0.375439
-4.51033 -2.3489 0.386816
-4.64299 -2.41798 0.398193
-4.77564 -2.48707 0.40957
-4.9083 -2.55615 0.420947
-5.04096 -2.62524 0.432324
-5.17361 -2.69432 0.443701
-5.30627 -2.76341 0.455078
-5.43893 -2.83249 0.466455
-5.57158 -2.90158 0.477831
-5.70424 -2.97066 0.489208
-5.8369 -3.03975 0.500585
-5.96955 -3.10883 0.511962
-6.10221 -3.17792 0.523339
-6.23487 -3.247 0.534716
-6.36752 -3.31609 0.546093
-6.50018 -3.38517 0.55747
-6.63284 -3.45426 0.568847
-6.76549 -3.52334 0.580224
-6.89815 -3.59243 0.591601
-7.03081 -3.66151 0.602978
-7.16346 -3.7306 0.614355
-7.29612 -3.79968 0.625732
-7.42878 -3.86877 0.637109
-7.56143 -3.93785 0.648486
-7.69409 -4.00694 0.659862
-7.82675 -4.07602 0.671239
-7.9594 -4.14511 0.682616
-8.09206 -4.2142 0.693993
-8.22472 -4.28328 0.70537
-8.35737 -4.35237 0.716747
-8.49003 -4.42145 0.728124
-8.62269 -4.49054 0.739501
-8.75534 -4.55962 0.750878
-0.135613 -0.0630757 0.011424
-0.271226 -0.126151 0.022848
-0.40684 -0.189227 0.034272
-0.542453 -0.252303 0.045696
-0.678066 -0.315378 0.05712
-0.813679 -0.378454 0.068544
-0.949293 -0.44153 0.079968
-1.08491 -0.504606 0.091392
-1.22052 -0.567681 0.102816
-1.35613 -0.630757 0.11424
-1.49175 -0.693833 0.125664
-1.62736 -0.756908 0.137088
-1.76297 -0.819984 0.148512
-1.89859 -0.88306 0.159936
-2.0342 -0.946135 0.17136
-2.16981 -1.00921 0.182784
-2.30543 -1.07229 0.194208
-2.44104 -1.13536 0.205632
-2.57665 -1.19844 0.217056
-2.71226 -1.26151 0.22848
-2.84788 -1.32459 0.239904
-2.98349 -1.38767 0.251328
-3.1191 -1.45074 0.262752
-3.25472 -1.51382 0.274176
-3.39033 -1.57689 0.2856
-3.52594 -1.63997 0.297024
-3.66156 -1.70304 0.308448
-3.79717 -1.76612 0.319872
-3.93278 -1.82919 0.331296
-4.0684 -1.89227 0.34272
-4.20401 -1.95535 0.354144
-4.33962 -2.01842 0.365568
-4.47524 -2.0815 0.376992
-4.61085 -2.14457 0.388416
-4.74646 -2.20765 0.39984
-4.88208 -2.27072 0.411264
-5.01769 -2.3338 0.422688
-5.1533 -2.39688 0.434112
-5.28892 -2.45995 0.445536
-5.42453 -2.52303 0.45696
-5.56014 -2.5861 0.468384
-5.69576 -2.64918 0.479808
-5.83137 -2.71225 0.491232
-5.96698 -2.77533 0.502656
-6.1026 -2.83841 0.51408
-6.23821 -2.90148 0.525504
-6.37382 -2.96456 0.536928
-6.50944 -3.02763 0.548352
-6.64505 -3.09071 0.559776
-6.78066 -3.15378 0.5712
-6.91628 -3.21686 0.582624
-7.05189 -3.27994 0.594048
-7.1875 -3.34301 0.605472
-7.32311 -3.40609 0.616896
-7.45873 -3.46916 0.62832
-7.59434 -3.53224 0.639744
-7.72995 -3.59531 0.651168
-7.86557 -3.65839 0.662592
-8.00118 -3.72147 0.674016
-8.13679 -3.78454 0.68544
-8.27241 -3.84762 0.696864
-8.40802 -3.91069 0.708288
-8.54363 -3.97377 0.719712
-8.67925 -4.03684 0.731136
-8.81486 -4.09992 0.74256
-8.95047 -4.163 0.753984
