ply
format ascii 1.0
element vertex 925
property float x
property float y
property float z
end_header
0 0 0
-0.0625647 -0.131504 -0.0359485
-0.125129 -0.263008 -0.071897
-0.187694 -0.394513 -0.107846
-0.250259 -0.526017 -0.143794
-0.312823 -0.657521 -0.179743
-0.375388 -0.789025 -0.215691
-0.437953 -0.92053 -0.25164
-0.500517 -1.05203 -0.287588
-0.563082 -1.18354 -0.323537
-0.625647 -1.31504 -0.359485
-0.688211 -1.44655 -0.395434
-0.750776 -1.57805 -0.431382
-0.813341 -1.70956 -0.467331
-0.875905 -1.84106 -0.503279
-0.93847 -1.97256 -0.539228
-1.00103 -2.10407 -0.575176
-1.0636 -2.23557 -0.611125
-1.12616 -2.36708 -0.647073
-1.18873 -2.49858 -0.683022
-1.25129 -2.63008 -0.71897
-1.31386 -2.76159 -0.754919
-1.37642 -2.89309 -0.790867
-1.43899 -3.0246 -0.826816
-1.50155 -3.1561 -0.862764
-1.56412 -3.28761 -0.898713
-1.62668 -3.41911 -0.934661
-1.68925 -3.55061 -0.97061
-1.75181 -3.68212 -1.00656
-1.81438 -3.81362 -1.04251
-1.87694 -3.94513 -1.07846
-1.93951 -4.07663 -1.1144
-2.00207 -4.20814 -1.15035
-2.06463 -4.33964 -1.1863
-2.1272 -4.47114 -1.22225
-2.18976 -4.60265 -1.2582
-2.25233 -4.73415 -1.29415
-2.31489 -4.86566 -1.33009
-2.37746 -4.99716 -1.36604
-2.44002 -5.12867 -1.40199
-2.50259 -5.26017 -1.43794
-2.56515 -5.39167 -1.47389
-2.62772 -5.52318 -1.50984
-2.69028 -5.65468 -1.54579
-2.75285 -5.78619 -1.58173
-2.81541 -5.91769 -1.61768
-2.87798 -6.0492 -1.65363
-2.94054 -6.1807 -1.68958
-3.0031 -6.3122 -1.72553
-3.06567 -6.44371 -1.76148
-3.12823 -6.57521 -1.79743
-3.1908 -6.70672 -1.83337
-3.25336 -6.83822 -1.86932
-3.31593 -6.96972 -1.90527
-3.37849 -7.10123 -1.94122
-3.44106 -7.23273 -1.97717
-3.50362 -7.36424 -2.01312
-3.56619 -7.49574 -2.04906
-3.62875 -7.62725 -2.08501
-3.69132 -7.75875 -2.12096
-3.75388 -7.89025 -2.15691
-3.81645 -8.02176 -2.19286
-3.87901 -8.15326 -2.22881
-3.94157 -8.28477 -2.26476
-4.00414 -8.41627 -2.3007
-4.0667 -8.54778 -2.33665
-4.12927 -8.67928 -2.3726
-0.0444853 -0.138091 -0.0381056
-0.0889705 -0.276181 -0.0762113
-0.133456 -0.414272 -0.114317
-0.177941 -0.552363 -0.152423
-0.222426 -0.690453 -0.190528
-0.266912 -0.828544 -0.228634
-0.311397 -0.966634 -0.26674
-0.355882 -1.10473 -0.304845
-0.400367 -1.24282 -0.342951
-0.444853 -1.38091 -0.381056
-0.489338 -1.519 -0.419162
-0.533823 -1.65709 -0.457268
-0.578308 -1.79518 -0.495373
-0.622794 -1.93327 -0.533479
-0.667279 -2.07136 -0.571585
-0.711764 -2.20945 -0.60969
-0.756249 -2.34754 -0.647796
-0.800735 -2.48563 -0.685902
-0.84522 -2.62372 -0.724007
-0.889705 -2.76181 -0.762113
-0.93419 -2.8999 -0.800219
-0.978676 -3.03799 -0.838324
-1.02316 -3.17608 -0.87643
-1.06765 -3.31418 -0.914536
-1.11213 -3.45227 -0.952641
-1.15662 -3.59036 -0.990747
-1.2011 -3.72845 -1.02885
-1.24559 -3.86654 -1.06696
-1.29007 -4.00463 -1.10506
-1.33456 -4.14272 -1.14317
-1.37904 -4.28081 -1.18128
-1.42353 -4.4189 -1.21938
-1.46801 -4.55699 -1.25749
-1.5125 -4.69508 -1.29559
-1.55698 -4.83317 -1.3337
-1.60147 -4.97126 -1.3718
-1.64595 -5.10935 -1.40991
-1.69044 -5.24744 -1.44801
-1.73492 -5.38553 -1.48612
-1.77941 -5.52363 -1.52423
-1.8239 -5.66172 -1.56233
-1.86838 -5.79981 -1.60044
-1.91287 -5.9379 -1.63854
-1.95735 -6.07599 -1.67665
-2.00184 -6.21408 -1.71475
-2.04632 -6.35217 -1.75286
-2.09081 -6.49026 -1.79097
-2.13529 -6.62835 -1.82907
-2.17978 -6.76644 -1.86718
-2.22426 -6.90453 -1.90528
-2.26875 -7.04262 -1.94339
-2.31323 -7.18071 -1.98149
-2.35772 -7.3188 -2.0196
-2.4022 -7.45689 -2.05771
-2.44669 -7.59498 -2.09581
-2.49117 -7.73308 -2.13392
-2.53566 -7.87117 -2.17202
-2.58014 -8.00926 -2.21013
-2.62463 -8.14735 -2.24823
-2.66912 -8.28544 -2.28634
-2.7136 -8.42353 -2.32444
-2.75809 -8.56162 -2.36255
-2.80257 -8.69971 -2.40066
-2.84706 -8.8378 -2.43876
-2.89154 -8.97589 -2.47687
-2.93603 -9.11398 -2.51497
-0.0404528 -0.13905 -0.0390985
-0.0809056 -0.2781 -0.0781969
-0.121358 -0.41715 -0.117295
-0.161811 -0.5562 -0.156394
-0.202264 -0.69525 -0.195492
-0.242717 -0.8343 -0.234591
-0.28317 -0.973349 -0.273689
-0.323623 -1.1124 -0.312788
-0.364075 -1.25145 -0.351886
-0.404528 -1.3905 -0.390985
-0.444981 -1.52955 -0.430083
-0.485434 -1.6686 -0.469181
-0.525887 -1.80765 -0.50828
-0.56634 -1.9467 -0.547378
-0.606792 -2.08575 -0.586477
-0.647245 -2.2248 -0.625575
-0.687698 -2.36385 -0.664674
-0.728151 -2.5029 -0.703772
-0.768604 -2.64195 -0.742871
-0.809056 -2.781 -0.781969
-0.849509 -2.92005 -0.821068
-0.889962 -3.0591 -0.860166
-0.930415 -3.19815 -0.899264
-0.970868 -3.3372 -0.938363
-1.01132 -3.47625 -0.977461
-1.05177 -3.6153 -1.01656
-1.09223 -3.75435 -1.05566
-1.13268 -3.8934 -1.09476
-1.17313 -4.03245 -1.13386
-1.21358 -4.1715 -1.17295
-1.25404 -4.31055 -1.21205
-1.29449 -4.4496 -1.25115
-1.33494 -4.58865 -1.29025
-1.3754 -4.7277 -1.32935
-1.41585 -4.86675 -1.36845
-1.4563 -5.0058 -1.40754
-1.49675 -5.14485 -1.44664
-1.53721 -5.2839 -1.48574
-1.57766 -5.42295 -1.52484
-1.61811 -5.562 -1.56394
-1.65857 -5.70105 -1.60304
-1.69902 -5.8401 -1.64214
-1.73947 -5.97915 -1.68123
-1.77992 -6.1182 -1.72033
-1.82038 -6.25725 -1.75943
-1.86083 -6.3963 -1.79853
-1.90128 -6.53535 -1.83763
-1.94174 -6.6744 -1.87673
-1.98219 -6.81345 -1.91582
-2.02264 -6.9525 -1.95492
-2.06309 -7.09155 -1.99402
-2.10355 -7.2306 -2.03312
-2.144 -7.36965 -2.07222
-2.18445 -7.5087 -2.11132
-2.22491 -7.64775 -2.15041
-2.26536 -7.7868 -2.18951
-2.30581 -7.92585 -2.22861
-2.34626 -8.0649 -2.26771
-2.38672 -8.20395 -2.30681
-2.42717 -8.343 -2.34591
-2.46762 -8.48205 -2.38501
-2.50808 -8.62109 -2.4241
-2.54853 -8.76014 -2.4632
-2.58898 -8.89919 -2.5023
-2.62943 -9.03824 -2.5414
-2.66989 -9.17729 -2.5805
-0.0220247 -0.142856 -0.0400894
-0.0440494 -0.285711 -0.0801788
-0.0660741 -0.428567 -0.120268
-0.0880988 -0.571423 -0.160358
-0.110123 -0.714278 -0.200447
-0.132148 -0.857134 -0.240537
-0.154173 -0.99999 -0.280626
-0.176198 -1.14285 -0.320715
-0.198222 -1.2857 -0.360805
-0.220247 -1.42856 -0.400894
-0.242272 -1.57141 -0.440984
-0.264296 -1.71427 -0.481073
-0.286321 -1.85712 -0.521163
-0.308346 -1.99998 -0.561252
-0.33037 -2.14284 -0.601341
-0.352395 -2.28569 -0.641431
-0.37442 -2.42855 -0.68152
-0.396445 -2.5714 -0.72161
-0.418469 -2.71426 -0.761699
-0.440494 -2.85711 -0.801788
-0.462519 -2.99997 -0.841878
-0.484543 -3.14283 -0.881967
-0.506568 -3.28568 -0.922057
-0.528593 -3.42854 -0.962146
-0.550617 -3.57139 -1.00224
-0.572642 -3.71425 -1.04233
-0.594667 -3.8571 -1.08241
-0.616691 -3.99996 -1.1225
-0.638716 -4.14282 -1.16259
-0.660741 -4.28567 -1.20268
-0.682766 -4.42853 -1.24277
-0.70479 -4.57138 -1.28286
-0.726815 -4.71424 -1.32295
-0.74884 -4.85709 -1.36304
-0.770864 -4.99995 -1.40313
-0.792889 -5.14281 -1.44322
-0.814914 -5.28566 -1.48331
-0.836938 -5.42852 -1.5234
-0.858963 -5.57137 -1.56349
-0.880988 -5.71423 -1.60358
-0.903012 -5.85708 -1.64367
-0.925037 -5.99994 -1.68376
-0.947062 -6.1428 -1.72385
-0.969087 -6.28565 -1.76393
-0.991111 -6.42851 -1.80402
-1.01314 -6.57136 -1.84411
-1.03516 -6.71422 -1.8842
-1.05719 -6.85707 -1.92429
-1.07921 -6.99993 -1.96438
-1.10123 -7.14278 -2.00447
-1.12326 -7.28564 -2.04456
-1.14528 -7.4285 -2.08465
-1.16731 -7.57135 -2.12474
-1.18933 -7.71421 -2.16483
-1.21136 -7.85706 -2.20492
-1.23338 -7.99992 -2.24501
-1.25541 -8.14277 -2.2851
-1.27743 -8.28563 -2.32519
-1.29946 -8.42849 -2.36528
-1.32148 -8.57134 -2.40537
-1.34351 -8.7142 -2.44545
-1.36553 -8.85705 -2.48554
-1.38756 -8.99991 -2.52563
-1.40958 -9.14276 -2.56572
-1.43161 -9.28562 -2.60581
-1.45363 -9.42848 -2.6459
0.142154 0.0259216 0.0402544
0.284307 0.0518432 0.0805088
0.426461 0.0777649 0.120763
0.568614 0.103686 0.161018
0.710768 0.129608 0.201272
0.852922 0.15553 0.241526
0.995075 0.181451 0.281781
1.13723 0.207373 0.322035
1.27938 0.233295 0.36229
1.42154 0.259216 0.402544
1.56369 0.285138 0.442798
1.70584 0.311059 0.483053
1.848 0.336981 0.523307
1.99015 0.362903 0.563562
2.1323 0.388824 0.603816
2.27446 0.414746 0.64407
2.41661 0.440668 0.684325
2.55877 0.466589 0.724579
2.70092 0.492511 0.764834
2.84307 0.518432 0.805088
2.98523 0.544354 0.845342
3.12738 0.570276 0.885597
3.26953 0.596197 0.925851
3.41169 0.622119 0.966106
3.55384 0.64804 1.00636
3.69599 0.673962 1.04661
3.83815 0.699884 1.08687
3.9803 0.725805 1.12712
4.12246 0.751727 1.16738
4.26461 0.777649 1.20763
4.40676 0.80357 1.24789
4.54892 0.829492 1.28814
4.69107 0.855413 1.3284
4.83322 0.881335 1.36865
4.97538 0.907257 1.4089
5.11753 0.933178 1.44916
5.25968 0.9591 1.48941
5.40184 0.985021 1.52967
5.54399 1.01094 1.56992
5.68614 1.03686 1.61018
5.8283 1.06279 1.65043
5.97045 1.08871 1.69068
6.11261 1.11463 1.73094
6.25476 1.14055 1.77119
6.39691 1.16647 1.81145
6.53907 1.19239 1.8517
6.68122 1.21832 1.89196
6.82337 1.24424 1.93221
6.96553 1.27016 1.97247
7.10768 1.29608 2.01272
7.24983 1.322 2.05297
7.39199 1.34792 2.09323
7.53414 1.37385 2.13348
7.6763 1.39977 2.17374
7.81845 1.42569 2.21399
7.9606 1.45161 2.25425
8.10276 1.47753 2.2945
8.24491 1.50345 2.33476
8.38706 1.52938 2.37501
8.52922 1.5553 2.41526
8.67137 1.58122 2.45552
8.81352 1.60714 2.49577
8.95568 1.63306 2.53603
9.09783 1.65898 2.57628
9.23999 1.68491 2.61654
9.38214 1.71083 2.65679
0.144315 -0.00725492 0.0402544
0.288631 -0.0145098 0.0805088
0.432946 -0.0217647 0.120763
0.577262 -0.0290197 0.161018
0.721577 -0.0362746 0.201272
0.865893 -0.0435295 0.241526
1.01021 -0.0507844 0.281781
1.15452 -0.0580393 0.322035
1.29884 -0.0652942 0.36229
1.44315 -0.0725492 0.402544
1.58747 -0.0798041 0.442798
1.73179 -0.087059 0.483053
1.8761 -0.0943139 0.523307
2.02042 -0.101569 0.563562
2.16473 -0.108824 0.603816
2.30905 -0.116079 0.64407
2.45336 -0.123334 0.684325
2.59768 -0.130588 0.724579
2.74199 -0.137843 0.764834
2.88631 -0.145098 0.805088
3.03062 -0.152353 0.845342
3.17494 -0.159608 0.885597
3.31926 -0.166863 0.925851
3.46357 -0.174118 0.966106
3.60789 -0.181373 1.00636
3.7522 -0.188628 1.04661
3.89652 -0.195883 1.08687
4.04083 -0.203138 1.12712
4.18515 -0.210393 1.16738
4.32946 -0.217647 1.20763
4.47378 -0.224902 1.24789
4.61809 -0.232157 1.28814
4.76241 -0.239412 1.3284
4.90673 -0.246667 1.36865
5.05104 -0.253922 1.4089
5.19536 -0.261177 1.44916
5.33967 -0.268432 1.48941
5.48399 -0.275687 1.52967
5.6283 -0.282942 1.56992
5.77262 -0.290197 1.61018
5.91693 -0.297452 1.65043
6.06125 -0.304706 1.69068
6.20556 -0.311961 1.73094
6.34988 -0.319216 1.77119
6.4942 -0.326471 1.81145
6.63851 -0.333726 1.8517
6.78283 -0.340981 1.89196
6.92714 -0.348236 1.93221
7.07146 -0.355491 1.97247
7.21577 -0.362746 2.01272
7.36009 -0.370001 2.05297
7.5044 -0.377256 2.09323
7.64872 -0.384511 2.13348
7.79303 -0.391765 2.17374
7.93735 -0.39902 2.21399
8.08167 -0.406275 2.25425
8.22598 -0.41353 2.2945
8.3703 -0.420785 2.33476
8.51461 -0.42804 2.37501
8.65893 -0.435295 2.41526
8.80324 -0.44255 2.45552
8.94756 -0.449805 2.49577
9.09187 -0.45706 2.53603
9.23619 -0.464315 2.57628
9.3805 -0.47157 2.61654
9.52482 -0.478824 2.65679
0.137863 0.0256273 -0.0532646
0.275725 0.0512546 -0.106529
0.413588 0.0768819 -0.159794
0.551451 0.102509 -0.213058
0.689313 0.128137 -0.266323
0.827176 0.153764 -0.319588
0.965039 0.179391 -0.372852
1.1029 0.205019 -0.426117
1.24076 0.230646 -0.479382
1.37863 0.256273 -0.532646
1.51649 0.2819 -0.585911
1.65435 0.307528 -0.639175
1.79221 0.333155 -0.69244
1.93008 0.358782 -0.745705
2.06794 0.38441 -0.798969
2.2058 0.410037 -0.852234
2.34367 0.435664 -0.905499
2.48153 0.461292 -0.958763
2.61939 0.486919 -1.01203
2.75725 0.512546 -1.06529
2.89512 0.538174 -1.11856
3.03298 0.563801 -1.17182
3.17084 0.589428 -1.22509
3.3087 0.615056 -1.27835
3.44657 0.640683 -1.33162
3.58443 0.66631 -1.38488
3.72229 0.691937 -1.43814
3.86016 0.717565 -1.49141
3.99802 0.743192 -1.54467
4.13588 0.768819 -1.59794
4.27374 0.794447 -1.6512
4.41161 0.820074 -1.70447
4.54947 0.845701 -1.75773
4.68733 0.871329 -1.811
4.82519 0.896956 -1.86426
4.96306 0.922583 -1.91753
5.10092 0.948211 -1.97079
5.23878 0.973838 -2.02406
5.37664 0.999465 -2.07732
5.51451 1.02509 -2.13058
5.65237 1.05072 -2.18385
5.79023 1.07635 -2.23711
5.9281 1.10197 -2.29038
6.06596 1.1276 -2.34364
6.20382 1.15323 -2.39691
6.34168 1.17886 -2.45017
6.47955 1.20448 -2.50344
6.61741 1.23011 -2.5567
6.75527 1.25574 -2.60997
6.89313 1.28137 -2.66323
7.031 1.30699 -2.7165
7.16886 1.33262 -2.76976
7.30672 1.35825 -2.82302
7.44459 1.38387 -2.87629
7.58245 1.4095 -2.92955
7.72031 1.43513 -2.98282
7.85817 1.46076 -3.03608
7.99604 1.48638 -3.08935
8.1339 1.51201 -3.14261
8.27176 1.53764 -3.19588
8.40962 1.56327 -3.24914
8.54749 1.58889 -3.30241
8.68535 1.61452 -3.35567
8.82321 1.64015 -3.40894
8.96107 1.66578 -3.4622
9.09894 1.6914 -3.51547
0.13984 -0.00751012 -0.0537445
0.279679 -0.0150202 -0.107489
0.419519 -0.0225303 -0.161234
0.559359 -0.0300405 -0.214978
0.699198 -0.0375506 -0.268723
0.839038 -0.0450607 -0.322467
0.978877 -0.0525708 -0.376212
1.11872 -0.0600809 -0.429956
1.25856 -0.067591 -0.483701
1.3984 -0.0751012 -0.537445
1.53824 -0.0826113 -0.59119
1.67808 -0.0901214 -0.644934
1.81792 -0.0976315 -0.698679
1.95775 -0.105142 -0.752423
2.09759 -0.112652 -0.806168
2.23743 -0.120162 -0.859913
2.37727 -0.127672 -0.913657
2.51711 -0.135182 -0.967402
2.65695 -0.142692 -1.02115
2.79679 -0.150202 -1.07489
2.93663 -0.157712 -1.12864
3.07647 -0.165223 -1.18238
3.21631 -0.172733 -1.23612
3.35615 -0.180243 -1.28987
3.49599 -0.187753 -1.34361
3.63583 -0.195263 -1.39736
3.77567 -0.202773 -1.4511
3.91551 -0.210283 -1.50485
4.05535 -0.217793 -1.55859
4.19519 -0.225303 -1.61234
4.33503 -0.232814 -1.66608
4.47487 -0.240324 -1.71983
4.61471 -0.247834 -1.77357
4.75455 -0.255344 -1.82731
4.89439 -0.262854 -1.88106
5.03423 -0.270364 -1.9348
5.17407 -0.277874 -1.98855
5.31391 -0.285384 -2.04229
5.45375 -0.292894 -2.09604
5.59359 -0.300405 -2.14978
5.73342 -0.307915 -2.20353
5.87326 -0.315425 -2.25727
6.0131 -0.322935 -2.31101
6.15294 -0.330445 -2.36476
6.29278 -0.337955 -2.4185
6.43262 -0.345465 -2.47225
6.57246 -0.352975 -2.52599
6.7123 -0.360486 -2.57974
6.85214 -0.367996 -2.63348
6.99198 -0.375506 -2.68723
7.13182 -0.383016 -2.74097
7.27166 -0.390526 -2.79472
7.4115 -0.398036 -2.84846
7.55134 -0.405546 -2.9022
7.69118 -0.413056 -2.95595
7.83102 -0.420566 -3.00969
7.97086 -0.428077 -3.06344
8.1107 -0.435587 -3.11718
8.25054 -0.443097 -3.17093
8.39038 -0.450607 -3.22467
8.53022 -0.458117 -3.27842
8.67006 -0.465627 -3.33216
8.8099 -0.473137 -3.38591
8.94974 -0.480647 -3.43965
9.08958 -0.488157 -3.49339
9.22942 -0.495668 -3.54714
0.00209671 0.141274 0.0503722
0.00419341 0.282547 0.100744
0.00629012 0.423821 0.151117
0.00838683 0.565095 0.201489
0.0104835 0.706368 0.251861
0.0125802 0.847642 0.302233
0.014677 0.988916 0.352606
0.0167737 1.13019 0.402978
0.0188704 1.27146 0.45335
0.0209671 1.41274 0.503722
0.0230638 1.55401 0.554094
0.0251605 1.69528 0.604467
0.0272572 1.83656 0.654839
0.0293539 1.97783 0.705211
0.0314506 2.1191 0.755583
0.0335473 2.26038 0.805956
0.035644 2.40165 0.856328
0.0377407 2.54293 0.9067
0.0398374 2.6842 0.957072
0.0419341 2.82547 1.00744
0.0440309 2.96675 1.05782
0.0461276 3.10802 1.10819
0.0482243 3.24929 1.15856
0.050321 3.39057 1.20893
0.0524177 3.53184 1.25931
0.0545144 3.67311 1.30968
0.0566111 3.81439 1.36005
0.0587078 3.95566 1.41042
0.0608045 4.09694 1.46079
0.0629012 4.23821 1.51117
0.0649979 4.37948 1.56154
0.0670946 4.52076 1.61191
0.0691913 4.66203 1.66228
0.0712881 4.8033 1.71266
0.0733848 4.94458 1.76303
0.0754815 5.08585 1.8134
0.0775782 5.22712 1.86377
0.0796749 5.3684 1.91414
0.0817716 5.50967 1.96452
0.0838683 5.65095 2.01489
0.085965 5.79222 2.06526
0.0880617 5.93349 2.11563
0.0901584 6.07477 2.16601
0.0922551 6.21604 2.21638
0.0943518 6.35731 2.26675
0.0964485 6.49859 2.31712
0.0985452 6.63986 2.36749
0.100642 6.78114 2.41787
0.102739 6.92241 2.46824
0.104835 7.06368 2.51861
0.106932 7.20496 2.56898
0.109029 7.34623 2.61936
0.111125 7.4875 2.66973
0.113222 7.62878 2.7201
0.115319 7.77005 2.77047
0.117416 7.91132 2.82084
0.119512 8.0526 2.87122
0.121609 8.19387 2.92159
0.123706 8.33515 2.97196
0.125802 8.47642 3.02233
0.127899 8.61769 3.07271
0.129996 8.75897 3.12308
0.132093 8.90024 3.17345
0.134189 9.04151 3.22382
0.136286 9.18279 3.27419
0.138383 9.32406 3.32457
0.0242737 0.13942 0.0497265
0.0485474 0.278841 0.0994531
0.0728212 0.418261 0.14918
0.0970949 0.557682 0.198906
0.121369 0.697102 0.248633
0.145642 0.836523 0.298359
0.169916 0.975943 0.348086
0.19419 1.11536 0.397812
0.218464 1.25478 0.447539
0.242737 1.3942 0.497265
0.267011 1.53362 0.546992
0.291285 1.67305 0.596718
0.315558 1.81247 0.646445
0.339832 1.95189 0.696171
0.364106 2.09131 0.745898
0.38838 2.23073 0.795625
0.412653 2.37015 0.845351
0.436927 2.50957 0.895078
0.461201 2.64899 0.944804
0.485474 2.78841 0.994531
0.509748 2.92783 1.04426
0.534022 3.06725 1.09398
0.558296 3.20667 1.14371
0.582569 3.34609 1.19344
0.606843 3.48551 1.24316
0.631117 3.62493 1.29289
0.655391 3.76435 1.34262
0.679664 3.90377 1.39234
0.703938 4.04319 1.44207
0.728212 4.18261 1.4918
0.752485 4.32203 1.54152
0.776759 4.46145 1.59125
0.801033 4.60087 1.64098
0.825307 4.74029 1.6907
0.84958 4.87972 1.74043
0.873854 5.01914 1.79016
0.898128 5.15856 1.83988
0.922402 5.29798 1.88961
0.946675 5.4374 1.93933
0.970949 5.57682 1.98906
0.995223 5.71624 2.03879
1.0195 5.85566 2.08851
1.04377 5.99508 2.13824
1.06804 6.1345 2.18797
1.09232 6.27392 2.23769
1.11659 6.41334 2.28742
1.14087 6.55276 2.33715
1.16514 6.69218 2.38687
1.18941 6.8316 2.4366
1.21369 6.97102 2.48633
1.23796 7.11044 2.53605
1.26223 7.24986 2.58578
1.28651 7.38928 2.63551
1.31078 7.5287 2.68523
1.33505 7.66812 2.73496
1.35933 7.80754 2.78469
1.3836 7.94696 2.83441
1.40788 8.08639 2.88414
1.43215 8.22581 2.93387
1.45642 8.36523 2.98359
1.4807 8.50465 3.03332
1.50497 8.64407 3.08305
1.52924 8.78349 3.13277
1.55352 8.92291 3.1825
1.57779 9.06233 3.23222
1.60207 9.20175 3.28195
0.00188176 0.149847 0.00650489
0.00376353 0.299694 0.0130098
0.00564529 0.449541 0.0195147
0.00752706 0.599388 0.0260196
0.00940882 0.749235 0.0325245
0.0112906 0.899082 0.0390294
0.0131723 1.04893 0.0455342
0.0150541 1.19878 0.0520391
0.0169359 1.34862 0.058544
0.0188176 1.49847 0.0650489
0.0206994 1.64832 0.0715538
0.0225812 1.79816 0.0780587
0.0244629 1.94801 0.0845636
0.0263447 2.09786 0.0910685
0.0282265 2.24771 0.0975734
0.0301082 2.39755 0.104078
0.03199 2.5474 0.110583
0.0338718 2.69725 0.117088
0.0357535 2.84709 0.123593
0.0376353 2.99694 0.130098
0.039517 3.14679 0.136603
0.0413988 3.29664 0.143108
0.0432806 3.44648 0.149613
0.0451623 3.59633 0.156117
0.0470441 3.74618 0.162622
0.0489259 3.89602 0.169127
0.0508076 4.04587 0.175632
0.0526894 4.19572 0.182137
0.0545712 4.34557 0.188642
0.0564529 4.49541 0.195147
0.0583347 4.64526 0.201652
0.0602165 4.79511 0.208157
0.0620982 4.94495 0.214661
0.06398 5.0948 0.221166
0.0658617 5.24465 0.227671
0.0677435 5.39449 0.234176
0.0696253 5.54434 0.240681
0.071507 5.69419 0.247186
0.0733888 5.84404 0.253691
0.0752706 5.99388 0.260196
0.0771523 6.14373 0.266701
0.0790341 6.29358 0.273205
0.0809159 6.44342 0.27971
0.0827976 6.59327 0.286215
0.0846794 6.74312 0.29272
0.0865612 6.89297 0.299225
0.0884429 7.04281 0.30573
0.0903247 7.19266 0.312235
0.0922064 7.34251 0.31874
0.0940882 7.49235 0.325245
0.09597 7.6422 0.331749
0.0978517 7.79205 0.338254
0.0997335 7.94189 0.344759
0.101615 8.09174 0.351264
0.103497 8.24159 0.357769
0.105379 8.39144 0.364274
0.107261 8.54128 0.370779
0.109142 8.69113 0.377284
0.111024 8.84098 0.383789
0.112906 8.99082 0.390294
0.114788 9.14067 0.396798
0.116669 9.29052 0.403303
0.118551 9.44037 0.409808
0.120433 9.59021 0.416313
0.122315 9.74006 0.422818
0.124196 9.88991 0.429323
0.0240208 0.147943 0.00599163
0.0480417 0.295886 0.0119833
0.0720625 0.443829 0.0179749
0.0960833 0.591772 0.0239665
0.120104 0.739714 0.0299582
0.144125 0.887657 0.0359498
0.168146 1.0356 0.0419414
0.192167 1.18354 0.0479331
0.216188 1.33149 0.0539247
0.240208 1.47943 0.0599163
0.264229 1.62737 0.065908
0.28825 1.77531 0.0718996
0.312271 1.92326 0.0778912
0.336292 2.0712 0.0838829
0.360313 2.21914 0.0898745
0.384333 2.36709 0.0958661
0.408354 2.51503 0.101858
0.432375 2.66297 0.107849
0.456396 2.81091 0.113841
0.480417 2.95886 0.119833
0.504438 3.1068 0.125824
0.528458 3.25474 0.131816
0.552479 3.40269 0.137808
0.5765 3.55063 0.143799
0.600521 3.69857 0.149791
0.624542 3.84652 0.155782
0.648563 3.99446 0.161774
0.672583 4.1424 0.167766
0.696604 4.29034 0.173757
0.720625 4.43829 0.179749
0.744646 4.58623 0.185741
0.768667 4.73417 0.191732
0.792688 4.88212 0.197724
0.816708 5.03006 0.203716
0.840729 5.178 0.209707
0.86475 5.32594 0.215699
0.888771 5.47389 0.22169
0.912792 5.62183 0.227682
0.936813 5.76977 0.233674
0.960833 5.91772 0.239665
0.984854 6.06566 0.245657
1.00888 6.2136 0.251649
1.0329 6.36154 0.25764
1.05692 6.50949 0.263632
1.08094 6.65743 0.269623
1.10496 6.80537 0.275615
1.12898 6.95332 0.281607
1.153 7.10126 0.287598
1.17702 7.2492 0.29359
1.20104 7.39714 0.299582
1.22506 7.54509 0.305573
1.24908 7.69303 0.311565
1.2731 7.84097 0.317557
1.29713 7.98892 0.323548
1.32115 8.13686 0.32954
1.34517 8.2848 0.335531
1.36919 8.43274 0.341523
1.39321 8.58069 0.347515
1.41723 8.72863 0.353506
1.44125 8.87657 0.359498
1.46527 9.02452 0.36549
1.48929 9.17246 0.371481
1.51331 9.3204 0.377473
1.53733 9.46835 0.383464
1.56135 9.61629 0.389456
1.58538 9.76423 0.395448
-0.120786 -0.0809062 0.0369451
-0.241572 -0.161812 0.0738902
-0.362358 -0.242719 0.110835
-0.483144 -0.323625 0.14778
-0.60393 -0.404531 0.184726
-0.724716 -0.485437 0.221671
-0.845502 -0.566343 0.258616
-0.966288 -0.64725 0.295561
-1.08707 -0.728156 0.332506
-1.20786 -0.809062 0.369451
-1.32865 -0.889968 0.406396
-1.44943 -0.970874 0.443341
-1.57022 -1.05178 0.480287
-1.691 -1.13269 0.517232
-1.81179 -1.21359 0.554177
-1.93258 -1.2945 0.591122
-2.05336 -1.37541 0.628067
-2.17415 -1.45631 0.665012
-2.29493 -1.53722 0.701957
-2.41572 -1.61812 0.738902
-2.5365 -1.69903 0.775848
-2.65729 -1.77994 0.812793
-2.77808 -1.86084 0.849738
-2.89886 -1.94175 0.886683
-3.01965 -2.02265 0.923628
-3.14043 -2.10356 0.960573
-3.26122 -2.18447 0.997518
-3.38201 -2.26537 1.03446
-3.50279 -2.34628 1.07141
-3.62358 -2.42719 1.10835
-3.74436 -2.50809 1.1453
-3.86515 -2.589 1.18224
-3.98594 -2.6699 1.21919
-4.10672 -2.75081 1.25613
-4.22751 -2.83172 1.29308
-4.34829 -2.91262 1.33002
-4.46908 -2.99353 1.36697
-4.58987 -3.07444 1.40391
-4.71065 -3.15534 1.44086
-4.83144 -3.23625 1.4778
-4.95222 -3.31715 1.51475
-5.07301 -3.39806 1.5517
-5.1938 -3.47897 1.58864
-5.31458 -3.55987 1.62559
-5.43537 -3.64078 1.66253
-5.55615 -3.72168 1.69948
-5.67694 -3.80259 1.73642
-5.79773 -3.8835 1.77337
-5.91851 -3.9644 1.81031
-6.0393 -4.04531 1.84726
-6.16008 -4.12622 1.8842
-6.28087 -4.20712 1.92115
-6.40166 -4.28803 1.95809
-6.52244 -4.36893 1.99504
-6.64323 -4.44984 2.03198
-6.76401 -4.53075 2.06893
-6.8848 -4.61165 2.10587
-7.00559 -4.69256 2.14282
-7.12637 -4.77347 2.17976
-7.24716 -4.85437 2.21671
-7.36794 -4.93528 2.25365
-7.48873 -5.01618 2.2906
-7.60951 -5.09709 2.32754
-7.7303 -5.178 2.36449
-7.85109 -5.2589 2.40143
-7.97187 -5.33981 2.43838
-0.12585 -0.0740709 0.0342837
-0.251699 -0.148142 0.0685675
-0.377549 -0.222213 0.102851
-0.503398 -0.296284 0.137135
-0.629248 -0.370354 0.171419
-0.755098 -0.444425 0.205702
-0.880947 -0.518496 0.239986
-1.0068 -0.592567 0.27427
-1.13265 -0.666638 0.308554
-1.2585 -0.740709 0.342837
-1.38435 -0.81478 0.377121
-1.5102 -0.888851 0.411405
-1.63605 -0.962922 0.445689
-1.76189 -1.03699 0.479972
-1.88774 -1.11106 0.514256
-2.01359 -1.18513 0.54854
-2.13944 -1.25921 0.582824
-2.26529 -1.33328 0.617107
-2.39114 -1.40735 0.651391
-2.51699 -1.48142 0.685675
-2.64284 -1.55549 0.719959
-2.76869 -1.62956 0.754242
-2.89454 -1.70363 0.788526
-3.02039 -1.7777 0.82281
-3.14624 -1.85177 0.857094
-3.27209 -1.92584 0.891377
-3.39794 -1.99991 0.925661
-3.52379 -2.07399 0.959945
-3.64964 -2.14806 0.994229
-3.77549 -2.22213 1.02851
-3.90134 -2.2962 1.0628
-4.02719 -2.37027 1.09708
-4.15304 -2.44434 1.13136
-4.27889 -2.51841 1.16565
-4.40474 -2.59248 1.19993
-4.53059 -2.66655 1.23421
-4.65644 -2.74062 1.2685
-4.78229 -2.81469 1.30278
-4.90814 -2.88877 1.33707
-5.03398 -2.96284 1.37135
-5.15983 -3.03691 1.40563
-5.28568 -3.11098 1.43992
-5.41153 -3.18505 1.4742
-5.53738 -3.25912 1.50848
-5.66323 -3.33319 1.54277
-5.78908 -3.40726 1.57705
-5.91493 -3.48133 1.61134
-6.04078 -3.5554 1.64562
-6.16663 -3.62947 1.6799
-6.29248 -3.70354 1.71419
-6.41833 -3.77762 1.74847
-6.54418 -3.85169 1.78275
-6.67003 -3.92576 1.81704
-6.79588 -3.99983 1.85132
-6.92173 -4.0739 1.88561
-7.04758 -4.14797 1.91989
-7.17343 -4.22204 1.95417
-7.29928 -4.29611 1.98846
-7.42513 -4.37018 2.02274
-7.55098 -4.44425 2.05702
-7.67683 -4.51832 2.09131
-7.80268 -4.5924 2.12559
-7.92853 -4.66647 2.15988
-8.05438 -4.74054 2.19416
-8.18023 -4.81461 2.22844
-8.30607 -4.88868 2.26273
