ply
format ascii 1.0
element vertex 50
property float x
property float y
property float z
end_header
2.23205 0.133975 3
1.48205 1.43301 3
0.732051 2.73205 3
-0.0179492 4.03109 3
-0.767949 5.33013 3
2.23205 0.133975 1.5
1.48205 1.43301 1.5
0.732051 2.73205 1.5
-0.0179492 4.03109 1.5
-0.767949 5.33013 1.5
2.23205 0.133975 3.55271e-15
1.48205 1.43301 2.66454e-15
0.732051 2.73205 2.66454e-15
-0.0179492 4.03109 1.77636e-15
-0.767949 5.33013 8.88178e-16
2.23205 0.133975 -1.5
1.48205 1.43301 -1.5
0.732051 2.73205 -1.5
-0.0179492 4.03109 -1.5
-0.767949 5.33013 -1.5
2.23205 0.133975 -3
1.48205 1.43301 -3
0.732051 2.73205 -3
-0.0179492 4.03109 -3
-0.767949 5.33013 -3
5 -5 5
5 -2.5 5
5 7.53234e-15 5
5 2.5 5
5 5 5
5 -5 2.5
5 -2.5 2.5
5 5.8366e-15 2.5
5 2.5 2.5
5 5 2.5
5 -5 6.21725e-15
5 -2.5 4.44089e-15
5 4.14087e-15 2.66454e-15
5 2.5 8.88178e-16
5 5 -8.88178e-16
5 -5 -2.5
5 -2.5 -2.5
5 2.44513e-15 -2.5
5 2.5 -2.5
5 5 -2.5
5 -5 -5
5 -2.5 -5
5 7.49401e-16 -5
5 2.5 -5
5 5 -5
