ply
format ascii 1.0
element vertex 21
property float x
property float y
property float z
end_header
-0.375004 -0.923175 0.0843755
 0.385402 -0.847169 -0.365746
 0.465856  0.190476 -0.864117
0.0178461 0.0265115 -0.999489
-0.0237788   0.562638  -0.826361
-0.539409 -0.797392  0.270561
-0.417621  -0.90426 0.0889246
 -0.131837  -0.989757 -0.0547678
0.0781824 -0.976301 -0.201803
 0.296997  -0.89388 -0.335815
 0.646333 -0.523064  -0.55557
 0.751737 -0.310375 -0.581859
 0.599848 -0.022608 -0.799794
 0.569458  0.099815 -0.815938
  0.46576  0.210606 -0.859484
 0.348298  0.246192 -0.904477
 0.269391  0.303434 -0.913978
 0.218894   0.33168 -0.917646
 0.155451  0.342741 -0.926479
 0.106871  0.322885 -0.940385
0.0464661  0.326061 -0.944206
