ply
format ascii 1.0
element vertex 30
property float x
property float y
property float z
end_header
-14.5 -21.3301 20
-14.5 -21.3301 20
-17 -17 5
-14.5 -21.3301 25
-17 -17 10
-15 -23.9282 7
-19.5 -12.6699 5
-19.5 -12.6699 25
-21 -13.5359 23
-17 -20.4641 19
-22 -8.33975 25
-19 -17 23
-23 -10.0718 15
-14.5 -21.3301 15
-12 -25.6603 5
-17 -17 15
-22 -8.33975 15
-15 -23.9282 11
-19.5 -12.6699 5
-19.5 -12.6699 15
-22 -8.33975 15
-19 -17 15
-17 -17 5
-12 -25.6603 10
-14.5 -21.3301 10
-12 -25.6603 20
-12 -25.6603 20
-19.5 -12.6699 25
-23 -10.0718 19
-19 -17 19
