ply
format ascii 1.0
element vertex 426
property float x
property float y
property float z
end_header
3.34569 5.00677 1.84317
3.37203 5.01254 1.84808
3.40495 5.02415 1.85909
3.37132 5.04166 1.8726
3.37699 5.01448 1.86782
-1.42607 -0.930242 1.00546
-1.45113 -0.939181 1.02064
-1.47548 -0.960964 1.04471
-1.47833 -0.955989 1.04527
-1.47356 -0.959246 1.04911
-1.44771 -0.935308 1.02925
-3.45063 -2.24568 2.46312
-1.45696 -0.950914 1.02104
-1.46023 -0.946306 1.02066
-1.42607 -0.930242 1.00546
-1.45113 -0.939181 1.02064
-1.47548 -0.960964 1.04471
-1.47833 -0.955989 1.04527
-1.45696 -0.950914 1.02104
-1.46023 -0.946306 1.02066
-1.42607 -0.930242 1.00546
-1.45113 -0.939181 1.02064
-1.43694 -0.939017 1.00127
-1.45492 -0.943698 1.01076
-1.4361 -0.924835 0.995892
-1.45696 -0.950914 1.02104
-1.46023 -0.946306 1.02066
-1.42685 -0.918037 0.995805
-1.45098 -0.942413 0.997508
-1.44636 -0.94528 1.00158
-1.47139 -0.954495 1.01656
-1.44526 -0.930834 0.996836
-1.45492 -0.943698 1.01076
-1.4361 -0.924835 0.995892
-1.42367 -0.925077 0.973395
-1.42656 -0.920377 0.97363
-1.45098 -0.942413 0.997508
-1.45424 -0.937461 0.997434
-1.47139 -0.954495 1.01656
-1.43242 -0.931971 0.974005
-1.42831 -0.922328 0.969085
-1.42367 -0.925077 0.973395
-1.42656 -0.920377 0.97363
-1.45645 -0.948494 0.983287
-1.45955 -0.943787 0.983217
-1.43242 -0.931971 0.974005
-1.42831 -0.922328 0.969085
-1.45385 -0.940535 0.974381
-1.45645 -0.948494 0.983287
-1.45955 -0.943787 0.983217
-1.44778 -0.929488 0.97381
-1.45306 -0.934622 0.960586
-1.46353 -0.934673 0.965273
-1.48068 -0.951981 0.984329
-1.47641 -0.942461 0.979477
-1.45955 -0.943787 0.983217
-1.43242 -0.931971 0.974005
-1.42831 -0.922328 0.969085
-1.43883 -0.922537 0.973559
-1.42656 -0.920377 0.97363
-1.44246 -0.934422 0.956205
-1.45306 -0.934622 0.960586
-1.45562 -0.942141 0.970053
-1.48068 -0.951981 0.984329
-1.45385 -0.940535 0.974381
-1.51595 -0.973475 1.01304
-1.42824 -0.921048 0.928549
-1.4237 -0.911568 0.924092
-1.44907 -0.933705 0.946621
-1.42973 -0.914638 0.932721
-1.4546 -0.936822 0.955967
-1.48005 -0.946486 0.969785
-1.41508 -0.912976 0.91496
-1.42548 -0.913528 0.919263
-1.42824 -0.921048 0.928549
-1.4237 -0.911568 0.924092
-1.4341 -0.912062 0.928416
-1.44907 -0.933705 0.946621
-1.42973 -0.914638 0.932721
-1.42698 -0.915303 0.915033
-1.41486 -0.901751 0.90538
-1.42548 -0.913528 0.919263
-1.42072 -0.904327 0.914831
-1.41383 -0.907649 0.900948
-1.43184 -0.913071 0.909519
-1.42698 -0.915303 0.915033
-1.41486 -0.901751 0.90538
-1.42548 -0.913528 0.919263
-1.42072 -0.904327 0.914831
-1.41383 -0.907649 0.900948
-1.43184 -0.913071 0.909519
-1.42698 -0.915303 0.915033
-1.41486 -0.901751 0.90538
-1.42294 -0.909854 0.883748
-1.4334 -0.910389 0.887913
-1.42589 -0.917106 0.893189
-1.41387 -0.903235 0.883708
-1.42417 -0.9037 0.8882
-1.41978 -0.906217 0.892775
-1.42887 -0.909118 0.874633
-1.43188 -0.916401 0.88404
-1.41992 -0.902604 0.874351
-1.43775 -0.90817 0.883002
-1.42294 -0.909854 0.883748
-1.4334 -0.910389 0.887913
-1.42887 -0.909118 0.874633
-1.43907 -0.909804 0.879058
-1.43188 -0.916401 0.88404
-1.41992 -0.902604 0.874351
-1.43775 -0.90817 0.883002
-1.4334 -0.910389 0.887913
-1.44246 -0.934422 0.956205
-1.4597 -0.951904 0.974908
-1.45562 -0.942141 0.970053
-1.48068 -0.951981 0.984329
-1.45385 -0.940535 0.974381
-1.44246 -0.934422 0.956205
-1.4597 -0.951904 0.974908
-1.45562 -0.942141 0.970053
-1.48068 -0.951981 0.984329
-1.45385 -0.940535 0.974381
-1.44907 -0.933705 0.946621
-1.45907 -0.946054 0.960767
-1.4546 -0.936822 0.955967
-1.48005 -0.946486 0.969785
-1.44246 -0.934422 0.956205
-1.45306 -0.934622 0.960586
-1.44354 -0.914334 0.866582
-1.60591 -1.01068 0.95869
-1.62694 -1.02305 0.977076
-3.84305 -2.40385 2.28427
-3.83137 -2.39441 2.29173
-1.42432 -0.907454 0.86172
-1.44221 -0.913056 0.870238
-1.43058 -0.910658 0.870095
-1.44079 -0.911346 0.874496
-1.42887 -0.909118 0.874633
-1.43907 -0.909804 0.879058
-1.42576 -0.908806 0.857799
-1.44354 -0.914334 0.866582
-1.42432 -0.907454 0.86172
-1.44221 -0.913056 0.870238
-1.43058 -0.910658 0.870095
-1.44079 -0.911346 0.874496
-1.44354 -0.914334 0.866582
-1.60591 -1.01068 0.95869
-1.44221 -0.913056 0.870238
-1.62694 -1.02305 0.977076
-1.44079 -0.911346 0.874496
-1.63286 -1.02629 0.985982
-1.45106 -0.915343 0.852471
-1.45727 -0.918464 0.861121
-3.91176 -2.45021 2.29728
-3.8776 -2.42666 2.29086
-1.45106 -0.915343 0.852471
-1.45727 -0.918464 0.861121
-3.91176 -2.45021 2.29728
-3.8776 -2.42666 2.29086
-3.97663 -2.49747 2.29279
-4.00726 -2.49889 2.30648
-3.94275 -2.47401 2.28602
-3.96598 -2.47098 2.29458
-3.93172 -2.46494 2.29226
-3.94696 -2.45695 2.29728
-3.97663 -2.49747 2.29279
-4.00726 -2.49889 2.30648
-3.94275 -2.47401 2.28602
-3.96598 -2.47098 2.29458
-3.93172 -2.46494 2.29226
-3.94696 -2.45695 2.29728
-3.97663 -2.49747 2.29279
-4.00726 -2.49889 2.30648
-3.94275 -2.47401 2.28602
-3.96598 -2.47098 2.29458
-3.94696 -2.45695 2.29728
-3.97663 -2.49747 2.29279
-4.00726 -2.49889 2.30648
-3.94275 -2.47401 2.28602
-3.96598 -2.47098 2.29458
-3.94696 -2.45695 2.29728
-1.43086 -0.903783 0.83158
-1.42951 -0.90213 0.835804
-1.45106 -0.915343 0.852471
-3.93172 -2.46494 2.29226
-3.91176 -2.45021 2.29728
-1.44354 -0.914334 0.866582
-1.60591 -1.01068 0.95869
-1.44221 -0.913056 0.870238
-1.62694 -1.02305 0.977076
-1.63286 -1.02629 0.985982
-3.83137 -2.39441 2.29173
-1.44354 -0.914334 0.866582
-1.42432 -0.907454 0.86172
-1.44221 -0.913056 0.870238
-1.62694 -1.02305 0.977076
-1.43058 -0.910658 0.870095
-1.44079 -0.911346 0.874496
-1.63286 -1.02629 0.985982
-1.43762 -0.911383 0.857305
-1.44354 -0.914334 0.866582
-1.60591 -1.01068 0.95869
-1.62694 -1.02305 0.977076
-1.45727 -0.918464 0.861121
-1.60591 -1.01068 0.95869
-3.8776 -2.42666 2.29086
-3.84305 -2.40385 2.28427
-1.43086 -0.903783 0.83158
-3.97663 -2.49747 2.29279
-3.94275 -2.47401 2.28602
-3.96598 -2.47098 2.29458
-3.93172 -2.46494 2.29226
-3.94696 -2.45695 2.29728
-4.01135 -2.50366 2.29403
-3.97663 -2.49747 2.29279
-4.00726 -2.49889 2.30648
-4.00799 -2.48161 2.30111
-3.94275 -2.47401 2.28602
-3.96598 -2.47098 2.29458
-1.45211 -0.912678 0.830357
-4.02319 -2.51226 2.28668
-3.96555 -2.4917 2.27256
-4.01135 -2.50366 2.29403
-4.01986 -2.49017 2.29382
-4.00726 -2.49889 2.30648
-1.42607 -0.930242 1.00546
-1.45113 -0.939181 1.02064
-1.47548 -0.960964 1.04471
-1.47833 -0.955989 1.04527
-1.47356 -0.959246 1.04911
-1.44771 -0.935308 1.02925
-3.50925 -2.26703 2.49784
-1.45113 -0.939181 1.02064
-1.47548 -0.960964 1.04471
-1.47833 -0.955989 1.04527
-1.48875 -0.9559 1.05021
-1.47356 -0.959246 1.04911
-1.44771 -0.935308 1.02925
-3.50925 -2.26703 2.49784
-1.45113 -0.939181 1.02064
-1.43218 -0.920653 1.00563
-1.47548 -0.960964 1.04471
-1.47833 -0.955989 1.04527
-1.48875 -0.9559 1.05021
-1.44771 -0.935308 1.02925
-1.4582 -0.935408 1.0339
-3.50925 -2.26703 2.49784
-1.43218 -0.920653 1.00563
-1.47833 -0.955989 1.04527
-1.48875 -0.9559 1.05021
-1.46998 -0.93746 1.03482
-1.44771 -0.935308 1.02925
-1.4582 -0.935408 1.0339
-3.50925 -2.26703 2.49784
-3.52383 -2.26048 2.50276
-1.46331 -0.921443 1.01944
-1.45827 -0.923683 1.02474
-1.46846 -0.923855 1.02968
-1.46414 -0.914872 1.0243
-1.47097 -0.931294 1.0391
-1.45938 -0.917675 1.02868
-3.56628 -2.24319 2.51682
-1.48875 -0.9559 1.05021
-1.46998 -0.93746 1.03482
-1.4582 -0.935408 1.0339
-1.44638 -0.921541 1.02409
-1.46353 -0.938758 1.04296
-1.46646 -0.933925 1.0432
-3.52383 -2.26048 2.50276
-3.55976 -2.26838 2.52296
-3.54775 -2.27473 2.53426
-3.54746 -2.25942 2.52899
-1.45827 -0.923683 1.02474
-1.46846 -0.923855 1.02968
-1.44638 -0.921541 1.02409
-1.47097 -0.931294 1.0391
-1.45938 -0.917675 1.02868
-3.57356 -2.2629 2.5279
-3.56628 -2.24319 2.51682
-1.45827 -0.923683 1.02474
-1.46846 -0.923855 1.02968
-1.46414 -0.914872 1.0243
-1.47097 -0.931294 1.0391
-1.45938 -0.917675 1.02868
-3.57356 -2.2629 2.5279
-3.56628 -2.24319 2.51682
-1.45827 -0.923683 1.02474
-1.46846 -0.923855 1.02968
-1.46414 -0.914872 1.0243
-1.47097 -0.931294 1.0391
-1.45938 -0.917675 1.02868
-1.49171 -0.931327 1.04869
-3.57356 -2.2629 2.5279
-3.56628 -2.24319 2.51682
-3.55201 -2.21836 2.50065
-1.46998 -0.93746 1.03482
-1.45827 -0.923683 1.02474
-1.44638 -0.921541 1.02409
-1.47097 -0.931294 1.0391
-1.46646 -0.933925 1.0432
-1.48394 -0.938705 1.05322
-3.55976 -2.26838 2.52296
-3.57356 -2.2629 2.5279
-1.46998 -0.93746 1.03482
-1.45827 -0.923683 1.02474
-1.44638 -0.921541 1.02409
-1.47097 -0.931294 1.0391
-1.46646 -0.933925 1.0432
-1.48394 -0.938705 1.05322
-3.55976 -2.26838 2.52296
-3.57356 -2.2629 2.5279
-1.44427 -0.903238 1.00414
-1.46846 -0.923855 1.02968
-1.46414 -0.914872 1.0243
-1.4745 -0.914718 1.02923
-1.45938 -0.917675 1.02868
-1.49171 -0.931327 1.04869
-3.57815 -2.21988 2.50102
-3.55201 -2.21836 2.50065
-1.44427 -0.903238 1.00414
-1.46165 -0.907912 1.01433
-1.46846 -0.923855 1.02968
-1.46414 -0.914872 1.0243
-1.4745 -0.914718 1.02923
-1.49171 -0.931327 1.04869
-3.57815 -2.21988 2.50102
-3.55201 -2.21836 2.50065
-1.44427 -0.903238 1.00414
-1.46165 -0.907912 1.01433
-1.46846 -0.923855 1.02968
-1.46414 -0.914872 1.0243
-1.4745 -0.914718 1.02923
-1.49171 -0.931327 1.04869
-3.57815 -2.21988 2.50102
-3.55201 -2.21836 2.50065
-1.44427 -0.903238 1.00414
-1.46165 -0.907912 1.01433
-1.46846 -0.923855 1.02968
-1.46414 -0.914872 1.0243
-1.4745 -0.914718 1.02923
-1.49171 -0.931327 1.04869
-3.57815 -2.21988 2.50102
-3.55201 -2.21836 2.50065
-1.44427 -0.903238 1.00414
-1.46165 -0.907912 1.01433
-1.46414 -0.914872 1.0243
-1.4745 -0.914718 1.02923
-1.49171 -0.931327 1.04869
-3.57815 -2.21988 2.50102
-3.55201 -2.21836 2.50065
-3.55184 -2.20335 2.49467
-1.4582 -0.935408 1.0339
-1.44638 -0.921541 1.02409
-1.46353 -0.938758 1.04296
-1.46646 -0.933925 1.0432
-3.52383 -2.26048 2.50276
-3.55976 -2.26838 2.52296
-3.54775 -2.27473 2.53426
-3.54746 -2.25942 2.52899
-1.45179 -0.954184 1.02546
-1.42607 -0.930242 1.00546
-1.47937 -0.970745 1.04979
-1.47548 -0.960964 1.04471
-1.47748 -0.968642 1.05452
-1.47356 -0.959246 1.04911
-1.45696 -0.950914 1.02104
-1.46023 -0.946306 1.02066
-1.42685 -0.918037 0.995805
-1.42607 -0.930242 1.00546
-1.45113 -0.939181 1.02064
-1.43218 -0.920653 1.00563
-1.47548 -0.960964 1.04471
-1.47833 -0.955989 1.04527
-1.43242 -0.931971 0.974005
-1.42831 -0.922328 0.969085
-1.42367 -0.925077 0.973395
-1.42656 -0.920377 0.97363
-1.45792 -0.950284 0.979257
-1.45385 -0.940535 0.974381
-1.51595 -0.973475 1.01304
-1.45645 -0.948494 0.983287
-1.45955 -0.943787 0.983217
-1.44778 -0.929488 0.97381
-1.4546 -0.936822 0.955967
-1.44246 -0.934422 0.956205
-1.45306 -0.934622 0.960586
-1.46353 -0.934673 0.965273
-1.48068 -0.951981 0.984329
-1.4597 -0.951904 0.974908
-1.45562 -0.942141 0.970053
-1.45792 -0.950284 0.979257
-1.45385 -0.940535 0.974381
-1.41978 -0.906217 0.892775
-1.42255 -0.902225 0.892413
-1.41841 -0.904909 0.896381
-1.4287 -0.905345 0.900913
-1.43901 -0.905728 0.905446
-1.43184 -0.913071 0.909519
-1.42718 -0.903942 0.904836
-1.40809 -0.904761 0.891551
-1.41841 -0.904909 0.896381
-1.4287 -0.905345 0.900913
-1.41383 -0.907649 0.900948
-1.43184 -0.913071 0.909519
-1.42718 -0.903942 0.904836
-1.40809 -0.904761 0.891551
-1.41841 -0.904909 0.896381
-1.4287 -0.905345 0.900913
-1.41383 -0.907649 0.900948
-1.43184 -0.913071 0.909519
-1.42718 -0.903942 0.904836
-1.43086 -0.903783 0.83158
-3.97663 -2.49747 2.29279
-4.00726 -2.49889 2.30648
-3.94275 -2.47401 2.28602
-3.96598 -2.47098 2.29458
-3.93172 -2.46494 2.29226
-1.43086 -0.903783 0.83158
-3.97663 -2.49747 2.29279
-4.00726 -2.49889 2.30648
-3.94275 -2.47401 2.28602
-3.96598 -2.47098 2.29458
-3.93172 -2.46494 2.29226
-1.45727 -0.918464 0.861121
-1.60591 -1.01068 0.95869
-3.8776 -2.42666 2.29086
-3.84305 -2.40385 2.28427
