ply
format ascii 1.0
element vertex 16
property float x
property float y
property float z
end_header
-0.175075 -4.988512 1.183640
-0.939829 -4.988219 1.217699
-0.168798 -4.957804 -0.304277
-0.936510 -5.004199 -0.301574
6.319684 3.394267 1.506469
7.049978 3.361156 1.484229
6.311214 3.402502 0.021274
7.090864 3.437023 -0.030257
6.802778 -5.309179 1.322013
6.061887 -5.186495 1.280702
6.813528 -5.245228 -0.153092
6.090295 -5.170430 -0.122713
-1.785927 -0.548059 0.937121
-1.733123 -0.091133 0.932137
-1.715063 -0.504770 0.088689
-1.757181 -0.087785 0.046993