ply
format ascii 1.0
comment ViewPLUS PointType : struct vp::PointXYZI
element vertex 13
property float x
property float y
property float z
end_header
0.617232 -2.941695 0.716626
-0.390646 -2.951324 0.707590
-0.640643 -3.377578 0.123054
-1.144591 -3.187949 0.137820
-1.232585 -3.406838 -0.226033
2.289558 -2.754850 1.040012
2.131339 -3.147974 1.035016
0.704013 -2.291276 -0.506874
0.883020 -2.241676 -0.496754
3.433930 -1.563485 0.228129
3.154343 -1.020649 0.175491
2.989379 -0.083501 -0.237987
2.965848 0.369416 -0.259381