ply
format ascii 1.0
element vertex 30
property float x
property float y
property float z
end_header
-14.5 -21.3301 -10
-14.5 -21.3301 -10
-17 -17 -25
-14.5 -21.3301 -5
-17 -17 -20
-15 -23.9282 -23
-19.5 -12.6699 -25
-19.5 -12.6699 -5
-21 -13.5359 -7
-17 -20.4641 -11
-22 -8.33975 -5
-19 -17 -7
-23 -10.0718 -15
-14.5 -21.3301 -15
-12 -25.6603 -25
-17 -17 -15
-22 -8.33975 -15
-15 -23.9282 -19
-19.5 -12.6699 -25
-19.5 -12.6699 -15
-22 -8.33975 -15
-19 -17 -15
-17 -17 -25
-12 -25.6603 -20
-14.5 -21.3301 -20
-12 -25.6603 -10
-12 -25.6603 -10
-19.5 -12.6699 -5
-23 -10.0718 -11
-19 -17 -11
