ply
format ascii 1.0
element vertex 30
property float x
property float y
property float z
end_header
-4.49039 -27.2224 -10
-4.49039 -27.2224 -10
-8.82051 -24.7224 -25
-4.49039 -27.2224 -5
-8.82051 -24.7224 -20
-3.62436 -29.7224 -23
-13.1506 -22.2224 -25
-13.1506 -22.2224 -5
-14.0167 -23.7224 -7
-7.08846 -27.7224 -11
-17.4808 -19.7224 -5
-10.5526 -25.7224 -7
-17.4808 -21.7224 -15
-4.49039 -27.2224 -15
-0.160231 -29.7225 -25
-8.82051 -24.7224 -15
-17.4808 -19.7224 -15
-3.62436 -29.7224 -19
-13.1506 -22.2224 -25
-13.1506 -22.2224 -15
-17.4808 -19.7224 -15
-10.5526 -25.7224 -15
-8.82051 -24.7224 -25
-0.160231 -29.7225 -20
-4.49039 -27.2224 -20
-0.160231 -29.7225 -10
-0.160231 -29.7225 -10
-13.1506 -22.2224 -5
-17.4808 -21.7224 -11
-10.5526 -25.7224 -11
