ply
format ascii 1.0
element vertex 69
property float x
property float y
property float z
end_header
0.1119 -4.81976 0.688713
0.099489 -4.83005 0.689284
0.084638 -4.80087 0.683371
0.069842 -4.82091 0.686189
0.111242 -4.82773 0.703615
0.097767 -4.82839 0.701087
0.082768 -4.83857 0.702523
0.068135 -4.81924 0.697968
0.109296 -4.81627 0.713106
0.095203 -4.82659 0.713728
0.081055 -4.83711 0.712657
0.066293 -4.80765 0.708285
0.107797 -4.82444 0.726364
0.094519 -4.83473 0.727008
0.079849 -4.81534 0.723194
0.06499 -4.8356 0.724476
0.094101 -4.8133 0.73496
0.07982 -4.81356 0.73496
1.02907 -4.91728 0.682817
1.00961 -4.90108 0.680124
1.04533 -4.92213 0.69734
1.02493 -4.90606 0.695469
1.01039 -4.9092 0.694595
0.993047 -4.90288 0.691476
1.03832 -4.90175 0.705965
1.02406 -4.91473 0.708236
1.00468 -4.89877 0.703697
0.992079 -4.91131 0.705965
1.03796 -4.90004 0.718206
1.0237 -4.91303 0.720501
1.00229 -4.88713 0.716238
0.992836 -4.91948 0.719625
1.03707 -4.90853 0.731886
1.02079 -4.91195 0.731886
1.00139 -4.89574 0.728999
0.125861 -4.74315 2.31626
0.111169 -4.75251 2.32064
0.097528 -4.73483 2.31187
0.125948 -4.74646 2.33225
0.111026 -4.74642 2.33308
0.096777 -4.73857 2.32702
0.08256 -4.72986 2.32261
0.13764 -4.74938 2.34828
0.122245 -4.73146 2.34024
0.10842 -4.74117 2.34385
0.095351 -4.75001 2.34911
0.080958 -4.73276 2.33942
0.12236 -4.73591 2.35377
0.107675 -4.74482 2.35905
0.093588 -4.7447 2.35988
0.079367 -4.73642 2.3546
0.11993 -4.73791 2.3723
0.10628 -4.75655 2.38042
0.092663 -4.73977 2.36981
1.03753 -4.82321 2.40838
1.02051 -4.81765 2.40399
1.05627 -4.83234 2.42752
1.0394 -4.836 2.42752
1.02039 -4.82126 2.41957
1.07014 -4.83107 2.44662
1.05602 -4.84335 2.45105
1.03704 -4.82912 2.44218
1.0174 -4.81541 2.43246
1.06809 -4.82583 2.45784
1.05306 -4.83786 2.46315
1.03513 -4.83257 2.4587
1.01818 -4.82745 2.45338
1.05283 -4.84088 2.47972
1.03396 -4.8271 2.46991
