ply
format ascii 1.0
element vertex 102
property float x
property float y
property float z
element edge 101
property int vertex1
property int vertex2
end_header
0 0 0
2.45947 -19.483 3.78978
2.43227 -19.4462 3.99134
2.4294 -19.4232 4.10313
2.42823 -19.4139 4.14781
2.37979 -19.3859 4.30402
2.33374 -19.3765 4.37089
2.30984 -19.3642 4.4377
2.23254 -19.2773 4.83745
2.32636 -19.3152 4.63782
2.12308 -19.2952 4.8153
1.88903 -19.1797 5.34526
2.00284 -19.2104 5.19108
2.07422 -19.2555 4.99237
2.30217 -19.4891 3.85701
2.30217 -19.4891 3.85701
1.90787 -19.1468 5.45517
1.80495 -18.9926 6.00202
1.79902 -18.9302 6.19771
1.8179 -18.8998 6.28447
2.2768 -19.465 3.99134
2.30421 -19.5063 3.76736
2.3196 -19.446 4.05843
2.31794 -19.4321 4.12547
2.24751 -19.4066 4.28172
2.13122 -19.3692 4.50446
2.10223 -19.3085 4.77096
2.10045 -19.2922 4.83745
2.07422 -19.2555 4.99237
1.91685 -19.237 5.1249
1.84582 -19.19 5.32325
1.79261 -19.0942 5.67447
1.78644 -19.0284 5.89303
1.92593 -19.107 5.58684
1.72187 -19.0411 5.8712
1.6724 -18.977 6.08907
1.70608 -18.8665 6.41437
1.66969 -18.7021 6.88806
1.70584 -18.6267 7.0806
1.82534 -18.533 7.29366
1.84317 -18.4975 7.37862
1.85046 -18.3582 7.7169
1.84331 -18.2874 7.88509
1.91334 -18.1511 8.17782
1.92808 -18.0928 8.30264
1.92808 -18.0928 8.30264
1.9419 -18.2224 8.01079
1.9153 -18.1696 8.13612
1.93009 -18.1116 8.26107
1.96939 -18.0883 8.30264
1.96214 -18.0218 8.44777
1.94157 -18.024 8.44777
1.94053 -18.0144 8.46846
1.86023 -18.0423 8.42707
1.96562 -18.2474 7.94799
1.96562 -18.2474 7.94799
1.98448 -18.227 7.98987
1.95334 -18.3298 7.75901
1.95334 -18.3298 7.75901
1.95146 -18.3122 7.80108
1.95052 -18.3033 7.82209
1.94767 -18.2765 7.88509
1.70409 -18.8445 6.47921
1.58398 -18.9635 6.15428
1.60204 -18.9193 6.28447
1.61929 -18.8668 6.436
1.63501 -18.7981 6.6302
1.65379 -18.7658 6.7163
1.65244 -18.7505 6.75929
1.70362 -18.6025 7.14462
1.70062 -18.5698 7.22984
1.77981 -18.5037 7.37862
1.8204 -18.4828 7.42104
1.81622 -18.4404 7.52693
1.83556 -18.4211 7.56922
1.83298 -18.3952 7.63257
1.79969 -18.9372 6.176
1.78942 -18.8292 6.50081
1.7866 -18.7994 6.58711
1.78373 -18.7693 6.67327
1.77937 -18.7233 6.80225
1.77863 -18.7156 6.82371
1.81832 -18.6803 6.90949
1.83496 -18.6307 7.03788
1.83338 -18.6146 7.0806
1.83099 -18.5904 7.14462
1.84814 -18.5474 7.25113
1.8871 -18.51 7.33616
1.98841 -18.2631 7.90606
1.98743 -18.2541 7.92703
2.01485 -18.1213 8.21947
1.93885 -18.3931 7.61146
1.93519 -18.3584 7.69584
1.93427 -18.3496 7.7169
1.85588 -18.2037 8.07351
1.92808 -18.0928 8.30264
2.26795 -19.3893 4.3486
2.24115 -19.3516 4.5267
2.23692 -19.3151 4.68223
2.07604 -19.2724 4.92602
2.02662 -19.2257 5.1249
1.89569 -19.0246 5.8712
0 1
0 2
0 3
0 4
0 5
0 6
0 7
0 8
0 9
0 10
0 11
0 12
0 13
0 14
0 15
0 16
0 17
0 18
0 19
0 20
0 21
0 22
0 23
0 24
0 25
0 26
0 27
0 28
0 29
0 30
0 31
0 32
0 33
0 34
0 35
0 36
0 37
0 38
0 39
0 40
0 41
0 42
0 43
0 44
0 45
0 46
0 47
0 48
0 49
0 50
0 51
0 52
0 53
0 54
0 55
0 56
0 57
0 58
0 59
0 60
0 61
0 62
0 63
0 64
0 65
0 66
0 67
0 68
0 69
0 70
0 71
0 72
0 73
0 74
0 75
0 76
0 77
0 78
0 79
0 80
0 81
0 82
0 83
0 84
0 85
0 86
0 87
0 88
0 89
0 90
0 91
0 92
0 93
0 94
0 95
0 96
0 97
0 98
0 99
0 100
0 101
