ply
format ascii 1.0
element vertex 26
property float x
property float y
property float z
end_header
-10 -10 -10
-10 -10 6.21587e-15
-10 -10 10
-10 2.66454e-15 -10
-10 4.44089e-15 4.61241e-15
-10 6.21725e-15 10
-10 10 -10
-10 10 3.00896e-15
-10 10 10
-5.32907e-15 -10 -10
-3.55271e-15 -10 4.61241e-15
-1.77636e-15 -10 10
-3.55271e-15 -1.77636e-15 -10
0 1.77636e-15 10
-1.77636e-15 10 -10
0 10 1.4055e-15
1.77636e-15 10 10
10 -10 -10
10 -10 3.00896e-15
10 -10 10
10 -5.32907e-15 -10
10 -3.55271e-15 1.4055e-15
10 -1.77636e-15 10
10 10 -10
10 10 -1.97956e-16
10 10 10
