ply
format ascii 1.0
element vertex 26
property float x
property float y
property float z
end_header
-10.055 -10.055 -10
-10.055 -10.055 6.26663e-15
-10.055 -10.055 10
-10.055 -0.0550243 -10
-10.055 -0.0550243 4.66317e-15
-10.055 -0.0550243 10
-10.055 9.94498 -10
-10.055 9.94498 3.05971e-15
-10.055 9.94498 10
-0.0550243 -10.055 -10
-0.0550243 -10.055 4.66317e-15
-0.0550243 -10.055 10
-0.0550243 -0.0550243 -10
-0.0550243 -0.0550243 10
-0.0550243 9.94498 -10
-0.0550243 9.94498 1.45626e-15
-0.0550243 9.94498 10
9.94498 -10.055 -10
9.94498 -10.055 3.05971e-15
9.94498 -10.055 10
9.94498 -0.0550243 -10
9.94498 -0.0550243 1.45626e-15
9.94498 -0.0550243 10
9.94498 9.94498 -10
9.94498 9.94498 -1.47197e-16
9.94498 9.94498 10
