ply
format ascii 1.0
comment created by 3d_to_ply
element vertex 27
property float32 x
property float32 y
property float32 z
property uint8 red
property uint8 green
property uint8 blue
end_header
-1.830127 -6.830127 -10.000000 255 255 255
-1.830127 -6.830127 0.000000 255 255 255
-1.830127 -6.830127 10.000000 255 255 255
-6.830127 1.830127 -10.000000 255 255 255
-6.830127 1.830127 0.000000 255 255 255
-6.830127 1.830127 10.000000 255 255 255
-11.830127 10.490381 -10.000000 255 255 255
-11.830127 10.490381 0.000000 255 255 255
-11.830127 10.490381 10.000000 255 255 255
6.830127 -1.830127 -10.000000 255 255 255
6.830127 -1.830127 0.000000 255 255 255
6.830127 -1.830127 10.000000 255 255 255
1.830127 6.830127 -10.000000 255 255 255
1.830127 6.830127 0.000000 255 255 255
1.830127 6.830127 10.000000 255 255 255
-3.169873 15.490381 -10.000000 255 255 255
-3.169873 15.490381 0.000000 255 255 255
-3.169873 15.490381 10.000000 255 255 255
15.490381 3.169873 -10.000000 255 255 255
15.490381 3.169873 0.000000 255 255 255
15.490381 3.169873 10.000000 255 255 255
10.490381 11.830127 -10.000000 255 255 255
10.490381 11.830127 0.000000 255 255 255
10.490381 11.830127 10.000000 255 255 255
5.490381 20.490381 -10.000000 255 255 255
5.490381 20.490381 0.000000 255 255 255
5.490381 20.490381 10.000000 255 255 255
