ply
format ascii 1.0
element vertex 30
property float x
property float y
property float z
end_header
-8.49573 6.28398 -8.32672
9.20114 11.3439 -12.4761
-9.87566 -2.50087 1.10314
1.65782 2.73376 -8.87571
-0.444141 10.0367 -0.258949
-9.92792 1.19415 5.38614
1.43931 10.4144 -4.29751
-2.42022 4.55241 -8.62659
8.38172 -5.99337 4.33892
7.60269 10.2397 1.53192
-2.47722 4.69771 -10.6205
4.0448 -5.29572 -7.52297
10.2082 -5.47038 -1.69354
-4.2728 5.87693 -0.452635
-6.15626 5.49924 3.58592
-2.24447 7.66622 3.63201
5.79762 4.31952 -0.854022
3.51515 4.95895 -10.7728
2.18747 -7.52091 -5.62591
-3.6339 -8.21807 0.508064
-8.10146 1.71714 -0.64632
1.71008 -0.961262 -13.1587
1.99034 -5.23749 -9.46611
-8.04446 1.57184 1.34758
-8.4696 4.43647 -10.4682
-9.93741 -5.90528 -7.16766
1.95946 -6.9397 -13.6015
3.59828 2.96614 -10.9204
-2.25871 -2.98293 -15.1987
10.0942 -5.17978 -5.68134
