ply
format ascii 1.0
comment created by 3d_to_ply
element vertex 25
property float32 x
property float32 y
property float32 z
property uint8 red
property uint8 green
property uint8 blue
end_header
5.000000 -5.000000 5.000000 255 255 255
5.000000 -2.500000 5.000000 255 255 255
5.000000 0.000000 5.000000 255 255 255
5.000000 2.500000 5.000000 255 255 255
5.000000 5.000000 5.000000 255 255 255
5.000000 -5.000000 2.500000 255 255 255
5.000000 -2.500000 2.500000 255 255 255
5.000000 0.000000 2.500000 255 255 255
5.000000 2.500000 2.500000 255 255 255
5.000000 5.000000 2.500000 255 255 255
5.000000 -5.000000 0.000000 255 255 255
5.000000 -2.500000 0.000000 255 255 255
5.000000 0.000000 0.000000 255 255 255
5.000000 2.500000 0.000000 255 255 255
5.000000 5.000000 0.000000 255 255 255
5.000000 -5.000000 -2.500000 255 255 255
5.000000 -2.500000 -2.500000 255 255 255
5.000000 0.000000 -2.500000 255 255 255
5.000000 2.500000 -2.500000 255 255 255
5.000000 5.000000 -2.500000 255 255 255
5.000000 -5.000000 -5.000000 255 255 255
5.000000 -2.500000 -5.000000 255 255 255
5.000000 0.000000 -5.000000 255 255 255
5.000000 2.500000 -5.000000 255 255 255
5.000000 5.000000 -5.000000 255 255 255
