ply
format ascii 1.0
element vertex 30
property float x
property float y
property float z
end_header
10.4865 24.1617 21
10.4865 24.1617 21
5.65685 25.4558 6
10.4865 24.1617 26
5.65685 25.4558 11
14.7985 24.7995 8
0.827244 26.7499 6
0.827244 26.7499 26
3.20737 27.9053 24
10.9348 25.8348 20
-4.00244 28.0441 26
7.07107 26.8701 24
-0.656337 28.9406 16
10.4865 24.1617 16
15.3161 22.8677 6
5.65685 25.4558 16
-4.00244 28.0441 16
14.7985 24.7995 12
0.827244 26.7499 6
0.827244 26.7499 16
-4.00244 28.0441 16
7.07107 26.8701 16
5.65685 25.4558 6
15.3161 22.8677 11
10.4865 24.1617 11
15.3161 22.8677 21
15.3161 22.8677 21
0.827244 26.7499 26
-0.656337 28.9406 20
7.07107 26.8701 20
