ply
format ascii 1.0
element vertex 30
property float x
property float y
property float z
end_header
19.5 12.6699 20
19.5 12.6699 20
17 17 5
19.5 12.6699 25
17 17 10
23 10.0718 7
14.5 21.3301 5
14.5 21.3301 25
17 20.4641 23
21 13.5359 19
12 25.6603 25
19 17 23
15 23.9282 15
19.5 12.6699 15
22 8.33975 5
17 17 15
12 25.6603 15
23 10.0718 11
14.5 21.3301 5
14.5 21.3301 15
12 25.6603 15
19 17 15
17 17 5
22 8.33975 10
19.5 12.6699 10
22 8.33975 20
22 8.33975 20
14.5 21.3301 25
15 23.9282 19
19 17 19
