ply
format ascii 1.0
element vertex 30
property float x
property float y
property float z
end_header
-6.63397 8.49038 5
-6.63397 8.49038 5
-10.9641 10.9904 -10
-6.63397 8.49038 10
-10.9641 10.9904 -5
-10.866 8.82051 -8
-15.2942 13.4904 -10
-15.2942 13.4904 10
-21.2583 14.8205 8
-14.3301 10.8205 4
-19.6244 15.9904 10
-17.7942 12.8205 8
-24.7224 16.8205 0
-6.63397 8.49038 0
-2.30385 5.99038 -10
-10.9641 10.9904 0
-19.6244 15.9904 0
-10.866 8.82051 -4
-15.2942 13.4904 -10
-15.2942 13.4904 0
-19.6244 15.9904 0
-17.7942 12.8205 0
-10.9641 10.9904 -10
-2.30385 5.99038 -5
-6.63397 8.49038 -5
-2.30385 5.99038 5
-2.30385 5.99038 5
-15.2942 13.4904 10
-24.7224 16.8205 4
-17.7942 12.8205 4
