ply
format ascii 1.0
element vertex 50
property float x
property float y
property float z
end_header
-10.0001 -13.6603 9.99994
-7.50007 -9.33011 9.99998
-5.00007 -5.00001 10
-2.50006 -0.669888 10.0001
-5.65711e-05 3.66023 10.0001
-10 -13.6603 4.99994
-7.50004 -9.33008 4.99998
-5.00003 -4.99999 5.00003
-2.50002 -0.669859 5.00007
-1.80838e-05 3.66026 5.00012
-10 -13.6602 -6.11587e-05
-7.5 -9.33005 -1.71031e-05
-4.99999 -4.99996 2.6952e-05
-2.49999 -0.66983 7.10072e-05
2.04035e-05 3.66029 0.000115062
-9.99997 -13.6602 -5.00006
-7.49996 -9.33002 -5.00002
-4.99995 -4.99993 -4.99997
-2.49995 -0.669802 -4.99993
5.88908e-05 3.66031 -4.99988
-9.99993 -13.6602 -10.0001
-7.49992 -9.33 -10
-4.99991 -4.9999 -9.99997
-2.49991 -0.669773 -9.99993
9.73781e-05 3.66034 -9.99988
24 8.07176 8.00033
22 11.5359 8.00033
20 15 8.00033
18 18.4641 8.00034
16 21.9282 8.00034
24 8.07178 4.00033
22 11.5359 4.00033
20 15 4.00033
18 18.4641 4.00034
16 21.9282 4.00034
24 8.0718 0.000325079
22 11.5359 0.000329534
20 15 0.000333988
18 18.4641 0.000338442
16 21.9282 0.000342897
24.0001 8.07183 -3.99967
22.0001 11.5359 -3.99967
20.0001 15 -3.99967
18.0001 18.4641 -3.99966
16.0001 21.9282 -3.99966
24.0001 8.07185 -7.99967
22.0001 11.536 -7.99967
20.0001 15.0001 -7.99967
18.0001 18.4642 -7.99966
16.0001 21.9283 -7.99966
