ply
format ascii 1.0
element vertex 1333
property float x
property float y
property float z
element edge 1
property int vertex1
property int vertex2
end_header
0 0 0
-0.675494 -0.675494 -0.675494
-15.4148 2.6868 -8.23747
-15.2404 2.50609 -6.25331
-15.066 2.32538 -4.26914
-14.8916 2.14467 -2.28497
-14.7171 1.96396 -0.3008
-14.5427 1.78325 1.68337
-14.3683 1.60254 3.66754
-14.1939 1.42183 5.65171
-14.0195 1.24112 7.63587
-13.8451 1.06041 9.62004
-13.6707 0.879694 11.6042
-13.7795 3.83758 -8.27641
-13.6051 3.65687 -6.29224
-13.4307 3.47616 -4.30807
-13.2563 3.29545 -2.3239
-13.0818 3.11474 -0.339733
-12.9074 2.93403 1.64444
-12.733 2.75332 3.6286
-12.5586 2.57261 5.61277
-12.3842 2.3919 7.59694
-12.2098 2.21119 9.58111
-12.0354 2.03047 11.5653
-12.1442 4.98837 -8.31534
-11.9698 4.80765 -6.33117
-11.7954 4.62694 -4.347
-11.621 4.44623 -2.36283
-11.4466 4.26552 -0.378666
-11.2721 4.08481 1.6055
-11.0977 3.9041 3.58967
-10.9233 3.72339 5.57384
-10.7489 3.54268 7.55801
-10.5745 3.36197 9.54218
-10.4001 3.18126 11.5263
-10.5089 6.13915 -8.35427
-10.3345 5.95843 -6.3701
-10.1601 5.77772 -4.38594
-9.98567 5.59701 -2.40177
-9.81126 5.4163 -0.417599
-9.63685 5.23559 1.56657
-9.46244 5.05488 3.55074
-9.28804 4.87417 5.53491
-9.11363 4.69346 7.51908
-8.93922 4.51275 9.50324
-8.76481 4.33204 11.4874
-8.8736 7.28993 -8.39321
-8.69919 7.10922 -6.40904
-8.52478 6.9285 -4.42487
-8.35037 6.74779 -2.4407
-8.17596 6.56708 -0.456532
-8.00156 6.38637 1.52764
-7.82715 6.20566 3.51181
-7.65274 6.02495 5.49597
-7.47833 5.84424 7.48014
-7.30393 5.66353 9.46431
-7.12952 5.48282 11.4485
-7.2383 8.44071 -8.43214
-7.06389 8.26 -6.44797
-6.88949 8.07928 -4.4638
-6.71508 7.89857 -2.47963
-6.54067 7.71786 -0.495465
-6.36626 7.53715 1.4887
-6.19185 7.35644 3.47287
-6.01745 7.17573 5.45704
-5.84304 6.99502 7.44121
-5.66863 6.81431 9.42538
-5.49422 6.6336 11.4095
-5.60301 9.59149 -8.47107
-5.4286 9.41078 -6.4869
-5.25419 9.23007 -4.50274
-5.07978 9.04935 -2.51857
-4.90538 8.86864 -0.534398
-4.73097 8.68793 1.44977
-4.55656 8.50722 3.43394
-4.38215 8.32651 5.41811
-4.20774 8.1458 7.40228
-4.03334 7.96509 9.38645
-3.85893 7.78438 11.3706
-3.96771 10.7423 -8.51001
-3.7933 10.5616 -6.52584
-3.6189 10.3808 -4.54167
-3.44449 10.2001 -2.5575
-3.27008 10.0194 -0.573331
-3.09567 9.83871 1.41084
-2.92126 9.658 3.39501
-2.74686 9.47729 5.37918
-2.57245 9.29658 7.36334
-2.39804 9.11587 9.34751
-2.22363 8.93516 11.3317
-2.33242 11.893 -8.54894
-2.15801 11.7123 -6.56477
-1.9836 11.5316 -4.5806
-1.80919 11.3509 -2.59643
-1.63479 11.1702 -0.612263
-1.46038 10.9895 1.37191
-1.28597 10.8088 3.35607
-1.11156 10.6281 5.34024
-0.937154 10.4474 7.32441
-0.762747 10.2666 9.30858
-0.588339 10.0859 11.2927
-0.697123 13.0438 -8.58787
-0.522715 12.8631 -6.6037
-0.348307 12.6824 -4.61953
-0.173899 12.5017 -2.63537
0.000508748 12.321 -0.651196
0.174917 12.1403 1.33297
0.349324 11.9596 3.31714
0.523732 11.7789 5.30131
0.69814 11.5981 7.28548
0.872548 11.4174 9.26965
1.04696 11.2367 11.2538
0.938172 14.1946 -8.6268
1.11258 14.0139 -6.64264
1.28699 13.8332 -4.65847
1.4614 13.6525 -2.6743
1.6358 13.4718 -0.690129
1.81021 13.2911 1.29404
1.98462 13.1103 3.27821
2.15903 12.9296 5.26238
2.33343 12.7489 7.24655
2.50784 12.5682 9.23071
2.68225 12.3875 11.2149
-14.2766 1.06106 -8.48559
-14.1022 0.880348 -6.50142
-13.9278 0.699637 -4.51725
-13.7534 0.518926 -2.53308
-13.579 0.338215 -0.548911
-13.4046 0.157504 1.43526
-13.2302 -0.023207 3.41943
-13.0558 -0.203918 5.4036
-12.8814 -0.384629 7.38776
-12.7069 -0.56534 9.37193
-12.5325 -0.746051 11.3561
-12.6413 2.21184 -8.52452
-12.4669 2.03113 -6.54035
-12.2925 1.85042 -4.55618
-12.1181 1.66971 -2.57201
-11.9437 1.489 -0.587843
-11.7693 1.30828 1.39633
-11.5949 1.12757 3.38049
-11.4205 0.946862 5.36466
-11.2461 0.766151 7.34883
-11.0717 0.58544 9.333
-10.8972 0.404729 11.3172
-11.006 3.36262 -8.56345
-10.8316 3.18191 -6.57928
-10.6572 3.0012 -4.59511
-10.4828 2.82049 -2.61095
-10.3084 2.63978 -0.626776
-10.134 2.45907 1.35739
-9.95958 2.27835 3.34156
-9.78518 2.09764 5.32573
-9.61077 1.91693 7.3099
-9.43636 1.73622 9.29407
-9.26195 1.55551 11.2782
-9.37074 4.5134 -8.60238
-9.19633 4.33269 -6.61822
-9.02192 4.15198 -4.63405
-8.84751 3.97127 -2.64988
-8.67311 3.79056 -0.665709
-8.4987 3.60985 1.31846
-8.32429 3.42913 3.30263
-8.14988 3.24842 5.2868
-7.97547 3.06771 7.27097
-7.80107 2.887 9.25513
-7.62666 2.70629 11.2393
-7.73544 5.66418 -8.64132
-7.56103 5.48347 -6.65715
-7.38663 5.30276 -4.67298
-7.21222 5.12205 -2.68881
-7.03781 4.94134 -0.704642
-6.8634 4.76063 1.27953
-6.689 4.57992 3.2637
-6.51459 4.3992 5.24786
-6.34018 4.21849 7.23203
-6.16577 4.03778 9.2162
-5.99136 3.85707 11.2004
-6.10015 6.81496 -8.68025
-5.92574 6.63425 -6.69608
-5.75133 6.45354 -4.71191
-5.57692 6.27283 -2.72774
-5.40252 6.09212 -0.743575
-5.22811 5.91141 1.24059
-5.0537 5.7307 3.22476
-4.87929 5.54998 5.20893
-4.70488 5.36927 7.1931
-4.53048 5.18856 9.17727
-4.35607 5.00785 11.1614
-4.46485 7.96574 -8.71918
-4.29045 7.78503 -6.73501
-4.11604 7.60432 -4.75085
-3.94163 7.42361 -2.76668
-3.76722 7.2429 -0.782508
-3.59281 7.06219 1.20166
-3.41841 6.88148 3.18583
-3.244 6.70077 5.17
-3.06959 6.52005 7.15417
-2.89518 6.33934 9.13834
-2.72077 6.15863 11.1225
-2.82956 9.11652 -8.75812
-2.65515 8.93581 -6.77395
-2.48074 8.7551 -4.78978
-2.30633 8.57439 -2.80561
-2.13193 8.39368 -0.821441
-1.95752 8.21297 1.16273
-1.78311 8.03226 3.1469
-1.6087 7.85155 5.13107
-1.4343 7.67083 7.11523
-1.25989 7.49012 9.0994
-1.08548 7.30941 11.0836
-1.19426 10.2673 -8.79705
-1.01986 10.0866 -6.81288
-0.845448 9.90588 -4.82871
-0.67104 9.72517 -2.84454
-0.496632 9.54446 -0.860374
-0.322224 9.36375 1.12379
-0.147817 9.18304 3.10796
0.0265912 9.00233 5.09213
0.200999 8.82162 7.0763
0.375407 8.6409 9.06047
0.549815 8.46019 11.0446
0.441031 11.4181 -8.83598
0.615439 11.2374 -6.85181
0.789847 11.0567 -4.86764
0.964254 10.876 -2.88348
1.13866 10.6952 -0.899307
1.31307 10.5145 1.08486
1.48748 10.3338 3.06903
1.66189 10.1531 5.0532
1.83629 9.9724 7.03737
2.0107 9.79168 9.02154
2.18511 9.61097 11.0057
2.07633 12.5689 -8.87491
2.25073 12.3882 -6.89075
2.42514 12.2074 -4.90658
2.59955 12.0267 -2.92241
2.77396 11.846 -0.93824
2.94836 11.6653 1.04593
3.12277 11.4846 3.0301
3.29718 11.3039 5.01427
3.47159 11.1232 6.99844
3.646 10.9425 8.9826
3.8204 10.7618 10.9668
-13.1385 -0.564686 -8.7337
-12.9641 -0.745397 -6.74953
-12.7897 -0.926108 -4.76536
-12.6152 -1.10682 -2.78119
-12.4408 -1.28753 -0.797021
-12.2664 -1.46824 1.18715
-12.092 -1.64895 3.17132
-11.9176 -1.82966 5.15549
-11.7432 -2.01037 7.13965
-11.5688 -2.19109 9.12382
-11.3944 -2.3718 11.108
-11.5032 0.586094 -8.77263
-11.3288 0.405383 -6.78846
-11.1544 0.224672 -4.80429
-10.9799 0.0439612 -2.82012
-10.8055 -0.13675 -0.835954
-10.6311 -0.317461 1.14821
-10.4567 -0.498172 3.13238
-10.2823 -0.678883 5.11655
-10.1079 -0.859594 7.10072
-9.9335 -1.0403 9.08489
-9.75909 -1.22102 11.0691
-9.86788 1.73687 -8.81156
-9.69347 1.55616 -6.82739
-9.51906 1.37545 -4.84322
-9.34465 1.19474 -2.85906
-9.17025 1.01403 -0.874887
-8.99584 0.83332 1.10928
-8.82143 0.652609 3.09345
-8.64702 0.471898 5.07762
-8.47262 0.291187 7.06179
-8.29821 0.110476 9.04596
-8.1238 -0.0702354 11.0301
-8.23258 2.88766 -8.85049
-8.05818 2.70694 -6.86633
-7.88377 2.52623 -4.88216
-7.70936 2.34552 -2.89799
-7.53495 2.16481 -0.91382
-7.36054 1.9841 1.07035
-7.18614 1.80339 3.05452
-7.01173 1.62268 5.03869
-6.83732 1.44197 7.02286
-6.66291 1.26126 9.00702
-6.4885 1.08055 10.9912
-6.59729 4.03844 -8.88943
-6.42288 3.85772 -6.90526
-6.24847 3.67701 -4.92109
-6.07407 3.4963 -2.93692
-5.89966 3.31559 -0.952753
-5.72525 3.13488 1.03142
-5.55084 2.95417 3.01558
-5.37643 2.77346 4.99975
-5.20203 2.59275 6.98392
-5.02762 2.41204 8.96809
-4.85321 2.23133 10.9523
-4.96199 5.18922 -8.92836
-4.78759 5.00851 -6.94419
-4.61318 4.82779 -4.96002
-4.43877 4.64708 -2.97585
-4.26436 4.46637 -0.991686
-4.08995 4.28566 0.992483
-3.91555 4.10495 2.97665
-3.74114 3.92424 4.96082
-3.56673 3.74353 6.94499
-3.39232 3.56282 8.92916
-3.21792 3.38211 10.9133
-3.3267 6.34 -8.96729
-3.15229 6.15929 -6.98312
-2.97788 5.97857 -4.99896
-2.80348 5.79786 -3.01479
-2.62907 5.61715 -1.03062
-2.45466 5.43644 0.95355
-2.28025 5.25573 2.93772
-2.10584 5.07502 4.92189
-1.93144 4.89431 6.90606
-1.75703 4.7136 8.89022
-1.58262 4.53289 10.8744
-1.6914 7.49078 -9.00623
-1.517 7.31007 -7.02206
-1.34259 7.12936 -5.03789
-1.16818 6.94864 -3.05372
-0.993773 6.76793 -1.06955
-0.819366 6.58722 0.914617
-0.644958 6.40651 2.89879
-0.47055 6.2258 4.88295
-0.296142 6.04509 6.86712
-0.121734 5.86438 8.85129
0.0526737 5.68367 10.8355
-0.0561101 8.64156 -9.04516
0.118298 8.46085 -7.06099
0.292706 8.28014 -5.07682
0.467113 8.09942 -3.09265
0.641521 7.91871 -1.10848
0.815929 7.738 0.875684
0.990337 7.55729 2.85985
1.16474 7.37658 4.84402
1.33915 7.19587 6.82819
1.51356 7.01516 8.81236
1.68797 6.83445 10.7965
1.57918 9.79234 -9.08409
1.75359 9.61163 -7.09992
1.928 9.43092 -5.11575
2.10241 9.25021 -3.13159
2.27682 9.06949 -1.14742
2.45122 8.88878 0.836751
2.62563 8.70807 2.82092
2.80004 8.52736 4.80509
2.97445 8.34665 6.78926
3.14886 8.16594 8.77343
3.32326 7.98523 10.7576
3.21448 10.9431 -9.12303
3.38889 10.7624 -7.13886
3.56329 10.5817 -5.15469
3.7377 10.401 -3.17052
3.91211 10.2203 -1.18635
4.08652 10.0396 0.797818
4.26093 9.85885 2.78199
4.43533 9.67814 4.76616
4.60974 9.49743 6.75032
4.78415 9.31672 8.73449
4.95856 9.13601 10.7187
-12.0003 -2.19043 -8.98181
-11.8259 -2.37114 -6.99764
-11.6515 -2.55185 -5.01347
-11.4771 -2.73256 -3.0293
-11.3027 -2.91328 -1.04513
-11.1283 -3.09399 0.939037
-10.9539 -3.2747 2.92321
-10.7795 -3.45541 4.90737
-10.6051 -3.63612 6.89154
-10.4306 -3.81683 8.87571
-10.2562 -3.99754 10.8599
-10.365 -1.03965 -9.02074
-10.1906 -1.22036 -7.03657
-10.0162 -1.40107 -5.0524
-9.8418 -1.58178 -3.06823
-9.66739 -1.7625 -1.08406
-9.49298 -1.94321 0.900104
-9.31857 -2.12392 2.88427
-9.14416 -2.30463 4.86844
-8.96976 -2.48534 6.85261
-8.79535 -2.66605 8.83678
-8.62094 -2.84676 10.8209
-8.72972 0.11113 -9.05967
-8.55532 -0.0695815 -7.0755
-8.38091 -0.250292 -5.09133
-8.2065 -0.431004 -3.10717
-8.03209 -0.611715 -1.123
-7.85768 -0.792426 0.861171
-7.68328 -0.973137 2.84534
-7.50887 -1.15385 4.82951
-7.33446 -1.33456 6.81368
-7.16005 -1.51527 8.79785
-6.98565 -1.69598 10.782
-7.09443 1.26191 -9.09861
-6.92002 1.0812 -7.11444
-6.74561 0.900488 -5.13027
-6.57121 0.719777 -3.1461
-6.3968 0.539066 -1.16193
-6.22239 0.358355 0.822238
-6.04798 0.177644 2.80641
-5.87357 -0.00306706 4.79058
-5.69917 -0.183778 6.77474
-5.52476 -0.364489 8.75891
-5.35035 -0.5452 10.7431
-5.45913 2.41269 -9.13754
-5.28473 2.23198 -7.15337
-5.11032 2.05127 -5.1692
-4.93591 1.87056 -3.18503
-4.7615 1.68985 -1.20086
-4.5871 1.50914 0.783306
-4.41269 1.32842 2.76747
-4.23828 1.14771 4.75164
-4.06387 0.967002 6.73581
-3.88946 0.786291 8.71998
-3.71506 0.60558 10.7041
-3.82384 3.56347 -9.17647
-3.64943 3.38276 -7.1923
-3.47502 3.20205 -5.20813
-3.30062 3.02134 -3.22396
-3.12621 2.84063 -1.2398
-2.9518 2.65992 0.744373
-2.77739 2.4792 2.72854
-2.60299 2.29849 4.71271
-2.42858 2.11778 6.69688
-2.25417 1.93707 8.68105
-2.07976 1.75636 10.6652
-2.18855 4.71425 -9.2154
-2.01414 4.53354 -7.23124
-1.83973 4.35283 -5.24707
-1.66532 4.17212 -3.2629
-1.49091 3.99141 -1.27873
-1.31651 3.8107 0.70544
-1.1421 3.62999 2.68961
-0.967691 3.44927 4.67378
-0.793283 3.26856 6.65795
-0.618875 3.08785 8.64211
-0.444467 2.90714 10.6263
-0.553251 5.86503 -9.25434
-0.378843 5.68432 -7.27017
-0.204436 5.50361 -5.286
-0.0300277 5.3229 -3.30183
0.14438 5.14219 -1.31766
0.318788 4.96148 0.666507
0.493196 4.78077 2.65068
0.667604 4.60006 4.63484
0.842012 4.41934 6.61901
1.01642 4.23863 8.60318
1.19083 4.05792 10.5874
1.08204 7.01581 -9.29327
1.25645 6.8351 -7.3091
1.43086 6.65439 -5.32493
1.60527 6.47368 -3.34076
1.77967 6.29297 -1.35659
1.95408 6.11226 0.627574
2.12849 5.93155 2.61174
2.3029 5.75084 4.59591
2.47731 5.57012 6.58008
2.65171 5.38941 8.56425
2.82612 5.2087 10.5484
2.71734 8.16659 -9.3322
2.89175 7.98588 -7.34803
3.06615 7.80517 -5.36387
3.24056 7.62446 -3.3797
3.41497 7.44375 -1.39553
3.58938 7.26304 0.588641
3.76379 7.08233 2.57281
3.93819 6.90162 4.55698
4.1126 6.72091 6.54115
4.28701 6.54019 8.52532
4.46142 6.35948 10.5095
4.35263 9.31737 -9.37114
4.52704 9.13666 -7.38697
4.70145 8.95595 -5.4028
4.87586 8.77524 -3.41863
5.05026 8.59453 -1.43446
5.22467 8.41382 0.549708
5.39908 8.23311 2.53388
5.57349 8.0524 4.51805
5.7479 7.87169 6.50221
5.9223 7.69097 8.48638
6.09671 7.51026 10.4706
-10.8622 -3.81618 -9.22992
-10.6878 -3.99689 -7.24575
-10.5133 -4.1776 -5.26158
-10.3389 -4.35831 -3.27741
-10.1645 -4.53902 -1.29324
-9.99012 -4.71973 0.690927
-9.81571 -4.90044 2.6751
-9.6413 -5.08115 4.65926
-9.4669 -5.26186 6.64343
-9.29249 -5.44258 8.6276
-9.11808 -5.62329 10.6118
-9.22687 -2.6654 -9.26885
-9.05246 -2.84611 -7.28468
-8.87805 -3.02682 -5.30051
-8.70364 -3.20753 -3.31634
-8.52923 -3.38824 -1.33217
-8.35483 -3.56895 0.651994
-8.18042 -3.74966 2.63616
-8.00601 -3.93037 4.62033
-7.8316 -4.11108 6.6045
-7.65719 -4.2918 8.58867
-7.48279 -4.47251 10.5728
-7.59157 -1.51462 -9.30778
-7.41716 -1.69533 -7.32361
-7.24275 -1.87604 -5.33945
-7.06835 -2.05675 -3.35528
-6.89394 -2.23746 -1.37111
-6.71953 -2.41817 0.613061
-6.54512 -2.59888 2.59723
-6.37072 -2.77959 4.5814
-6.19631 -2.9603 6.56557
-6.0219 -3.14101 8.54974
-5.84749 -3.32173 10.5339
-5.95628 -0.363835 -9.34672
-5.78187 -0.544546 -7.36255
-5.60746 -0.725257 -5.37838
-5.43305 -0.905968 -3.39421
-5.25864 -1.08668 -1.41004
-5.08424 -1.26739 0.574128
-4.90983 -1.4481 2.5583
-4.73542 -1.62881 4.54247
-4.56101 -1.80952 6.52663
-4.38661 -1.99023 8.5108
-4.2122 -2.17095 10.495
-4.32098 0.786945 -9.38565
-4.14657 0.606234 -7.40148
-3.97217 0.425523 -5.41731
-3.79776 0.244812 -3.43314
-3.62335 0.0641012 -1.44897
-3.44894 -0.11661 0.535195
-3.27453 -0.297321 2.51936
-3.10013 -0.478032 4.50353
-2.92572 -0.658743 6.4877
-2.75131 -0.839454 8.47187
-2.5769 -1.02016 10.456
-2.68569 1.93773 -9.42458
-2.51128 1.75701 -7.44041
-2.33687 1.5763 -5.45624
-2.16246 1.39559 -3.47208
-1.98806 1.21488 -1.48791
-1.81365 1.03417 0.496262
-1.63924 0.85346 2.48043
-1.46483 0.672749 4.4646
-1.29042 0.492038 6.44877
-1.11602 0.311327 8.43294
-0.941608 0.130616 10.4171
-1.05039 3.08851 -9.46351
-0.875984 2.9078 -7.47935
-0.701577 2.72708 -5.49518
-0.527169 2.54637 -3.51101
-0.352761 2.36566 -1.52684
-0.178353 2.18495 0.457329
-0.00394521 2.00424 2.4415
0.170463 1.82353 4.42567
0.34487 1.64282 6.40984
0.519278 1.46211 8.394
0.693686 1.2814 10.3782
0.584902 4.23929 -9.50245
0.75931 4.05858 -7.51828
0.933718 3.87786 -5.53411
1.10813 3.69715 -3.54994
1.28253 3.51644 -1.56577
1.45694 3.33573 0.418396
1.63135 3.15502 2.40257
1.80576 2.97431 4.38673
1.98017 2.7936 6.3709
2.15457 2.61289 8.35507
2.32898 2.43218 10.3392
2.2202 5.39007 -9.54138
2.3946 5.20936 -7.55721
2.56901 5.02865 -5.57304
2.74342 4.84793 -3.58887
2.91783 4.66722 -1.60471
3.09224 4.48651 0.379463
3.26664 4.3058 2.36363
3.44105 4.12509 4.3478
3.61546 3.94438 6.33197
3.78987 3.76367 8.31614
3.96428 3.58296 10.3003
3.85549 6.54085 -9.58031
4.0299 6.36014 -7.59614
4.20431 6.17943 -5.61198
4.37872 5.99871 -3.62781
4.55312 5.818 -1.64364
4.72753 5.63729 0.340531
4.90194 5.45658 2.3247
5.07635 5.27587 4.30887
5.25075 5.09516 6.29304
5.42516 4.91445 8.27721
5.59957 4.73374 10.2614
5.49079 7.69163 -9.61925
5.66519 7.51092 -7.63508
5.8396 7.33021 -5.65091
6.01401 7.1495 -3.66674
6.18842 6.96878 -1.68257
6.36283 6.78807 0.301598
6.53723 6.60736 2.28577
6.71164 6.42665 4.26993
6.88605 6.24594 6.2541
7.06046 6.06523 8.23827
7.23486 5.88452 10.2224
-9.72401 -5.44192 -9.47803
-9.5496 -5.62263 -7.49386
-9.37519 -5.80334 -5.50969
-9.20078 -5.98406 -3.52552
-9.02637 -6.16477 -1.54135
-8.85197 -6.34548 0.442816
-8.67756 -6.52619 2.42699
-8.50315 -6.7069 4.41115
-8.32874 -6.88761 6.39532
-8.15434 -7.06832 8.37949
-7.97993 -7.24903 10.3637
-8.08871 -4.29114 -9.51696
-7.9143 -4.47185 -7.53279
-7.7399 -4.65256 -5.54862
-7.56549 -4.83327 -3.56445
-7.39108 -5.01399 -1.58029
-7.21667 -5.1947 0.403883
-7.04226 -5.37541 2.38805
-6.86786 -5.55612 4.37222
-6.69345 -5.73683 6.35639
-6.51904 -5.91754 8.34056
-6.34463 -6.09825 10.3247
-6.45342 -3.14036 -9.55589
-6.27901 -3.32107 -7.57172
-6.1046 -3.50178 -5.58756
-5.93019 -3.68249 -3.60339
-5.75579 -3.86321 -1.61922
-5.58138 -4.04392 0.364951
-5.40697 -4.22463 2.34912
-5.23256 -4.40534 4.33329
-5.05815 -4.58605 6.31746
-4.88375 -4.76676 8.30163
-4.70934 -4.94747 10.2858
-4.81812 -1.98958 -9.59483
-4.64371 -2.17029 -7.61066
-4.46931 -2.351 -5.62649
-4.2949 -2.53171 -3.64232
-4.12049 -2.71242 -1.65815
-3.94608 -2.89314 0.326018
-3.77168 -3.07385 2.31019
-3.59727 -3.25456 4.29435
-3.42286 -3.43527 6.27852
-3.24845 -3.61598 8.26269
-3.07404 -3.79669 10.2469
-3.18283 -0.8388 -9.63376
-3.00842 -1.01951 -7.64959
-2.83401 -1.20022 -5.66542
-2.6596 -1.38093 -3.68125
-2.4852 -1.56164 -1.69708
-2.31079 -1.74236 0.287085
-2.13638 -1.92307 2.27125
-1.96197 -2.10378 4.25542
-1.78757 -2.28449 6.23959
-1.61316 -2.4652 8.22376
-1.43875 -2.64591 10.2079
-1.54753 0.311981 -9.67269
-1.37313 0.13127 -7.68852
-1.19872 -0.0494415 -5.70435
-1.02431 -0.230153 -3.72019
-0.849902 -0.410864 -1.73602
-0.675494 -0.591575 0.248152
-0.501086 -0.772286 2.23232
-0.326678 -0.952997 4.21649
-0.152271 -1.13371 6.20066
0.0221373 -1.31442 8.18483
0.196545 -1.49513 10.169
0.0877613 1.46276 -9.71162
0.262169 1.28205 -7.72746
0.436577 1.10134 -5.74329
0.610985 0.920628 -3.75912
0.785393 0.739917 -1.77495
0.9598 0.559206 0.209219
1.13421 0.378495 2.19339
1.30862 0.197784 4.17756
1.48302 0.0170729 6.16172
1.65743 -0.163638 8.14589
1.83184 -0.344349 10.1301
1.72306 2.61354 -9.75056
1.89746 2.43283 -7.76639
2.07187 2.25212 -5.78222
2.24628 2.07141 -3.79805
2.42069 1.8907 -1.81388
2.5951 1.70999 0.170286
2.7695 1.52928 2.15445
2.94391 1.34856 4.13862
3.11832 1.16785 6.12279
3.29273 0.987142 8.10696
3.46713 0.806431 10.0911
3.35835 3.76432 -9.78949
3.53276 3.58361 -7.80532
3.70717 3.4029 -5.82115
3.88157 3.22219 -3.83698
4.05598 3.04148 -1.85282
4.23039 2.86077 0.131353
4.4048 2.68006 2.11552
4.57921 2.49934 4.09969
4.75361 2.31863 6.08386
4.92802 2.13792 8.06803
5.10243 1.95721 10.0522
4.99365 4.9151 -9.82842
5.16805 4.73439 -7.84425
5.34246 4.55368 -5.86009
5.51687 4.37297 -3.87592
5.69128 4.19226 -1.89175
5.86568 4.01155 0.0924201
6.04009 3.83084 2.07659
6.2145 3.65013 4.06076
6.38891 3.46941 6.04493
6.56332 3.2887 8.02909
6.73772 3.10799 10.0133
6.62894 6.06588 -9.86736
6.80335 5.88517 -7.88319
6.97776 5.70446 -5.89902
7.15216 5.52375 -3.91485
7.32657 5.34304 -1.93068
7.50098 5.16233 0.0534871
7.67539 4.98162 2.03766
7.84979 4.80091 4.02182
8.0242 4.62019 6.00599
8.19861 4.43948 7.99016
8.37302 4.25877 9.97433
-8.58585 -7.06767 -9.72614
-8.41144 -7.24838 -7.74197
-8.23704 -7.42909 -5.7578
-8.06263 -7.6098 -3.77363
-7.88822 -7.79051 -1.78946
-7.71381 -7.97122 0.194706
-7.53941 -8.15193 2.17887
-7.365 -8.33264 4.16304
-7.19059 -8.51336 6.14721
-7.01618 -8.69407 8.13138
-6.84177 -8.87478 10.1155
-6.95056 -5.91689 -9.76507
-6.77615 -6.0976 -7.7809
-6.60174 -6.27831 -5.79673
-6.42733 -6.45902 -3.81256
-6.25293 -6.63973 -1.8284
-6.07852 -6.82044 0.155773
-5.90411 -7.00115 2.13994
-5.7297 -7.18186 4.12411
-5.5553 -7.36257 6.10828
-5.38089 -7.54329 8.09245
-5.20648 -7.724 10.0766
-5.31526 -4.76611 -9.804
-5.14086 -4.94682 -7.81983
-4.96645 -5.12753 -5.83567
-4.79204 -5.30824 -3.8515
-4.61763 -5.48895 -1.86733
-4.44322 -5.66966 0.11684
-4.26882 -5.85037 2.10101
-4.09441 -6.03108 4.08518
-3.92 -6.21179 6.06935
-3.74559 -6.39251 8.05351
-3.57119 -6.57322 10.0377
-3.67997 -3.61533 -9.84294
-3.50556 -3.79604 -7.85877
-3.33115 -3.97675 -5.8746
-3.15675 -4.15746 -3.89043
-2.98234 -4.33817 -1.90626
-2.80793 -4.51888 0.0779071
-2.63352 -4.69959 2.06208
-2.45911 -4.8803 4.04624
-2.28471 -5.06101 6.03041
-2.1103 -5.24172 8.01458
-1.93589 -5.42244 9.99875
-2.04467 -2.46455 -9.88187
-1.87027 -2.64526 -7.8977
-1.69586 -2.82597 -5.91353
-1.52145 -3.00668 -3.92936
-1.34704 -3.18739 -1.94519
-1.17264 -3.3681 0.0389742
-0.998227 -3.54881 2.02314
-0.823819 -3.72952 4.00731
-0.649412 -3.91023 5.99148
-0.475004 -4.09094 7.97565
-0.300596 -4.27166 9.95982
-0.40938 -1.31376 -9.9208
-0.234972 -1.49448 -7.93663
-0.0605641 -1.67519 -5.95246
0.113844 -1.8559 -3.9683
0.288252 -2.03661 -1.98413
0.462659 -2.21732 4.13014e-05
0.637067 -2.39803 1.98421
0.811475 -2.57874 3.96838
0.985883 -2.75945 5.95255
1.16029 -2.94016 7.93672
1.3347 -3.12087 9.92088
1.22591 -0.162984 -9.95974
1.40032 -0.343695 -7.97557
1.57473 -0.524406 -5.9914
1.74914 -0.705117 -4.00723
1.92355 -0.885828 -2.02306
2.09795 -1.06654 -0.0388916
2.27236 -1.24725 1.94528
2.44677 -1.42796 3.92945
2.62118 -1.60867 5.91361
2.79559 -1.78938 7.89778
2.96999 -1.97009 9.88195
2.86121 0.987796 -9.99867
3.03562 0.807085 -8.0145
3.21003 0.626374 -6.03033
3.38443 0.445663 -4.04616
3.55884 0.264952 -2.06199
3.73325 0.0842412 -0.0778245
3.90766 -0.0964698 1.90634
4.08206 -0.277181 3.89051
4.25647 -0.457892 5.87468
4.43088 -0.638603 7.85885
4.60529 -0.819314 9.84302
4.4965 2.13858 -10.0376
4.67091 1.95787 -8.05343
4.84532 1.77715 -6.06926
5.01973 1.59644 -4.08509
5.19414 1.41573 -2.10093
5.36854 1.23502 -0.116757
5.54295 1.05431 1.86741
5.71736 0.8736 3.85158
5.89177 0.692889 5.83575
6.06617 0.512178 7.81992
6.24058 0.331467 9.80409
6.1318 3.28936 -10.0765
6.30621 3.10865 -8.09237
6.48061 2.92794 -6.1082
6.65502 2.74722 -4.12403
6.82943 2.56651 -2.13986
7.00384 2.3858 -0.15569
7.17825 2.20509 1.82848
7.35265 2.02438 3.81265
7.52706 1.84367 5.79682
7.70147 1.66296 7.78098
7.87588 1.48225 9.76515
7.76709 4.44014 -10.1155
7.9415 4.25943 -8.1313
8.11591 4.07872 -6.14713
8.29032 3.898 -4.16296
8.46472 3.71729 -2.17879
8.63913 3.53658 -0.194623
8.81354 3.35587 1.78955
8.98795 3.17516 3.77371
9.16236 2.99445 5.75788
9.33676 2.81374 7.74205
9.51117 2.63303 9.72622
-7.4477 -8.69341 -9.97425
-7.27329 -8.87412 -7.99008
-7.09888 -9.05483 -6.00591
-6.92448 -9.23555 -4.02174
-6.75007 -9.41626 -2.03757
-6.57566 -9.59697 -0.0534045
-6.40125 -9.77768 1.93076
-6.22684 -9.95839 3.91493
-6.05244 -10.1391 5.8991
-5.87803 -10.3198 7.88327
-5.70362 -10.5005 9.86744
-5.8124 -7.54263 -10.0132
-5.638 -7.72334 -8.02901
-5.46359 -7.90405 -6.04484
-5.28918 -8.08477 -4.06067
-5.11477 -8.26548 -2.07651
-4.94037 -8.44619 -0.0923375
-4.76596 -8.6269 1.89183
-4.59155 -8.80761 3.876
-4.41714 -8.98832 5.86017
-4.24273 -9.16903 7.84434
-4.06833 -9.34974 9.82851
-4.17711 -6.39185 -10.0521
-4.0027 -6.57256 -8.06795
-3.82829 -6.75327 -6.08378
-3.65389 -6.93398 -4.09961
-3.47948 -7.1147 -2.11544
-3.30507 -7.29541 -0.13127
-3.13066 -7.47612 1.8529
-2.95626 -7.65683 3.83707
-2.78185 -7.83754 5.82124
-2.60744 -8.01825 7.8054
-2.43303 -8.19896 9.78957
-2.54182 -5.24107 -10.091
-2.36741 -5.42178 -8.10688
-2.193 -5.60249 -6.12271
-2.01859 -5.7832 -4.13854
-1.84418 -5.96392 -2.15437
-1.66978 -6.14463 -0.170203
-1.49537 -6.32534 1.81397
-1.32096 -6.50605 3.79813
-1.14655 -6.68676 5.7823
-0.972145 -6.86747 7.76647
-0.797737 -7.04818 9.75064
-0.906521 -4.09029 -10.13
-0.732113 -4.271 -8.14581
-0.557705 -4.45171 -6.16164
-0.383297 -4.63242 -4.17747
-0.208889 -4.81313 -2.1933
-0.0344816 -4.99385 -0.209136
0.139926 -5.17456 1.77503
0.314334 -5.35527 3.7592
0.488742 -5.53598 5.74337
0.66315 -5.71669 7.72754
0.837558 -5.8974 9.71171
0.728774 -2.93951 -10.1689
0.903182 -3.12022 -8.18474
1.07759 -3.30093 -6.20058
1.252 -3.48164 -4.21641
1.42641 -3.66235 -2.23224
1.60081 -3.84307 -0.248069
1.77522 -4.02378 1.7361
1.94963 -4.20449 3.72027
2.12404 -4.3852 5.70444
2.29844 -4.56591 7.68861
2.47285 -4.74662 9.67277
2.36407 -1.78873 -10.2078
2.53848 -1.96944 -8.22368
2.71288 -2.15015 -6.23951
2.88729 -2.33086 -4.25534
3.0617 -2.51157 -2.27117
3.23611 -2.69228 -0.287002
3.41052 -2.873 1.69717
3.58492 -3.05371 3.68134
3.75933 -3.23442 5.6655
3.93374 -3.41513 7.64967
4.10815 -3.59584 9.63384
3.99936 -0.637949 -10.2468
4.17377 -0.81866 -8.26261
4.34818 -0.999371 -6.27844
4.52259 -1.18008 -4.29427
4.69699 -1.36079 -2.3101
4.8714 -1.5415 -0.325935
5.04581 -1.72222 1.65823
5.22022 -1.90293 3.6424
5.39463 -2.08364 5.62657
5.56903 -2.26435 7.61074
5.74344 -2.44506 9.59491
5.63466 0.512832 -10.2857
5.80907 0.33212 -8.30154
5.98347 0.151409 -6.31737
6.15788 -0.0293015 -4.33321
6.33229 -0.210013 -2.34904
6.5067 -0.390724 -0.364868
6.6811 -0.571435 1.6193
6.85551 -0.752146 3.60347
7.02992 -0.932857 5.58764
7.20433 -1.11357 7.57181
7.37874 -1.29428 9.55598
7.26995 1.66361 -10.3246
7.44436 1.4829 -8.34048
7.61877 1.30219 -6.35631
7.79318 1.12148 -4.37214
7.96758 0.940768 -2.38797
8.14199 0.760057 -0.403801
8.3164 0.579346 1.58037
8.49081 0.398635 3.56454
8.66521 0.217924 5.54871
8.83962 0.0372129 7.53287
9.01403 -0.143498 9.51704
8.90525 2.81439 -10.3636
9.07965 2.63368 -8.37941
9.25406 2.45297 -6.39524
9.42847 2.27226 -4.41107
9.60288 2.09155 -2.4269
9.77729 1.91084 -0.442734
9.95169 1.73013 1.54143
10.1261 1.54942 3.5256
10.3005 1.3687 5.50977
10.4749 1.18799 7.49394
10.6493 1.00728 9.47811
-6.30955 -10.3192 -10.2224
-6.13514 -10.4999 -8.23819
-5.96073 -10.6806 -6.25402
-5.78632 -10.8613 -4.26985
-5.61191 -11.042 -2.28568
-5.43751 -11.2227 -0.301515
-5.2631 -11.4034 1.68265
-5.08869 -11.5841 3.66682
-4.91428 -11.7648 5.65099
-4.73988 -11.9456 7.63516
-4.56547 -12.1263 9.61933
-4.67425 -9.16838 -10.2613
-4.49984 -9.34909 -8.27712
-4.32544 -9.5298 -6.29295
-4.15103 -9.71051 -4.30879
-3.97662 -9.89122 -2.32462
-3.80221 -10.0719 -0.340448
-3.6278 -10.2526 1.64372
-3.4534 -10.4334 3.62789
-3.27899 -10.6141 5.61206
-3.10458 -10.7948 7.59623
-2.93017 -10.9755 9.5804
-3.03896 -8.0176 -10.3002
-2.86455 -8.19831 -8.31606
-2.69014 -8.37902 -6.33189
-2.51573 -8.55973 -4.34772
-2.34133 -8.74044 -2.36355
-2.16692 -8.92115 -0.379381
-1.99251 -9.10186 1.60479
-1.8181 -9.28257 3.58896
-1.64369 -9.46329 5.57313
-1.46929 -9.644 7.55729
-1.29488 -9.82471 9.54146
-1.40366 -6.86682 -10.3392
-1.22925 -7.04753 -8.35499
-1.05485 -7.22824 -6.37082
-0.880438 -7.40895 -4.38665
-0.706031 -7.58966 -2.40248
-0.531623 -7.77037 -0.418314
-0.357215 -7.95108 1.56585
-0.182807 -8.13179 3.55002
-0.00839917 -8.3125 5.53419
0.166009 -8.49322 7.51836
0.340417 -8.67393 9.50253
0.231633 -5.71604 -10.3781
0.406041 -5.89675 -8.39392
0.580448 -6.07746 -6.40975
0.754856 -6.25817 -4.42558
0.929264 -6.43888 -2.44142
1.10367 -6.61959 -0.457247
1.27808 -6.8003 1.52692
1.45249 -6.98101 3.51109
1.6269 -7.16172 5.49526
1.8013 -7.34243 7.47943
1.97571 -7.52315 9.4636
1.86693 -4.56526 -10.417
2.04134 -4.74597 -8.43285
2.21574 -4.92668 -6.44869
2.39015 -5.10739 -4.46452
2.56456 -5.2881 -2.48035
2.73897 -5.46881 -0.49618
2.91337 -5.64952 1.48799
3.08778 -5.83023 3.47216
3.26219 -6.01094 5.45633
3.4366 -6.19165 7.4405
3.61101 -6.37237 9.42466
3.50222 -3.41447 -10.456
3.67663 -3.59519 -8.47179
3.85104 -3.7759 -6.48762
4.02545 -3.95661 -4.50345
4.19985 -4.13732 -2.51928
4.37426 -4.31803 -0.535113
4.54867 -4.49874 1.44906
4.72308 -4.67945 3.43322
4.89748 -4.86016 5.41739
5.07189 -5.04087 7.40156
5.2463 -5.22158 9.38573
5.13752 -2.26369 -10.4949
5.31192 -2.44441 -8.51072
5.48633 -2.62512 -6.52655
5.66074 -2.80583 -4.54238
5.83515 -2.98654 -2.55821
6.00956 -3.16725 -0.574045
6.18396 -3.34796 1.41012
6.35837 -3.52867 3.39429
6.53278 -3.70938 5.37846
6.70719 -3.89009 7.36263
6.88159 -4.0708 9.3468
6.77281 -1.11291 -10.5338
6.94722 -1.29362 -8.54965
7.12163 -1.47434 -6.56548
7.29603 -1.65505 -4.58132
7.47044 -1.83576 -2.59715
7.64485 -2.01647 -0.612978
7.81926 -2.19718 1.37119
7.99367 -2.37789 3.35536
8.16807 -2.5586 5.33953
8.34248 -2.73931 7.3237
8.51689 -2.92002 9.30787
8.40811 0.0378668 -10.5728
8.58251 -0.142844 -8.58859
8.75692 -0.323555 -6.60442
8.93133 -0.504266 -4.62025
9.10574 -0.684977 -2.63608
9.28014 -0.865688 -0.651911
9.45455 -1.0464 1.33226
9.62896 -1.22711 3.31643
9.80337 -1.40782 5.30059
9.97778 -1.58853 7.28476
10.1522 -1.76924 9.26893
10.0434 1.18865 -10.6117
10.2178 1.00794 -8.62752
10.3922 0.827225 -6.64335
10.5666 0.646514 -4.65918
10.741 0.465803 -2.67501
10.9154 0.285092 -0.690844
11.0898 0.104381 1.29332
11.2643 -0.0763298 3.27749
11.4387 -0.257041 5.26166
11.6131 -0.437752 7.24583
11.7875 -0.618463 9.23
-5.17139 -11.9449 -10.4705
-4.99698 -12.1256 -8.4863
-4.82258 -12.3063 -6.50213
-4.64817 -12.487 -4.51796
-4.47376 -12.6677 -2.53379
-4.29935 -12.8485 -0.549625
-4.12495 -13.0292 1.43454
-3.95054 -13.2099 3.41871
-3.77613 -13.3906 5.40288
-3.60172 -13.5713 7.38705
-3.42731 -13.752 9.37122
-3.5361 -10.7941 -10.5094
-3.36169 -10.9748 -8.52523
-3.18728 -11.1555 -6.54106
-3.01287 -11.3363 -4.5569
-2.83847 -11.517 -2.57273
-2.66406 -11.6977 -0.588558
-2.48965 -11.8784 1.39561
-2.31524 -12.0591 3.37978
-2.14083 -12.2398 5.36395
-1.96643 -12.4205 7.34812
-1.79202 -12.6012 9.33229
-1.9008 -9.64334 -10.5483
-1.7264 -9.82405 -8.56417
-1.55199 -10.0048 -6.58
-1.37758 -10.1855 -4.59583
-1.20317 -10.3662 -2.61166
-1.02876 -10.5469 -0.627491
-0.854356 -10.7276 1.35668
-0.679948 -10.9083 3.34085
-0.50554 -11.089 5.32501
-0.331132 -11.2697 7.30918
-0.156725 -11.4505 9.29335
-0.265508 -8.49256 -10.5873
-0.0911005 -8.67327 -8.6031
0.0833073 -8.85398 -6.61893
0.257715 -9.03469 -4.63476
0.432123 -9.21541 -2.65059
0.606531 -9.39612 -0.666424
0.780939 -9.57683 1.31774
0.955347 -9.75754 3.30191
1.12975 -9.93825 5.28608
1.30416 -10.119 7.27025
1.47857 -10.2997 9.25442
1.36979 -7.34178 -10.6262
1.54419 -7.52249 -8.64203
1.7186 -7.7032 -6.65786
1.89301 -7.88391 -4.67369
2.06742 -8.06463 -2.68953
2.24183 -8.24534 -0.705357
2.41623 -8.42605 1.27881
2.59064 -8.60676 3.26298
2.76505 -8.78747 5.24715
2.93946 -8.96818 7.23132
3.11386 -9.14889 9.21549
3.00508 -6.191 -10.6651
3.17949 -6.37171 -8.68096
3.3539 -6.55242 -6.6968
3.5283 -6.73313 -4.71263
3.70271 -6.91384 -2.72846
3.87712 -7.09456 -0.74429
4.05153 -7.27527 1.23988
4.22594 -7.45598 3.22405
4.40034 -7.63669 5.20822
4.57475 -7.8174 7.19238
4.74916 -7.99811 9.17655
4.64038 -5.04022 -10.7041
4.81478 -5.22093 -8.7199
4.98919 -5.40164 -6.73573
5.1636 -5.58235 -4.75156
5.33801 -5.76306 -2.76739
5.51241 -5.94378 -0.783223
5.68682 -6.12449 1.20095
5.86123 -6.3052 3.18511
6.03564 -6.48591 5.16928
6.21005 -6.66662 7.15345
6.38445 -6.84733 9.13762
6.27567 -3.88944 -10.743
6.45008 -4.07015 -8.75883
6.62449 -4.25086 -6.77466
6.79889 -4.43157 -4.79049
6.9733 -4.61228 -2.80632
7.14771 -4.79299 -0.822156
7.32212 -4.97371 1.16201
7.49652 -5.15442 3.14618
7.67093 -5.33513 5.13035
7.84534 -5.51584 7.11452
8.01975 -5.69655 9.09869
7.91096 -2.73866 -10.7819
8.08537 -2.91937 -8.79776
8.25978 -3.10008 -6.81359
8.43419 -3.28079 -4.82943
8.6086 -3.4615 -2.84526
8.783 -3.64221 -0.861089
8.95741 -3.82293 1.12308
9.13182 -4.00364 3.10725
9.30623 -4.18435 5.09142
9.48064 -4.36506 7.07559
9.65504 -4.54577 9.05975
9.54626 -1.58788 -10.8209
9.72067 -1.76859 -8.8367
9.89507 -1.9493 -6.85253
10.0695 -2.13001 -4.86836
10.2439 -2.31072 -2.88419
10.4183 -2.49143 -0.900022
10.5927 -2.67214 1.08415
10.7671 -2.85286 3.06832
10.9415 -3.03357 5.05248
11.1159 -3.21428 7.03665
11.2903 -3.39499 9.02082
11.1816 -0.437098 -10.8598
11.356 -0.617809 -8.87563
11.5304 -0.79852 -6.89146
11.7048 -0.979231 -4.90729
11.8792 -1.15994 -2.92312
12.0536 -1.34065 -0.938955
12.228 -1.52136 1.04521
12.4024 -1.70208 3.02938
12.5768 -1.88279 5.01355
12.7512 -2.0635 6.99772
12.9256 -2.24421 8.98189
-4.03324 -13.5706 -10.7186
-3.85883 -13.7514 -8.73441
-3.68442 -13.9321 -6.75024
-3.51002 -14.1128 -4.76607
-3.33561 -14.2935 -2.7819
-3.1612 -14.4742 -0.797736
-2.98679 -14.6549 1.18643
-2.81238 -14.8356 3.1706
-2.63798 -15.0163 5.15477
-2.46357 -15.197 7.13894
-2.28916 -15.3778 9.12311
-2.39794 -12.4199 -10.7575
-2.22354 -12.6006 -8.77334
-2.04913 -12.7813 -6.78917
-1.87472 -12.962 -4.80501
-1.70031 -13.1427 -2.82084
-1.5259 -13.3234 -0.836669
-1.3515 -13.5041 1.1475
-1.17709 -13.6848 3.13167
-1.00268 -13.8656 5.11584
-0.828273 -14.0463 7.10001
-0.653866 -14.227 9.08417
-0.762649 -11.2691 -10.7964
-0.588242 -11.4498 -8.81228
-0.413834 -11.6305 -6.82811
-0.239426 -11.8112 -4.84394
-0.065018 -11.9919 -2.85977
0.10939 -12.1726 -0.875602
0.283798 -12.3534 1.10857
0.458205 -12.5341 3.09274
0.632613 -12.7148 5.0769
0.807021 -12.8955 7.06107
0.981429 -13.0762 9.04524
0.872645 -10.1183 -10.8354
1.04705 -10.299 -8.85121
1.22146 -10.4797 -6.86704
1.39587 -10.6604 -4.88287
1.57028 -10.8412 -2.8987
1.74468 -11.0219 -0.914535
1.91909 -11.2026 1.06963
2.0935 -11.3833 3.0538
2.26791 -11.564 5.03797
2.44232 -11.7447 7.02214
2.61672 -11.9254 9.00631
2.50794 -8.96753 -10.8743
2.68235 -9.14824 -8.89014
2.85676 -9.32895 -6.90597
3.03116 -9.50966 -4.9218
3.20557 -9.69037 -2.93764
3.37998 -9.87108 -0.953468
3.55439 -10.0518 1.0307
3.72879 -10.2325 3.01487
3.9032 -10.4132 4.99904
4.07761 -10.5939 6.98321
4.25202 -10.7746 8.96738
4.14323 -7.81675 -10.9132
4.31764 -7.99746 -8.92908
4.49205 -8.17817 -6.94491
4.66646 -8.35888 -4.96074
4.84087 -8.53959 -2.97657
5.01527 -8.7203 -0.9924
5.18968 -8.90101 0.991768
5.36409 -9.08172 2.97594
5.5385 -9.26243 4.96011
5.7129 -9.44315 6.94427
5.88731 -9.62386 8.92844
5.77853 -6.66597 -10.9522
5.95294 -6.84668 -8.96801
6.12734 -7.02739 -6.98384
6.30175 -7.2081 -4.99967
6.47616 -7.38881 -3.0155
6.65057 -7.56952 -1.03133
6.82498 -7.75023 0.952835
6.99938 -7.93094 2.937
7.17379 -8.11165 4.92117
7.3482 -8.29236 6.90534
7.52261 -8.47308 8.88951
7.41382 -5.51518 -10.9911
7.58823 -5.6959 -9.00694
7.76264 -5.87661 -7.02277
7.93705 -6.05732 -5.0386
8.11145 -6.23803 -3.05444
8.28586 -6.41874 -1.07027
8.46027 -6.59945 0.913902
8.63468 -6.78016 2.89807
8.80909 -6.96087 4.88224
8.98349 -7.14158 6.86641
9.1579 -7.3223 8.85058
9.04912 -4.3644 -11.03
9.22353 -4.54512 -9.04587
9.39793 -4.72583 -7.06171
9.57234 -4.90654 -5.07754
9.74675 -5.08725 -3.09337
9.92116 -5.26796 -1.1092
10.0956 -5.44867 0.874969
10.27 -5.62938 2.85914
10.4444 -5.81009 4.84331
10.6188 -5.9908 6.82748
10.7932 -6.17151 8.81164
10.6844 -3.21362 -11.069
10.8588 -3.39433 -9.08481
11.0332 -3.57505 -7.10064
11.2076 -3.75576 -5.11647
11.382 -3.93647 -3.1323
11.5565 -4.11718 -1.14813
11.7309 -4.29789 0.836037
11.9053 -4.4786 2.82021
12.0797 -4.65931 4.80437
12.2541 -4.84002 6.78854
12.4285 -5.02073 8.77271
12.3197 -2.06284 -11.1079
12.4941 -2.24355 -9.12374
12.6685 -2.42427 -7.13957
12.8429 -2.60498 -5.1554
13.0173 -2.78569 -3.17123
13.1917 -2.9664 -1.18707
13.3662 -3.14711 0.797104
13.5406 -3.32782 2.78127
13.715 -3.50853 4.76544
13.8894 -3.68924 6.74961
14.0638 -3.86995 8.73378
1 2
