ply
format ascii 1.0
element vertex 1333
property float x
property float y
property float z
element edge 1
property int vertex1
property int vertex2
end_header
0 0 0
-0.686409 -0.686409 -0.686409
2.37626 -12.2783 -9.28413
2.48114 -12.1759 -7.28951
2.58602 -12.0735 -5.29489
2.6909 -11.9711 -3.30027
2.79578 -11.8687 -1.30565
2.90067 -11.7663 0.688972
3.00555 -11.6638 2.68359
3.11043 -11.5614 4.67821
3.21531 -11.459 6.67283
3.32019 -11.3566 8.66746
3.42508 -11.2542 10.6621
0.651594 -11.2663 -9.2454
0.756476 -11.1639 -7.25078
0.861359 -11.0615 -5.25616
0.966241 -10.9591 -3.26154
1.07112 -10.8567 -1.26692
1.176 -10.7543 0.727703
1.28089 -10.6519 2.72232
1.38577 -10.5495 4.71694
1.49065 -10.4471 6.71156
1.59553 -10.3447 8.70619
1.70042 -10.2423 10.7008
-1.07307 -10.2544 -9.20667
-0.968184 -10.152 -7.21205
-0.863302 -10.0496 -5.21743
-0.75842 -9.94717 -3.22281
-0.653538 -9.84476 -1.22819
-0.548656 -9.74235 0.766433
-0.443774 -9.63994 2.76105
-0.338892 -9.53753 4.75567
-0.23401 -9.43512 6.7503
-0.129128 -9.33271 8.74492
-0.0242458 -9.2303 10.7395
-2.79773 -9.24245 -9.16794
-2.69285 -9.14004 -7.17332
-2.58796 -9.03763 -5.1787
-2.48308 -8.93522 -3.18408
-2.3782 -8.83281 -1.18946
-2.27332 -8.7304 0.805163
-2.16843 -8.62799 2.79978
-2.06355 -8.52558 4.7944
-1.95867 -8.42317 6.78903
-1.85379 -8.32076 8.78365
-1.74891 -8.21835 10.7783
-4.52239 -8.2305 -9.12921
-4.41751 -8.12809 -7.13459
-4.31262 -8.02568 -5.13997
-4.20774 -7.92327 -3.14535
-4.10286 -7.82086 -1.15073
-3.99798 -7.71845 0.843894
-3.8931 -7.61604 2.83851
-3.78821 -7.51363 4.83314
-3.68333 -7.41122 6.82776
-3.57845 -7.30881 8.82238
-3.47357 -7.2064 10.817
-6.24705 -7.21854 -9.09048
-6.14217 -7.11614 -7.09586
-6.03729 -7.01373 -5.10124
-5.9324 -6.91132 -3.10662
-5.82752 -6.80891 -1.112
-5.72264 -6.7065 0.882624
-5.61776 -6.60409 2.87724
-5.51287 -6.50168 4.87187
-5.40799 -6.39927 6.86649
-5.30311 -6.29686 8.86111
-5.19823 -6.19445 10.8557
-7.97171 -6.20659 -9.05175
-7.86683 -6.10418 -7.05713
-7.76195 -6.00177 -5.06251
-7.65706 -5.89937 -3.06789
-7.55218 -5.79696 -1.07327
-7.4473 -5.69455 0.921355
-7.34242 -5.59214 2.91598
-7.23754 -5.48973 4.9106
-7.13265 -5.38732 6.90522
-7.02777 -5.28491 8.89984
-6.92289 -5.1825 10.8945
-9.69637 -5.19464 -9.01302
-9.59149 -5.09223 -7.0184
-9.48661 -4.98982 -5.02378
-9.38172 -4.88741 -3.02916
-9.27684 -4.785 -1.03454
-9.17196 -4.68259 0.960085
-9.06708 -4.58019 2.95471
-8.9622 -4.47778 4.94933
-8.85731 -4.37537 6.94395
-8.75243 -4.27296 8.93857
-8.64755 -4.17055 10.9332
-11.421 -4.18269 -8.97429
-11.3161 -4.08028 -6.97967
-11.2113 -3.97787 -4.98505
-11.1064 -3.87546 -2.99043
-11.0015 -3.77305 -0.995805
-10.8966 -3.67064 0.998815
-10.7917 -3.56823 2.99344
-10.6869 -3.46582 4.98806
-10.582 -3.36342 6.98268
-10.4771 -3.26101 8.9773
-10.3722 -3.1586 10.9719
-13.1457 -3.17074 -8.93556
-13.0408 -3.06833 -6.94094
-12.9359 -2.96592 -4.94632
-12.831 -2.86351 -2.9517
-12.7262 -2.7611 -0.957075
-12.6213 -2.65869 1.03755
-12.5164 -2.55628 3.03217
-12.4115 -2.45387 5.02679
-12.3066 -2.35146 7.02141
-12.2018 -2.24905 9.01603
-12.0969 -2.14664 11.0106
-14.8704 -2.15879 -8.89683
-14.7655 -2.05638 -6.90221
-14.6606 -1.95397 -4.90759
-14.5557 -1.85156 -2.91297
-14.4508 -1.74915 -0.918345
-14.3459 -1.64674 1.07628
-14.2411 -1.54433 3.0709
-14.1362 -1.44192 5.06552
-14.0313 -1.33951 7.06014
-13.9264 -1.2371 9.05476
-13.8215 -1.13469 11.0494
3.3835 -10.5562 -9.42551
3.48838 -10.4538 -7.43089
3.59327 -10.3514 -5.43627
3.69815 -10.249 -3.44165
3.80303 -10.1466 -1.44703
3.90791 -10.0442 0.547593
4.01279 -9.94179 2.54221
4.11768 -9.83938 4.53683
4.22256 -9.73697 6.53146
4.32744 -9.63456 8.52608
4.43232 -9.53215 10.5207
1.65884 -9.5443 -9.38678
1.76372 -9.44189 -7.39216
1.8686 -9.33948 -5.39754
1.97349 -9.23707 -3.40292
2.07837 -9.13466 -1.4083
2.18325 -9.03225 0.586324
2.28813 -8.92984 2.58094
2.39301 -8.82743 4.57557
2.4979 -8.72502 6.57019
2.60278 -8.62261 8.56481
2.70766 -8.5202 10.5594
-0.0658205 -8.53234 -9.34805
0.0390615 -8.42993 -7.35343
0.143944 -8.32753 -5.35881
0.248826 -8.22512 -3.36419
0.353708 -8.12271 -1.36957
0.45859 -8.0203 0.625054
0.563472 -7.91789 2.61967
0.668354 -7.81548 4.6143
0.773236 -7.71307 6.60892
0.878118 -7.61066 8.60354
0.983 -7.50825 10.5982
-1.79048 -7.52039 -9.30932
-1.6856 -7.41798 -7.3147
-1.58072 -7.31557 -5.32008
-1.47584 -7.21316 -3.32546
-1.37095 -7.11075 -1.33084
-1.26607 -7.00835 0.663785
-1.16119 -6.90594 2.65841
-1.05631 -6.80353 4.65303
-0.951425 -6.70112 6.64765
-0.846543 -6.59871 8.64227
-0.741661 -6.4963 10.6369
-3.51514 -6.50844 -9.27059
-3.41026 -6.40603 -7.27597
-3.30538 -6.30362 -5.28135
-3.2005 -6.20121 -3.28673
-3.09561 -6.0988 -1.29211
-2.99073 -5.99639 0.702515
-2.88585 -5.89398 2.69714
-2.78097 -5.79158 4.69176
-2.67609 -5.68917 6.68638
-2.5712 -5.58676 8.681
-2.46632 -5.48435 10.6756
-5.2398 -5.49649 -9.23186
-5.13492 -5.39408 -7.23724
-5.03004 -5.29167 -5.24262
-4.92516 -5.18926 -3.248
-4.82028 -5.08685 -1.25338
-4.71539 -4.98444 0.741245
-4.61051 -4.88203 2.73587
-4.50563 -4.77962 4.73049
-4.40075 -4.67721 6.72511
-4.29586 -4.5748 8.71973
-4.19098 -4.4724 10.7143
-6.96446 -4.48454 -9.19313
-6.85958 -4.38213 -7.19851
-6.7547 -4.27972 -5.20389
-6.64982 -4.17731 -3.20927
-6.54494 -4.0749 -1.21464
-6.44005 -3.97249 0.779976
-6.33517 -3.87008 2.7746
-6.23029 -3.76767 4.76922
-6.12541 -3.66526 6.76384
-6.02053 -3.56285 8.75846
-5.91564 -3.46044 10.7531
-8.68913 -3.47259 -9.1544
-8.58424 -3.37018 -7.15978
-8.47936 -3.26777 -5.16516
-8.37448 -3.16536 -3.17054
-8.2696 -3.06295 -1.17591
-8.16471 -2.96054 0.818706
-8.05983 -2.85813 2.81333
-7.95495 -2.75572 4.80795
-7.85007 -2.65331 6.80257
-7.74519 -2.5509 8.79719
-7.6403 -2.44849 10.7918
-10.4138 -2.46064 -9.11567
-10.3089 -2.35823 -7.12105
-10.204 -2.25582 -5.12643
-10.0991 -2.15341 -3.1318
-9.99426 -2.051 -1.13718
-9.88938 -1.94859 0.857437
-9.78449 -1.84618 2.85206
-9.67961 -1.74377 4.84668
-9.57473 -1.64136 6.8413
-9.46985 -1.53895 8.83592
-9.36497 -1.43654 10.8305
-12.1384 -1.44869 -9.07694
-12.0336 -1.34628 -7.08232
-11.9287 -1.24387 -5.0877
-11.8238 -1.14146 -3.09307
-11.7189 -1.03905 -1.09845
-11.614 -0.93664 0.896167
-11.5092 -0.83423 2.89079
-11.4043 -0.73182 4.88541
-11.2994 -0.629411 6.88003
-11.1945 -0.527001 8.87465
-11.0896 -0.424592 10.8693
-13.8631 -0.436737 -9.03821
-13.7582 -0.334327 -7.04359
-13.6533 -0.231918 -5.04896
-13.5485 -0.129508 -3.05434
-13.4436 -0.0270985 -1.05972
-13.3387 0.0753112 0.934898
-13.2338 0.177721 2.92952
-13.1289 0.28013 4.92414
-13.0241 0.38254 6.91876
-12.9192 0.48495 8.91338
-12.8143 0.587359 10.908
4.39075 -8.83419 -9.56689
4.49563 -8.73178 -7.57227
4.60051 -8.62937 -5.57765
4.70539 -8.52696 -3.58303
4.81028 -8.42455 -1.58841
4.91516 -8.32214 0.406215
5.02004 -8.21974 2.40084
5.12492 -8.11733 4.39546
5.2298 -8.01492 6.39008
5.33469 -7.91251 8.3847
5.43957 -7.8101 10.3793
2.66609 -7.82224 -9.52816
2.77097 -7.71983 -7.53354
2.87585 -7.61742 -5.53892
2.98073 -7.51501 -3.5443
3.08561 -7.4126 -1.54968
3.1905 -7.31019 0.444945
3.29538 -7.20778 2.43957
3.40026 -7.10537 4.43419
3.50514 -7.00296 6.42881
3.61003 -6.90056 8.42343
3.71491 -6.79815 10.418
0.941425 -6.81029 -9.48943
1.04631 -6.70788 -7.49481
1.15119 -6.60547 -5.50019
1.25607 -6.50306 -3.50557
1.36095 -6.40065 -1.51095
1.46584 -6.29824 0.483676
1.57072 -6.19583 2.4783
1.6756 -6.09342 4.47292
1.78048 -5.99101 6.46754
1.88536 -5.8886 8.46216
1.99025 -5.78619 10.4568
-0.783235 -5.79834 -9.4507
-0.678353 -5.69593 -7.45608
-0.573471 -5.59352 -5.46146
-0.468589 -5.49111 -3.46684
-0.363707 -5.3887 -1.47221
-0.258825 -5.28629 0.522406
-0.153943 -5.18388 2.51703
-0.049061 -5.08147 4.51165
0.0558211 -4.97906 6.50627
0.160703 -4.87665 8.50089
0.265585 -4.77424 10.4955
-2.5079 -4.78639 -9.41197
-2.40301 -4.68398 -7.41735
-2.29813 -4.58157 -5.42273
-2.19325 -4.47916 -3.42811
-2.08837 -4.37675 -1.43348
-1.98349 -4.27434 0.561136
-1.8786 -4.17193 2.55576
-1.77372 -4.06952 4.55038
-1.66884 -3.96711 6.545
-1.56396 -3.8647 8.53962
-1.45908 -3.76229 10.5342
-4.23256 -3.77444 -9.37324
-4.12768 -3.67203 -7.37862
-4.02279 -3.56962 -5.384
-3.91791 -3.46721 -3.38937
-3.81303 -3.3648 -1.39475
-3.70815 -3.26239 0.599867
-3.60326 -3.15998 2.59449
-3.49838 -3.05757 4.58911
-3.3935 -2.95516 6.58373
-3.28862 -2.85275 8.57835
-3.18374 -2.75034 10.573
-5.95722 -2.76249 -9.33451
-5.85234 -2.66008 -7.33989
-5.74745 -2.55767 -5.34527
-5.64257 -2.45526 -3.35064
-5.53769 -2.35285 -1.35602
-5.43281 -2.25044 0.638597
-5.32793 -2.14803 2.63322
-5.22304 -2.04562 4.62784
-5.11816 -1.94321 6.62246
-5.01328 -1.8408 8.61708
-4.9084 -1.73839 10.6117
-7.68188 -1.75054 -9.29578
-7.577 -1.64813 -7.30116
-7.47212 -1.54572 -5.30653
-7.36723 -1.44331 -3.31191
-7.26235 -1.3409 -1.31729
-7.15747 -1.23849 0.677328
-7.05259 -1.13608 2.67195
-6.9477 -1.03367 4.66657
-6.84282 -0.931259 6.66119
-6.73794 -0.82885 8.65581
-6.63306 -0.72644 10.6504
-9.40654 -0.738586 -9.25705
-9.30166 -0.636176 -7.26243
-9.19678 -0.533766 -5.2678
-9.09189 -0.431357 -3.27318
-8.98701 -0.328947 -1.27856
-8.88213 -0.226537 0.716058
-8.77725 -0.124128 2.71068
-8.67237 -0.021718 4.7053
-8.56748 0.0806916 6.69992
-8.4626 0.183101 8.69454
-8.35772 0.285511 10.6892
-11.1312 0.273365 -9.21832
-11.0263 0.375775 -7.22369
-10.9214 0.478185 -5.22907
-10.8166 0.580594 -3.23445
-10.7117 0.683004 -1.23983
-10.6068 0.785414 0.754788
-10.5019 0.887823 2.74941
-10.397 0.990233 4.74403
-10.2921 1.09264 6.73865
-10.1873 1.19505 8.73327
-10.0824 1.29746 10.7279
-12.8559 1.28532 -9.17959
-12.751 1.38773 -7.18496
-12.6461 1.49014 -5.19034
-12.5412 1.59255 -3.19572
-12.4363 1.69495 -1.2011
-12.3315 1.79736 0.793519
-12.2266 1.89977 2.78814
-12.1217 2.00218 4.78276
-12.0168 2.10459 6.77738
-11.9119 2.207 8.772
-11.807 2.30941 10.7666
5.39799 -7.11214 -9.70827
5.50288 -7.00973 -7.71365
5.60776 -6.90732 -5.71903
5.71264 -6.80491 -3.72441
5.81752 -6.7025 -1.72978
5.9224 -6.60009 0.264836
6.02729 -6.49768 2.25946
6.13217 -6.39527 4.25408
6.23705 -6.29286 6.2487
6.34193 -6.19045 8.24332
6.44681 -6.08804 10.2379
3.67333 -6.10019 -9.66954
3.77821 -5.99778 -7.67492
3.8831 -5.89537 -5.6803
3.98798 -5.79296 -3.68568
4.09286 -5.69055 -1.69105
4.19774 -5.58814 0.303566
4.30262 -5.48573 2.29819
4.40751 -5.38332 4.29281
4.51239 -5.28091 6.28743
4.61727 -5.1785 8.28205
4.72215 -5.07609 10.2767
1.94867 -5.08824 -9.63081
2.05355 -4.98583 -7.63619
2.15844 -4.88342 -5.64157
2.26332 -4.78101 -3.64694
2.3682 -4.6786 -1.65232
2.47308 -4.57619 0.342297
2.57796 -4.47378 2.33692
2.68285 -4.37137 4.33154
2.78773 -4.26896 6.32616
2.89261 -4.16655 8.32078
2.99749 -4.06414 10.3154
0.22401 -4.07629 -9.59208
0.328893 -3.97388 -7.59746
0.433775 -3.87147 -5.60284
0.538657 -3.76906 -3.60821
0.643539 -3.66665 -1.61359
0.748421 -3.56424 0.381027
0.853303 -3.46183 2.37565
0.958185 -3.35942 4.37027
1.06307 -3.25701 6.36489
1.16795 -3.1546 8.35951
1.27283 -3.05219 10.3541
-1.50065 -3.06434 -9.55335
-1.39577 -2.96193 -7.55873
-1.29089 -2.85952 -5.5641
-1.186 -2.75711 -3.56948
-1.08112 -2.6547 -1.57486
-0.97624 -2.55229 0.419758
-0.871358 -2.44988 2.41438
-0.766476 -2.34747 4.409
-0.661594 -2.24506 6.40362
-0.556712 -2.14265 8.39824
-0.45183 -2.04024 10.3929
-3.22531 -2.05239 -9.51462
-3.12043 -1.94998 -7.52
-3.01555 -1.84757 -5.52537
-2.91067 -1.74516 -3.53075
-2.80578 -1.64275 -1.53613
-2.7009 -1.54034 0.458488
-2.59602 -1.43793 2.45311
-2.49114 -1.33552 4.44773
-2.38625 -1.23311 6.44235
-2.28137 -1.1307 8.43697
-2.17649 -1.02829 10.4316
-4.94997 -1.04043 -9.47589
-4.84509 -0.938024 -7.48126
-4.74021 -0.835615 -5.48664
-4.63533 -0.733205 -3.49202
-4.53044 -0.630796 -1.4974
-4.42556 -0.528386 0.497218
-4.32068 -0.425976 2.49184
-4.2158 -0.323567 4.48646
-4.11092 -0.221157 6.48108
-4.00603 -0.118747 8.4757
-3.90115 -0.0163376 10.4703
-6.67463 -0.0284832 -9.43715
-6.56975 0.0739265 -7.44253
-6.46487 0.176336 -5.44791
-6.35999 0.278746 -3.45329
-6.2551 0.381155 -1.45867
-6.15022 0.483565 0.535949
-6.04534 0.585975 2.53057
-5.94046 0.688384 4.52519
-5.83558 0.790794 6.51981
-5.73069 0.893204 8.51443
-5.62581 0.995613 10.5091
-8.39929 0.983468 -9.39842
-8.29441 1.08588 -7.4038
-8.18953 1.18829 -5.40918
-8.08465 1.2907 -3.41456
-7.97977 1.39311 -1.41994
-7.87488 1.49552 0.574679
-7.77 1.59793 2.5693
-7.66512 1.70034 4.56392
-7.56024 1.80274 6.55854
-7.45536 1.90515 8.55316
-7.35047 2.00756 10.5478
-10.124 1.99542 -9.35969
-10.0191 2.09783 -7.36507
-9.91419 2.20024 -5.37045
-9.80931 2.30265 -3.37583
-9.70443 2.40506 -1.38121
-9.59954 2.50747 0.61341
-9.49466 2.60988 2.60803
-9.38978 2.71229 4.60265
-9.2849 2.8147 6.59727
-9.18002 2.91711 8.59189
-9.07513 3.01952 10.5865
-11.8486 3.00737 -9.32096
-11.7437 3.10978 -7.32634
-11.6389 3.21219 -5.33172
-11.534 3.3146 -3.3371
-11.4291 3.41701 -1.34248
-11.3242 3.51942 0.65214
-11.2193 3.62183 2.64676
-11.1144 3.72424 4.64138
-11.0096 3.82665 6.636
-10.9047 3.92906 8.63062
-10.7998 4.03147 10.6252
6.40524 -5.39009 -9.84965
6.51012 -5.28768 -7.85503
6.615 -5.18527 -5.86041
6.71989 -5.08286 -3.86578
6.82477 -4.98045 -1.87116
6.92965 -4.87804 0.123457
7.03453 -4.77563 2.11808
7.13941 -4.67322 4.1127
7.2443 -4.57081 6.10732
7.34918 -4.4684 8.10194
7.45406 -4.36599 10.0966
4.68058 -4.37814 -9.81092
4.78546 -4.27573 -7.8163
4.89034 -4.17332 -5.82167
4.99522 -4.07091 -3.82705
5.10011 -3.9685 -1.83243
5.20499 -3.86609 0.162188
5.30987 -3.76368 2.15681
5.41475 -3.66127 4.15143
5.51963 -3.55886 6.14605
5.62452 -3.45645 8.14067
5.7294 -3.35404 10.1353
2.95592 -3.36618 -9.77219
3.0608 -3.26377 -7.77756
3.16568 -3.16137 -5.78294
3.27056 -3.05896 -3.78832
3.37545 -2.95655 -1.7937
3.48033 -2.85414 0.200918
3.58521 -2.75173 2.19554
3.69009 -2.64932 4.19016
3.79497 -2.54691 6.18478
3.89986 -2.4445 8.1794
4.00474 -2.34209 10.174
1.23126 -2.35423 -9.73346
1.33614 -2.25182 -7.73883
1.44102 -2.14941 -5.74421
1.5459 -2.047 -3.74959
1.65078 -1.94459 -1.75497
1.75567 -1.84219 0.239648
1.86055 -1.73978 2.23427
1.96543 -1.63737 4.22889
2.07031 -1.53496 6.22351
2.1752 -1.43255 8.21813
2.28008 -1.33014 10.2128
-0.493404 -1.34228 -9.69472
-0.388522 -1.23987 -7.7001
-0.28364 -1.13746 -5.70548
-0.178758 -1.03505 -3.71086
-0.0738761 -0.932644 -1.71624
0.0310059 -0.830234 0.278379
0.135888 -0.727825 2.273
0.24077 -0.625415 4.26762
0.345652 -0.523005 6.26224
0.450534 -0.420596 8.25686
0.555416 -0.318186 10.2515
-2.21807 -0.330332 -9.65599
-2.11318 -0.227922 -7.66137
-2.0083 -0.125512 -5.66675
-1.90342 -0.0231028 -3.67213
-1.79854 0.0793069 -1.67751
-1.69365 0.181717 0.317109
-1.58877 0.284126 2.31173
-1.48389 0.386536 4.30635
-1.37901 0.488945 6.30097
-1.27413 0.591355 8.29559
-1.16924 0.693765 10.2902
-3.94273 0.681619 -9.61726
-3.83784 0.784029 -7.62264
-3.73296 0.886439 -5.62802
-3.62808 0.988848 -3.6334
-3.5232 1.09126 -1.63878
-3.41832 1.19367 0.35584
-3.31343 1.29608 2.35046
-3.20855 1.39849 4.34508
-3.10367 1.5009 6.3397
-2.99879 1.60331 8.33432
-2.89391 1.70572 10.3289
-5.66739 1.69357 -9.57853
-5.56251 1.79598 -7.58391
-5.45762 1.89839 -5.58929
-5.35274 2.0008 -3.59467
-5.24786 2.10321 -1.60005
-5.14298 2.20562 0.39457
-5.03809 2.30803 2.38919
-4.93321 2.41044 4.38381
-4.82833 2.51285 6.37843
-4.72345 2.61526 8.37305
-4.61857 2.71767 10.3677
-7.39205 2.70552 -9.5398
-7.28717 2.80793 -7.54518
-7.18228 2.91034 -5.55056
-7.0774 3.01275 -3.55594
-6.97252 3.11516 -1.56132
-6.86764 3.21757 0.433301
-6.76276 3.31998 2.42792
-6.65787 3.42239 4.42254
-6.55299 3.5248 6.41716
-6.44811 3.62721 8.41178
-6.34323 3.72962 10.4064
-9.11671 3.71747 -9.50107
-9.01183 3.81988 -7.50645
-8.90694 3.92229 -5.51183
-8.80206 4.0247 -3.51721
-8.69718 4.12711 -1.52259
-8.5923 4.22952 0.472031
-8.48742 4.33193 2.46665
-8.38253 4.43434 4.46127
-8.27765 4.53675 6.45589
-8.17277 4.63916 8.45051
-8.06789 4.74157 10.4451
-10.8414 4.72942 -9.46234
-10.7365 4.83183 -7.46772
-10.6316 4.93424 -5.4731
-10.5267 5.03665 -3.47848
-10.4218 5.13906 -1.48386
-10.317 5.24147 0.510761
-10.2121 5.34388 2.50538
-10.1072 5.44629 4.5
-10.0023 5.5487 6.49462
-9.89743 5.65111 8.48924
-9.79255 5.75352 10.4839
7.41249 -3.66803 -9.99103
7.51737 -3.56562 -7.9964
7.62225 -3.46321 -6.00178
7.72713 -3.3608 -4.00716
7.83201 -3.25839 -2.01254
7.9369 -3.15598 -0.0179214
8.04178 -3.05358 1.9767
8.14666 -2.95117 3.97132
8.25154 -2.84876 5.96594
8.35642 -2.74635 7.96056
8.46131 -2.64394 9.95518
5.68782 -2.65608 -9.95229
5.79271 -2.55367 -7.95767
5.89759 -2.45126 -5.96305
6.00247 -2.34885 -3.96843
6.10735 -2.24644 -1.97381
6.21223 -2.14403 0.020809
6.31712 -2.04162 2.01543
6.422 -1.93921 4.01005
6.52688 -1.8368 6.00467
6.63176 -1.7344 7.99929
6.73665 -1.63199 9.99391
3.96316 -1.64413 -9.91356
4.06805 -1.54172 -7.91894
4.17293 -1.43931 -5.92432
4.27781 -1.3369 -3.9297
4.38269 -1.23449 -1.93508
4.48757 -1.13208 0.0595394
4.59246 -1.02967 2.05416
4.69734 -0.927264 4.04878
4.80222 -0.824854 6.0434
4.9071 -0.722444 8.03802
5.01198 -0.620035 10.0326
2.2385 -0.63218 -9.87483
2.34338 -0.529771 -7.88021
2.44827 -0.427361 -5.88559
2.55315 -0.324951 -3.89097
2.65803 -0.222542 -1.89635
2.76291 -0.120132 0.0982698
2.86779 -0.0177224 2.09289
2.97268 0.0846873 4.08751
3.07756 0.187097 6.08213
3.18244 0.289507 8.07675
3.28732 0.391916 10.0714
0.513842 0.379771 -9.8361
0.618724 0.48218 -7.84148
0.723606 0.58459 -5.84686
0.828488 0.687 -3.85224
0.93337 0.789409 -1.85762
1.03825 0.891819 0.137
1.14313 0.994229 2.13162
1.24802 1.09664 4.12624
1.3529 1.19905 6.12086
1.45778 1.30146 8.11548
1.56266 1.40387 10.1101
-1.21082 1.39172 -9.79737
-1.10594 1.49413 -7.80275
-1.00106 1.59654 -5.80813
-0.896173 1.69895 -3.81351
-0.791291 1.80136 -1.81889
-0.686409 1.90377 0.175731
-0.581527 2.00618 2.17035
-0.476645 2.10859 4.16497
-0.371763 2.211 6.15959
-0.266881 2.31341 8.15421
-0.161999 2.41582 10.1488
-2.93548 2.40367 -9.75864
-2.8306 2.50608 -7.76402
-2.72572 2.60849 -5.7694
-2.62083 2.7109 -3.77478
-2.51595 2.81331 -1.78016
-2.41107 2.91572 0.214461
-2.30619 3.01813 2.20908
-2.20131 3.12054 4.2037
-2.09642 3.22295 6.19832
-1.99154 3.32536 8.19294
-1.88666 3.42777 10.1876
-4.66014 3.41562 -9.71991
-4.55526 3.51803 -7.72529
-4.45038 3.62044 -5.73067
-4.3455 3.72285 -3.73605
-4.24061 3.82526 -1.74143
-4.13573 3.92767 0.253191
-4.03085 4.03008 2.24781
-3.92597 4.13249 4.24243
-3.82108 4.2349 6.23705
-3.7162 4.33731 8.23167
-3.61132 4.43972 10.2263
-6.3848 4.42757 -9.68118
-6.27992 4.52998 -7.68656
-6.17504 4.63239 -5.69194
-6.07016 4.7348 -3.69732
-5.96527 4.83721 -1.7027
-5.86039 4.93962 0.291922
-5.75551 5.04203 2.28654
-5.65063 5.14444 4.28116
-5.54575 5.24685 6.27578
-5.44086 5.34926 8.2704
-5.33598 5.45167 10.265
-8.10946 5.43953 -9.64245
-8.00458 5.54193 -7.64783
-7.8997 5.64434 -5.65321
-7.79482 5.74675 -3.65859
-7.68993 5.84916 -1.66397
-7.58505 5.95157 0.330652
-7.48017 6.05398 2.32527
-7.37529 6.15639 4.31989
-7.27041 6.2588 6.31451
-7.16552 6.36121 8.30914
-7.06064 6.46362 10.3038
-9.83412 6.45148 -9.60372
-9.72924 6.55389 -7.6091
-9.62436 6.6563 -5.61448
-9.51948 6.75871 -3.61986
-9.4146 6.86111 -1.62524
-9.30971 6.96352 0.369383
-9.20483 7.06593 2.364
-9.09995 7.16834 4.35862
-8.99507 7.27075 6.35324
-8.89019 7.37316 8.34787
-8.7853 7.47557 10.3425
8.41973 -1.94598 -10.1324
8.52461 -1.84357 -8.13778
8.6295 -1.74116 -6.14316
8.73438 -1.63875 -4.14854
8.83926 -1.53634 -2.15392
8.94414 -1.43393 -0.1593
9.04902 -1.33152 1.83532
9.15391 -1.22911 3.82994
9.25879 -1.1267 5.82456
9.36367 -1.02429 7.81918
9.46855 -0.921883 9.8138
6.69507 -0.934029 -10.0937
6.79995 -0.831619 -8.09905
6.90483 -0.729209 -6.10443
7.00972 -0.6268 -4.10981
7.1146 -0.52439 -2.11519
7.21948 -0.421981 -0.12057
7.32436 -0.319571 1.87405
7.42924 -0.217161 3.86867
7.53413 -0.114752 5.86329
7.63901 -0.012342 7.85791
7.74389 0.0900677 9.85253
4.97041 0.0779222 -10.0549
5.07529 0.180332 -8.06032
5.18017 0.282741 -6.0657
5.28506 0.385151 -4.07108
5.38994 0.487561 -2.07646
5.49482 0.58997 -0.0818393
5.5997 0.69238 1.91278
5.70458 0.79479 3.9074
5.80947 0.897199 5.90202
5.91435 0.999609 7.89664
6.01923 1.10202 9.89126
3.24575 1.08987 -10.0162
3.35063 1.19228 -8.02159
3.45551 1.29469 -6.02697
3.56039 1.3971 -4.03235
3.66528 1.49951 -2.03773
3.77016 1.60192 -0.0431089
3.87504 1.70433 1.95151
3.97992 1.80674 3.94613
4.08481 1.90915 5.94075
4.18969 2.01156 7.93537
4.29457 2.11397 9.92999
1.52109 2.10182 -9.97748
1.62597 2.20423 -7.98286
1.73085 2.30664 -5.98824
1.83573 2.40905 -3.99362
1.94062 2.51146 -1.999
2.0455 2.61387 -0.00437851
2.15038 2.71628 1.99024
2.25526 2.81869 3.98486
2.36014 2.9211 5.97948
2.46503 3.02351 7.9741
2.56991 3.12592 9.96873
-0.203573 3.11377 -9.93875
-0.0986913 3.21618 -7.94413
0.00619074 3.31859 -5.94951
0.111073 3.421 -3.95489
0.215955 3.52341 -1.96027
0.320837 3.62582 0.0343519
0.425719 3.72823 2.02897
0.530601 3.83064 4.02359
0.635483 3.93305 6.01821
0.740365 4.03546 8.01283
0.845247 4.13787 10.0075
-1.92823 4.12573 -9.90002
-1.82335 4.22814 -7.9054
-1.71847 4.33055 -5.91078
-1.61359 4.43295 -3.91616
-1.50871 4.53536 -1.92154
-1.40382 4.63777 0.0730823
-1.29894 4.74018 2.0677
-1.19406 4.84259 4.06232
-1.08918 4.945 6.05694
-0.984296 5.04741 8.05157
-0.879414 5.14982 10.0462
-3.6529 5.13768 -9.86129
-3.54801 5.24009 -7.86667
-3.44313 5.3425 -5.87205
-3.33825 5.44491 -3.87743
-3.23337 5.54732 -1.88281
-3.12848 5.64972 0.111813
-3.0236 5.75213 2.10643
-2.91872 5.85454 4.10105
-2.81384 5.95695 6.09568
-2.70896 6.05936 8.0903
-2.60407 6.16177 10.0849
-5.37756 6.14963 -9.82256
-5.27267 6.25204 -7.82794
-5.16779 6.35445 -5.83332
-5.06291 6.45686 -3.8387
-4.95803 6.55927 -1.84408
-4.85315 6.66168 0.150543
-4.74826 6.76409 2.14516
-4.64338 6.8665 4.13978
-4.5385 6.9689 6.13441
-4.43362 7.07131 8.12903
-4.32874 7.17372 10.1236
-7.10222 7.16158 -9.78383
-6.99734 7.26399 -7.78921
-6.89245 7.3664 -5.79459
-6.78757 7.46881 -3.79997
-6.68269 7.57122 -1.80535
-6.57781 7.67363 0.189274
-6.47292 7.77604 2.18389
-6.36804 7.87845 4.17852
-6.26316 7.98086 6.17314
-6.15828 8.08327 8.16776
-6.0534 8.18568 10.1624
-8.82688 8.17353 -9.7451
-8.722 8.27594 -7.75048
-8.61711 8.37835 -5.75586
-8.51223 8.48076 -3.76124
-8.40735 8.58317 -1.76662
-8.30247 8.68558 0.228004
-8.19759 8.78799 2.22262
-8.0927 8.8904 4.21725
-7.98782 8.99281 6.21187
-7.88294 9.09522 8.20649
-7.77806 9.19763 10.2011
9.42698 -0.223926 -10.2738
9.53186 -0.121517 -8.27916
9.63674 -0.0191071 -6.28454
9.74162 0.0833026 -4.28992
9.84651 0.185712 -2.2953
9.95139 0.288122 -0.300679
10.0563 0.390531 1.69394
10.1612 0.492941 3.68856
10.266 0.595351 5.68318
10.3709 0.69776 7.6778
10.4758 0.80017 9.67242
7.70232 0.788025 -10.2351
7.8072 0.890434 -8.24043
7.91208 0.992844 -6.24581
8.01696 1.09525 -4.25119
8.12184 1.19766 -2.25657
8.22673 1.30007 -0.261948
8.33161 1.40248 1.73267
8.43649 1.50489 3.72729
8.54137 1.6073 5.72191
8.64625 1.70971 7.71653
8.75114 1.81212 9.71116
5.97766 1.79998 -10.1963
6.08254 1.90239 -8.2017
6.18742 2.00479 -6.20708
6.2923 2.1072 -4.21246
6.39718 2.20961 -2.21784
6.50207 2.31202 -0.223218
6.60695 2.41443 1.7714
6.71183 2.51684 3.76602
6.81671 2.61925 5.76064
6.92159 2.72166 7.75527
7.02648 2.82407 9.74989
4.25299 2.81193 -10.1576
4.35788 2.91434 -8.16297
4.46276 3.01675 -6.16835
4.56764 3.11916 -4.17373
4.67252 3.22156 -2.17911
4.7774 3.32397 -0.184488
4.88229 3.42638 1.81013
4.98717 3.52879 3.80475
5.09205 3.6312 5.79937
5.19693 3.73361 7.794
5.30182 3.83602 9.78862
2.52833 3.82388 -10.1189
2.63322 3.92629 -8.12424
2.7381 4.0287 -6.12962
2.84298 4.13111 -4.135
2.94786 4.23352 -2.14038
3.05274 4.33593 -0.145757
3.15763 4.43834 1.84886
3.26251 4.54074 3.84348
3.36739 4.64315 5.83811
3.47227 4.74556 7.83273
3.57715 4.84797 9.82735
0.803673 4.83583 -10.0801
0.908555 4.93824 -8.08551
1.01344 5.04065 -6.09089
1.11832 5.14306 -4.09627
1.2232 5.24547 -2.10165
1.32808 5.34788 -0.107027
1.43297 5.45029 1.88759
1.53785 5.5527 3.88221
1.64273 5.65511 5.87684
1.74761 5.75752 7.87146
1.85249 5.85992 9.86608
-0.920988 5.84778 -10.0414
-0.816106 5.95019 -8.04678
-0.711224 6.0526 -6.05216
-0.606342 6.15501 -4.05754
-0.50146 6.25742 -2.06292
-0.396578 6.35983 -0.0682964
-0.291696 6.46224 1.92632
-0.186814 6.56465 3.92095
-0.0819318 6.66706 5.91557
0.0229503 6.76947 7.91019
0.127832 6.87188 9.90481
-2.64565 6.85973 -10.0027
-2.54077 6.96214 -8.00805
-2.43589 7.06455 -6.01343
-2.331 7.16696 -4.01881
-2.22612 7.26937 -2.02419
-2.12124 7.37178 -0.029566
-2.01636 7.47419 1.96505
-1.91147 7.5766 3.95968
-1.80659 7.67901 5.9543
-1.70171 7.78142 7.94892
-1.59683 7.88383 9.94354
-4.37031 7.87168 -9.96394
-4.26543 7.97409 -7.96932
-4.16055 8.0765 -5.9747
-4.05566 8.17891 -3.98008
-3.95078 8.28132 -1.98546
-3.8459 8.38373 0.00916442
-3.74102 8.48614 2.00379
-3.63614 8.58855 3.99841
-3.53125 8.69096 5.99303
-3.42637 8.79337 7.98765
-3.32149 8.89578 9.98227
-6.09497 8.88363 -9.92521
-5.99009 8.98604 -7.93059
-5.88521 9.08845 -5.93597
-5.78032 9.19086 -3.94135
-5.67544 9.29327 -1.94673
-5.57056 9.39568 0.0478948
-5.46568 9.49809 2.04252
-5.3608 9.6005 4.03714
-5.25591 9.70291 6.03176
-5.15103 9.80532 8.02638
-5.04615 9.90773 10.021
-7.81963 9.89558 -9.88648
-7.71475 9.99799 -7.89186
-7.60987 10.1004 -5.89724
-7.50499 10.2028 -3.90262
-7.4001 10.3052 -1.908
-7.29522 10.4076 0.0866252
-7.19034 10.51 2.08125
-7.08546 10.6125 4.07587
-6.98058 10.7149 6.07049
-6.87569 10.8173 8.06511
-6.77081 10.9197 10.0597
10.4342 1.49813 -10.4152
10.5391 1.60054 -8.42054
10.644 1.70295 -6.42592
10.7489 1.80536 -4.4313
10.8538 1.90777 -2.43668
10.9586 2.01018 -0.442058
11.0635 2.11258 1.55256
11.1684 2.21499 3.54718
11.2733 2.3174 5.5418
11.3782 2.41981 7.53643
11.483 2.52222 9.53105
8.70956 2.51008 -10.3764
8.81444 2.61249 -8.38181
8.91933 2.7149 -6.38719
9.02421 2.81731 -4.39257
9.12909 2.91972 -2.39795
9.23397 3.02213 -0.403327
9.33885 3.12454 1.59129
9.44374 3.22695 3.58591
9.54862 3.32936 5.58054
9.6535 3.43176 7.57516
9.75838 3.53417 9.56978
6.9849 3.52203 -10.3377
7.08978 3.62444 -8.34308
7.19467 3.72685 -6.34846
7.29955 3.82926 -4.35384
7.40443 3.93167 -2.35922
7.50931 4.03408 -0.364597
7.61419 4.13649 1.63002
7.71908 4.2389 3.62464
7.82396 4.34131 5.61927
7.92884 4.44372 7.61389
8.03372 4.54613 9.60851
5.26024 4.53398 -10.299
5.36512 4.63639 -8.30435
5.47 4.7388 -6.30973
5.57489 4.84121 -4.31511
5.67977 4.94362 -2.32049
5.78465 5.04603 -0.325866
5.88953 5.14844 1.66875
5.99441 5.25085 3.66338
6.0993 5.35326 5.658
6.20418 5.45567 7.65262
6.30906 5.55808 9.64724
3.53558 5.54593 -10.2602
3.64046 5.64834 -8.26562
3.74534 5.75075 -6.271
3.85023 5.85316 -4.27638
3.95511 5.95557 -2.28176
4.05999 6.05798 -0.287136
4.16487 6.16039 1.70748
4.26975 6.2628 3.70211
4.37464 6.36521 5.69673
4.47952 6.46762 7.69135
4.5844 6.57003 9.68597
1.81092 6.55788 -10.2215
1.9158 6.66029 -8.22689
2.02068 6.7627 -6.23227
2.12556 6.86511 -4.23765
2.23045 6.96752 -2.24303
2.33533 7.06993 -0.248406
2.44021 7.17234 1.74622
2.54509 7.27475 3.74084
2.64998 7.37716 5.73546
2.75486 7.47957 7.73008
2.85974 7.58198 9.7247
0.0862576 7.56983 -10.1828
0.19114 7.67224 -8.18816
0.296022 7.77465 -6.19354
0.400904 7.87706 -4.19892
0.505786 7.97947 -2.2043
0.610668 8.08188 -0.209675
0.71555 8.18429 1.78495
0.820432 8.2867 3.77957
0.925314 8.38911 5.77419
1.0302 8.49152 7.76881
1.13508 8.59393 9.76343
-1.6384 8.58178 -10.144
-1.53352 8.68419 -8.14943
-1.42864 8.7866 -6.15481
-1.32376 8.88901 -4.16019
-1.21888 8.99142 -2.16557
-1.11399 9.09383 -0.170945
-1.00911 9.19624 1.82368
-0.904229 9.29865 3.8183
-0.799347 9.40106 5.81292
-0.694465 9.50347 7.80754
-0.589583 9.60588 9.80216
-3.36306 9.59373 -10.1053
-3.25818 9.69614 -8.1107
-3.1533 9.79855 -6.11608
-3.04842 9.90096 -4.12146
-2.94354 10.0034 -2.12684
-2.83865 10.1058 -0.132214
-2.73377 10.2082 1.86241
-2.62889 10.3106 3.85703
-2.52401 10.413 5.85165
-2.41913 10.5154 7.84627
-2.31424 10.6178 9.84089
-5.08773 10.6057 -10.0666
-4.98284 10.7081 -8.07197
-4.87796 10.8105 -6.07735
-4.77308 10.9129 -4.08273
-4.6682 11.0153 -2.0881
-4.56331 11.1177 -0.0934839
-4.45843 11.2201 1.90114
-4.35355 11.3226 3.89576
-4.24867 11.425 5.89038
-4.14379 11.5274 7.885
-4.0389 11.6298 9.87962
-6.81239 11.6176 -10.0279
-6.7075 11.72 -8.03324
-6.60262 11.8225 -6.03862
-6.49774 11.9249 -4.044
-6.39286 12.0273 -2.04937
-6.28798 12.1297 -0.0547535
-6.18309 12.2321 1.93987
-6.07821 12.3345 3.93449
-5.97333 12.4369 5.92911
-5.86845 12.5393 7.92373
-5.76357 12.6417 9.91835
11.4415 3.22018 -10.5565
11.5464 3.32259 -8.56192
11.6512 3.425 -6.5673
11.7561 3.52741 -4.57268
11.861 3.62982 -2.57806
11.9659 3.73223 -0.583436
12.0708 3.83464 1.41118
12.1756 3.93705 3.40581
12.2805 4.03946 5.40043
12.3854 4.14187 7.39505
12.4903 4.24428 9.38967
9.71681 4.23213 -10.5178
9.82169 4.33454 -8.52319
9.92657 4.43695 -6.52857
10.0315 4.53936 -4.53395
10.1363 4.64177 -2.53933
10.2412 4.74418 -0.544706
10.3461 4.84659 1.44991
10.451 4.949 3.44454
10.5559 5.05141 5.43916
10.6607 5.15382 7.43378
10.7656 5.25623 9.4284
7.99215 5.24408 -10.4791
8.09703 5.34649 -8.48446
8.20191 5.4489 -6.48984
8.30679 5.55131 -4.49522
8.41168 5.65372 -2.5006
8.51656 5.75613 -0.505975
8.62144 5.85854 1.48865
8.72632 5.96095 3.48327
8.8312 6.06336 5.47789
8.93609 6.16577 7.47251
9.04097 6.26818 9.46713
6.26749 6.25603 -10.4403
6.37237 6.35844 -8.44573
6.47725 6.46085 -6.45111
6.58213 6.56326 -4.45649
6.68701 6.66567 -2.46187
6.7919 6.76808 -0.467245
6.89678 6.87049 1.52738
7.00166 6.9729 3.522
7.10654 7.07531 5.51662
7.21143 7.17772 7.51124
7.31631 7.28013 9.50586
4.54283 7.26798 -10.4016
4.64771 7.37039 -8.407
4.75259 7.4728 -6.41238
4.85747 7.57521 -4.41776
4.96235 7.67762 -2.42314
5.06724 7.78003 -0.428515
5.17212 7.88244 1.56611
5.277 7.98485 3.56073
5.38188 8.08726 5.55535
5.48676 8.18967 7.54997
5.59165 8.29208 9.54459
2.81816 8.27993 -10.3629
2.92305 8.38234 -8.36827
3.02793 8.48475 -6.37365
3.13281 8.58716 -4.37903
3.23769 8.68957 -2.38441
3.34257 8.79198 -0.389784
3.44746 8.89439 1.60484
3.55234 8.9968 3.59946
3.65722 9.09921 5.59408
3.7621 9.20162 7.5887
3.86699 9.30403 9.58332
1.0935 9.29189 -10.3242
1.19839 9.3943 -8.32954
1.30327 9.49671 -6.33492
1.40815 9.59911 -4.3403
1.51303 9.70152 -2.34567
1.61791 9.80393 -0.351054
1.7228 9.90634 1.64357
1.82768 10.0088 3.63819
1.93256 10.1112 5.63281
2.03744 10.2136 7.62743
2.14232 10.316 9.62205
-0.631157 10.3038 -10.2854
-0.526275 10.4062 -8.29081
-0.421393 10.5087 -6.29619
-0.316511 10.6111 -4.30156
-0.211629 10.7135 -2.30694
-0.106747 10.8159 -0.312323
-0.00186488 10.9183 1.6823
0.103017 11.0207 3.67692
0.207899 11.1231 5.67154
0.312781 11.2255 7.66616
0.417663 11.3279 9.66078
-2.35582 11.3158 -10.2467
-2.25094 11.4182 -8.25208
-2.14605 11.5206 -6.25746
-2.04117 11.623 -4.26283
-1.93629 11.7254 -2.26821
-1.83141 11.8278 -0.273593
-1.72653 11.9302 1.72103
-1.62164 12.0327 3.71565
-1.51676 12.1351 5.71027
-1.41188 12.2375 7.70489
-1.307 12.3399 9.69951
-4.08048 12.3277 -10.208
-3.9756 12.4301 -8.21335
-3.87072 12.5326 -6.21872
-3.76583 12.635 -4.2241
-3.66095 12.7374 -2.22948
-3.55607 12.8398 -0.234863
-3.45119 12.9422 1.75976
-3.3463 13.0446 3.75438
-3.24142 13.147 5.749
-3.13654 13.2494 7.74362
-3.03166 13.3518 9.73824
-5.80514 13.3397 -10.1692
-5.70026 13.4421 -8.17462
-5.59538 13.5445 -6.17999
-5.49049 13.6469 -4.18537
-5.38561 13.7493 -2.19075
-5.28073 13.8517 -0.196132
-5.17585 13.9541 1.79849
-5.07097 14.0566 3.79311
-4.96608 14.159 5.78773
-4.8612 14.2614 7.78235
-4.75632 14.3638 9.77697
12.4487 4.94223 -10.6979
12.5536 5.04464 -8.7033
12.6585 5.14705 -6.70868
12.7634 5.24946 -4.71406
12.8682 5.35187 -2.71944
12.9731 5.45428 -0.724815
13.078 5.55669 1.26981
13.1829 5.6591 3.26443
13.2878 5.76151 5.25905
13.3927 5.86392 7.25367
13.4975 5.96633 9.24829
10.7241 5.95418 -10.6592
10.8289 6.05659 -8.66457
10.9338 6.159 -6.66995
11.0387 6.26141 -4.67533
11.1436 6.36382 -2.68071
11.2485 6.46623 -0.686085
11.3533 6.56864 1.30854
11.4582 6.67105 3.30316
11.5631 6.77346 5.29778
11.668 6.87587 7.2924
11.7729 6.97828 9.28702
8.99939 6.96614 -10.6205
9.10428 7.06855 -8.62584
9.20916 7.17095 -6.63122
9.31404 7.27336 -4.6366
9.41892 7.37577 -2.64197
9.5238 7.47818 -0.647354
9.62869 7.58059 1.34727
9.73357 7.683 3.34189
9.83845 7.78541 5.33651
9.94333 7.88782 7.33113
10.0482 7.99023 9.32575
7.27473 7.97809 -10.5817
7.37961 8.0805 -8.58711
7.4845 8.18291 -6.59249
7.58938 8.28532 -4.59787
7.69426 8.38772 -2.60324
7.79914 8.49013 -0.608624
7.90402 8.59254 1.386
8.00891 8.69495 3.38062
8.11379 8.79736 5.37524
8.21867 8.89977 7.36986
8.32355 9.00218 9.36448
5.55007 8.99004 -10.543
5.65495 9.09245 -8.54838
5.75984 9.19486 -6.55376
5.86472 9.29727 -4.55913
5.9696 9.39968 -2.56451
6.07448 9.50209 -0.569893
6.17936 9.6045 1.42473
6.28425 9.7069 3.41935
6.38913 9.80931 5.41397
6.49401 9.91172 7.40859
6.59889 10.0141 9.40321
3.82541 10.002 -10.5043
3.93029 10.1044 -8.50965
4.03517 10.2068 -6.51503
4.14006 10.3092 -4.5204
4.24494 10.4116 -2.52578
4.34982 10.514 -0.531163
4.4547 10.6164 1.46346
4.55959 10.7189 3.45808
4.66447 10.8213 5.4527
4.76935 10.9237 7.44732
4.87423 11.0261 9.44194
2.10075 11.0139 -10.4655
2.20563 11.1163 -8.47092
2.31051 11.2188 -6.47629
2.4154 11.3212 -4.48167
2.52028 11.4236 -2.48705
2.62516 11.526 -0.492433
2.73004 11.6284 1.50219
2.83492 11.7308 3.49681
2.93981 11.8332 5.49143
3.04469 11.9356 7.48605
3.14957 12.038 9.48067
0.376089 12.0259 -10.4268
0.480971 12.1283 -8.43219
0.585853 12.2307 -6.43756
0.690735 12.3331 -4.44294
0.795617 12.4355 -2.44832
0.900499 12.5379 -0.453702
1.00538 12.6403 1.54092
1.11026 12.7428 3.53554
1.21515 12.8452 5.53016
1.32003 12.9476 7.52478
1.42491 13.05 9.5194
-1.34857 13.0378 -10.3881
-1.24369 13.1403 -8.39345
-1.13881 13.2427 -6.39883
-1.03393 13.3451 -4.40421
-0.929044 13.4475 -2.40959
-0.824162 13.5499 -0.414972
-0.71928 13.6523 1.57965
-0.614398 13.7547 3.57427
-0.509516 13.8571 5.56889
-0.404634 13.9595 7.56351
-0.299752 14.0619 9.55813
-3.07323 14.0498 -10.3493
-2.96835 14.1522 -8.35472
-2.86347 14.2546 -6.3601
-2.75859 14.357 -4.36548
-2.6537 14.4594 -2.37086
-2.54882 14.5618 -0.376241
-2.44394 14.6642 1.61838
-2.33906 14.7667 3.613
-2.23418 14.8691 5.60762
-2.12929 14.9715 7.60224
-2.02441 15.0739 9.59686
-4.79789 15.0617 -10.3106
-4.69301 15.1642 -8.31599
-4.58813 15.2666 -6.32137
-4.48325 15.369 -4.32675
-4.37837 15.4714 -2.33213
-4.27348 15.5738 -0.337511
-4.1686 15.6762 1.65711
-4.06372 15.7786 3.65173
-3.95884 15.881 5.64635
-3.85396 15.9834 7.64097
-3.74907 16.0858 9.63559
1 2
