ply
format ascii 1.0
element vertex 30
property float x
property float y
property float z
end_header
10.4865 24.1617 -9
10.4865 24.1617 -9
5.65685 25.4558 -24
10.4865 24.1617 -4
5.65685 25.4558 -19
14.7985 24.7995 -22
0.827244 26.7499 -24
0.827244 26.7499 -4
3.20737 27.9053 -6
10.9348 25.8348 -10
-4.00244 28.0441 -4
7.07107 26.8701 -6
-0.656337 28.9406 -14
10.4865 24.1617 -14
15.3161 22.8677 -24
5.65685 25.4558 -14
-4.00244 28.0441 -14
14.7985 24.7995 -18
0.827244 26.7499 -24
0.827244 26.7499 -14
-4.00244 28.0441 -14
7.07107 26.8701 -14
5.65685 25.4558 -24
15.3161 22.8677 -19
10.4865 24.1617 -19
15.3161 22.8677 -9
15.3161 22.8677 -9
0.827244 26.7499 -4
-0.656337 28.9406 -10
7.07107 26.8701 -10
