ply
format ascii 1.0
element vertex 45
property float x
property float y
property float z
end_header
-0.57735 -0.57735 -0.57735
-0.615457 -0.615457 -0.492366
-0.650945 -0.650945 -0.390567
-0.680414 -0.680414 -0.272166
-0.70014 -0.70014 -0.140028
-0.707107 -0.707107 6.12323e-17
-0.70014 -0.70014 0.140028
-0.680414 -0.680414 0.272166
-0.650945 -0.650945 0.390567
-0.615457 -0.615457 0.492366
-0.57735 -0.57735 0.57735
-0.615457 -0.492366 -0.615457
-0.662266 -0.529813 -0.529813
-0.707107 -0.565685 -0.424264
-0.745356 -0.596285 -0.298142
-0.771517 -0.617213 -0.154303
-0.780869 -0.624695 6.12323e-17
-0.771517 -0.617213 0.154303
-0.745356 -0.596285 0.298142
-0.707107 -0.565685 0.424264
-0.662266 -0.529813 0.529813
-0.615457 -0.492366 0.615457
-0.650945 -0.390567 -0.650945
-0.707107 -0.424264 -0.565685
-0.762493 -0.457496 -0.457496
-0.811107 -0.486664 -0.324443
-0.845154 -0.507093 -0.169031
-0.857493 -0.514496 6.12323e-17
-0.845154 -0.507093 0.169031
-0.811107 -0.486664 0.324443
-0.762493 -0.457496 0.457496
-0.707107 -0.424264 0.565685
-0.650945 -0.390567 0.650945
-0.680414 -0.272166 -0.680414
-0.745356 -0.298142 -0.596285
-0.811107 -0.324443 -0.486664
-0.870388 -0.348155 -0.348155
-0.912871 -0.365148 -0.182574
-0.928477 -0.371391 6.12323e-17
-0.912871 -0.365148 0.182574
-0.870388 -0.348155 0.348155
-0.811107 -0.324443 0.486664
-0.745356 -0.298142 0.596285
-0.680414 -0.272166 0.680414
-0.70014 -0.140028 -0.70014
