ply
format ascii 1.0
element vertex 45
property float x
property float y
property float z
end_header
-2.66025 -13.6603 -5
-2.66025 -13.6603 -3
-2.66025 -13.6603 -1
-2.66025 -13.6603 1
-2.66025 -13.6603 3
-2.66025 -13.6603 5
-2.66025 -13.6603 7
-2.66025 -13.6603 9
-2.66025 -13.6603 11
-2.66025 -13.6603 13
-2.66025 -13.6603 15
-3.66025 -11.9282 -5
-3.66025 -11.9282 -3
-3.66025 -11.9282 -1
-3.66025 -11.9282 1
-3.66025 -11.9282 3
-3.66025 -11.9282 5
-3.66025 -11.9282 7
-3.66025 -11.9282 9
-3.66025 -11.9282 11
-3.66025 -11.9282 13
-3.66025 -11.9282 15
-4.66025 -10.1962 -5
-4.66025 -10.1962 -3
-4.66025 -10.1962 -1
-4.66025 -10.1962 1
-4.66025 -10.1962 3
-4.66025 -10.1962 5
-4.66025 -10.1962 7
-4.66025 -10.1962 9
-4.66025 -10.1962 11
-4.66025 -10.1962 13
-4.66025 -10.1962 15
-5.66025 -8.4641 -5
-5.66025 -8.4641 -3
-5.66025 -8.4641 -1
-5.66025 -8.4641 1
-5.66025 -8.4641 3
-5.66025 -8.4641 5
-5.66025 -8.4641 7
-5.66025 -8.4641 9
-5.66025 -8.4641 11
-5.66025 -8.4641 13
-5.66025 -8.4641 15
-6.66025 -6.73205 -5
