ply
format ascii 1.0
element vertex 30
property float x
property float y
property float z
end_header
-14.5 -21.3301 5
-14.5 -21.3301 5
-17 -17 -10
-14.5 -21.3301 10
-17 -17 -5
-15 -23.9282 -8
-19.5 -12.6699 -10
-19.5 -12.6699 10
-21 -13.5359 8
-17 -20.4641 4
-22 -8.33975 10
-19 -17 8
-23 -10.0718 0
-14.5 -21.3301 0
-12 -25.6603 -10
-17 -17 0
-22 -8.33975 0
-15 -23.9282 -4
-19.5 -12.6699 -10
-19.5 -12.6699 0
-22 -8.33975 0
-19 -17 0
-17 -17 -10
-12 -25.6603 -5
-14.5 -21.3301 -5
-12 -25.6603 5
-12 -25.6603 5
-19.5 -12.6699 10
-23 -10.0718 4
-19 -17 4
