ply
format ascii 1.0
element vertex 30
property float x
property float y
property float z
end_header
-7.26795 16.5885 0
-7.26795 16.5885 5
6.3923 12.9282 0
0.232051 3.59808 5
-2.93782 19.0885 10
12.5526 22.2583 10
6.3923 12.9282 10
-4.76795 12.2583 -10
-1.1077 25.9186 0
10.7224 15.4282 -10
-4.76795 12.2583 0
-1.1077 25.9186 -10
3.22243 28.4186 10
4.56218 6.09808 5
8.8923 8.59808 5
2.06218 10.4282 0
-0.437822 14.7583 0
17.5526 13.5981 -5
3.8923 17.2583 -10
2.06218 10.4282 10
-0.437822 14.7583 -5
5.72243 24.0885 10
6.3923 12.9282 5
-0.437822 14.7583 10
-2.93782 19.0885 -5
-7.26795 16.5885 -10
-7.26795 16.5885 -10
-2.26795 7.9282 10
8.22243 19.7583 0
10.7224 15.4282 -5
