ply
format ascii 1.0
element vertex 30
property float x
property float y
property float z
end_header
-9.19615 -3.9282 -4.10345
-3.66025 13.6603 -8.10345
-3.26795 -9.66025 5.89655
-0.732051 2.73205 -4.10345
-8.66025 5 3.89655
-6.73205 -7.66025 9.89655
-7.66025 6.73205 -0.103448
-4.4641 0.267949 -4.10345
9.19615 3.9282 9.89655
-4.66025 11.9282 5.89655
-4.4641 0.267949 -6.10345
7.19615 0.464102 -2.10345
10.1962 5.66025 3.89655
-7.19615 -0.464102 3.89655
-8.19615 -2.19615 7.89655
-7.9282 2.26795 7.89655
-0.464102 7.19615 3.89655
-1.4641 5.4641 -6.10345
7.9282 -2.26795 -0.103448
4.9282 -7.4641 5.89655
-5.73205 -5.9282 3.89655
2.73205 0.732051 -8.10345
6.19615 -1.26795 -4.10345
-5.73205 -5.9282 5.89655
-7.4641 -4.9282 -6.10345
0.196152 -11.6603 -2.10345
7.9282 -2.26795 -8.10345
0.267949 4.4641 -6.10345
2.4641 -3.73205 -10.1034
10.1962 5.66025 -0.103448
