ply
format ascii 1.0
comment ViewPLUS PointType : struct vp::PointXYZI
element vertex 14
property float x
property float y
property float z
end_header
4.709413 -1.701066 1.643384
4.633100 -2.452064 1.664864
4.635030 -2.455159 0.226255
4.776662 -1.773578 0.218902
-0.069995 -2.843692 1.399077
-0.525430 -2.762258 1.375047
-0.069861 -2.838234 0.540046
-0.536431 -2.934322 0.531882
-3.263680 5.856455 1.672850
-3.201094 6.610003 1.661852
-2.490783 0.678599 -0.824380
-2.534395 0.268164 -0.829055
-2.537229 0.139188 -0.819755
-2.599446 -0.187699 -0.812743