ply
format ascii 1.0
element vertex 50
property float x
property float y
property float z
end_header
-2 6.33975 10
-4.5 10.6699 10
-7 15 10
-9.5 19.3301 10
-12 23.6603 10
-2 6.33975 5
-4.5 10.6699 5
-7 15 5
-9.5 19.3301 5
-12 23.6603 5
-2 6.33975 1.1034e-13
-4.5 10.6699 9.58347e-13
-7 15 1.80635e-12
-9.5 19.3301 2.65436e-12
-12 23.6603 3.50237e-12
-2 6.33975 -5
-4.5 10.6699 -5
-7 15 -5
-9.5 19.3301 -5
-12 23.6603 -5
-2 6.33975 -10
-4.5 10.6699 -10
-7 15 -10
-9.5 19.3301 -10
-12 23.6603 -10
-8 13.0718 8
-10 16.5359 8
-12 20 8
-14 23.4641 8
-16 26.9282 8
-8 13.0718 4
-10 16.5359 4
-12 20 4
-14 23.4641 4
-16 26.9282 4
-8 13.0718 2.35334e-12
-10 16.5359 3.03174e-12
-12 20 3.71015e-12
-14 23.4641 4.38856e-12
-16 26.9282 5.06696e-12
-8 13.0718 -4
-10 16.5359 -4
-12 20 -4
-14 23.4641 -4
-16 26.9282 -4
-8 13.0718 -8
-10 16.5359 -8
-12 20 -8
-14 23.4641 -8
-16 26.9282 -8
