ply
format ascii 1.0
element vertex 30
property float x
property float y
property float z
end_header
-4.5 10.6699 5
-4.5 10.6699 5
-7 15 -10
-4.5 10.6699 10
-7 15 -5
-8 13.0718 -8
-9.5 19.3301 -10
-9.5 19.3301 10
-14 23.4641 8
-10 16.5359 4
-12 23.6603 10
-12 20 8
-16 26.9282 0
-4.5 10.6699 0
-2 6.33975 -10
-7 15 0
-12 23.6603 0
-8 13.0718 -4
-9.5 19.3301 -10
-9.5 19.3301 0
-12 23.6603 0
-12 20 0
-7 15 -10
-2 6.33975 -5
-4.5 10.6699 -5
-2 6.33975 5
-2 6.33975 5
-9.5 19.3301 10
-16 26.9282 4
-12 20 4
