ply
format ascii 1.0
element vertex 50
property float x
property float y
property float z
end_header
-5 6.33975 10
-2.5 10.6699 10
3.73035e-14 15 10
2.5 19.3301 10
5 23.6603 10
-5 6.33975 5
-2.5 10.6699 5
4.79616e-14 15 5
2.5 19.3301 5
5 23.6603 5
-5 6.33975 4.10394e-14
-2.5 10.6699 3.3823e-14
5.81757e-14 15 2.66065e-14
2.5 19.3301 1.93901e-14
5 23.6603 1.21735e-14
-5 6.33975 -5
-2.5 10.6699 -5
6.83897e-14 15 -5
2.5 19.3301 -5
5 23.6603 -5
-5 6.33975 -10
-2.5 10.6699 -10
7.90479e-14 15 -10
2.5 19.3301 -10
5 23.6603 -10
24 8.0718 8
22 11.5359 8
20 15 8
18 18.4641 8
16 21.9282 8
24 8.0718 4
22 11.5359 4
20 15 4
18 18.4641 4
16 21.9282 4
24 8.0718 9.60191e-14
22 11.5359 8.19793e-14
20 15 6.79395e-14
18 18.4641 5.38998e-14
16 21.9282 3.986e-14
24 8.0718 -4
22 11.5359 -4
20 15 -4
18 18.4641 -4
16 21.9282 -4
24 8.0718 -8
22 11.5359 -8
20 15 -8
18 18.4641 -8
16 21.9282 -8
