ply
format ascii 1.0
element vertex 50
property float x
property float y
property float z
end_header
-18.9052 19.664 1.01566
-17.3773 15.386 3.10495
-15.8495 11.1081 5.19421
-14.3217 6.83015 7.28348
-12.7939 2.55223 9.37274
-18.7794 17.5068 -3.49331
-17.2515 13.2288 -1.40402
-15.7237 8.95092 0.685237
-14.1959 4.67298 2.77451
-12.668 0.395059 4.86377
-18.6536 15.3496 -8.00228
-17.1257 11.0717 -5.91299
-15.5979 6.79375 -3.82373
-14.07 2.51582 -1.73446
-12.5422 -1.76211 0.354803
-18.5277 13.1925 -12.5113
-16.9999 8.9145 -10.422
-15.472 4.63658 -8.3327
-13.9442 0.358651 -6.24343
-12.4164 -3.91927 -4.15417
-18.4019 11.0353 -17.0202
-16.874 6.75733 -14.9309
-15.3462 2.47942 -12.8417
-13.8184 -1.79852 -10.7524
-12.2906 -6.07644 -8.66313
-10.8096 0.950091 10.1946
-5.92406 0.0498641 10.7616
-1.03856 -0.850369 11.3286
3.84691 -1.75058 11.8956
8.73246 -2.65086 12.4627
-10.6837 -1.20708 5.68563
-5.79824 -2.1073 6.25265
-0.91274 -3.00754 6.81966
3.97274 -3.90775 7.38667
8.85829 -4.80803 7.95371
-10.5579 -3.36424 1.17666
-5.67242 -4.26447 1.74368
-0.786917 -5.1647 2.31069
4.09856 -6.06492 2.8777
8.98411 -6.96519 3.44474
-10.4321 -5.52141 -3.33231
-5.54659 -6.42164 -2.76529
-0.661094 -7.32187 -2.19828
4.22438 -8.22208 -1.63127
9.10993 -9.12236 -1.06423
-10.3063 -7.67857 -7.84128
-5.42077 -8.5788 -7.27426
-0.535271 -9.47904 -6.70724
4.35021 -10.3793 -6.14024
9.23576 -11.2795 -5.5732
