ply
format ascii 1.0
element vertex 14
property float x
property float y
property float z
end_header
-0.876695 -0.417098 -0.239657
-0.920604 -0.296568 -0.254038
-0.926999 -0.269685 -0.260656
-0.952371 -0.146831 -0.267263
0.172811 0.947691 0.268363
-0.0483661 0.962103 0.268363
0.170849 0.919085 -0.355097
-0.0500674 0.932264 -0.358297
0.941824 0.013978 0.335815
0.92947 0.161825 0.33151
0.99898 0.0125451 0.0433659
0.986286 0.160139 0.0399442
-0.539375 -0.80524 0.246301
-0.493806 -0.838997 0.228558
