ply
format ascii 1.0
element vertex 45
property float x
property float y
property float z
end_header
-10 -10 -10
-10 -10 -8
-10 -10 -6
-10 -10 -4
-10 -10 -2
-10 -10 0
-10 -10 2
-10 -10 4
-10 -10 6
-10 -10 8
-10 -10 10
-10 -8 -10
-10 -8 -8
-10 -8 -6
-10 -8 -4
-10 -8 -2
-10 -8 0
-10 -8 2
-10 -8 4
-10 -8 6
-10 -8 8
-10 -8 10
-10 -6 -10
-10 -6 -8
-10 -6 -6
-10 -6 -4
-10 -6 -2
-10 -6 0
-10 -6 2
-10 -6 4
-10 -6 6
-10 -6 8
-10 -6 10
-10 -4 -10
-10 -4 -8
-10 -4 -6
-10 -4 -4
-10 -4 -2
-10 -4 0
-10 -4 2
-10 -4 4
-10 -4 6
-10 -4 8
-10 -4 10
-10 -2 -10
