ply
format ascii 1.0
element vertex 1333
property float x
property float y
property float z
element edge 1
property int vertex1
property int vertex2
end_header
0 0 0
-0.52648 -0.52648 -0.52648
-15.5484 1.1223 -10.4805
-15.3287 0.89315 -8.50586
-15.1091 0.663995 -6.53121
-14.8894 0.43484 -4.55656
-14.6698 0.205686 -2.58192
-14.4501 -0.0234693 -0.607267
-14.2304 -0.252624 1.36738
-14.0108 -0.481779 3.34203
-13.7911 -0.710934 5.31668
-13.5715 -0.940089 7.29133
-13.3518 -1.16924 9.26598
-14.3489 2.72184 -10.4283
-14.1293 2.49269 -8.45367
-13.9096 2.26353 -6.47902
-13.6899 2.03438 -4.50437
-13.4703 1.80522 -2.52972
-13.2506 1.57607 -0.555075
-13.031 1.34691 1.41957
-12.8113 1.11776 3.39422
-12.5916 0.888602 5.36887
-12.372 0.659447 7.34352
-12.1523 0.430292 9.31817
-13.1494 4.32138 -10.3761
-12.9298 4.09222 -8.40148
-12.7101 3.86307 -6.42683
-12.4905 3.63391 -4.45218
-12.2708 3.40476 -2.47753
-12.0511 3.1756 -0.502883
-11.8315 2.94645 1.47177
-11.6118 2.71729 3.44641
-11.3921 2.48814 5.42106
-11.1725 2.25898 7.39571
-10.9528 2.02983 9.37036
-11.95 5.92091 -10.3239
-11.7303 5.69176 -8.34928
-11.5106 5.4626 -6.37464
-11.291 5.23345 -4.39999
-11.0713 5.00429 -2.42534
-10.8517 4.77514 -0.450691
-10.632 4.54598 1.52396
-10.4123 4.31683 3.49861
-10.1927 4.08767 5.47325
-9.973 3.85852 7.4479
-9.75334 3.62936 9.42255
-10.7505 7.52045 -10.2717
-10.5308 7.29129 -8.29709
-10.3112 7.06214 -6.32244
-10.0915 6.83298 -4.3478
-9.87183 6.60383 -2.37315
-9.65217 6.37467 -0.398499
-9.43251 6.14552 1.57615
-9.21284 5.91636 3.5508
-8.99318 5.68721 5.52545
-8.77352 5.45806 7.5001
-8.55386 5.2289 9.47474
-9.55099 9.11998 -10.2195
-9.33133 8.89083 -8.2449
-9.11167 8.66167 -6.27025
-8.89201 8.43252 -4.2956
-8.67235 8.20337 -2.32096
-8.45268 7.97421 -0.346307
-8.23302 7.74506 1.62834
-8.01336 7.5159 3.60299
-7.7937 7.28675 5.57764
-7.57404 7.05759 7.55229
-7.35438 6.82844 9.52694
-8.35151 10.7195 -10.1674
-8.13185 10.4904 -8.19271
-7.91218 10.2612 -6.21806
-7.69252 10.0321 -4.24341
-7.47286 9.8029 -2.26876
-7.2532 9.57375 -0.294115
-7.03354 9.34459 1.68053
-6.81388 9.11544 3.65518
-6.59422 8.88628 5.62983
-6.37455 8.65713 7.60448
-6.15489 8.42797 9.57913
-7.15202 12.3191 -10.1152
-6.93236 12.0899 -8.14052
-6.7127 11.8607 -6.16587
-6.49304 11.6316 -4.19122
-6.27338 11.4024 -2.21657
-6.05372 11.1733 -0.241923
-5.83405 10.9441 1.73273
-5.61439 10.715 3.70737
-5.39473 10.4858 5.68202
-5.17507 10.2567 7.65667
-4.95541 10.0275 9.63132
-5.95254 13.9186 -10.063
-5.73288 13.6894 -8.08832
-5.51322 13.4603 -6.11368
-5.29356 13.2311 -4.13903
-5.07389 13.002 -2.16438
-4.85423 12.7728 -0.189731
-4.63457 12.5437 1.78492
-4.41491 12.3145 3.75957
-4.19525 12.0854 5.73422
-3.97559 11.8562 7.70886
-3.75593 11.627 9.68351
-4.75306 15.5181 -10.0108
-4.5334 15.289 -8.03613
-4.31373 15.0598 -6.06148
-4.09407 14.8307 -4.08684
-3.87441 14.6015 -2.11219
-3.65475 14.3724 -0.137538
-3.43509 14.1432 1.83711
-3.21543 13.914 3.81176
-2.99576 13.6849 5.78641
-2.7761 13.4557 7.76106
-2.55644 13.2266 9.7357
-3.55357 17.1177 -9.95859
-3.33391 16.8885 -7.98394
-3.11425 16.6594 -6.00929
-2.89459 16.4302 -4.03464
-2.67493 16.201 -2.05999
-2.45527 15.9719 -0.0853464
-2.2356 15.7427 1.8893
-2.01594 15.5136 3.86395
-1.79628 15.2844 5.8386
-1.57662 15.0553 7.81325
-1.35696 14.8261 9.7879
-13.9632 -0.056242 -10.7936
-13.7435 -0.285397 -8.81897
-13.5238 -0.514552 -6.84432
-13.3042 -0.743707 -4.86968
-13.0845 -0.972861 -2.89503
-12.8649 -1.20202 -0.920379
-12.6452 -1.43117 1.05427
-12.4255 -1.66033 3.02892
-12.2059 -1.88948 5.00357
-11.9862 -2.11864 6.97822
-11.7666 -2.34779 8.95286
-12.7637 1.54329 -10.7414
-12.544 1.31414 -8.76678
-12.3244 1.08498 -6.79213
-12.1047 0.855829 -4.81748
-11.885 0.626675 -2.84284
-11.6654 0.39752 -0.868187
-11.4457 0.168365 1.10646
-11.2261 -0.0607899 3.08111
-11.0064 -0.289945 5.05576
-10.7867 -0.5191 7.03041
-10.5671 -0.748254 9.00506
-11.5642 3.14283 -10.6892
-11.3445 2.91368 -8.71459
-11.1249 2.68452 -6.73994
-10.9052 2.45537 -4.76529
-10.6856 2.22621 -2.79064
-10.4659 1.99706 -0.815995
-10.2462 1.7679 1.15865
-10.0266 1.53875 3.1333
-9.80691 1.30959 5.10795
-9.58725 1.08044 7.0826
-9.36759 0.851282 9.05725
-10.3647 4.74237 -10.637
-10.1451 4.51321 -8.6624
-9.92539 4.28406 -6.68775
-9.70573 4.0549 -4.7131
-9.48607 3.82575 -2.73845
-9.26641 3.59659 -0.763803
-9.04675 3.36744 1.21085
-8.82709 3.13828 3.18549
-8.60743 2.90913 5.16014
-8.38776 2.67997 7.13479
-8.1681 2.45082 9.10944
-9.16523 6.3419 -10.5849
-8.94557 6.11275 -8.6102
-8.72591 5.88359 -6.63556
-8.50625 5.65444 -4.66091
-8.28659 5.42528 -2.68626
-8.06693 5.19613 -0.711611
-7.84726 4.96697 1.26304
-7.6276 4.73782 3.23769
-7.40794 4.50866 5.21233
-7.18828 4.27951 7.18698
-6.96862 4.05035 9.16163
-7.96575 7.94144 -10.5327
-7.74609 7.71228 -8.55801
-7.52643 7.48313 -6.58336
-7.30677 7.25397 -4.60872
-7.0871 7.02482 -2.63407
-6.86744 6.79566 -0.659419
-6.64778 6.56651 1.31523
-6.42812 6.33735 3.28988
-6.20846 6.1082 5.26453
-5.9888 5.87904 7.23918
-5.76914 5.64989 9.21382
-6.76627 9.54097 -10.4805
-6.54661 9.31182 -8.50582
-6.32694 9.08266 -6.53117
-6.10728 8.85351 -4.55652
-5.88762 8.62435 -2.58188
-5.66796 8.3952 -0.607227
-5.4483 8.16604 1.36742
-5.22864 7.93689 3.34207
-5.00897 7.70774 5.31672
-4.78931 7.47858 7.29137
-4.56965 7.24943 9.26602
-5.56678 11.1405 -10.4283
-5.34712 10.9114 -8.45363
-5.12746 10.6822 -6.47898
-4.9078 10.453 -4.50433
-4.68814 10.2239 -2.52968
-4.46848 9.99474 -0.555035
-4.24881 9.76558 1.41961
-4.02915 9.53643 3.39426
-3.80949 9.30727 5.36891
-3.58983 9.07812 7.34356
-3.37017 8.84896 9.31821
-4.3673 12.74 -10.3761
-4.14764 12.5109 -8.40144
-3.92798 12.2817 -6.42679
-3.70832 12.0526 -4.45214
-3.48865 11.8234 -2.47749
-3.26899 11.5943 -0.502843
-3.04933 11.3651 1.47181
-2.82967 11.136 3.44645
-2.61001 10.9068 5.4211
-2.39035 10.6777 7.39575
-2.17068 10.4485 9.3704
-3.16782 14.3396 -10.3239
-2.94816 14.1104 -8.34924
-2.72849 13.8813 -6.3746
-2.50883 13.6521 -4.39995
-2.28917 13.423 -2.4253
-2.06951 13.1938 -0.45065
-1.84985 12.9647 1.524
-1.63019 12.7355 3.49865
-1.41052 12.5063 5.4733
-1.19086 12.2772 7.44794
-0.971201 12.048 9.42259
-1.96833 15.9391 -10.2717
-1.74867 15.71 -8.29705
-1.52901 15.4808 -6.3224
-1.30935 15.2517 -4.34776
-1.08969 15.0225 -2.37311
-0.870025 14.7933 -0.398458
-0.650364 14.5642 1.57619
-0.430702 14.335 3.55084
-0.211041 14.1059 5.52549
0.00862102 13.8767 7.50014
0.228283 13.6476 9.47478
-12.3779 -1.23479 -11.1067
-12.1583 -1.46394 -9.13209
-11.9386 -1.6931 -7.15744
-11.7189 -1.92225 -5.18279
-11.4993 -2.15141 -3.20814
-11.2796 -2.38056 -1.23349
-11.06 -2.60972 0.741158
-10.8403 -2.83887 2.71581
-10.6206 -3.06803 4.69045
-10.401 -3.29718 6.6651
-10.1813 -3.52634 8.63975
-11.1784 0.364747 -11.0545
-10.9588 0.135592 -9.07989
-10.7391 -0.0935626 -7.10524
-10.5195 -0.322717 -5.1306
-10.2998 -0.551872 -3.15595
-10.0801 -0.781027 -1.1813
-9.86047 -1.01018 0.79335
-9.64081 -1.23934 2.768
-9.42115 -1.46849 4.74265
-9.20149 -1.69765 6.7173
-8.98183 -1.9268 8.69194
-9.97896 1.96428 -11.0023
-9.7593 1.73513 -9.0277
-9.53964 1.50597 -7.05305
-9.31998 1.27682 -5.0784
-9.10031 1.04766 -3.10376
-8.88065 0.818509 -1.12911
-8.66099 0.589354 0.845542
-8.44133 0.360199 2.82019
-8.22167 0.131044 4.79484
-8.00201 -0.0981105 6.76949
-7.78234 -0.327265 8.74414
-8.77948 3.56382 -10.9502
-8.55982 3.33466 -8.97551
-8.34015 3.10551 -7.00086
-8.12049 2.87635 -5.02621
-7.90083 2.6472 -3.05156
-7.68117 2.41804 -1.07691
-7.46151 2.18889 0.897734
-7.24185 1.95974 2.87238
-7.02218 1.73058 4.84703
-6.80252 1.50143 6.82168
-6.58286 1.27227 8.79633
-7.57999 5.16335 -10.898
-7.36033 4.9342 -8.92332
-7.14067 4.70505 -6.94867
-6.92101 4.47589 -4.97402
-6.70135 4.24674 -2.99937
-6.48169 4.01758 -1.02472
-6.26202 3.78843 0.949926
-6.04236 3.55927 2.92457
-5.8227 3.33012 4.89922
-5.60304 3.10096 6.87387
-5.38338 2.87181 8.84852
-6.38051 6.76289 -10.8458
-6.16085 6.53374 -8.87112
-5.94119 6.30458 -6.89648
-5.72153 6.07543 -4.92183
-5.50186 5.84627 -2.94718
-5.2822 5.61712 -0.972531
-5.06254 5.38796 1.00212
-4.84288 5.15881 2.97677
-4.62322 4.92965 4.95141
-4.40356 4.7005 6.92606
-4.18389 4.47134 8.90071
-5.18103 8.36243 -10.7936
-4.96137 8.13327 -8.81893
-4.7417 7.90412 -6.84428
-4.52204 7.67496 -4.86964
-4.30238 7.44581 -2.89499
-4.08272 7.21665 -0.920339
-3.86306 6.9875 1.05431
-3.6434 6.75834 3.02896
-3.42373 6.52919 5.00361
-3.20407 6.30003 6.97826
-2.98441 6.07088 8.9529
-3.98154 9.96196 -10.7414
-3.76188 9.73281 -8.76674
-3.54222 9.50365 -6.79209
-3.32256 9.2745 -4.81744
-3.1029 9.04534 -2.8428
-2.88324 8.81619 -0.868147
-2.66357 8.58703 1.1065
-2.44391 8.35788 3.08115
-2.22425 8.12872 5.0558
-2.00459 7.89957 7.03045
-1.78493 7.67041 9.0051
-2.78206 11.5615 -10.6892
-2.5624 11.3323 -8.71455
-2.34274 11.1032 -6.7399
-2.12307 10.874 -4.76525
-1.90341 10.6449 -2.7906
-1.68375 10.4157 -0.815955
-1.46409 10.1866 1.15869
-1.24443 9.95741 3.13334
-1.02477 9.72826 5.10799
-0.805105 9.49911 7.08264
-0.585444 9.26995 9.05729
-1.58258 13.161 -10.637
-1.36291 12.9319 -8.66236
-1.14325 12.7027 -6.68771
-0.923591 12.4736 -4.71306
-0.70393 12.2444 -2.73841
-0.484268 12.0153 -0.763763
-0.264607 11.7861 1.21089
-0.044945 11.557 3.18553
0.174717 11.3278 5.16018
0.394378 11.0986 7.13483
0.61404 10.8695 9.10948
-0.383093 14.7606 -10.5848
-0.163431 14.5314 -8.61016
0.0562306 14.3023 -6.63552
0.275892 14.0731 -4.66087
0.495554 13.844 -2.68622
0.715215 13.6148 -0.71157
0.934877 13.3856 1.26308
1.15454 13.1565 3.23773
1.3742 12.9273 5.21238
1.59386 12.6982 7.18702
1.81352 12.469 9.16167
-10.7927 -2.41334 -11.4198
-10.573 -2.64249 -9.4452
-10.3534 -2.87165 -7.47055
-10.1337 -3.1008 -5.4959
-9.91404 -3.32996 -3.52125
-9.69438 -3.55911 -1.5466
-9.47472 -3.78826 0.428046
-9.25506 -4.01742 2.40269
-9.03539 -4.24657 4.37734
-8.81573 -4.47573 6.35199
-8.59607 -4.70488 8.32664
-9.5932 -0.8138 -11.3677
-9.37354 -1.04295 -9.39301
-9.15388 -1.27211 -7.41836
-8.93422 -1.50126 -5.44371
-8.71456 -1.73042 -3.46906
-8.4949 -1.95957 -1.49441
-8.27523 -2.18873 0.480238
-8.05557 -2.41788 2.45489
-7.83591 -2.64704 4.42953
-7.61625 -2.87619 6.40418
-7.39659 -3.10535 8.37883
-8.39372 0.785736 -11.3155
-8.17406 0.556581 -9.34081
-7.9544 0.327426 -7.36616
-7.73474 0.0982716 -5.39152
-7.51507 -0.130883 -3.41687
-7.29541 -0.360038 -1.44222
-7.07575 -0.589193 0.53243
-6.85609 -0.818348 2.50708
-6.63643 -1.0475 4.48173
-6.41677 -1.27666 6.45638
-6.1971 -1.50581 8.43102
-7.19424 2.38527 -11.2633
-6.97457 2.15612 -9.28862
-6.75491 1.92696 -7.31397
-6.53525 1.69781 -5.33932
-6.31559 1.46865 -3.36468
-6.09593 1.2395 -1.39003
-5.87627 1.01034 0.584622
-5.65661 0.781188 2.55927
-5.43694 0.552033 4.53392
-5.21728 0.322879 6.50857
-4.99762 0.0937237 8.48322
-5.99475 3.98481 -11.2111
-5.77509 3.75565 -9.23643
-5.55543 3.5265 -7.26178
-5.33577 3.29734 -5.28713
-5.11611 3.06819 -3.31248
-4.89645 2.83903 -1.33783
-4.67678 2.60988 0.636814
-4.45712 2.38072 2.61146
-4.23746 2.15157 4.58611
-4.0178 1.92241 6.56076
-3.79814 1.69326 8.53541
-4.79527 5.58434 -11.1589
-4.57561 5.35519 -9.18424
-4.35595 5.12603 -7.20959
-4.13628 4.89688 -5.23494
-3.91662 4.66772 -3.26029
-3.69696 4.43857 -1.28564
-3.4773 4.20941 0.689006
-3.25764 3.98026 2.66365
-3.03798 3.75111 4.6383
-2.81832 3.52195 6.61295
-2.59865 3.2928 8.5876
-3.59579 7.18388 -11.1067
-3.37612 6.95473 -9.13204
-3.15646 6.72557 -7.1574
-2.9368 6.49642 -5.18275
-2.71714 6.26726 -3.2081
-2.49748 6.03811 -1.23345
-2.27782 5.80895 0.741198
-2.05815 5.5798 2.71585
-1.83849 5.35064 4.69049
-1.61883 5.12149 6.66514
-1.39917 4.89233 8.63979
-2.3963 8.78342 -11.0545
-2.17664 8.55426 -9.07985
-1.95698 8.32511 -7.1052
-1.73732 8.09595 -5.13056
-1.51766 7.8668 -3.15591
-1.29799 7.63764 -1.18126
-1.07833 7.40849 0.79339
-0.858671 7.17933 2.76804
-0.63901 6.95018 4.74269
-0.419348 6.72102 6.71734
-0.199687 6.49187 8.69198
-1.19682 10.383 -11.0023
-0.977157 10.1538 -9.02766
-0.757496 9.92464 -7.05301
-0.537834 9.69549 -5.07836
-0.318173 9.46633 -3.10372
-0.098511 9.23718 -1.12907
0.121151 9.00802 0.845582
0.340812 8.77887 2.82023
0.560474 8.54971 4.79488
0.780135 8.32056 6.76953
0.999797 8.0914 8.74418
0.00266465 11.9825 -10.9501
0.222326 11.7533 -8.97547
0.441988 11.5242 -7.00082
0.661649 11.295 -5.02617
0.881311 11.0659 -3.05152
1.10097 10.8367 -1.07687
1.32063 10.6076 0.897774
1.5403 10.3784 2.87242
1.75996 10.1492 4.84707
1.97962 9.92009 6.82172
2.19928 9.69094 8.79637
1.20215 13.582 -10.8979
1.42181 13.3529 -8.92328
1.64147 13.1237 -6.94863
1.86113 12.8946 -4.97398
2.08079 12.6654 -2.99933
2.30046 12.4362 -1.02468
2.52012 12.2071 0.949966
2.73978 11.9779 2.92461
2.95944 11.7488 4.89926
3.1791 11.5196 6.87391
3.39876 11.2905 8.84856
-9.20745 -3.59188 -11.733
-8.98778 -3.82104 -9.75831
-8.76812 -4.05019 -7.78366
-8.54846 -4.27935 -5.80901
-8.3288 -4.5085 -3.83436
-8.10914 -4.73766 -1.85971
-7.88948 -4.96681 0.114934
-7.66982 -5.19597 2.08958
-7.45015 -5.42512 4.06423
-7.23049 -5.65428 6.03888
-7.01083 -5.88343 8.01353
-8.00796 -1.99235 -11.6808
-7.7883 -2.2215 -9.70612
-7.56864 -2.45066 -7.73147
-7.34898 -2.67981 -5.75682
-7.12932 -2.90897 -3.78217
-6.90965 -3.13812 -1.80752
-6.68999 -3.36728 0.167126
-6.47033 -3.59643 2.14177
-6.25067 -3.82559 4.11642
-6.03101 -4.05474 6.09107
-5.81135 -4.2839 8.06572
-6.80848 -0.392811 -11.6286
-6.58882 -0.621966 -9.65393
-6.36916 -0.85112 -7.67928
-6.14949 -1.08028 -5.70463
-5.92983 -1.30943 -3.72998
-5.71017 -1.53858 -1.75533
-5.49051 -1.76774 0.219318
-5.27085 -1.99689 2.19397
-5.05119 -2.22605 4.16861
-4.83153 -2.4552 6.14326
-4.61186 -2.68436 8.11791
-5.609 1.20673 -11.5764
-5.38933 0.97757 -9.60173
-5.16967 0.748415 -7.62708
-4.95001 0.519261 -5.65244
-4.73035 0.290106 -3.67779
-4.51069 0.060951 -1.70314
-4.29103 -0.168204 0.27151
-4.07136 -0.397359 2.24616
-3.8517 -0.626514 4.22081
-3.63204 -0.855668 6.19546
-3.41238 -1.08482 8.1701
-4.40951 2.80626 -11.5242
-4.18985 2.57711 -9.54954
-3.97019 2.34795 -7.57489
-3.75053 2.1188 -5.60024
-3.53087 1.88964 -3.6256
-3.3112 1.66049 -1.65095
-3.09154 1.43133 0.323702
-2.87188 1.20218 2.29835
-2.65222 0.973022 4.273
-2.43256 0.743868 6.24765
-2.2129 0.514713 8.2223
-3.21003 4.4058 -11.472
-2.99037 4.17664 -9.49735
-2.77071 3.94749 -7.5227
-2.55104 3.71833 -5.54805
-2.33138 3.48918 -3.5734
-2.11172 3.26002 -1.59875
-1.89206 3.03087 0.375894
-1.6724 2.80171 2.35054
-1.45274 2.57256 4.32519
-1.23307 2.3434 6.29984
-1.01341 2.11425 8.27449
-2.01055 6.00533 -11.4198
-1.79088 5.77618 -9.44516
-1.57122 5.54702 -7.47051
-1.35156 5.31787 -5.49586
-1.1319 5.08871 -3.52121
-0.912237 4.85956 -1.54656
-0.692576 4.6304 0.428086
-0.472914 4.40125 2.40273
-0.253253 4.17209 4.37738
-0.033591 3.94294 6.35203
0.186071 3.71378 8.32668
-0.811062 7.60487 -11.3676
-0.5914 7.37571 -9.39296
-0.371739 7.14656 -7.41832
-0.152077 6.9174 -5.44367
0.0675846 6.68825 -3.46902
0.287246 6.45909 -1.49437
0.506908 6.22994 0.480278
0.726569 6.00079 2.45493
0.946231 5.77163 4.42957
1.16589 5.54248 6.40422
1.38555 5.31332 8.37887
0.388422 9.2044 -11.3154
0.608083 8.97525 -9.34077
0.827745 8.7461 -7.36612
1.04741 8.51694 -5.39148
1.26707 8.28779 -3.41683
1.48673 8.05863 -1.44218
1.70639 7.82948 0.53247
1.92605 7.60032 2.50712
2.14571 7.37117 4.48177
2.36538 7.14201 6.45642
2.58504 6.91286 8.43106
1.58791 10.8039 -11.2632
1.80757 10.5748 -9.28858
2.02723 10.3456 -7.31393
2.24689 10.1165 -5.33928
2.46655 9.88732 -3.36464
2.68621 9.65817 -1.38999
2.90587 9.42901 0.584662
3.12554 9.19986 2.55931
3.3452 8.9707 4.53396
3.56486 8.74155 6.50861
3.78452 8.51239 8.48326
2.78739 12.4035 -11.211
3.00705 12.1743 -9.23639
3.22671 11.9452 -7.26174
3.44637 11.716 -5.28709
3.66604 11.4869 -3.31244
3.8857 11.2577 -1.33779
4.10536 11.0285 0.636854
4.32502 10.7994 2.6115
4.54468 10.5702 4.58615
4.76434 10.3411 6.5608
4.984 10.1119 8.53545
-7.62221 -4.77043 -12.0461
-7.40254 -4.99958 -10.0714
-7.18288 -5.22874 -8.09677
-6.96322 -5.45789 -6.12212
-6.74356 -5.68705 -4.14748
-6.5239 -5.9162 -2.17283
-6.30424 -6.14536 -0.198178
-6.08457 -6.37451 1.77647
-5.86491 -6.60367 3.75112
-5.64525 -6.83282 5.72577
-5.42559 -7.06198 7.70042
-6.42272 -3.17089 -11.9939
-6.20306 -3.40005 -10.0192
-5.9834 -3.6292 -8.04458
-5.76374 -3.85836 -6.06993
-5.54408 -4.08751 -4.09528
-5.32441 -4.31667 -2.12063
-5.10475 -4.54582 -0.145986
-4.88509 -4.77498 1.82866
-4.66543 -5.00413 3.80331
-4.44577 -5.23329 5.77796
-4.22611 -5.46244 7.75261
-5.22324 -1.57136 -11.9417
-5.00358 -1.80051 -9.96704
-4.78392 -2.02967 -7.99239
-4.56425 -2.25882 -6.01774
-4.34459 -2.48798 -4.04309
-4.12493 -2.71713 -2.06844
-3.90527 -2.94629 -0.0937944
-3.68561 -3.17544 1.88085
-3.46595 -3.4046 3.8555
-3.24628 -3.63375 5.83015
-3.02662 -3.86291 7.8048
-4.02376 0.0281782 -11.8895
-3.80409 -0.200977 -9.91485
-3.58443 -0.430131 -7.9402
-3.36477 -0.659286 -5.96555
-3.14511 -0.888441 -3.9909
-2.92545 -1.1176 -2.01625
-2.70579 -1.34675 -0.0416023
-2.48612 -1.57591 1.93305
-2.26646 -1.80506 3.90769
-2.0468 -2.03422 5.88234
-1.82714 -2.26337 7.85699
-2.82427 1.62771 -11.8373
-2.60461 1.39856 -9.86265
-2.38495 1.1694 -7.888
-2.16529 0.94025 -5.91336
-1.94563 0.711095 -3.93871
-1.72596 0.48194 -1.96406
-1.5063 0.252785 0.0105897
-1.28664 0.0236303 1.98524
-1.06698 -0.205524 3.95989
-0.847317 -0.434679 5.93454
-0.627656 -0.663834 7.90918
-1.62479 3.22725 -11.7851
-1.40513 2.9981 -9.81046
-1.18546 2.76894 -7.83581
-0.965803 2.53979 -5.86116
-0.746142 2.31063 -3.88652
-0.52648 2.08148 -1.91187
-0.306819 1.85232 0.0627818
-0.087157 1.62317 2.03743
0.132505 1.39401 4.01208
0.352166 1.16486 5.98673
0.571828 0.935702 7.96138
-0.425305 4.82679 -11.7329
-0.205643 4.59763 -9.75827
0.0140186 4.36848 -7.78362
0.23368 4.13932 -5.80897
0.453342 3.91017 -3.83432
0.673003 3.68101 -1.85967
0.892665 3.45186 0.114974
1.11233 3.2227 2.08962
1.33199 2.99355 4.06427
1.55165 2.76439 6.03892
1.77131 2.53524 8.01357
0.774179 6.42632 -11.6807
0.993841 6.19717 -9.70608
1.2135 5.96801 -7.73143
1.43316 5.73886 -5.75678
1.65283 5.5097 -3.78213
1.87249 5.28055 -1.80748
2.09215 5.05139 0.167166
2.31181 4.82224 2.14181
2.53147 4.59308 4.11646
2.75113 4.36393 6.09111
2.97079 4.13477 8.06576
1.97366 8.02586 -11.6285
2.19332 7.7967 -9.65388
2.41299 7.56755 -7.67924
2.63265 7.33839 -5.70459
2.85231 7.10924 -3.72994
3.07197 6.88008 -1.75529
3.29163 6.65093 0.219358
3.51129 6.42177 2.19401
3.73096 6.19262 4.16865
3.95062 5.96346 6.1433
4.17028 5.73431 8.11795
3.17315 9.62539 -11.5763
3.39281 9.39624 -9.60169
3.61247 9.16708 -7.62704
3.83213 8.93793 -5.6524
4.05179 8.70877 -3.67775
4.27145 8.47962 -1.7031
4.49112 8.25046 0.27155
4.71078 8.02131 2.2462
4.93044 7.79216 4.22085
5.1501 7.563 6.1955
5.36976 7.33385 8.17014
4.37263 11.2249 -11.5241
4.59229 10.9958 -9.5495
4.81195 10.7666 -7.57485
5.03161 10.5375 -5.6002
5.25128 10.3083 -3.62556
5.47094 10.0792 -1.65091
5.6906 9.85 0.323742
5.91026 9.62085 2.29839
6.12992 9.39169 4.27304
6.34958 9.16254 6.24769
6.56925 8.93338 8.22234
-6.03696 -5.94898 -12.3592
-5.8173 -6.17813 -10.3845
-5.59764 -6.40729 -8.40988
-5.37798 -6.63644 -6.43524
-5.15832 -6.8656 -4.46059
-4.93866 -7.09475 -2.48594
-4.719 -7.32391 -0.51129
-4.49933 -7.55306 1.46336
-4.27967 -7.78222 3.43801
-4.06001 -8.01137 5.41266
-3.84035 -8.24052 7.3873
-4.83748 -4.34944 -12.307
-4.61782 -4.5786 -10.3323
-4.39816 -4.80775 -8.35769
-4.1785 -5.03691 -6.38304
-3.95884 -5.26606 -4.4084
-3.73917 -5.49521 -2.43375
-3.51951 -5.72437 -0.459098
-3.29985 -5.95352 1.51555
-3.08019 -6.18268 3.4902
-2.86053 -6.41183 5.46485
-2.64087 -6.64099 7.4395
-3.638 -2.7499 -12.2548
-3.41834 -2.97906 -10.2801
-3.19867 -3.20821 -8.3055
-2.97901 -3.43737 -6.33085
-2.75935 -3.66652 -4.3562
-2.53969 -3.89568 -2.38155
-2.32003 -4.12483 -0.406906
-2.10037 -4.35399 1.56774
-1.88071 -4.58314 3.54239
-1.66104 -4.8123 5.51704
-1.44138 -5.04145 7.49169
-2.43851 -1.15037 -12.2026
-2.21885 -1.37952 -10.228
-1.99919 -1.60868 -8.25331
-1.77953 -1.83783 -6.27866
-1.55987 -2.06699 -4.30401
-1.34021 -2.29614 -2.32936
-1.12054 -2.5253 -0.354714
-0.900883 -2.75445 1.61993
-0.681222 -2.98361 3.59458
-0.46156 -3.21276 5.56923
-0.241899 -3.44192 7.54388
-1.23903 0.449167 -12.1504
-1.01937 0.220012 -10.1758
-0.799708 -0.00914238 -8.20112
-0.580046 -0.238297 -6.22647
-0.360385 -0.467452 -4.25182
-0.140723 -0.696607 -2.27717
0.0789386 -0.925762 -0.302522
0.2986 -1.15492 1.67213
0.518262 -1.38407 3.64677
0.737923 -1.61323 5.62142
0.957585 -1.84238 7.59607
-0.0395474 2.0487 -12.0982
0.180114 1.81955 -10.1236
0.399776 1.59039 -8.14892
0.619437 1.36124 -6.17428
0.839099 1.13208 -4.19963
1.05876 0.902929 -2.22498
1.27842 0.673774 -0.25033
1.49808 0.444619 1.72432
1.71775 0.215465 3.69897
1.93741 -0.0136903 5.67362
2.15707 -0.242845 7.64826
1.15994 3.64824 -12.046
1.3796 3.41908 -10.0714
1.59926 3.18993 -8.09673
1.81892 2.96077 -6.12208
2.03858 2.73162 -4.14744
2.25824 2.50247 -2.17279
2.47791 2.27331 -0.198138
2.69757 2.04416 1.77651
2.91723 1.815 3.75116
3.13689 1.58585 5.72581
3.35655 1.35669 7.70046
2.35942 5.24778 -11.9938
2.57908 5.01862 -10.0192
2.79874 4.78947 -8.04454
3.0184 4.56031 -6.06989
3.23807 4.33116 -4.09524
3.45773 4.102 -2.12059
3.67739 3.87285 -0.145946
3.89705 3.64369 1.8287
4.11671 3.41454 3.80335
4.33637 3.18538 5.778
4.55604 2.95623 7.75265
3.5589 6.84731 -11.9416
3.77856 6.61816 -9.967
3.99823 6.389 -7.99235
4.21789 6.15985 -6.0177
4.43755 5.93069 -4.04305
4.65721 5.70154 -2.0684
4.87687 5.47238 -0.0937541
5.09653 5.24323 1.88089
5.3162 5.01407 3.85554
5.53586 4.78492 5.83019
5.75552 4.55576 7.80484
4.75839 8.44685 -11.8895
4.97805 8.21769 -9.9148
5.19771 7.98854 -7.94016
5.41737 7.75938 -5.96551
5.63703 7.53023 -3.99086
5.85669 7.30107 -2.01621
6.07636 7.07192 -0.0415621
6.29602 6.84276 1.93309
6.51568 6.61361 3.90774
6.73534 6.38445 5.88238
6.955 6.1553 7.85703
5.95787 10.0464 -11.8373
6.17753 9.81723 -9.86261
6.39719 9.58807 -7.88796
6.61686 9.35892 -5.91332
6.83652 9.12976 -3.93867
7.05618 8.90061 -1.96402
7.27584 8.67145 0.01063
7.4955 8.4423 1.98528
7.71516 8.21314 3.95993
7.93482 7.98399 5.93458
8.15449 7.75483 7.90922
-4.45172 -7.12752 -12.6723
-4.23206 -7.35668 -10.6976
-4.0124 -7.58583 -8.723
-3.79274 -7.81499 -6.74835
-3.57308 -8.04414 -4.7737
-3.35342 -8.2733 -2.79905
-3.13375 -8.50245 -0.824403
-2.91409 -8.73161 1.15025
-2.69443 -8.96076 3.12489
-2.47477 -9.18992 5.09954
-2.25511 -9.41907 7.07419
-3.25224 -5.52799 -12.6201
-3.03258 -5.75714 -10.6455
-2.81292 -5.9863 -8.6708
-2.59326 -6.21545 -6.69616
-2.37359 -6.44461 -4.72151
-2.15393 -6.67376 -2.74686
-1.93427 -6.90292 -0.77221
-1.71461 -7.13207 1.20244
-1.49495 -7.36123 3.17709
-1.27529 -7.59038 5.15174
-1.05562 -7.81954 7.12638
-2.05276 -3.92845 -12.5679
-1.8331 -4.15761 -10.5933
-1.61343 -4.38676 -8.61861
-1.39377 -4.61592 -6.64396
-1.17411 -4.84507 -4.66932
-0.954449 -5.07423 -2.69467
-0.734788 -5.30338 -0.720018
-0.515126 -5.53254 1.25463
-0.295465 -5.76169 3.22928
-0.075803 -5.99085 5.20393
0.143859 -6.22 7.17858
-0.853274 -2.32892 -12.5157
-0.633612 -2.55807 -10.5411
-0.413951 -2.78723 -8.56642
-0.194289 -3.01638 -6.59177
0.0253726 -3.24553 -4.61712
0.245034 -3.47469 -2.64247
0.464696 -3.70384 -0.667826
0.684357 -3.933 1.30682
0.904019 -4.16215 3.28147
1.12368 -4.39131 5.25612
1.34334 -4.62046 7.23077
0.34621 -0.72938 -12.4635
0.565871 -0.958534 -10.4889
0.785533 -1.18769 -8.51423
1.00519 -1.41684 -6.53958
1.22486 -1.646 -4.56493
1.44452 -1.87515 -2.59028
1.66418 -2.10431 -0.615634
1.88384 -2.33346 1.35901
2.1035 -2.56262 3.33366
2.32316 -2.79177 5.30831
2.54283 -3.02093 7.28296
1.54569 0.870156 -12.4113
1.76535 0.641002 -10.4367
1.98502 0.411847 -8.46204
2.20468 0.182692 -6.48739
2.42434 -0.046463 -4.51274
2.644 -0.275618 -2.53809
2.86366 -0.504773 -0.563442
3.08332 -0.733928 1.41121
3.30299 -0.963082 3.38585
3.52265 -1.19224 5.3605
3.74231 -1.42139 7.33515
2.74518 2.46969 -12.3591
2.96484 2.24054 -10.3845
3.1845 2.01138 -8.40984
3.40416 1.78223 -6.4352
3.62382 1.55307 -4.46055
3.84348 1.32392 -2.4859
4.06315 1.09476 -0.51125
4.28281 0.865608 1.4634
4.50247 0.636454 3.43805
4.72213 0.407299 5.4127
4.94179 0.178144 7.38734
3.94466 4.06923 -12.3069
4.16432 3.84007 -10.3323
4.38398 3.61092 -8.35765
4.60365 3.38176 -6.383
4.82331 3.15261 -4.40836
5.04297 2.92345 -2.43371
5.26263 2.6943 -0.459058
5.48229 2.46514 1.51559
5.70195 2.23599 3.49024
5.92161 2.00683 5.46489
6.14128 1.77768 7.43954
5.14414 5.66876 -12.2548
5.36381 5.43961 -10.2801
5.58347 5.21045 -8.30546
5.80313 4.9813 -6.33081
6.02279 4.75214 -4.35616
6.24245 4.52299 -2.38151
6.46211 4.29384 -0.406866
6.68177 4.06468 1.56778
6.90144 3.83553 3.54243
7.1211 3.60637 5.51708
7.34076 3.37722 7.49173
6.34363 7.2683 -12.2026
6.56329 7.03915 -10.2279
6.78295 6.80999 -8.25327
7.00261 6.58084 -6.27862
7.22227 6.35168 -4.30397
7.44194 6.12253 -2.32932
7.6616 5.89337 -0.354674
7.88126 5.66422 1.61997
8.10092 5.43506 3.59462
8.32058 5.20591 5.56927
8.54024 4.97675 7.54392
7.54311 8.86784 -12.1504
7.76277 8.63868 -10.1757
7.98243 8.40953 -8.20108
8.2021 8.18037 -6.22643
8.42176 7.95122 -4.25178
8.64142 7.72206 -2.27713
8.86108 7.49291 -0.302482
9.08074 7.26375 1.67217
9.3004 7.0346 3.64682
9.52007 6.80544 5.62146
9.73973 6.57629 7.59611
-2.86648 -8.30607 -12.9854
-2.64682 -8.53523 -11.0108
-2.42716 -8.76438 -9.03611
-2.2075 -8.99353 -7.06146
-1.98784 -9.22269 -5.08681
-1.76818 -9.45184 -3.11216
-1.54851 -9.681 -1.13751
-1.32885 -9.91015 0.837134
-1.10919 -10.1393 2.81178
-0.889529 -10.3685 4.78643
-0.669868 -10.5976 6.76108
-1.667 -6.70653 -12.9332
-1.44734 -6.93569 -10.9586
-1.22768 -7.16484 -8.98392
-1.00802 -7.394 -7.00927
-0.788354 -7.62315 -5.03462
-0.568692 -7.85231 -3.05997
-0.349031 -8.08146 -1.08532
-0.129369 -8.31062 0.889326
0.0902926 -8.53977 2.86397
0.309954 -8.76893 4.83862
0.529616 -8.99808 6.81327
-0.467517 -5.107 -12.881
-0.247855 -5.33615 -10.9064
-0.0281934 -5.56531 -8.93172
0.191468 -5.79446 -6.95708
0.41113 -6.02362 -4.98243
0.630791 -6.25277 -3.00778
0.850453 -6.48193 -1.03313
1.07011 -6.71108 0.941518
1.28978 -6.94024 2.91617
1.50944 -7.16939 4.89082
1.7291 -7.39855 6.86546
0.731967 -3.50746 -12.8288
0.951629 -3.73662 -10.8542
1.17129 -3.96577 -8.87953
1.39095 -4.19493 -6.90488
1.61061 -4.42408 -4.93024
1.83027 -4.65324 -2.95559
2.04994 -4.88239 -0.980938
2.2696 -5.11155 0.99371
2.48926 -5.3407 2.96836
2.70892 -5.56986 4.94301
2.92858 -5.79901 6.91766
1.93145 -1.90793 -12.7766
2.15111 -2.13708 -10.802
2.37077 -2.36624 -8.82734
2.59044 -2.59539 -6.85269
2.8101 -2.82455 -4.87804
3.02976 -3.0537 -2.90339
3.24942 -3.28286 -0.928746
3.46908 -3.51201 1.0459
3.68874 -3.74117 3.02055
3.9084 -3.97032 4.9952
4.12807 -4.19947 6.96985
3.13093 -0.308391 -12.7244
3.3506 -0.537545 -10.7498
3.57026 -0.7667 -8.77515
3.78992 -0.995855 -6.8005
4.00958 -1.22501 -4.82585
4.22924 -1.45416 -2.8512
4.4489 -1.68332 -0.876554
4.66857 -1.91247 1.09809
4.88823 -2.14163 3.07274
5.10789 -2.37078 5.04739
5.32755 -2.59994 7.02204
4.33042 1.29115 -12.6723
4.55008 1.06199 -10.6976
4.76974 0.832836 -8.72296
4.9894 0.603681 -6.74831
5.20906 0.374526 -4.77366
5.42873 0.145371 -2.79901
5.64839 -0.0837836 -0.824362
5.86805 -0.312938 1.15029
6.08771 -0.542093 3.12493
6.30737 -0.771248 5.09958
6.52703 -1.0004 7.07423
5.5299 2.89068 -12.6201
5.74956 2.66153 -10.6454
5.96922 2.43237 -8.67076
6.18889 2.20322 -6.69612
6.40855 1.97406 -4.72147
6.62821 1.74491 -2.74682
6.84787 1.51575 -0.77217
7.06753 1.2866 1.20248
7.28719 1.05744 3.17713
7.50686 0.828288 5.15178
7.72652 0.599133 7.12642
6.72938 4.49022 -12.5679
6.94905 4.26106 -10.5932
7.16871 4.03191 -8.61857
7.38837 3.80275 -6.64392
7.60803 3.5736 -4.66928
7.82769 3.34444 -2.69463
8.04735 3.11529 -0.719978
8.26702 2.88613 1.25467
8.48668 2.65698 3.22932
8.70634 2.42782 5.20397
8.926 2.19867 7.17862
7.92887 6.08975 -12.5157
8.14853 5.8606 -10.541
8.36819 5.63144 -8.56638
8.58785 5.40229 -6.59173
8.80751 5.17313 -4.61708
9.02718 4.94398 -2.64243
9.24684 4.71482 -0.667786
9.4665 4.48567 1.30686
9.68616 4.25651 3.28151
9.90582 4.02736 5.25616
10.1255 3.7982 7.23081
9.12835 7.68929 -12.4635
9.34801 7.46013 -10.4888
9.56767 7.23098 -8.51419
9.78734 7.00182 -6.53954
10.007 6.77267 -4.56489
10.2267 6.54352 -2.59024
10.4463 6.31436 -0.615594
10.666 6.08521 1.35905
10.8856 5.85605 3.3337
11.1053 5.6269 5.30835
11.325 5.39774 7.283
-1.28124 -9.48462 -13.2985
-1.06158 -9.71377 -11.3239
-0.84192 -9.94293 -9.34922
-0.622258 -10.1721 -7.37457
-0.402597 -10.4012 -5.39992
-0.182935 -10.6304 -3.42528
0.0367266 -10.8595 -1.45063
0.256388 -11.0887 0.524022
0.47605 -11.3179 2.49867
0.695711 -11.547 4.47332
0.915373 -11.7762 6.44797
-0.0817594 -7.88508 -13.2463
0.137902 -8.11424 -11.2717
0.357564 -8.34339 -9.29703
0.577225 -8.57255 -7.32238
0.796887 -8.8017 -5.34773
1.01655 -9.03086 -3.37308
1.23621 -9.26001 -1.39843
1.45587 -9.48917 0.576214
1.67553 -9.71832 2.55086
1.89519 -9.94747 4.52551
2.11486 -10.1766 6.50016
1.11772 -6.28555 -13.1941
1.33739 -6.5147 -11.2195
1.55705 -6.74385 -9.24484
1.77671 -6.97301 -7.27019
1.99637 -7.20216 -5.29554
2.21603 -7.43132 -3.32089
2.43569 -7.66047 -1.34624
2.65536 -7.88963 0.628406
2.87502 -8.11878 2.60305
3.09468 -8.34794 4.5777
3.31434 -8.57709 6.55235
2.31721 -4.68601 -13.1419
2.53687 -4.91516 -11.1673
2.75653 -5.14432 -9.19264
2.97619 -5.37347 -7.218
3.19585 -5.60263 -5.24335
3.41552 -5.83178 -3.2687
3.63518 -6.06094 -1.29405
3.85484 -6.29009 0.680598
4.0745 -6.51925 2.65525
4.29416 -6.7484 4.6299
4.51382 -6.97756 6.60454
3.51669 -3.08647 -13.0897
3.73635 -3.31563 -11.1151
3.95601 -3.54478 -9.14045
4.17568 -3.77394 -7.1658
4.39534 -4.00309 -5.19116
4.615 -4.23225 -3.21651
4.83466 -4.4614 -1.24186
5.05432 -4.69056 0.73279
5.27398 -4.91971 2.70744
5.49365 -5.14887 4.68209
5.71331 -5.37802 6.65674
4.71617 -1.48694 -13.0376
4.93584 -1.71609 -11.0629
5.1555 -1.94525 -9.08826
5.37516 -2.1744 -7.11361
5.59482 -2.40356 -5.13896
5.81448 -2.63271 -3.16431
6.03414 -2.86187 -1.18967
6.25381 -3.09102 0.784982
6.47347 -3.32018 2.75963
6.69313 -3.54933 4.73428
6.91279 -3.77849 6.70893
5.91566 0.112598 -12.9854
6.13532 -0.116556 -11.0107
6.35498 -0.345711 -9.03607
6.57464 -0.574866 -7.06142
6.7943 -0.804021 -5.08677
7.01397 -1.03318 -3.11212
7.23363 -1.26233 -1.13747
7.45329 -1.49149 0.837174
7.67295 -1.72064 2.81182
7.89261 -1.9498 4.78647
8.11227 -2.17895 6.76112
7.11514 1.71213 -12.9332
7.3348 1.48298 -10.9585
7.55446 1.25382 -8.98388
7.77413 1.02467 -7.00923
7.99379 0.795515 -5.03458
8.21345 0.56636 -3.05993
8.43311 0.337205 -1.08528
8.65277 0.108051 0.889366
8.87243 -0.121104 2.86401
9.0921 -0.350259 4.83866
9.31176 -0.579414 6.81331
8.31463 3.31167 -12.881
8.53429 3.08252 -10.9063
8.75395 2.85336 -8.93168
8.97361 2.62421 -6.95704
9.19327 2.39505 -4.98239
9.41293 2.1659 -3.00774
9.63259 1.93674 -1.03309
9.85226 1.70759 0.941558
10.0719 1.47843 2.91621
10.2916 1.24928 4.89086
10.5112 1.02012 6.8655
9.51411 4.91121 -12.8288
9.73377 4.68205 -10.8541
9.95343 4.4529 -8.87949
10.1731 4.22374 -6.90484
10.3928 3.99459 -4.9302
10.6124 3.76543 -2.95555
10.8321 3.53628 -0.980898
11.0517 3.30712 0.99375
11.2714 3.07797 2.9684
11.4911 2.84881 4.94305
11.7107 2.61966 6.9177
10.7136 6.51074 -12.7766
10.9333 6.28159 -10.8019
11.1529 6.05243 -8.8273
11.3726 5.82328 -6.85265
11.5922 5.59412 -4.878
11.8119 5.36497 -2.90335
12.0316 5.13581 -0.928706
12.2512 4.90666 1.04594
12.4709 4.6775 3.02059
12.6905 4.44835 4.99524
12.9102 4.21919 6.96989
0.303998 -10.6632 -13.6116
0.523659 -10.8923 -11.637
0.743321 -11.1215 -9.66233
0.962983 -11.3506 -7.68768
1.18264 -11.5798 -5.71304
1.40231 -11.8089 -3.73839
1.62197 -12.0381 -1.76374
1.84163 -12.2672 0.21091
2.06129 -12.4964 2.18556
2.28095 -12.7256 4.16021
2.50061 -12.9547 6.13486
1.50348 -9.06363 -13.5594
1.72314 -9.29278 -11.5848
1.9428 -9.52194 -9.61014
2.16247 -9.75109 -7.63549
2.38213 -9.98025 -5.66084
2.60179 -10.2094 -3.6862
2.82145 -10.4386 -1.71155
3.04111 -10.6677 0.263102
3.26077 -10.8969 2.23775
3.48044 -11.126 4.2124
3.7001 -11.3552 6.18705
2.70296 -7.46409 -13.5072
2.92263 -7.69325 -11.5326
3.14229 -7.9224 -9.55795
3.36195 -8.15156 -7.5833
3.58161 -8.38071 -5.60865
3.80127 -8.60987 -3.634
4.02093 -8.83902 -1.65935
4.2406 -9.06818 0.315294
4.46026 -9.29733 2.28994
4.67992 -9.52649 4.26459
4.89958 -9.75564 6.23924
3.90245 -5.86456 -13.4551
4.12211 -6.09371 -11.4804
4.34177 -6.32287 -9.50576
4.56143 -6.55202 -7.53111
4.78109 -6.78118 -5.55646
5.00076 -7.01033 -3.58181
5.22042 -7.23949 -1.60716
5.44008 -7.46864 0.367486
5.65974 -7.69779 2.34213
5.8794 -7.92695 4.31678
6.09906 -8.1561 6.29143
5.10193 -4.26502 -13.4029
5.32159 -4.49418 -11.4282
5.54126 -4.72333 -9.45356
5.76092 -4.95248 -7.47892
5.98058 -5.18164 -5.50427
6.20024 -5.41079 -3.52962
6.4199 -5.63995 -1.55497
6.63956 -5.8691 0.419678
6.85922 -6.09826 2.39433
7.07889 -6.32741 4.36898
7.29855 -6.55657 6.34362
6.30142 -2.66548 -13.3507
6.52108 -2.89464 -11.376
6.74074 -3.12379 -9.40137
6.9604 -3.35295 -7.42672
7.18006 -3.5821 -5.45208
7.39972 -3.81126 -3.47743
7.61938 -4.04041 -1.50278
7.83905 -4.26957 0.47187
8.05871 -4.49872 2.44652
8.27837 -4.72788 4.42117
8.49803 -4.95703 6.39582
7.5009 -1.06595 -13.2985
7.72056 -1.2951 -11.3238
7.94022 -1.52426 -9.34918
8.15988 -1.75341 -7.37453
8.37955 -1.98257 -5.39988
8.59921 -2.21172 -3.42523
8.81887 -2.44088 -1.45059
9.03853 -2.67003 0.524062
9.25819 -2.89919 2.49871
9.47785 -3.12834 4.47336
9.69751 -3.3575 6.44801
8.70038 0.533588 -13.2463
8.92004 0.304433 -11.2716
9.13971 0.0752779 -9.29699
9.35937 -0.153877 -7.32234
9.57903 -0.383032 -5.34769
9.79869 -0.612187 -3.37304
10.0184 -0.841341 -1.39839
10.238 -1.0705 0.576254
10.4577 -1.29965 2.5509
10.6773 -1.52881 4.52555
10.897 -1.75796 6.5002
9.89987 2.13312 -13.1941
10.1195 1.90397 -11.2194
10.3392 1.67481 -9.2448
10.5589 1.44566 -7.27015
10.7785 1.2165 -5.2955
10.9982 0.987349 -3.32085
11.2178 0.758194 -1.3462
11.4375 0.52904 0.628446
11.6572 0.299885 2.60309
11.8768 0.07073 4.57774
12.0965 -0.158425 6.55239
11.0993 3.73266 -13.1419
11.319 3.5035 -11.1673
11.5387 3.27435 -9.1926
11.7583 3.04519 -7.21796
11.978 2.81604 -5.24331
12.1977 2.58689 -3.26866
12.4173 2.35773 -1.29401
12.637 2.12858 0.680638
12.8566 1.89942 2.65529
13.0763 1.67027 4.62994
13.296 1.44111 6.60458
12.2988 5.3322 -13.0897
12.5185 5.10304 -11.1151
12.7382 4.87389 -9.14041
12.9578 4.64473 -7.16576
13.1775 4.41558 -5.19112
13.3971 4.18642 -3.21647
13.6168 3.95727 -1.24182
13.8365 3.72811 0.73283
14.0561 3.49896 2.70748
14.2758 3.2698 4.68213
14.4954 3.04065 6.65678
1 2
