ply
format ascii 1.0
element vertex 1333
property float x
property float y
property float z
element edge 1
property int vertex1
property int vertex2
end_header
0 0 0
1.59808 1.59808 1.59808
-3.69824 -11.999 -12.2238
-3.52327 -11.8388 -10.2379
-3.3483 -11.6787 -8.25203
-3.17334 -11.5185 -6.26615
-2.99837 -11.3583 -4.28026
-2.82341 -11.1982 -2.29438
-2.64844 -11.038 -0.308496
-2.47348 -10.8779 1.67739
-2.29851 -10.7177 3.66327
-2.12355 -10.5576 5.64916
-1.94858 -10.3974 7.63504
-4.5937 -10.2118 -12.289
-4.41873 -10.0517 -10.3032
-4.24376 -9.89151 -8.31727
-4.0688 -9.73135 -6.33139
-3.89383 -9.57119 -4.3455
-3.71887 -9.41104 -2.35962
-3.5439 -9.25088 -0.373732
-3.36894 -9.09072 1.61215
-3.19397 -8.93056 3.59804
-3.01901 -8.77041 5.58392
-2.84404 -8.61025 7.56981
-5.48916 -8.42468 -12.3543
-5.31419 -8.26452 -10.3684
-5.13922 -8.10436 -8.38251
-4.96426 -7.9442 -6.39662
-4.78929 -7.78405 -4.41074
-4.61433 -7.62389 -2.42485
-4.43936 -7.46373 -0.438968
-4.2644 -7.30357 1.54692
-4.08943 -7.14342 3.5328
-3.91447 -6.98326 5.51869
-3.7395 -6.8231 7.50457
-6.38462 -6.63753 -12.4195
-6.20965 -6.47737 -10.4336
-6.03468 -6.31722 -8.44774
-5.85972 -6.15706 -6.46186
-5.68475 -5.9969 -4.47597
-5.50979 -5.83674 -2.49009
-5.33482 -5.67658 -0.504204
-5.15986 -5.51643 1.48168
-4.98489 -5.35627 3.46756
-4.80993 -5.19611 5.45345
-4.63496 -5.03595 7.43933
-7.28008 -4.85038 -12.4847
-7.10511 -4.69023 -10.4989
-6.93014 -4.53007 -8.51298
-6.75518 -4.36991 -6.52709
-6.58021 -4.20975 -4.54121
-6.40525 -4.04959 -2.55532
-6.23028 -3.88944 -0.56944
-6.05532 -3.72928 1.41644
-5.88035 -3.56912 3.40233
-5.70539 -3.40896 5.38821
-5.53042 -3.24881 7.3741
-8.17554 -3.06324 -12.55
-8.00057 -2.90308 -10.5641
-7.82561 -2.74292 -8.57821
-7.65064 -2.58276 -6.59233
-7.47567 -2.42261 -4.60644
-7.30071 -2.26245 -2.62056
-7.12574 -2.10229 -0.634675
-6.95078 -1.94213 1.35121
-6.77581 -1.78197 3.33709
-6.60085 -1.62182 5.32298
-6.42588 -1.46166 7.30886
-9.071 -1.27609 -12.6152
-8.89603 -1.11593 -10.6293
-8.72107 -0.955773 -8.64345
-8.5461 -0.795615 -6.65756
-8.37113 -0.635458 -4.67168
-8.19617 -0.4753 -2.6858
-8.0212 -0.315143 -0.699911
-7.84624 -0.154985 1.28597
-7.67127 0.00517247 3.27186
-7.49631 0.16533 5.25774
-7.32134 0.325488 7.24363
-9.96646 0.511059 -12.6805
-9.79149 0.671217 -10.6946
-9.61653 0.831374 -8.70868
-9.44156 0.991532 -6.7228
-9.26659 1.15169 -4.73692
-9.09163 1.31185 -2.75103
-8.91666 1.472 -0.765147
-8.7417 1.63216 1.22074
-8.56673 1.79232 3.20662
-8.39177 1.95248 5.19251
-8.2168 2.11263 7.17839
-10.8619 2.29821 -12.7457
-10.687 2.45836 -10.7598
-10.512 2.61852 -8.77392
-10.337 2.77868 -6.78804
-10.1621 2.93884 -4.80215
-9.98709 3.09899 -2.81627
-9.81212 3.25915 -0.830383
-9.63716 3.41931 1.1555
-9.46219 3.57947 3.14139
-9.28723 3.73962 5.12727
-9.11226 3.89978 7.11315
-11.7574 4.08535 -12.8109
-11.5824 4.24551 -10.825
-11.4074 4.40567 -8.83916
-11.2325 4.56583 -6.85327
-11.0575 4.72598 -4.86739
-10.8825 4.88614 -2.8815
-10.7076 5.0463 -0.895619
-10.5326 5.20646 1.09027
-10.3577 5.36661 3.07615
-10.1827 5.52677 5.06203
-10.0077 5.68693 7.04792
-12.6528 5.8725 -12.8762
-12.4779 6.03266 -10.8903
-12.3029 6.19282 -8.90439
-12.1279 6.35297 -6.91851
-11.953 6.51313 -4.93262
-11.778 6.67329 -2.94674
-11.603 6.83345 -0.960855
-11.4281 6.9936 1.02503
-11.2531 7.15376 3.01091
-11.0781 7.31392 4.9968
-10.9032 7.47408 6.98268
-1.91848 -11.1155 -12.4519
-1.74351 -10.9554 -10.466
-1.56855 -10.7952 -8.48009
-1.39358 -10.6351 -6.4942
-1.21862 -10.4749 -4.50832
-1.04365 -10.3148 -2.52243
-0.868686 -10.1546 -0.536548
-0.693721 -9.99444 1.44934
-0.518756 -9.83428 3.43522
-0.34379 -9.67412 5.42111
-0.168825 -9.51396 7.40699
-2.81394 -9.32839 -12.5171
-2.63897 -9.16823 -10.5312
-2.46401 -9.00808 -8.54532
-2.28904 -8.84792 -6.55944
-2.11408 -8.68776 -4.57355
-1.93911 -8.5276 -2.58767
-1.76415 -8.36745 -0.601784
-1.58918 -8.20729 1.3841
-1.41422 -8.04713 3.36999
-1.23925 -7.88697 5.35587
-1.06429 -7.72682 7.34175
-3.7094 -7.54124 -12.5823
-3.53443 -7.38109 -10.5964
-3.35947 -7.22093 -8.61056
-3.1845 -7.06077 -6.62467
-3.00954 -6.90061 -4.63879
-2.83457 -6.74046 -2.6529
-2.65961 -6.5803 -0.66702
-2.48464 -6.42014 1.31886
-2.30968 -6.25998 3.30475
-2.13471 -6.09983 5.29063
-1.95975 -5.93967 7.27652
-4.60486 -5.7541 -12.6476
-4.42989 -5.59394 -10.6617
-4.25493 -5.43378 -8.67579
-4.07996 -5.27362 -6.68991
-3.905 -5.11347 -4.70402
-3.73003 -4.95331 -2.71814
-3.55507 -4.79315 -0.732255
-3.3801 -4.63299 1.25363
-3.20514 -4.47284 3.23951
-3.03017 -4.31268 5.2254
-2.85521 -4.15252 7.21128
-5.50032 -3.96695 -12.7128
-5.32535 -3.80679 -10.7269
-5.15039 -3.64663 -8.74103
-4.97542 -3.48648 -6.75514
-4.80046 -3.32632 -4.76926
-4.62549 -3.16616 -2.78338
-4.45053 -3.006 -0.797491
-4.27556 -2.84585 1.18839
-4.1006 -2.68569 3.17428
-3.92563 -2.52553 5.16016
-3.75067 -2.36537 7.14605
-6.39578 -2.1798 -12.778
-6.22081 -2.01964 -10.7921
-6.04585 -1.85949 -8.80626
-5.87088 -1.69933 -6.82038
-5.69592 -1.53917 -4.8345
-5.52095 -1.37901 -2.84861
-5.34599 -1.21886 -0.862727
-5.17102 -1.0587 1.12316
-4.99606 -0.898542 3.10904
-4.82109 -0.738384 5.09493
-4.64613 -0.578227 7.08081
-7.29124 -0.392655 -12.8433
-7.11627 -0.232498 -10.8574
-6.94131 -0.07234 -8.8715
-6.76634 0.0878176 -6.88562
-6.59138 0.247975 -4.89973
-6.41641 0.408133 -2.91385
-6.24145 0.56829 -0.927963
-6.06648 0.728448 1.05792
-5.89152 0.888606 3.04381
-5.71655 1.04876 5.02969
-5.54159 1.20892 7.01557
-8.1867 1.39449 -12.9085
-8.01173 1.55465 -10.9226
-7.83677 1.71481 -8.93674
-7.6618 1.87496 -6.95085
-7.48684 2.03512 -4.96497
-7.31187 2.19528 -2.97908
-7.13691 2.35544 -0.993199
-6.96194 2.5156 0.992686
-6.78698 2.67575 2.97857
-6.61201 2.83591 4.96445
-6.43705 2.99607 6.95034
-9.08216 3.18164 -12.9737
-8.90719 3.3418 -10.9879
-8.73223 3.50195 -9.00197
-8.55726 3.66211 -7.01609
-8.3823 3.82227 -5.0302
-8.20733 3.98243 -3.04432
-8.03237 4.14259 -1.05843
-7.8574 4.30274 0.92745
-7.68244 4.4629 2.91333
-7.50747 4.62306 4.89922
-7.33251 4.78322 6.8851
-9.97762 4.96879 -13.039
-9.80265 5.12894 -11.0531
-9.62769 5.2891 -9.06721
-9.45272 5.44926 -7.08132
-9.27776 5.60942 -5.09544
-9.10279 5.76957 -3.10955
-8.92783 5.92973 -1.12367
-8.75286 6.08989 0.862214
-8.5779 6.25005 2.8481
-8.40293 6.41021 4.83398
-8.22797 6.57036 6.81987
-10.8731 6.75593 -13.1042
-10.6981 6.91609 -11.1183
-10.5231 7.07625 -9.13244
-10.3482 7.23641 -7.14656
-10.1732 7.39656 -5.16068
-9.99825 7.55672 -3.17479
-9.82329 7.71688 -1.18891
-9.64832 7.87704 0.796978
-9.47336 8.03719 2.78286
-9.29839 8.19735 4.76875
-9.12343 8.35751 6.75463
-0.138719 -10.2321 -12.6799
0.036246 -10.0719 -10.694
0.211211 -9.91179 -8.70814
0.386176 -9.75163 -6.72225
0.561142 -9.59148 -4.73637
0.736107 -9.43132 -2.75048
0.911072 -9.27116 -0.7646
1.08604 -9.111 1.22128
1.261 -8.95085 3.20717
1.43597 -8.79069 5.19305
1.61093 -8.63053 7.17894
-1.03418 -8.44496 -12.7451
-0.859214 -8.2848 -10.7593
-0.684249 -8.12464 -8.77337
-0.509284 -7.96449 -6.78749
-0.334318 -7.80433 -4.8016
-0.159353 -7.64417 -2.81572
0.015612 -7.48401 -0.829835
0.190577 -7.32386 1.15605
0.365542 -7.1637 3.14193
0.540508 -7.00354 5.12782
0.715473 -6.84338 7.1137
-1.92964 -6.65781 -12.8104
-1.75467 -6.49765 -10.8245
-1.57971 -6.3375 -8.83861
-1.40474 -6.17734 -6.85272
-1.22978 -6.01718 -4.86684
-1.05481 -5.85702 -2.88096
-0.879848 -5.69687 -0.895071
-0.704883 -5.53671 1.09081
-0.529918 -5.37655 3.0767
-0.354952 -5.21639 5.06258
-0.179987 -5.05624 7.04847
-2.8251 -4.87066 -12.8756
-2.65013 -4.71051 -10.8897
-2.47517 -4.55035 -8.90384
-2.3002 -4.39019 -6.91796
-2.12524 -4.23003 -4.93208
-1.95027 -4.06988 -2.94619
-1.77531 -3.90972 -0.960307
-1.60034 -3.74956 1.02558
-1.42538 -3.5894 3.01146
-1.25041 -3.42925 4.99735
-1.07545 -3.26909 6.98323
-3.72056 -3.08352 -12.9408
-3.54559 -2.92336 -10.955
-3.37063 -2.7632 -8.96908
-3.19566 -2.60304 -6.9832
-3.0207 -2.44289 -4.99731
-2.84573 -2.28273 -3.01143
-2.67077 -2.12257 -1.02554
-2.4958 -1.96241 0.960341
-2.32084 -1.80226 2.94623
-2.14587 -1.6421 4.93211
-1.97091 -1.48194 6.91799
-4.61602 -1.29637 -13.0061
-4.44105 -1.13621 -11.0202
-4.26609 -0.976054 -9.03432
-4.09112 -0.815897 -7.04843
-3.91616 -0.655739 -5.06255
-3.74119 -0.495581 -3.07666
-3.56623 -0.335424 -1.09078
-3.39126 -0.175266 0.895106
-3.2163 -0.0151087 2.88099
-3.04133 0.145049 4.86687
-2.86637 0.305206 6.85276
-5.51148 0.490778 -13.0713
-5.33651 0.650936 -11.0854
-5.16155 0.811093 -9.09955
-4.98658 0.971251 -7.11367
-4.81162 1.13141 -5.12778
-4.63665 1.29157 -3.1419
-4.46169 1.45172 -1.15601
-4.28672 1.61188 0.82987
-4.11176 1.77204 2.81575
-3.93679 1.9322 4.80164
-3.76183 2.09235 6.78752
-6.40694 2.27793 -13.1366
-6.23197 2.43808 -11.1507
-6.05701 2.59824 -9.16479
-5.88204 2.7584 -7.1789
-5.70708 2.91856 -5.19302
-5.53211 3.07871 -3.20713
-5.35715 3.23887 -1.22125
-5.18218 3.39903 0.764634
-5.00722 3.55919 2.75052
-4.83225 3.71934 4.7364
-4.65729 3.8795 6.72229
-7.3024 4.06507 -13.2018
-7.12743 4.22523 -11.2159
-6.95247 4.38539 -9.23002
-6.7775 4.54555 -7.24414
-6.60254 4.7057 -5.25826
-6.42757 4.86586 -3.27237
-6.25261 5.02602 -1.28649
-6.07764 5.18618 0.699398
-5.90268 5.34633 2.68528
-5.72771 5.50649 4.67117
-5.55275 5.66665 6.65705
-8.19786 5.85222 -13.267
-8.02289 6.01238 -11.2811
-7.84793 6.17254 -9.29526
-7.67296 6.33269 -7.30938
-7.498 6.49285 -5.32349
-7.32303 6.65301 -3.33761
-7.14807 6.81317 -1.35172
-6.9731 6.97332 0.634162
-6.79814 7.13348 2.62005
-6.62317 7.29364 4.60593
-6.44821 7.4538 6.59182
-9.09332 7.63937 -13.3323
-8.91835 7.79952 -11.3464
-8.74339 7.95968 -9.3605
-8.56842 8.11984 -7.37461
-8.39346 8.28 -5.38873
-8.21849 8.44016 -3.40284
-8.04353 8.60031 -1.41696
-7.86856 8.76047 0.568926
-7.6936 8.92063 2.55481
-7.51863 9.08079 4.5407
-7.34367 9.24094 6.52658
1.64104 -9.34867 -12.908
1.816 -9.18852 -10.9221
1.99097 -9.02836 -8.93619
2.16593 -8.8682 -6.9503
2.3409 -8.70804 -4.96442
2.51586 -8.54789 -2.97854
2.69083 -8.38773 -0.992651
2.8658 -8.22757 0.993233
3.04076 -8.06741 2.97912
3.21573 -7.90725 4.965
3.39069 -7.7471 6.95089
0.745579 -7.56153 -12.9732
0.920544 -7.40137 -10.9873
1.09551 -7.24121 -9.00142
1.27047 -7.08105 -7.01554
1.44544 -6.9209 -5.02966
1.6204 -6.76074 -3.04377
1.79537 -6.60058 -1.05789
1.97034 -6.44042 0.927997
2.1453 -6.28026 2.91388
2.32027 -6.12011 4.89977
2.49523 -5.95995 6.88565
-0.149881 -5.77438 -13.0384
0.0250839 -5.61422 -11.0525
0.200049 -5.45406 -9.06666
0.375014 -5.29391 -7.08078
0.549979 -5.13375 -5.09489
0.724945 -4.97359 -3.10901
0.89991 -4.81343 -1.12312
1.07488 -4.65328 0.862762
1.24984 -4.49312 2.84865
1.42481 -4.33296 4.83453
1.59977 -4.1728 6.82041
-1.04534 -3.98723 -13.1037
-0.870376 -3.82707 -11.1178
-0.695411 -3.66692 -9.1319
-0.520446 -3.50676 -7.14601
-0.345481 -3.3466 -5.16013
-0.170515 -3.18644 -3.17424
0.00444983 -3.02629 -1.18836
0.179415 -2.86613 0.797526
0.35438 -2.70597 2.78341
0.529345 -2.54581 4.76929
0.704311 -2.38566 6.75518
-1.9408 -2.20008 -13.1689
-1.76584 -2.03993 -11.183
-1.59087 -1.87977 -9.19713
-1.41591 -1.71961 -7.21125
-1.24094 -1.55945 -5.22536
-1.06598 -1.3993 -3.23948
-0.89101 -1.23914 -1.25359
-0.716045 -1.07898 0.73229
-0.54108 -0.918823 2.71817
-0.366115 -0.758665 4.70406
-0.191149 -0.598508 6.68994
-2.83626 -0.412936 -13.2341
-2.6613 -0.252779 -11.2483
-2.48633 -0.0926212 -9.26237
-2.31137 0.0675364 -7.27648
-2.1364 0.227694 -5.2906
-1.96144 0.387852 -3.30471
-1.78647 0.548009 -1.31883
-1.61151 0.708167 0.667054
-1.43654 0.868324 2.65294
-1.26157 1.02848 4.63882
-1.08661 1.18864 6.62471
-3.73172 1.37421 -13.2994
-3.55676 1.53437 -11.3135
-3.38179 1.69453 -9.3276
-3.20683 1.85468 -7.34172
-3.03186 2.01484 -5.35583
-2.8569 2.175 -3.36995
-2.68193 2.33516 -1.38407
-2.50697 2.49531 0.601818
-2.332 2.65547 2.5877
-2.15703 2.81563 4.57359
-1.98207 2.97579 6.55947
-4.62718 3.16136 -13.3646
-4.45222 3.32152 -11.3787
-4.27725 3.48167 -9.39284
-4.10229 3.64183 -7.40696
-3.92732 3.80199 -5.42107
-3.75236 3.96215 -3.43519
-3.57739 4.1223 -1.4493
-3.40243 4.28246 0.536582
-3.22746 4.44262 2.52247
-3.05249 4.60278 4.50835
-2.87753 4.76293 6.49424
-5.52264 4.94851 -13.4298
-5.34768 5.10866 -11.444
-5.17271 5.26882 -9.45808
-4.99775 5.42898 -7.47219
-4.82278 5.58914 -5.48631
-4.64782 5.74929 -3.50042
-4.47285 5.90945 -1.51454
-4.29789 6.06961 0.471346
-4.12292 6.22977 2.45723
-3.94795 6.38992 4.44312
-3.77299 6.55008 6.429
-6.4181 6.73565 -13.4951
-6.24314 6.89581 -11.5092
-6.06817 7.05597 -9.52331
-5.89321 7.21613 -7.53743
-5.71824 7.37628 -5.55154
-5.54328 7.53644 -3.56566
-5.36831 7.6966 -1.57977
-5.19335 7.85676 0.406111
-5.01838 8.01691 2.39199
-4.84341 8.17707 4.37788
-4.66845 8.33723 6.36376
-7.31356 8.5228 -13.5603
-7.1386 8.68296 -11.5744
-6.96363 8.84312 -9.58855
-6.78867 9.00327 -7.60266
-6.6137 9.16343 -5.61678
-6.43874 9.32359 -3.63089
-6.26377 9.48375 -1.64501
-6.08881 9.6439 0.340875
-5.91384 9.80406 2.32676
-5.73887 9.96422 4.31264
-5.56391 10.1244 6.29853
3.4208 -8.46524 -13.136
3.59576 -8.30508 -11.1501
3.77073 -8.14492 -9.16424
3.94569 -7.98477 -7.17836
4.12066 -7.82461 -5.19247
4.29562 -7.66445 -3.20659
4.47059 -7.50429 -1.2207
4.64555 -7.34414 0.765182
4.82052 -7.18398 2.75107
4.99548 -7.02382 4.73695
5.17045 -6.86366 6.72283
2.52534 -6.67809 -13.2012
2.7003 -6.51793 -11.2154
2.87527 -6.35778 -9.22948
3.05023 -6.19762 -7.24359
3.2252 -6.03746 -5.25771
3.40016 -5.8773 -3.27182
3.57513 -5.71715 -1.28594
3.75009 -5.55699 0.699946
3.92506 -5.39683 2.68583
4.10002 -5.23667 4.67171
4.27499 -5.07652 6.6576
1.62988 -4.89095 -13.2665
1.80484 -4.73079 -11.2806
1.97981 -4.57063 -9.29471
2.15477 -4.41047 -7.30883
2.32974 -4.25031 -5.32294
2.5047 -4.09016 -3.33706
2.67967 -3.93 -1.35117
2.85463 -3.76984 0.63471
3.0296 -3.60968 2.62059
3.20456 -3.44953 4.60648
3.37953 -3.28937 6.59236
0.734417 -3.1038 -13.3317
0.909382 -2.94364 -11.3458
1.08435 -2.78348 -9.35995
1.25931 -2.62333 -7.37406
1.43428 -2.46317 -5.38818
1.60924 -2.30301 -3.40229
1.78421 -2.14285 -1.41641
1.95917 -1.98269 0.569474
2.13414 -1.82254 2.55536
2.3091 -1.66238 4.54124
2.48407 -1.50222 6.52713
-0.161043 -1.31665 -13.397
0.0139218 -1.15649 -11.4111
0.188887 -0.996335 -9.42518
0.363852 -0.836178 -7.4393
0.538817 -0.67602 -5.45341
0.713783 -0.515863 -3.46753
0.888748 -0.355705 -1.48165
1.06371 -0.195548 0.504238
1.23868 -0.0353899 2.49012
1.41364 0.124768 4.47601
1.58861 0.284925 6.46189
-1.0565 0.470497 -13.4622
-0.881538 0.630654 -11.4763
-0.706573 0.790812 -9.49042
-0.531608 0.950969 -7.50454
-0.356643 1.11113 -5.51865
-0.181678 1.27128 -3.53277
-0.0067123 1.43144 -1.54688
0.168253 1.5916 0.439002
0.343218 1.75176 2.42489
0.518183 1.91191 4.41077
0.693148 2.07207 6.39666
-1.95196 2.25764 -13.5274
-1.777 2.4178 -11.5415
-1.60203 2.57796 -9.55566
-1.42707 2.73812 -7.56977
-1.2521 2.89827 -5.58389
-1.07714 3.05843 -3.598
-0.902172 3.21859 -1.61212
-0.727207 3.37875 0.373766
-0.552242 3.5389 2.35965
-0.377277 3.69906 4.34554
-0.202312 3.85922 6.33142
-2.84742 4.04479 -13.5927
-2.67246 4.20495 -11.6068
-2.49749 4.36511 -9.62089
-2.32253 4.52526 -7.63501
-2.14756 4.68542 -5.64912
-1.9726 4.84558 -3.66324
-1.79763 5.00574 -1.67735
-1.62267 5.16589 0.308531
-1.4477 5.32605 2.29441
-1.27274 5.48621 4.2803
-1.09777 5.64637 6.26618
-3.74288 5.83194 -13.6579
-3.56792 5.9921 -11.672
-3.39295 6.15225 -9.68613
-3.21799 6.31241 -7.70024
-3.04302 6.47257 -5.71436
-2.86806 6.63273 -3.72847
-2.69309 6.79288 -1.74259
-2.51813 6.95304 0.243295
-2.34316 7.1132 2.22918
-2.1682 7.27336 4.21506
-1.99323 7.43351 6.20095
-4.63834 7.61909 -13.7231
-4.46338 7.77924 -11.7372
-4.28841 7.9394 -9.75136
-4.11345 8.09956 -7.76548
-3.93848 8.25972 -5.77959
-3.76352 8.41987 -3.79371
-3.58855 8.58003 -1.80783
-3.41359 8.74019 0.178059
-3.23862 8.90035 2.16394
-3.06366 9.0605 4.14983
-2.88869 9.22066 6.13571
-5.5338 9.40623 -13.7884
-5.35884 9.56639 -11.8025
-5.18387 9.72655 -9.8166
-5.00891 9.88671 -7.83071
-4.83394 10.0469 -5.84483
-4.65898 10.207 -3.85895
-4.48401 10.3672 -1.87306
-4.30905 10.5273 0.112823
-4.13408 10.6875 2.09871
-3.95912 10.8477 4.08459
-3.78415 11.0078 6.07048
5.20055 -7.58181 -13.3641
5.37552 -7.42165 -11.3782
5.55049 -7.26149 -9.39229
5.72545 -7.10133 -7.40641
5.90042 -6.94118 -5.42052
6.07538 -6.78102 -3.43464
6.25035 -6.62086 -1.44875
6.42531 -6.4607 0.53713
6.60028 -6.30055 2.52301
6.77524 -6.14039 4.5089
6.95021 -5.98023 6.49478
4.30509 -5.79466 -13.4293
4.48006 -5.6345 -11.4434
4.65503 -5.47434 -9.45753
4.82999 -5.31419 -7.47164
5.00496 -5.15403 -5.48576
5.17992 -4.99387 -3.49987
5.35489 -4.83371 -1.51399
5.52985 -4.67356 0.471894
5.70482 -4.5134 2.45778
5.87978 -4.35324 4.44366
6.05475 -4.19308 6.42955
3.40963 -4.00751 -13.4945
3.5846 -3.84735 -11.5086
3.75957 -3.6872 -9.52276
3.93453 -3.52704 -7.53688
4.1095 -3.36688 -5.55099
4.28446 -3.20672 -3.56511
4.45943 -3.04657 -1.57923
4.63439 -2.88641 0.406658
4.80936 -2.72625 2.39254
4.98432 -2.56609 4.37843
5.15929 -2.40594 6.36431
2.51417 -2.22036 -13.5598
2.68914 -2.06021 -11.5739
2.8641 -1.90005 -9.588
3.03907 -1.73989 -7.60212
3.21404 -1.57973 -5.61623
3.389 -1.41958 -3.63035
3.56397 -1.25942 -1.64446
3.73893 -1.09926 0.341422
3.9139 -0.939104 2.32731
4.08886 -0.778947 4.31319
4.26383 -0.618789 6.29908
1.61871 -0.433218 -13.625
1.79368 -0.27306 -11.6391
1.96864 -0.112902 -9.65324
2.14361 0.0472552 -7.66735
2.31858 0.207413 -5.68147
2.49354 0.36757 -3.69558
2.66851 0.527728 -1.7097
2.84347 0.687886 0.276187
3.01844 0.848043 2.26207
3.1934 1.0082 4.24796
3.36837 1.16836 6.23384
0.723254 1.35393 -13.6902
0.89822 1.51409 -11.7044
1.07318 1.67424 -9.71847
1.24815 1.8344 -7.73259
1.42312 1.99456 -5.7467
1.59808 2.15472 -3.76082
1.77305 2.31488 -1.77493
1.94801 2.47503 0.210951
2.12298 2.63519 2.19684
2.29794 2.79535 4.18272
2.47291 2.95551 6.1686
-0.172206 3.14108 -13.7555
0.00275962 3.30123 -11.7696
0.177725 3.46139 -9.78371
0.35269 3.62155 -7.79782
0.527655 3.78171 -5.81194
0.70262 3.94187 -3.82605
0.877586 4.10202 -1.84017
1.05255 4.26218 0.145715
1.22752 4.42234 2.1316
1.40248 4.5825 4.11748
1.57745 4.74265 6.10337
-1.06767 4.92822 -13.8207
-0.8927 5.08838 -11.8348
-0.717735 5.24854 -9.84894
-0.54277 5.4087 -7.86306
-0.367805 5.56885 -5.87717
-0.19284 5.72901 -3.89129
-0.0178744 5.88917 -1.90541
0.157091 6.04933 0.080479
0.332056 6.20949 2.06636
0.507021 6.36964 4.05225
0.681986 6.5298 6.03813
-1.96313 6.71537 -13.8859
-1.78816 6.87553 -11.9001
-1.6132 7.03569 -9.91418
-1.43823 7.19584 -7.92829
-1.26326 7.356 -5.94241
-1.0883 7.51616 -3.95653
-0.913334 7.67632 -1.97064
-0.738369 7.83647 0.0152431
-0.563404 7.99663 2.00113
-0.388439 8.15679 3.98701
-0.213474 8.31695 5.9729
-2.85859 8.50252 -13.9512
-2.68362 8.66268 -11.9653
-2.50866 8.82283 -9.97941
-2.33369 8.98299 -7.99353
-2.15872 9.14315 -6.00765
-1.98376 9.30331 -4.02176
-1.80879 9.46346 -2.03588
-1.63383 9.62362 -0.0499927
-1.45886 9.78378 1.93589
-1.2839 9.94394 3.92178
-1.10893 10.1041 5.90766
-3.75405 10.2897 -14.0164
-3.57908 10.4498 -12.0305
-3.40412 10.61 -10.0447
-3.22915 10.7701 -8.05877
-3.05419 10.9303 -6.07288
-2.87922 11.0905 -4.087
-2.70425 11.2506 -2.10111
-2.52929 11.4108 -0.115229
-2.35432 11.5709 1.87066
-2.17936 11.7311 3.85654
-2.00439 11.8912 5.84242
6.98031 -6.69837 -13.5921
7.15528 -6.53822 -11.6062
7.33024 -6.37806 -9.62034
7.50521 -6.2179 -7.63446
7.68017 -6.05774 -5.64857
7.85514 -5.89759 -3.66269
8.0301 -5.73743 -1.67681
8.20507 -5.57727 0.309078
8.38003 -5.41711 2.29496
8.555 -5.25696 4.28085
8.72996 -5.0968 6.26673
6.08485 -4.91123 -13.6573
6.25982 -4.75107 -11.6715
6.43478 -4.59091 -9.68558
6.60975 -4.43075 -7.6997
6.78471 -4.2706 -5.71381
6.95968 -4.11044 -3.72793
7.13464 -3.95028 -1.74204
7.30961 -3.79012 0.243842
7.48457 -3.62997 2.22973
7.65954 -3.46981 4.21561
7.8345 -3.30965 6.2015
5.18939 -3.12408 -13.7226
5.36436 -2.96392 -11.7367
5.53932 -2.80376 -9.75082
5.71429 -2.64361 -7.76493
5.88925 -2.48345 -5.77905
6.06422 -2.32329 -3.79316
6.23918 -2.16313 -1.80728
6.41415 -2.00298 0.178607
6.58911 -1.84282 2.16449
6.76408 -1.68266 4.15038
6.93904 -1.5225 6.13626
4.29393 -1.33693 -13.7878
4.4689 -1.17677 -11.8019
4.64386 -1.01662 -9.81605
4.81883 -0.856459 -7.83017
4.99379 -0.696301 -5.84428
5.16876 -0.536144 -3.8584
5.34372 -0.375986 -1.87251
5.51869 -0.215829 0.113371
5.69365 -0.0556711 2.09926
5.86862 0.104486 4.08514
6.04358 0.264644 6.07102
3.39847 0.450216 -13.8531
3.57344 0.610373 -11.8672
3.7484 0.770531 -9.88129
3.92337 0.930688 -7.8954
4.09833 1.09085 -5.90952
4.2733 1.251 -3.92363
4.44826 1.41116 -1.93775
4.62323 1.57132 0.0481349
4.79819 1.73148 2.03402
4.97316 1.89163 4.0199
5.14812 2.05179 6.00579
2.50301 2.23736 -13.9183
2.67798 2.39752 -11.9324
2.85294 2.55768 -9.94652
3.02791 2.71784 -7.96064
3.20287 2.87799 -5.97475
3.37784 3.03815 -3.98887
3.5528 3.19831 -2.00299
3.72777 3.35847 -0.017101
3.90273 3.51862 1.96878
4.0777 3.67878 3.95467
4.25266 3.83894 5.94055
1.60755 4.02451 -13.9835
1.78252 4.18467 -11.9976
1.95748 4.34483 -10.0118
2.13245 4.50498 -8.02587
2.30741 4.66514 -6.03999
2.48238 4.8253 -4.05411
2.65734 4.98546 -2.06822
2.83231 5.14561 -0.0823368
3.00727 5.30577 1.90355
3.18224 5.46593 3.88943
3.3572 5.62609 5.87532
0.712092 5.81166 -14.0488
0.887058 5.97182 -12.0629
1.06202 6.13197 -10.077
1.23699 6.29213 -8.09111
1.41195 6.45229 -6.10523
1.58692 6.61245 -4.11934
1.76188 6.7726 -2.13346
1.93685 6.93276 -0.147573
2.11181 7.09292 1.83831
2.28678 7.25308 3.8242
2.46174 7.41323 5.81008
-0.183368 7.5988 -14.114
-0.00840251 7.75896 -12.1281
0.166563 7.91912 -10.1422
0.341528 8.07928 -8.15635
0.516493 8.23944 -6.17046
0.691458 8.39959 -4.18458
0.866423 8.55975 -2.19869
1.04139 8.71991 -0.212809
1.21635 8.88007 1.77308
1.39132 9.04022 3.75896
1.56628 9.20038 5.74484
-1.07883 9.38595 -14.1792
-0.903863 9.54611 -12.1934
-0.728897 9.70627 -10.2075
-0.553932 9.86642 -8.22158
-0.378967 10.0266 -6.2357
-0.204002 10.1867 -4.24981
-0.0290366 10.3469 -2.26393
0.145929 10.5071 -0.278044
0.320894 10.6672 1.70784
0.495859 10.8274 3.69372
0.670824 10.9875 5.67961
-1.97429 11.1731 -14.2445
-1.79932 11.3333 -12.2586
-1.62436 11.4934 -10.2727
-1.44939 11.6536 -8.28682
-1.27443 11.8137 -6.30093
-1.09946 11.9739 -4.31505
-0.924497 12.134 -2.32916
-0.749531 12.2942 -0.34328
-0.574566 12.4544 1.6426
-0.399601 12.6145 3.62849
-0.224636 12.7747 5.61437
8.76007 -5.81494 -13.8202
8.93504 -5.65478 -11.8343
9.11 -5.49463 -9.8484
9.28497 -5.33447 -7.86251
9.45993 -5.17431 -5.87663
9.6349 -5.01415 -3.89074
9.80986 -4.854 -1.90486
9.98483 -4.69384 0.0810266
10.1598 -4.53368 2.06691
10.3348 -4.37352 4.0528
10.5097 -4.21336 6.03868
7.86461 -4.02779 -13.8854
8.03958 -3.86764 -11.8995
8.21454 -3.70748 -9.91363
8.38951 -3.54732 -7.92775
8.56447 -3.38716 -5.94186
8.73944 -3.22701 -3.95598
8.9144 -3.06685 -1.97009
9.08937 -2.90669 0.0157907
9.26433 -2.74653 2.00168
9.4393 -2.58638 3.98756
9.61426 -2.42622 5.97344
6.96915 -2.24065 -13.9506
7.14412 -2.08049 -11.9648
7.31908 -1.92033 -9.97887
7.49405 -1.76017 -7.99298
7.66901 -1.60002 -6.0071
7.84398 -1.43986 -4.02121
8.01894 -1.2797 -2.03533
8.19391 -1.11954 -0.0494451
8.36887 -0.959385 1.93644
8.54384 -0.799228 3.92232
8.7188 -0.63907 5.90821
6.07369 -0.453499 -14.0159
6.24866 -0.293341 -12.03
6.42362 -0.133184 -10.0441
6.59859 0.026974 -8.05822
6.77355 0.187132 -6.07233
6.94852 0.347289 -4.08645
7.12348 0.507447 -2.10057
7.29845 0.667604 -0.114681
7.47341 0.827762 1.8712
7.64838 0.98792 3.85709
7.82334 1.14808 5.84297
5.17823 1.33365 -14.0811
5.3532 1.49381 -12.0952
5.52816 1.65396 -10.1093
5.70313 1.81412 -8.12345
5.87809 1.97428 -6.13757
6.05306 2.13444 -4.15169
6.22802 2.29459 -2.1658
6.40299 2.45475 -0.179917
6.57795 2.61491 1.80597
6.75292 2.77507 3.79185
6.92788 2.93522 5.77774
4.28277 3.1208 -14.1463
4.45774 3.28095 -12.1605
4.6327 3.44111 -10.1746
4.80767 3.60127 -8.18869
4.98263 3.76143 -6.20281
5.1576 3.92158 -4.21692
5.33256 4.08174 -2.23104
5.50753 4.2419 -0.245153
5.68249 4.40206 1.74073
5.85746 4.56221 3.72662
6.03242 4.72237 5.7125
3.38731 4.90794 -14.2116
3.56228 5.0681 -12.2257
3.73724 5.22826 -10.2398
3.91221 5.38842 -8.25393
4.08717 5.54857 -6.26804
4.26214 5.70873 -4.28216
4.4371 5.86889 -2.29627
4.61207 6.02905 -0.310388
4.78703 6.1892 1.6755
4.962 6.34936 3.66138
5.13696 6.50952 5.64726
2.49185 6.69509 -14.2768
2.66682 6.85525 -12.2909
2.84178 7.01541 -10.305
3.01675 7.17556 -8.31916
3.19171 7.33572 -6.33328
3.36668 7.49588 -4.34739
3.54164 7.65604 -2.36151
3.71661 7.81619 -0.375624
3.89157 7.97635 1.61026
4.06654 8.13651 3.59614
4.2415 8.29667 5.58203
1.59639 8.48224 -14.3421
1.77136 8.6424 -12.3562
1.94632 8.80255 -10.3703
2.12129 8.96271 -8.3844
2.29625 9.12287 -6.39851
2.47122 9.28303 -4.41263
2.64618 9.44318 -2.42674
2.82115 9.60334 -0.44086
2.99611 9.7635 1.54502
3.17108 9.92366 3.53091
3.34604 10.0838 5.51679
0.70093 10.2694 -14.4073
0.875895 10.4295 -12.4214
1.05086 10.5897 -10.4355
1.22583 10.7499 -8.44963
1.40079 10.91 -6.46375
1.57576 11.0702 -4.47786
1.75072 11.2303 -2.49198
1.92569 11.3905 -0.506096
2.10065 11.5506 1.47979
2.27562 11.7108 3.46567
2.45058 11.871 5.45156
-0.19453 12.0565 -14.4725
-0.0195646 12.2167 -12.4866
0.155401 12.3768 -10.5008
0.330366 12.537 -8.51487
0.505331 12.6972 -6.52898
0.680296 12.8573 -4.5431
0.855261 13.0175 -2.55722
1.03023 13.1776 -0.571332
1.20519 13.3378 1.41455
1.38016 13.498 3.40044
1.55512 13.6581 5.38632
10.5398 -4.93151 -14.0482
10.7148 -4.77135 -12.0623
10.8898 -4.61119 -10.0764
11.0647 -4.45103 -8.09056
11.2397 -4.29088 -6.10468
11.4147 -4.13072 -4.11879
11.5896 -3.97056 -2.13291
11.7646 -3.8104 -0.147025
11.9396 -3.65025 1.83886
12.1145 -3.49009 3.82474
12.2895 -3.32993 5.81063
9.64437 -3.14436 -14.1135
9.81933 -2.9842 -12.1276
9.9943 -2.82405 -10.1417
10.1693 -2.66389 -8.1558
10.3442 -2.50373 -6.16991
10.5192 -2.34357 -4.18403
10.6942 -2.18341 -2.19815
10.8691 -2.02326 -0.212261
11.0441 -1.8631 1.77362
11.2191 -1.70294 3.75951
11.394 -1.54278 5.74539
8.74891 -1.35721 -14.1787
8.92387 -1.19706 -12.1928
9.09884 -1.0369 -10.2069
9.2738 -0.87674 -8.22103
9.44877 -0.716583 -6.23515
9.62373 -0.556425 -4.24927
9.7987 -0.396268 -2.26338
9.97366 -0.23611 -0.277497
10.1486 -0.0759523 1.70839
10.3236 0.0842052 3.69427
10.4986 0.244363 5.68016
7.85345 0.429934 -14.2439
8.02841 0.590092 -12.258
8.20338 0.750249 -10.2722
8.37834 0.910407 -8.28627
8.55331 1.07056 -6.30039
8.72827 1.23072 -4.3145
8.90324 1.39088 -2.32862
9.0782 1.55104 -0.342733
9.25317 1.71119 1.64315
9.42814 1.87135 3.62904
9.6031 2.03151 5.61492
6.95799 2.21708 -14.3092
7.13295 2.37724 -12.3233
7.30792 2.5374 -10.3374
7.48288 2.69755 -8.35151
7.65785 2.85771 -6.36562
7.83281 3.01787 -4.37974
8.00778 3.17803 -2.39385
8.18274 3.33818 -0.407968
8.35771 3.49834 1.57792
8.53268 3.6585 3.5638
8.70764 3.81866 5.54968
6.06253 4.00423 -14.3744
6.23749 4.16439 -12.3885
6.41246 4.32454 -10.4026
6.58742 4.4847 -8.41674
6.76239 4.64486 -6.43086
6.93735 4.80502 -4.44497
7.11232 4.96517 -2.45909
7.28728 5.12533 -0.473204
7.46225 5.28549 1.51268
7.63722 5.44565 3.49856
7.81218 5.6058 5.48445
5.16707 5.79138 -14.4396
5.34203 5.95153 -12.4537
5.517 6.11169 -10.4679
5.69196 6.27185 -8.48198
5.86693 6.43201 -6.49609
6.04189 6.59216 -4.51021
6.21686 6.75232 -2.52432
6.39182 6.91248 -0.53844
6.56679 7.07264 1.44744
6.74176 7.23279 3.43333
6.91672 7.39295 5.41921
4.27161 7.57852 -14.5049
4.44657 7.73868 -12.519
4.62154 7.89884 -10.5331
4.7965 8.059 -8.54721
4.97147 8.21915 -6.56133
5.14643 8.37931 -4.57544
5.3214 8.53947 -2.58956
5.49636 8.69963 -0.603676
5.67133 8.85978 1.38221
5.8463 9.01994 3.36809
6.02126 9.1801 5.35398
3.37615 9.36567 -14.5701
3.55111 9.52583 -12.5842
3.72608 9.68599 -10.5983
3.90104 9.84614 -8.61245
4.07601 10.0063 -6.62656
4.25097 10.1665 -4.64068
4.42594 10.3266 -2.6548
4.6009 10.4868 -0.668912
4.77587 10.6469 1.31697
4.95084 10.8071 3.30286
5.1258 10.9672 5.28874
2.48069 11.1528 -14.6353
2.65565 11.313 -12.6495
2.83062 11.4731 -10.6636
3.00558 11.6333 -8.67769
3.18055 11.7934 -6.6918
3.35551 11.9536 -4.70592
3.53048 12.1138 -2.72003
3.70544 12.2739 -0.734148
3.88041 12.4341 1.25174
4.05537 12.5942 3.23762
4.23034 12.7544 5.22351
1.58523 12.94 -14.7006
1.76019 13.1001 -12.7147
1.93516 13.2603 -10.7288
2.11012 13.4204 -8.74292
2.28509 13.5806 -6.75704
2.46005 13.7408 -4.77115
2.63502 13.9009 -2.78527
2.80998 14.0611 -0.799384
2.98495 14.2212 1.1865
3.15991 14.3814 3.17239
3.33488 14.5415 5.15827
12.3196 -4.04807 -14.2763
12.4946 -3.88792 -12.2904
12.6695 -3.72776 -10.3045
12.8445 -3.5676 -8.31861
13.0194 -3.40744 -6.33273
13.1944 -3.24729 -4.34685
13.3694 -3.08713 -2.36096
13.5443 -2.92697 -0.375077
13.7193 -2.76681 1.61081
13.8943 -2.60666 3.59669
14.0692 -2.4465 5.58258
11.4241 -2.26093 -14.3415
11.5991 -2.10077 -12.3556
11.7741 -1.94061 -10.3697
11.949 -1.78045 -8.38385
12.124 -1.6203 -6.39797
12.299 -1.46014 -4.41208
12.4739 -1.29998 -2.4262
12.6489 -1.13982 -0.440313
12.8238 -0.979667 1.54557
12.9988 -0.819509 3.53146
13.1738 -0.659351 5.51734
10.5287 -0.47378 -14.4067
10.7036 -0.313622 -12.4209
10.8786 -0.153465 -10.435
11.0536 0.00669282 -8.44909
11.2285 0.16685 -6.4632
11.4035 0.327008 -4.47732
11.5785 0.487166 -2.49143
11.7534 0.647323 -0.505548
11.9284 0.807481 1.48034
12.1034 0.967638 3.46622
12.2783 1.1278 5.4521
9.63321 1.31337 -14.472
9.80817 1.47352 -12.4861
9.98314 1.63368 -10.5002
10.1581 1.79384 -8.51432
10.3331 1.954 -6.52844
10.508 2.11416 -4.54255
10.683 2.27431 -2.55667
10.858 2.43447 -0.570784
11.0329 2.59463 1.4151
11.2079 2.75479 3.40098
11.3829 2.91494 5.38687
8.73775 3.10051 -14.5372
8.91271 3.26067 -12.5513
9.08768 3.42083 -10.5654
9.26264 3.58099 -8.57956
9.43761 3.74115 -6.59367
9.61257 3.9013 -4.60779
9.78754 4.06146 -2.6219
9.9625 4.22162 -0.63602
10.1375 4.38178 1.34986
10.3124 4.54193 3.33575
10.4874 4.70209 5.32163
7.84229 4.88766 -14.6024
8.01725 5.04782 -12.6166
8.19222 5.20798 -10.6307
8.36718 5.36813 -8.64479
8.54215 5.52829 -6.65891
8.71711 5.68845 -4.67302
8.89208 5.84861 -2.68714
9.06704 6.00877 -0.701256
9.24201 6.16892 1.28463
9.41697 6.32908 3.27051
9.59194 6.48924 5.2564
6.94683 6.67481 -14.6677
7.12179 6.83497 -12.6818
7.29676 6.99512 -10.6959
7.47172 7.15528 -8.71003
7.64669 7.31544 -6.72414
7.82165 7.4756 -4.73826
7.99662 7.63575 -2.75238
8.17158 7.79591 -0.766492
8.34655 7.95607 1.21939
8.52151 8.11623 3.20528
8.69648 8.27639 5.19116
6.05137 8.46196 -14.7329
6.22633 8.62211 -12.747
6.4013 8.78227 -10.7611
6.57626 8.94243 -8.77527
6.75123 9.10259 -6.78938
6.92619 9.26274 -4.8035
7.10116 9.4229 -2.81761
7.27612 9.58306 -0.831728
7.45109 9.74322 1.15416
7.62605 9.90337 3.14004
7.80102 10.0635 5.12593
5.15591 10.2491 -14.7982
5.33087 10.4093 -12.8123
5.50584 10.5694 -10.8264
5.6808 10.7296 -8.8405
5.85577 10.8897 -6.85462
6.03073 11.0499 -4.86873
6.2057 11.21 -2.88285
6.38066 11.3702 -0.896963
6.55563 11.5304 1.08892
6.73059 11.6905 3.07481
6.90556 11.8507 5.06069
4.26045 12.0363 -14.8634
4.43541 12.1964 -12.8775
4.61038 12.3566 -10.8916
4.78534 12.5167 -8.90574
4.96031 12.6769 -6.91985
5.13527 12.837 -4.93397
5.31024 12.9972 -2.94808
5.4852 13.1574 -0.962199
5.66017 13.3175 1.02369
5.83513 13.4777 3.00957
6.0101 13.6378 4.99545
3.36499 13.8234 -14.9286
3.53995 13.9836 -12.9427
3.71492 14.1437 -10.9569
3.88988 14.3039 -8.97097
4.06485 14.464 -6.98509
4.23981 14.6242 -4.9992
4.41478 14.7843 -3.01332
4.58974 14.9445 -1.02744
4.76471 15.1047 0.958449
4.93967 15.2648 2.94433
5.11464 15.425 4.93022
14.0993 -3.16464 -14.5043
14.2743 -3.00448 -12.5184
14.4493 -2.84433 -10.5326
14.6242 -2.68417 -8.54667
14.7992 -2.52401 -6.56078
14.9742 -2.36385 -4.5749
15.1491 -2.2037 -2.58901
15.3241 -2.04354 -0.603128
15.4991 -1.88338 1.38276
15.674 -1.72322 3.36864
15.849 -1.56307 5.35452
13.2039 -1.37749 -14.5696
13.3788 -1.21734 -12.5837
13.5538 -1.05718 -10.5978
13.7288 -0.897021 -8.6119
13.9037 -0.736864 -6.62602
14.0787 -0.576706 -4.64013
14.2537 -0.416549 -2.65425
14.4286 -0.256391 -0.668364
14.6036 -0.0962335 1.31752
14.7786 0.063924 3.3034
14.9535 0.224082 5.28929
12.3084 0.409653 -14.6348
12.4834 0.569811 -12.6489
12.6584 0.729968 -10.663
12.8333 0.890126 -8.67714
13.0083 1.05028 -6.69125
13.1833 1.21044 -4.70537
13.3582 1.3706 -2.71948
13.5332 1.53076 -0.7336
13.7081 1.69091 1.25228
13.8831 1.85107 3.23817
14.0581 2.01123 5.22405
11.413 2.1968 -14.7
11.5879 2.35696 -12.7141
11.7629 2.51712 -10.7283
11.9379 2.67727 -8.74237
12.1128 2.83743 -6.75649
12.2878 2.99759 -4.7706
12.4628 3.15775 -2.78472
12.6377 3.3179 -0.798836
12.8127 3.47806 1.18705
12.9877 3.63822 3.17293
13.1626 3.79838 5.15882
10.5175 3.98395 -14.7653
10.6925 4.14411 -12.7794
10.8674 4.30426 -10.7935
11.0424 4.46442 -8.80761
11.2174 4.62458 -6.82172
11.3923 4.78474 -4.83584
11.5673 4.94489 -2.84996
11.7423 5.10505 -0.864072
11.9172 5.26521 1.12181
12.0922 5.42537 3.1077
12.2672 5.58552 5.09358
9.62204 5.7711 -14.8305
9.79701 5.93125 -12.8446
9.97197 6.09141 -10.8587
10.1469 6.25157 -8.87285
10.3219 6.41173 -6.88696
10.4969 6.57188 -4.90108
10.6718 6.73204 -2.91519
10.8468 6.8922 -0.929308
11.0218 7.05236 1.05658
11.1967 7.21251 3.04246
11.3717 7.37267 5.02835
8.72658 7.55824 -14.8957
8.90155 7.7184 -12.9098
9.07651 7.87856 -10.924
9.25148 8.03872 -8.93808
9.42645 8.19887 -6.9522
9.60141 8.35903 -4.96631
9.77638 8.51919 -2.98043
9.95134 8.67935 -0.994543
10.1263 8.8395 0.991341
10.3013 8.99966 2.97723
10.4762 9.15982 4.96311
7.83112 9.34539 -14.961
8.00609 9.50555 -12.9751
8.18105 9.6657 -10.9892
8.35602 9.82586 -9.00332
8.53099 9.98602 -7.01743
8.70595 10.1462 -5.03155
8.88092 10.3063 -3.04566
9.05588 10.4665 -1.05978
9.23085 10.6267 0.926105
9.40581 10.7868 2.91199
9.58078 10.947 4.89787
6.93566 11.1325 -15.0262
7.11063 11.2927 -13.0403
7.28559 11.4529 -11.0544
7.46056 11.613 -9.06855
7.63553 11.7732 -7.08267
7.81049 11.9333 -5.09678
7.98546 12.0935 -3.1109
8.16042 12.2536 -1.12502
8.33539 12.4138 0.860869
8.51035 12.574 2.84675
8.68532 12.7341 4.83264
6.0402 12.9197 -15.0914
6.21517 13.0798 -13.1056
6.39013 13.24 -11.1197
6.5651 13.4002 -9.13379
6.74006 13.5603 -7.1479
6.91503 13.7205 -5.16202
7.09 13.8806 -3.17614
7.26496 14.0408 -1.19025
7.43993 14.2009 0.795633
7.61489 14.3611 2.78152
7.78986 14.5213 4.7674
5.14474 14.7068 -15.1567
5.31971 14.867 -13.1708
5.49467 15.0271 -11.1849
5.66964 15.1873 -9.19902
5.8446 15.3475 -7.21314
6.01957 15.5076 -5.22726
6.19454 15.6678 -3.24137
6.3695 15.8279 -1.25549
6.54447 15.9881 0.730398
6.71943 16.1482 2.71628
6.8944 16.3084 4.70217
1 2
