ply
format ascii 1.0
element vertex 26
property float x
property float y
property float z
end_header
-10 -10 -10
-10 -10 -8.88178e-16
-10 -10 10
-10 -4.17624e-15 -10
-10 -6.9815e-15 1.77636e-15
-10 -9.78677e-15 10
-10 10 -10
-10 10 5.32907e-15
-10 10 10
1.41825e-15 -10 -10
2.68002e-15 -10 -1.77636e-15
3.94178e-15 -10 10
-1.24628e-15 -1.5117e-15 -10
1.27724e-15 -7.12223e-15 10
-3.91082e-15 10 -10
-2.64906e-15 10 3.55271e-15
-1.38729e-15 10 10
10 -10 -10
10 -10 -3.55271e-15
10 -10 10
10 1.15283e-15 -10
10 -1.65243e-15 0
10 -4.4577e-15 10
10 10 -10
10 10 2.66454e-15
10 10 10
