ply
format ascii 1.0
element vertex 44
property float x
property float y
property float z
end_header
5.66025 -13.6603 -9
5.66025 -13.6603 -7
5.66025 -13.6603 -5
5.66025 -13.6603 -3
5.66025 -13.6603 -1
5.66025 -13.6603 1
5.66025 -13.6603 3
5.66025 -13.6603 5
5.66025 -13.6603 7
5.66025 -13.6603 9
5.66025 -13.6603 11
3.9282 -12.6603 -9
3.9282 -12.6603 -7
3.9282 -12.6603 -5
3.9282 -12.6603 -3
3.9282 -12.6603 -1
3.9282 -12.6603 1
3.9282 -12.6603 3
3.9282 -12.6603 5
3.9282 -12.6603 7
3.9282 -12.6603 9
3.9282 -12.6603 11
2.19615 -11.6603 -9
2.19615 -11.6603 -7
2.19615 -11.6603 -5
2.19615 -11.6603 -3
2.19615 -11.6603 -1
2.19615 -11.6603 1
2.19615 -11.6603 3
2.19615 -11.6603 5
2.19615 -11.6603 7
2.19615 -11.6603 9
2.19615 -11.6603 11
0.464102 -10.6603 -9
0.464102 -10.6603 -7
0.464102 -10.6603 -5
0.464102 -10.6603 -3
0.464102 -10.6603 -1
0.464102 -10.6603 1
0.464102 -10.6603 3
0.464102 -10.6603 5
0.464102 -10.6603 7
0.464102 -10.6603 9
0.464102 -10.6603 11
