ply
format ascii 1.0
element vertex 30
property float x
property float y
property float z
end_header
10.6865 18.4904 5
10.6865 18.4904 5
6.35641 20.9904 -10
10.6865 18.4904 10
6.35641 20.9904 -5
6.45448 18.8205 -8
2.02629 23.4904 -10
2.02629 23.4904 10
-3.93782 24.8205 8
2.99038 20.8205 4
-2.30387 25.9904 10
-0.473721 22.8205 8
-7.40192 26.8205 0
10.6865 18.4904 0
15.0167 15.9904 -10
6.35641 20.9904 0
-2.30387 25.9904 0
6.45448 18.8205 -4
2.02629 23.4904 -10
2.02629 23.4904 0
-2.30387 25.9904 0
-0.473721 22.8205 0
6.35641 20.9904 -10
15.0167 15.9904 -5
10.6865 18.4904 -5
15.0167 15.9904 5
15.0167 15.9904 5
2.02629 23.4904 10
-7.40192 26.8205 4
-0.473721 22.8205 4
