ply
format ascii 1.0
element vertex 50
property float x
property float y
property float z
end_header
22 8.33975 -5
19.5 12.6699 -5
17 17 -5
14.5 21.3301 -5
12 25.6603 -5
22 8.33975 -10
19.5 12.6699 -10
17 17 -10
14.5 21.3301 -10
12 25.6603 -10
22 8.33975 -15
19.5 12.6699 -15
17 17 -15
14.5 21.3301 -15
12 25.6603 -15
22 8.33975 -20
19.5 12.6699 -20
17 17 -20
14.5 21.3301 -20
12 25.6603 -20
22 8.33975 -25
19.5 12.6699 -25
17 17 -25
14.5 21.3301 -25
12 25.6603 -25
23 10.0718 -7
21 13.5359 -7
19 17 -7
17 20.4641 -7
15 23.9282 -7
23 10.0718 -11
21 13.5359 -11
19 17 -11
17 20.4641 -11
15 23.9282 -11
23 10.0718 -15
21 13.5359 -15
19 17 -15
17 20.4641 -15
15 23.9282 -15
23 10.0718 -19
21 13.5359 -19
19 17 -19
17 20.4641 -19
15 23.9282 -19
23 10.0718 -23
21 13.5359 -23
19 17 -23
17 20.4641 -23
15 23.9282 -23
