ply
format ascii 1.0
element vertex 30
property float x
property float y
property float z
end_header
7.95448 19.2224 -10
7.95448 19.2224 -10
3.62436 21.7224 -25
7.95448 19.2224 -5
3.62436 21.7224 -20
12.2846 18.7224 -23
-0.705758 24.2224 -25
-0.705758 24.2224 -5
1.89231 24.7224 -7
8.82051 20.7224 -11
-5.03592 26.7225 -5
5.35641 22.7224 -7
-1.5718 26.7224 -15
7.95448 19.2224 -15
12.2846 16.7224 -25
3.62436 21.7224 -15
-5.03592 26.7225 -15
12.2846 18.7224 -19
-0.705758 24.2224 -25
-0.705758 24.2224 -15
-5.03592 26.7225 -15
5.35641 22.7224 -15
3.62436 21.7224 -25
12.2846 16.7224 -20
7.95448 19.2224 -20
12.2846 16.7224 -10
12.2846 16.7224 -10
-0.705758 24.2224 -5
-1.5718 26.7224 -11
5.35641 22.7224 -11
