ply
format ascii 1.0
comment created by 3d_to_ply
element vertex 25
property float32 x
property float32 y
property float32 z
property uint8 red
property uint8 green
property uint8 blue
end_header
2.232051 0.133975 3.000000 255 255 255
1.482051 1.433013 3.000000 255 255 255
0.732051 2.732051 3.000000 255 255 255
-0.017949 4.031089 3.000000 255 255 255
-0.767949 5.330127 3.000000 255 255 255
2.232051 0.133975 1.500000 255 255 255
1.482051 1.433013 1.500000 255 255 255
0.732051 2.732051 1.500000 255 255 255
-0.017949 4.031089 1.500000 255 255 255
-0.767949 5.330127 1.500000 255 255 255
2.232051 0.133975 0.000000 255 255 255
1.482051 1.433013 0.000000 255 255 255
0.732051 2.732051 0.000000 255 255 255
-0.017949 4.031089 0.000000 255 255 255
-0.767949 5.330127 0.000000 255 255 255
2.232051 0.133975 -1.500000 255 255 255
1.482051 1.433013 -1.500000 255 255 255
0.732051 2.732051 -1.500000 255 255 255
-0.017949 4.031089 -1.500000 255 255 255
-0.767949 5.330127 -1.500000 255 255 255
2.232051 0.133975 -3.000000 255 255 255
1.482051 1.433013 -3.000000 255 255 255
0.732051 2.732051 -3.000000 255 255 255
-0.017949 4.031089 -3.000000 255 255 255
-0.767949 5.330127 -3.000000 255 255 255
