ply
format ascii 1.0
element vertex 50
property float x
property float y
property float z
end_header
2.33798 0.217115 3.00208
1.55405 1.49595 2.99884
0.770116 2.7748 2.99559
-0.0138169 4.05364 2.99234
-0.79775 5.33249 2.9891
2.31574 0.199672 1.50235
1.5318 1.47851 1.4991
0.747872 2.75736 1.49586
-0.0360615 4.0362 1.49261
-0.819994 5.31505 1.48936
2.29349 0.182229 0.00261652
1.50956 1.46107 -0.000629754
0.725627 2.73991 -0.0038761
-0.0583061 4.01876 -0.00712243
-0.842239 5.2976 -0.0103688
2.27125 0.164786 -1.49712
1.48731 1.44363 -1.50036
0.703382 2.72247 -1.50361
-0.0805507 4.00132 -1.50686
-0.864483 5.28016 -1.5101
2.249 0.147343 -2.99685
1.46507 1.42618 -3.0001
0.681138 2.70503 -3.00334
-0.102795 3.98387 -3.00659
-0.886728 5.26272 -3.00984
5.26979 -4.81893 5.01753
5.20382 -2.31996 4.98944
5.13786 0.179014 4.96135
5.07189 2.67799 4.93327
5.00593 5.17696 4.90518
5.23271 -4.848 2.51797
5.16675 -2.34903 2.48988
5.10078 0.149942 2.4618
5.03482 2.64891 2.43371
4.96885 5.14789 2.40562
5.19564 -4.87707 0.0184142
5.12967 -2.3781 -0.00967222
5.06371 0.120871 -0.0377587
4.99774 2.61984 -0.0658452
4.93178 5.11881 -0.0939316
5.15857 -4.90614 -2.48114
5.0926 -2.40717 -2.50923
5.02663 0.0917991 -2.53731
4.96067 2.59077 -2.5654
4.8947 5.08974 -2.59349
5.12149 -4.93522 -4.9807
5.05553 -2.43624 -5.00878
4.98956 0.0627274 -5.03687
4.92359 2.5617 -5.06496
4.85763 5.06067 -5.09304
