ply
format ascii 1.0
element vertex 30
property float x
property float y
property float z
end_header
-9.09808 9.75833 -5
-9.09808 9.75833 0
4.56218 6.09808 -5
-1.59808 -3.23205 0
-4.76795 12.2583 5
10.7224 15.4282 5
4.56218 6.09808 5
-4.09808 1.09808 10
-2.93782 19.0885 -5
11.3923 4.26795 10
-6.59808 5.4282 -5
-0.437822 14.7583 10
1.3923 21.5885 5
2.73205 -0.732051 0
7.06218 1.76795 0
0.232051 3.59808 -5
-2.26795 7.9282 -5
15.7224 6.76795 -10
4.56218 6.09808 10
0.232051 3.59808 5
-2.26795 7.9282 -10
3.8923 17.2583 5
4.56218 6.09808 0
-2.26795 7.9282 5
-4.76795 12.2583 -10
-6.59808 5.4282 10
-6.59808 5.4282 10
-4.09808 1.09808 5
6.3923 12.9282 -5
8.8923 8.59808 -10
