ply
format ascii 1.0
element vertex 30
property float x
property float y
property float z
end_header
-3.71391 2.78543 -1.85695
3.07729 3.07729 -2.46183
-4.22577 -0.845154 2.53546
2.04124 2.04124 -4.08248
2.84264e-16 4.64238 1.85695
-3.5007 0.70014 3.5007
0.980581 4.9029 3.06162e-16
-1.66667 3.33333 -3.33333
2.82843 -2.12132 3.53553
2.82843 3.53553 2.12132
-1.33631 2.67261 -4.00892
2.67261 -4.00892 -1.33631
4.05554 -2.43332 1.62221
-2.42536 3.63803 2.42536
-2.57248 2.57248 3.42997
-0.870388 3.48155 3.48155
3.63803 2.42536 2.42536
2.42536 2.42536 -3.63803
1.21268 -4.85071 3.06162e-16
-1.85695 -3.71391 2.78543
-4.36436 1.09109 2.18218
1.17851 -1.17851 -4.71405
1.33631 -4.00892 -2.67261
-3.92232 0.980581 2.94174
-3.71391 1.85695 -2.78543
-4.22577 -2.53546 -0.845154
0.870388 -3.48155 -3.48155
2.67261 1.33631 -4.00892
-0.912871 -1.82574 -4.56435
4.28746 -2.57248 3.06162e-16
