ply
format ascii 1.0
element vertex 30
property float x
property float y
property float z
end_header
-8.27881 5.60166 -4.01032
9.50742 10.4212 -8.06267
-9.88504 -2.4389 6.02808
1.8973 2.07366 -4.01251
-0.460685 10.0066 3.95669
-10.0651 1.57434 10.0107
1.53014 10.0825 -0.0471626
-2.19185 3.88442 -4.01336
8.28928 -5.57518 10.0102
7.53404 10.3895 5.94107
-2.19535 3.87559 -6.01334
4.27273 -5.81517 -1.98182
10.2766 -5.50814 4.00642
-4.26924 5.824 3.98179
-6.26006 5.74813 7.98565
-2.35798 7.93296 7.9692
5.81334 4.29379 3.97095
3.79808 4.15614 -6.02504
2.37194 -7.89766 0.0307119
-3.61101 -8.15173 6.04234
-8.07779 1.64138 4.0069
2.07738 -1.93958 -7.99516
2.27143 -5.91751 -3.9779
-8.0743 1.6502 6.00688
-8.18877 3.59504 -6.00164
-9.71193 -6.46979 -1.95452
2.35798 -7.93296 -7.9692
3.89161 2.15835 -6.01638
-1.82819 -4.13323 -9.97868
10.2696 -5.52579 0.00646298
