ply
format ascii 1.0
element vertex 30
property float x
property float y
property float z
end_header
-9.9282 1.19615 -4
3.66025 13.6603 -8
-7.66025 -6.73205 6
0.732051 2.73205 -4
-5 8.66025 4
-9.66025 -3.26795 10
-3.26795 9.66025 0
-3.73205 2.4641 -4
9.9282 -1.19615 10
1.9282 12.6603 6
-3.73205 2.4641 -6
6.4641 -3.19615 -2
11.6603 -0.196152 4
-6.4641 3.19615 4
-8.19615 2.19615 8
-5.73205 5.9282 8
3.19615 6.4641 4
1.4641 5.4641 -6
5.73205 -5.9282 0
0.535898 -8.9282 6
-7.9282 -2.26795 4
2.73205 -0.732051 -8
4.73205 -4.19615 -4
-7.9282 -2.26795 6
-8.9282 -0.535898 -6
-5.66025 -10.1962 -2
5.73205 -5.9282 -8
2.4641 3.73205 -6
0.267949 -4.4641 -10
11.6603 -0.196152 0
