ply
format ascii 1.0
element vertex 61
property float x
property float y
property float z
element edge 30
property int vertex1
property int vertex2
end_header
0 0 0
-8 6 -4
10 10 -8
-10 -2 6
2 2 -4
0 10 4
-10 2 10
2 10 0
-2 4 -4
8 -6 10
8 10 6
-2 4 -6
4 -6 -2
10 -6 4
-4 6 4
-6 6 8
-2 8 8
6 4 4
4 4 -6
2 -8 0
-4 -8 6
-8 2 4
2 -2 -8
2 -6 -4
-8 2 6
-8 4 -6
-10 -6 -2
2 -8 -8
4 2 -6
-2 -4 -10
10 -6 0
-14.8556 11.1417 -7.42781
12.3091 12.3091 -9.84732
-16.9031 -3.38062 10.1419
8.16497 8.16497 -16.3299
1.13706e-15 18.5695 7.42781
-14.0028 2.80056 14.0028
3.92232 19.6116 1.22465e-15
-6.66667 13.3333 -13.3333
11.3137 -8.48528 14.1421
11.3137 14.1421 8.48528
-5.34522 10.6904 -16.0357
10.6904 -16.0357 -5.34522
16.2221 -9.73329 6.48886
-9.70143 14.5521 9.70143
-10.2899 10.2899 13.7199
-3.48155 13.9262 13.9262
14.5521 9.70143 9.70143
9.70143 9.70143 -14.5521
4.85071 -19.4029 1.22465e-15
-7.42781 -14.8556 11.1417
-17.4574 4.36436 8.72872
4.71405 -4.71405 -18.8562
5.34522 -16.0357 -10.6904
-15.6893 3.92232 11.767
-14.8556 7.42781 -11.1417
-16.9031 -10.1419 -3.38062
3.48155 -13.9262 -13.9262
10.6904 5.34522 -16.0357
-3.65148 -7.30297 -18.2574
17.1499 -10.2899 1.22465e-15
0 31
0 32
0 33
0 34
0 35
0 36
0 37
0 38
0 39
0 40
0 41
0 42
0 43
0 44
0 45
0 46
0 47
0 48
0 49
0 50
0 51
0 52
0 53
0 54
0 55
0 56
0 57
0 58
0 59
0 60
