ply
format ascii 1.0
element vertex 31
property float x
property float y
property float z
element edge 30
property int vertex1
property int vertex2
end_header
0 0 0
-0.742781 0.557086 -0.371391
0.615457 0.615457 -0.492366
-0.845154 -0.169031 0.507093
0.408248 0.408248 -0.816497
5.68528e-17 0.928477 0.371391
-0.70014 0.140028 0.70014
0.196116 0.980581 6.12323e-17
-0.333333 0.666667 -0.666667
0.565685 -0.424264 0.707107
0.565685 0.707107 0.424264
-0.267261 0.534522 -0.801784
0.534522 -0.801784 -0.267261
0.811107 -0.486664 0.324443
-0.485071 0.727607 0.485071
-0.514496 0.514496 0.685994
-0.174078 0.696311 0.696311
0.727607 0.485071 0.485071
0.485071 0.485071 -0.727607
0.242536 -0.970143 6.12323e-17
-0.371391 -0.742781 0.557086
-0.872872 0.218218 0.436436
0.235702 -0.235702 -0.942809
0.267261 -0.801784 -0.534522
-0.784465 0.196116 0.588348
-0.742781 0.371391 -0.557086
-0.845154 -0.507093 -0.169031
0.174078 -0.696311 -0.696311
0.534522 0.267261 -0.801784
-0.182574 -0.365148 -0.912871
0.857493 -0.514496 6.12323e-17
0 1
0 2
0 3
0 4
0 5
0 6
0 7
0 8
0 9
0 10
0 11
0 12
0 13
0 14
0 15
0 16
0 17
0 18
0 19
0 20
0 21
0 22
0 23
0 24
0 25
0 26
0 27
0 28
0 29
0 30
