ply
format ascii 1.0
element vertex 19
property float x
property float y
property float z
end_header
0.235557 -1.83775 0.548411
0.243497 -1.85473 0.558545
0.239139 -1.86482 0.561848
0.244005 -1.86283 0.566354
0.23533 -1.8446 0.560727
0.446239 -4.96834 1.47641
0.172588 -1.86202 0.560677
0.445246 -4.98297 1.49789
0.171908 -1.8609 0.56462
0.441738 -4.96062 1.50351
0.250429 -1.88532 0.482762
0.241041 -1.85736 0.47486
0.246844 -1.86513 0.48216
0.244973 -1.89466 0.489713
0.174875 -1.91399 0.484924
0.166276 -1.82599 0.467466
0.438104 -4.98312 1.2747
0.170881 -1.88276 0.486908
0.433775 -4.96112 1.28113
