ply
format ascii 1.0
element vertex 16
property float x
property float y
property float z
end_header
-0.552215 -4.854267 1.629004
-1.327132 -4.827996 1.611453
-0.602901 -4.910229 0.169299
-1.279942 -4.820534 0.155869
-1.878536 -0.170299 0.453542
-1.817887 0.276877 0.436720
-1.969146 -0.162931 -0.795499
-1.853753 0.275392 -0.753762
1.533577 2.415598 -0.796195
1.092521 2.459616 -0.807953
1.004931 2.472370 -0.813388
0.647307 2.490396 -0.784235
6.615941 3.389921 1.762770
7.395858 3.406408 1.803685
6.632226 3.386581 0.217114
7.372256 3.351964 0.155499
