ply
format ascii 1.0
comment ViewPLUS PointType : struct vp::PointXYZI
element vertex 14
property float x
property float y
property float z
end_header
1.512192 2.521692 -0.810459
1.125866 2.503995 -0.801269
1.019736 2.546942 -0.807975
0.647307 2.490396 -0.784235
-5.073385 -0.057557 0.517158
-4.983337 0.931705 0.555221
-1.981117 -0.166011 -0.818607
-1.853753 0.275392 -0.753762
-0.601769 -4.915204 1.619489
-1.342796 -4.865039 1.650573
-0.579775 -4.883884 0.133941
-1.402909 -4.797573 0.123033
6.470710 3.339782 1.710606
7.395858 3.406408 1.803685