ply
format ascii 1.0
element vertex 25
property float x
property float y
property float z
end_header
4.57688 2.47647 7.9119
2.23258 3.33143 7.75911
-0.111707 4.18639 7.60633
-2.456 5.04135 7.45354
-4.80029 5.89631 7.30075
4.75389 2.51625 5.41849
2.4096 3.37121 5.26571
0.0653041 4.22616 5.11292
-2.27899 5.08112 4.96013
-4.62328 5.93608 4.80735
4.9309 2.55602 2.92508
2.58661 3.41098 2.7723
0.242315 4.26594 2.61951
-2.10198 5.1209 2.46672
-4.44627 5.97586 2.31394
5.10791 2.5958 0.431675
2.76362 3.45076 0.278889
0.419326 4.30571 0.126102
-1.92497 5.16067 -0.0266838
-4.26926 6.01563 -0.17947
5.28492 2.63557 -2.06173
2.94063 3.49053 -2.21452
0.596336 4.34549 -2.36731
-1.74795 5.20045 -2.52009
-4.09225 6.05541 -2.67288
