ply
format ascii 1.0
comment created by 3d_to_ply
element vertex 25
property float32 x
property float32 y
property float32 z
property uint8 red
property uint8 green
property uint8 blue
end_header
5.830127 -0.098076 5.000000 255 255 255
4.580127 2.066987 5.000000 255 255 255
3.330127 4.232051 5.000000 255 255 255
2.080127 6.397114 5.000000 255 255 255
0.830127 8.562178 5.000000 255 255 255
5.830127 -0.098076 2.500000 255 255 255
4.580127 2.066987 2.500000 255 255 255
3.330127 4.232051 2.500000 255 255 255
2.080127 6.397114 2.500000 255 255 255
0.830127 8.562178 2.500000 255 255 255
5.830127 -0.098076 0.000000 255 255 255
4.580127 2.066987 0.000000 255 255 255
3.330127 4.232051 0.000000 255 255 255
2.080127 6.397114 0.000000 255 255 255
0.830127 8.562178 0.000000 255 255 255
5.830127 -0.098076 -2.500000 255 255 255
4.580127 2.066987 -2.500000 255 255 255
3.330127 4.232051 -2.500000 255 255 255
2.080127 6.397114 -2.500000 255 255 255
0.830127 8.562178 -2.500000 255 255 255
5.830127 -0.098076 -5.000000 255 255 255
4.580127 2.066987 -5.000000 255 255 255
3.330127 4.232051 -5.000000 255 255 255
2.080127 6.397114 -5.000000 255 255 255
0.830127 8.562178 -5.000000 255 255 255
