ply
format ascii 1.0
element vertex 124
property float x
property float y
property float z
end_header
-1.09468e-13 -1.54099e-13 -10
-5.83977e-14 -8.4821e-14 -5
4.39648e-14 5.28466e-14 5
9.4591e-14 1.22125e-13 10
-1.11244e-13 5 -10
-6.01741e-14 5 -5
-9.10383e-15 5 1.42926e-13
4.21885e-14 5 5
9.28146e-14 5 10
-1.11466e-13 10 -10
-6.03961e-14 10 -5
-9.32587e-15 10 7.39412e-14
4.17444e-14 10 5
9.28146e-14 10 10
-1.14131e-13 15 -10
-6.30607e-14 15 -5
-1.19904e-14 15 4.95606e-15
3.90799e-14 15 5
9.01501e-14 15 10
-1.15019e-13 20 -10
-6.39488e-14 20 -5
-1.28786e-14 20 -6.4029e-14
3.81917e-14 20 5
8.92619e-14 20 10
5 -1.53211e-13 -10
5 -8.39329e-14 -5
5 -1.5099e-14 1.61186e-13
5 5.37348e-14 5
5 1.23013e-13 10
5 5 -10
5 5 -5
5 5 9.22009e-14
5 5 5
5 5 10
5 10 -10
5 10 -5
5 10 2.32158e-14
5 10 5
5 10 10
5 15 -10
5 15 -5
5 15 -4.57693e-14
5 15 5
5 15 10
5 20 -10
5 20 -5
5 20 -1.14754e-13
5 20 5
5 20 10
10 -1.52767e-13 -10
10 -8.34888e-14 -5
10 -1.46549e-14 1.10461e-13
10 5.41789e-14 5
10 1.23457e-13 10
10 5 -10
10 5 -5
10 5 4.14756e-14
10 5 5
10 5 10
10 10 -10
10 10 -5
10 10 -2.75096e-14
10 10 5
10 10 10
10 15 -10
10 15 -5
10 15 -9.64947e-14
10 15 5
10 15 10
10 20 -10
10 20 -5
10 20 -1.6548e-13
10 20 5
10 20 10
15 -1.53655e-13 -10
15 -8.43769e-14 -5
15 -1.55431e-14 5.97353e-14
15 5.32907e-14 5
15 1.22569e-13 10
15 5 -10
15 5 -5
15 5 -9.2498e-15
15 5 5
15 5 10
15 10 -10
15 10 -5
15 10 -7.82349e-14
15 10 5
15 10 10
15 15 -10
15 15 -5
15 15 -1.4722e-13
15 15 5
15 15 10
15 20 -10
15 20 -5
15 20 -2.16205e-13
15 20 5
15 20 10
20 -1.54543e-13 -10
20 -8.52651e-14 -5
20 -1.64313e-14 9.00994e-15
20 5.24025e-14 5
20 1.2168e-13 10
20 5 -10
20 5 -5
20 5 -5.99752e-14
20 5 5
20 5 10
20 10 -10
20 10 -5
20 10 -1.2896e-13
20 10 5
20 10 10
20 15 -10
20 15 -5
20 15 -1.97945e-13
20 15 5
20 15 10
20 20 -10
20 20 -5
20 20 -2.6693e-13
20 20 5
20 20 10
