ply
format ascii 1.0
element vertex 26
property float x
property float y
property float z
end_header
-10 -10 -10
-10 -10 -5.4269e-15
-10 -10 10
-10 0 -10
-10 -1.77636e-15 -3.42094e-15
-10 -3.55271e-15 10
-10 10 -10
-10 10 -1.41497e-15
-10 10 10
8.88178e-16 -10 -10
-8.88178e-16 -10 -3.62777e-15
-2.66454e-15 -10 10
4.44089e-15 -1.77636e-15 -10
8.88178e-16 -7.10543e-15 10
7.99361e-15 10 -10
6.21725e-15 10 3.84156e-16
4.44089e-15 10 10
10 -10 -10
10 -10 -1.82864e-15
10 -10 10
10 -1.77636e-15 -10
10 -4.44089e-15 1.77324e-16
10 -7.10543e-15 10
10 10 -10
10 10 2.18329e-15
10 10 10
