ply
format ascii 1.0
element vertex 1331
property float x
property float y
property float z
end_header
2.22045e-15 1.37349e-14 -10
2.66454e-15 1.37349e-14 -8
3.10862e-15 1.37349e-14 -6
3.9968e-15 1.37349e-14 -4
4.44089e-15 1.37349e-14 -2
4.88498e-15 1.37349e-14 7.16685e-15
5.32907e-15 1.37349e-14 2
5.77316e-15 1.37349e-14 4
6.66134e-15 1.37349e-14 6
7.10543e-15 1.37349e-14 8
7.54952e-15 1.37349e-14 10
3.10862e-15 2 -10
3.55271e-15 2 -8
3.9968e-15 2 -6
4.88498e-15 2 -4
5.32907e-15 2 -2
5.77316e-15 2 7.16685e-15
6.21725e-15 2 2
6.66134e-15 2 4
7.54952e-15 2 6
7.99361e-15 2 8
8.43769e-15 2 10
3.55271e-15 4 -10
3.9968e-15 4 -8
4.44089e-15 4 -6
5.32907e-15 4 -4
5.77316e-15 4 -2
6.21725e-15 4 7.16685e-15
6.66134e-15 4 2
7.10543e-15 4 4
7.99361e-15 4 6
8.43769e-15 4 8
8.88178e-15 4 10
3.9968e-15 6 -10
4.44089e-15 6 -8
4.88498e-15 6 -6
5.77316e-15 6 -4
6.21725e-15 6 -2
6.66134e-15 6 7.16685e-15
7.10543e-15 6 2
7.54952e-15 6 4
8.43769e-15 6 6
8.88178e-15 6 8
9.32587e-15 6 10
3.9968e-15 8 -10
4.44089e-15 8 -8
4.88498e-15 8 -6
5.77316e-15 8 -4
6.21725e-15 8 -2
6.66134e-15 8 7.16685e-15
7.10543e-15 8 2
7.54952e-15 8 4
8.43769e-15 8 6
8.88178e-15 8 8
9.32587e-15 8 10
6.66134e-15 10 -10
7.10543e-15 10 -8
7.54952e-15 10 -6
8.43769e-15 10 -4
8.88178e-15 10 -2
9.32587e-15 10 7.16685e-15
9.76996e-15 10 2
1.02141e-14 10 4
1.11022e-14 10 6
1.15463e-14 10 8
1.19904e-14 10 10
7.10543e-15 12 -10
7.54952e-15 12 -8
7.99361e-15 12 -6
8.88178e-15 12 -4
9.32587e-15 12 -2
9.76996e-15 12 7.16685e-15
1.02141e-14 12 2
1.06581e-14 12 4
1.15463e-14 12 6
1.19904e-14 12 8
1.24345e-14 12 10
7.99361e-15 14 -10
8.43769e-15 14 -8
8.88178e-15 14 -6
9.76996e-15 14 -4
1.02141e-14 14 -2
1.06581e-14 14 7.16685e-15
1.11022e-14 14 2
1.15463e-14 14 4
1.24345e-14 14 6
1.28786e-14 14 8
1.33227e-14 14 10
8.43769e-15 16 -10
8.88178e-15 16 -8
9.32587e-15 16 -6
1.02141e-14 16 -4
1.06581e-14 16 -2
1.11022e-14 16 7.16685e-15
1.15463e-14 16 2
1.19904e-14 16 4
1.28786e-14 16 6
1.33227e-14 16 8
1.37668e-14 16 10
9.32587e-15 18 -10
9.76996e-15 18 -8
1.02141e-14 18 -6
1.11022e-14 18 -4
1.15463e-14 18 -2
1.19904e-14 18 7.16685e-15
1.24345e-14 18 2
1.28786e-14 18 4
1.37668e-14 18 6
1.42109e-14 18 8
1.46549e-14 18 10
1.11022e-14 20 -10
1.15463e-14 20 -8
1.19904e-14 20 -6
1.28786e-14 20 -4
1.33227e-14 20 -2
1.37668e-14 20 7.16685e-15
1.42109e-14 20 2
1.46549e-14 20 4
1.55431e-14 20 6
1.59872e-14 20 8
1.64313e-14 20 10
2 1.28467e-14 -10
2 1.28467e-14 -8
2 1.28467e-14 -6
2 1.28467e-14 -4
2 1.28467e-14 -2
2 1.28467e-14 6.632e-15
2 1.28467e-14 2
2 1.28467e-14 4
2 1.28467e-14 6
2 1.28467e-14 8
2 1.28467e-14 10
2 2 -10
2 2 -8
2 2 -6
2 2 -4
2 2 -2
2 2 6.632e-15
2 2 2
2 2 4
2 2 6
2 2 8
2 2 10
2 4 -10
2 4 -8
2 4 -6
2 4 -4
2 4 -2
2 4 6.632e-15
2 4 2
2 4 4
2 4 6
2 4 8
2 4 10
2 6 -10
2 6 -8
2 6 -6
2 6 -4
2 6 -2
2 6 6.632e-15
2 6 2
2 6 4
2 6 6
2 6 8
2 6 10
2 8 -10
2 8 -8
2 8 -6
2 8 -4
2 8 -2
2 8 6.632e-15
2 8 2
2 8 4
2 8 6
2 8 8
2 8 10
2 10 -10
2 10 -8
2 10 -6
2 10 -4
2 10 -2
2 10 6.632e-15
2 10 2
2 10 4
2 10 6
2 10 8
2 10 10
2 12 -10
2 12 -8
2 12 -6
2 12 -4
2 12 -2
2 12 6.632e-15
2 12 2
2 12 4
2 12 6
2 12 8
2 12 10
2 14 -10
2 14 -8
2 14 -6
2 14 -4
2 14 -2
2 14 6.632e-15
2 14 2
2 14 4
2 14 6
2 14 8
2 14 10
2 16 -10
2 16 -8
2 16 -6
2 16 -4
2 16 -2
2 16 6.632e-15
2 16 2
2 16 4
2 16 6
2 16 8
2 16 10
2 18 -10
2 18 -8
2 18 -6
2 18 -4
2 18 -2
2 18 6.632e-15
2 18 2
2 18 4
2 18 6
2 18 8
2 18 10
2 20 -10
2 20 -8
2 20 -6
2 20 -4
2 20 -2
2 20 6.632e-15
2 20 2
2 20 4
2 20 6
2 20 8
2 20 10
4 1.19585e-14 -10
4 1.19585e-14 -8
4 1.19585e-14 -6
4 1.19585e-14 -4
4 1.19585e-14 -2
4 1.19585e-14 6.09716e-15
4 1.19585e-14 2
4 1.19585e-14 4
4 1.19585e-14 6
4 1.19585e-14 8
4 1.19585e-14 10
4 2 -10
4 2 -8
4 2 -6
4 2 -4
4 2 -2
4 2 6.09716e-15
4 2 2
4 2 4
4 2 6
4 2 8
4 2 10
4 4 -10
4 4 -8
4 4 -6
4 4 -4
4 4 -2
4 4 6.09716e-15
4 4 2
4 4 4
4 4 6
4 4 8
4 4 10
4 6 -10
4 6 -8
4 6 -6
4 6 -4
4 6 -2
4 6 6.09716e-15
4 6 2
4 6 4
4 6 6
4 6 8
4 6 10
4 8 -10
4 8 -8
4 8 -6
4 8 -4
4 8 -2
4 8 6.09716e-15
4 8 2
4 8 4
4 8 6
4 8 8
4 8 10
4 10 -10
4 10 -8
4 10 -6
4 10 -4
4 10 -2
4 10 6.09716e-15
4 10 2
4 10 4
4 10 6
4 10 8
4 10 10
4 12 -10
4 12 -8
4 12 -6
4 12 -4
4 12 -2
4 12 6.09716e-15
4 12 2
4 12 4
4 12 6
4 12 8
4 12 10
4 14 -10
4 14 -8
4 14 -6
4 14 -4
4 14 -2
4 14 6.09716e-15
4 14 2
4 14 4
4 14 6
4 14 8
4 14 10
4 16 -10
4 16 -8
4 16 -6
4 16 -4
4 16 -2
4 16 6.09716e-15
4 16 2
4 16 4
4 16 6
4 16 8
4 16 10
4 18 -10
4 18 -8
4 18 -6
4 18 -4
4 18 -2
4 18 6.09716e-15
4 18 2
4 18 4
4 18 6
4 18 8
4 18 10
4 20 -10
4 20 -8
4 20 -6
4 20 -4
4 20 -2
4 20 6.09716e-15
4 20 2
4 20 4
4 20 6
4 20 8
4 20 10
6 1.06263e-14 -10
6 1.06263e-14 -8
6 1.06263e-14 -6
6 1.06263e-14 -4
6 1.06263e-14 -2
6 1.06263e-14 5.56232e-15
6 1.06263e-14 2
6 1.06263e-14 4
6 1.06263e-14 6
6 1.06263e-14 8
6 1.06263e-14 10
6 2 -10
6 2 -8
6 2 -6
6 2 -4
6 2 -2
6 2 5.56232e-15
6 2 2
6 2 4
6 2 6
6 2 8
6 2 10
6 4 -10
6 4 -8
6 4 -6
6 4 -4
6 4 -2
6 4 5.56232e-15
6 4 2
6 4 4
6 4 6
6 4 8
6 4 10
6 6 -10
6 6 -8
6 6 -6
6 6 -4
6 6 -2
6 6 5.56232e-15
6 6 2
6 6 4
6 6 6
6 6 8
6 6 10
6 8 -10
6 8 -8
6 8 -6
6 8 -4
6 8 -2
6 8 5.56232e-15
6 8 2
6 8 4
6 8 6
6 8 8
6 8 10
6 10 -10
6 10 -8
6 10 -6
6 10 -4
6 10 -2
6 10 5.56232e-15
6 10 2
6 10 4
6 10 6
6 10 8
6 10 10
6 12 -10
6 12 -8
6 12 -6
6 12 -4
6 12 -2
6 12 5.56232e-15
6 12 2
6 12 4
6 12 6
6 12 8
6 12 10
6 14 -10
6 14 -8
6 14 -6
6 14 -4
6 14 -2
6 14 5.56232e-15
6 14 2
6 14 4
6 14 6
6 14 8
6 14 10
6 16 -10
6 16 -8
6 16 -6
6 16 -4
6 16 -2
6 16 5.56232e-15
6 16 2
6 16 4
6 16 6
6 16 8
6 16 10
6 18 -10
6 18 -8
6 18 -6
6 18 -4
6 18 -2
6 18 5.56232e-15
6 18 2
6 18 4
6 18 6
6 18 8
6 18 10
6 20 -10
6 20 -8
6 20 -6
6 20 -4
6 20 -2
6 20 5.56232e-15
6 20 2
6 20 4
6 20 6
6 20 8
6 20 10
8 9.7381e-15 -10
8 9.7381e-15 -8
8 9.7381e-15 -6
8 9.7381e-15 -4
8 9.7381e-15 -2
8 9.7381e-15 5.02747e-15
8 9.7381e-15 2
8 9.7381e-15 4
8 9.7381e-15 6
8 9.7381e-15 8
8 9.7381e-15 10
8 2 -10
8 2 -8
8 2 -6
8 2 -4
8 2 -2
8 2 5.02747e-15
8 2 2
8 2 4
8 2 6
8 2 8
8 2 10
8 4 -10
8 4 -8
8 4 -6
8 4 -4
8 4 -2
8 4 5.02747e-15
8 4 2
8 4 4
8 4 6
8 4 8
8 4 10
8 6 -10
8 6 -8
8 6 -6
8 6 -4
8 6 -2
8 6 5.02747e-15
8 6 2
8 6 4
8 6 6
8 6 8
8 6 10
8 8 -10
8 8 -8
8 8 -6
8 8 -4
8 8 -2
8 8 5.02747e-15
8 8 2
8 8 4
8 8 6
8 8 8
8 8 10
8 10 -10
8 10 -8
8 10 -6
8 10 -4
8 10 -2
8 10 5.02747e-15
8 10 2
8 10 4
8 10 6
8 10 8
8 10 10
8 12 -10
8 12 -8
8 12 -6
8 12 -4
8 12 -2
8 12 5.02747e-15
8 12 2
8 12 4
8 12 6
8 12 8
8 12 10
8 14 -10
8 14 -8
8 14 -6
8 14 -4
8 14 -2
8 14 5.02747e-15
8 14 2
8 14 4
8 14 6
8 14 8
8 14 10
8 16 -10
8 16 -8
8 16 -6
8 16 -4
8 16 -2
8 16 5.02747e-15
8 16 2
8 16 4
8 16 6
8 16 8
8 16 10
8 18 -10
8 18 -8
8 18 -6
8 18 -4
8 18 -2
8 18 5.02747e-15
8 18 2
8 18 4
8 18 6
8 18 8
8 18 10
8 20 -10
8 20 -8
8 20 -6
8 20 -4
8 20 -2
8 20 5.02747e-15
8 20 2
8 20 4
8 20 6
8 20 8
8 20 10
10 8.84992e-15 -10
10 8.84992e-15 -8
10 8.84992e-15 -6
10 8.84992e-15 -4
10 8.84992e-15 -2
10 8.84992e-15 4.49263e-15
10 8.84992e-15 2
10 8.84992e-15 4
10 8.84992e-15 6
10 8.84992e-15 8
10 8.84992e-15 10
10 2 -10
10 2 -8
10 2 -6
10 2 -4
10 2 -2
10 2 4.49263e-15
10 2 2
10 2 4
10 2 6
10 2 8
10 2 10
10 4 -10
10 4 -8
10 4 -6
10 4 -4
10 4 -2
10 4 4.49263e-15
10 4 2
10 4 4
10 4 6
10 4 8
10 4 10
10 6 -10
10 6 -8
10 6 -6
10 6 -4
10 6 -2
10 6 4.49263e-15
10 6 2
10 6 4
10 6 6
10 6 8
10 6 10
10 8 -10
10 8 -8
10 8 -6
10 8 -4
10 8 -2
10 8 4.49263e-15
10 8 2
10 8 4
10 8 6
10 8 8
10 8 10
10 10 -10
10 10 -8
10 10 -6
10 10 -4
10 10 -2
10 10 4.49263e-15
10 10 2
10 10 4
10 10 6
10 10 8
10 10 10
10 12 -10
10 12 -8
10 12 -6
10 12 -4
10 12 -2
10 12 4.49263e-15
10 12 2
10 12 4
10 12 6
10 12 8
10 12 10
10 14 -10
10 14 -8
10 14 -6
10 14 -4
10 14 -2
10 14 4.49263e-15
10 14 2
10 14 4
10 14 6
10 14 8
10 14 10
10 16 -10
10 16 -8
10 16 -6
10 16 -4
10 16 -2
10 16 4.49263e-15
10 16 2
10 16 4
10 16 6
10 16 8
10 16 10
10 18 -10
10 18 -8
10 18 -6
10 18 -4
10 18 -2
10 18 4.49263e-15
10 18 2
10 18 4
10 18 6
10 18 8
10 18 10
10 20 -10
10 20 -8
10 20 -6
10 20 -4
10 20 -2
10 20 4.49263e-15
10 20 2
10 20 4
10 20 6
10 20 8
10 20 10
12 8.84992e-15 -10
12 8.84992e-15 -8
12 8.84992e-15 -6
12 8.84992e-15 -4
12 8.84992e-15 -2
12 8.84992e-15 3.95779e-15
12 8.84992e-15 2
12 8.84992e-15 4
12 8.84992e-15 6
12 8.84992e-15 8
12 8.84992e-15 10
12 2 -10
12 2 -8
12 2 -6
12 2 -4
12 2 -2
12 2 3.95779e-15
12 2 2
12 2 4
12 2 6
12 2 8
12 2 10
12 4 -10
12 4 -8
12 4 -6
12 4 -4
12 4 -2
12 4 3.95779e-15
12 4 2
12 4 4
12 4 6
12 4 8
12 4 10
12 6 -10
12 6 -8
12 6 -6
12 6 -4
12 6 -2
12 6 3.95779e-15
12 6 2
12 6 4
12 6 6
12 6 8
12 6 10
12 8 -10
12 8 -8
12 8 -6
12 8 -4
12 8 -2
12 8 3.95779e-15
12 8 2
12 8 4
12 8 6
12 8 8
12 8 10
12 10 -10
12 10 -8
12 10 -6
12 10 -4
12 10 -2
12 10 3.95779e-15
12 10 2
12 10 4
12 10 6
12 10 8
12 10 10
12 12 -10
12 12 -8
12 12 -6
12 12 -4
12 12 -2
12 12 3.95779e-15
12 12 2
12 12 4
12 12 6
12 12 8
12 12 10
12 14 -10
12 14 -8
12 14 -6
12 14 -4
12 14 -2
12 14 3.95779e-15
12 14 2
12 14 4
12 14 6
12 14 8
12 14 10
12 16 -10
12 16 -8
12 16 -6
12 16 -4
12 16 -2
12 16 3.95779e-15
12 16 2
12 16 4
12 16 6
12 16 8
12 16 10
12 18 -10
12 18 -8
12 18 -6
12 18 -4
12 18 -2
12 18 3.95779e-15
12 18 2
12 18 4
12 18 6
12 18 8
12 18 10
12 20 -10
12 20 -8
12 20 -6
12 20 -4
12 20 -2
12 20 3.95779e-15
12 20 2
12 20 4
12 20 6
12 20 8
12 20 10
14 6.18538e-15 -10
14 6.18538e-15 -8
14 6.18538e-15 -6
14 6.18538e-15 -4
14 6.18538e-15 -2
14 6.18538e-15 3.42294e-15
14 6.18538e-15 2
14 6.18538e-15 4
14 6.18538e-15 6
14 6.18538e-15 8
14 6.18538e-15 10
14 2 -10
14 2 -8
14 2 -6
14 2 -4
14 2 -2
14 2 3.42294e-15
14 2 2
14 2 4
14 2 6
14 2 8
14 2 10
14 4 -10
14 4 -8
14 4 -6
14 4 -4
14 4 -2
14 4 3.42294e-15
14 4 2
14 4 4
14 4 6
14 4 8
14 4 10
14 6 -10
14 6 -8
14 6 -6
14 6 -4
14 6 -2
14 6 3.42294e-15
14 6 2
14 6 4
14 6 6
14 6 8
14 6 10
14 8 -10
14 8 -8
14 8 -6
14 8 -4
14 8 -2
14 8 3.42294e-15
14 8 2
14 8 4
14 8 6
14 8 8
14 8 10
14 10 -10
14 10 -8
14 10 -6
14 10 -4
14 10 -2
14 10 3.42294e-15
14 10 2
14 10 4
14 10 6
14 10 8
14 10 10
14 12 -10
14 12 -8
14 12 -6
14 12 -4
14 12 -2
14 12 3.42294e-15
14 12 2
14 12 4
14 12 6
14 12 8
14 12 10
14 14 -10
14 14 -8
14 14 -6
14 14 -4
14 14 -2
14 14 3.42294e-15
14 14 2
14 14 4
14 14 6
14 14 8
14 14 10
14 16 -10
14 16 -8
14 16 -6
14 16 -4
14 16 -2
14 16 3.42294e-15
14 16 2
14 16 4
14 16 6
14 16 8
14 16 10
14 18 -10
14 18 -8
14 18 -6
14 18 -4
14 18 -2
14 18 3.42294e-15
14 18 2
14 18 4
14 18 6
14 18 8
14 18 10
14 20 -10
14 20 -8
14 20 -6
14 20 -4
14 20 -2
14 20 3.42294e-15
14 20 2
14 20 4
14 20 6
14 20 8
14 20 10
16 4.40903e-15 -10
16 4.40903e-15 -8
16 4.40903e-15 -6
16 4.40903e-15 -4
16 4.40903e-15 -2
16 4.40903e-15 2.8881e-15
16 4.40903e-15 2
16 4.40903e-15 4
16 4.40903e-15 6
16 4.40903e-15 8
16 4.40903e-15 10
16 2 -10
16 2 -8
16 2 -6
16 2 -4
16 2 -2
16 2 2.8881e-15
16 2 2
16 2 4
16 2 6
16 2 8
16 2 10
16 4 -10
16 4 -8
16 4 -6
16 4 -4
16 4 -2
16 4 2.8881e-15
16 4 2
16 4 4
16 4 6
16 4 8
16 4 10
16 6 -10
16 6 -8
16 6 -6
16 6 -4
16 6 -2
16 6 2.8881e-15
16 6 2
16 6 4
16 6 6
16 6 8
16 6 10
16 8 -10
16 8 -8
16 8 -6
16 8 -4
16 8 -2
16 8 2.8881e-15
16 8 2
16 8 4
16 8 6
16 8 8
16 8 10
16 10 -10
16 10 -8
16 10 -6
16 10 -4
16 10 -2
16 10 2.8881e-15
16 10 2
16 10 4
16 10 6
16 10 8
16 10 10
16 12 -10
16 12 -8
16 12 -6
16 12 -4
16 12 -2
16 12 2.8881e-15
16 12 2
16 12 4
16 12 6
16 12 8
16 12 10
16 14 -10
16 14 -8
16 14 -6
16 14 -4
16 14 -2
16 14 2.8881e-15
16 14 2
16 14 4
16 14 6
16 14 8
16 14 10
16 16 -10
16 16 -8
16 16 -6
16 16 -4
16 16 -2
16 16 2.8881e-15
16 16 2
16 16 4
16 16 6
16 16 8
16 16 10
16 18 -10
16 18 -8
16 18 -6
16 18 -4
16 18 -2
16 18 2.8881e-15
16 18 2
16 18 4
16 18 6
16 18 8
16 18 10
16 20 -10
16 20 -8
16 20 -6
16 20 -4
16 20 -2
16 20 2.8881e-15
16 20 2
16 20 4
16 20 6
16 20 8
16 20 10
18 6.18538e-15 -10
18 6.18538e-15 -8
18 6.18538e-15 -6
18 6.18538e-15 -4
18 6.18538e-15 -2
18 6.18538e-15 2.35326e-15
18 6.18538e-15 2
18 6.18538e-15 4
18 6.18538e-15 6
18 6.18538e-15 8
18 6.18538e-15 10
18 2 -10
18 2 -8
18 2 -6
18 2 -4
18 2 -2
18 2 2.35326e-15
18 2 2
18 2 4
18 2 6
18 2 8
18 2 10
18 4 -10
18 4 -8
18 4 -6
18 4 -4
18 4 -2
18 4 2.35326e-15
18 4 2
18 4 4
18 4 6
18 4 8
18 4 10
18 6 -10
18 6 -8
18 6 -6
18 6 -4
18 6 -2
18 6 2.35326e-15
18 6 2
18 6 4
18 6 6
18 6 8
18 6 10
18 8 -10
18 8 -8
18 8 -6
18 8 -4
18 8 -2
18 8 2.35326e-15
18 8 2
18 8 4
18 8 6
18 8 8
18 8 10
18 10 -10
18 10 -8
18 10 -6
18 10 -4
18 10 -2
18 10 2.35326e-15
18 10 2
18 10 4
18 10 6
18 10 8
18 10 10
18 12 -10
18 12 -8
18 12 -6
18 12 -4
18 12 -2
18 12 2.35326e-15
18 12 2
18 12 4
18 12 6
18 12 8
18 12 10
18 14 -10
18 14 -8
18 14 -6
18 14 -4
18 14 -2
18 14 2.35326e-15
18 14 2
18 14 4
18 14 6
18 14 8
18 14 10
18 16 -10
18 16 -8
18 16 -6
18 16 -4
18 16 -2
18 16 2.35326e-15
18 16 2
18 16 4
18 16 6
18 16 8
18 16 10
18 18 -10
18 18 -8
18 18 -6
18 18 -4
18 18 -2
18 18 2.35326e-15
18 18 2
18 18 4
18 18 6
18 18 8
18 18 10
18 20 -10
18 20 -8
18 20 -6
18 20 -4
18 20 -2
18 20 2.35326e-15
18 20 2
18 20 4
18 20 6
18 20 8
18 20 10
20 4.40903e-15 -10
20 4.40903e-15 -8
20 4.40903e-15 -6
20 4.40903e-15 -4
20 4.40903e-15 -2
20 4.40903e-15 1.81841e-15
20 4.40903e-15 2
20 4.40903e-15 4
20 4.40903e-15 6
20 4.40903e-15 8
20 4.40903e-15 10
20 2 -10
20 2 -8
20 2 -6
20 2 -4
20 2 -2
20 2 1.81841e-15
20 2 2
20 2 4
20 2 6
20 2 8
20 2 10
20 4 -10
20 4 -8
20 4 -6
20 4 -4
20 4 -2
20 4 1.81841e-15
20 4 2
20 4 4
20 4 6
20 4 8
20 4 10
20 6 -10
20 6 -8
20 6 -6
20 6 -4
20 6 -2
20 6 1.81841e-15
20 6 2
20 6 4
20 6 6
20 6 8
20 6 10
20 8 -10
20 8 -8
20 8 -6
20 8 -4
20 8 -2
20 8 1.81841e-15
20 8 2
20 8 4
20 8 6
20 8 8
20 8 10
20 10 -10
20 10 -8
20 10 -6
20 10 -4
20 10 -2
20 10 1.81841e-15
20 10 2
20 10 4
20 10 6
20 10 8
20 10 10
20 12 -10
20 12 -8
20 12 -6
20 12 -4
20 12 -2
20 12 1.81841e-15
20 12 2
20 12 4
20 12 6
20 12 8
20 12 10
20 14 -10
20 14 -8
20 14 -6
20 14 -4
20 14 -2
20 14 1.81841e-15
20 14 2
20 14 4
20 14 6
20 14 8
20 14 10
20 16 -10
20 16 -8
20 16 -6
20 16 -4
20 16 -2
20 16 1.81841e-15
20 16 2
20 16 4
20 16 6
20 16 8
20 16 10
20 18 -10
20 18 -8
20 18 -6
20 18 -4
20 18 -2
20 18 1.81841e-15
20 18 2
20 18 4
20 18 6
20 18 8
20 18 10
20 20 -10
20 20 -8
20 20 -6
20 20 -4
20 20 -2
20 20 1.81841e-15
20 20 2
20 20 4
20 20 6
20 20 8
20 20 10
