ply
format ascii 1.0
element vertex 30
property float x
property float y
property float z
end_header
-0.669873 11.1603 -6
-0.669873 11.1603 0
-0.473721 22.8205 2
0.598076 4.9641 0
-1.20577 20.0885 0
19.9186 11.5 -4
10.2583 8.23205 10
-6.40192 17.0885 -10
10.9904 10.9641 10
2.99038 24.8205 8
-7.40192 18.8205 8
11.9904 9.23205 -4
9.45448 21.6244 2
2.06218 10.4282 6
3.52628 15.8923 4
-1.93782 17.3564 -6
5.79423 7.9641 -4
7.45448 25.0885 -6
9.25833 9.9641 -2
-3.93782 20.8205 4
6.79423 6.23205 2
14.4545 12.9641 2
11.2583 6.5 -2
3.79423 11.4282 -10
2.79423 13.1603 10
2.33013 5.9641 4
1.33013 7.69615 -2
-5.40192 15.3564 -4
7.72243 20.6244 -10
13.7224 10.2321 -2
