ply
format ascii 1.0
element vertex 50
property float x
property float y
property float z
end_header
21.9993 8.3387 -4.99998
19.4993 12.6689 -4.9999
16.9994 16.999 -4.99982
14.4994 21.3291 -4.99974
11.9995 25.6594 -4.99965
21.9993 8.33882 -9.99998
19.4994 12.669 -9.9999
16.9994 16.9991 -9.99982
14.4995 21.3293 -9.99974
11.9995 25.6595 -9.99965
21.9993 8.33894 -15
19.4994 12.6691 -14.9999
16.9994 16.9992 -14.9998
14.4995 21.3294 -14.9997
11.9995 25.6596 -14.9997
21.9994 8.33906 -20
19.4994 12.6692 -19.9999
16.9995 16.9994 -19.9998
14.4995 21.3295 -19.9997
11.9996 25.6597 -19.9997
21.9994 8.33917 -25
19.4995 12.6693 -24.9999
16.9995 16.9995 -24.9998
14.4996 21.3296 -24.9997
11.9996 25.6598 -24.9997
22.9993 10.0708 -6.99993
20.9993 13.5349 -6.99987
18.9994 16.999 -6.9998
16.9994 20.4632 -6.99974
14.9995 23.9273 -6.99967
22.9993 10.0709 -10.9999
20.9994 13.535 -10.9999
18.9994 16.9991 -10.9998
16.9995 20.4633 -10.9997
14.9995 23.9274 -10.9997
22.9994 10.071 -14.9999
20.9994 13.5351 -14.9999
18.9994 16.9992 -14.9998
16.9995 20.4633 -14.9997
14.9995 23.9275 -14.9997
22.9994 10.0711 -18.9999
20.9994 13.5352 -18.9999
18.9995 16.9993 -18.9998
16.9995 20.4634 -18.9997
14.9996 23.9276 -18.9997
22.9994 10.0712 -22.9999
20.9995 13.5353 -22.9999
18.9995 16.9994 -22.9998
16.9996 20.4635 -22.9997
14.9996 23.9277 -22.9997
