ply
format ascii 1.0
element vertex 30
property float x
property float y
property float z
end_header
19.5 12.6699 -10
19.5 12.6699 -10
17 17 -25
19.5 12.6699 -5
17 17 -20
23 10.0718 -23
14.5 21.3301 -25
14.5 21.3301 -5
17 20.4641 -7
21 13.5359 -11
12 25.6603 -5
19 17 -7
15 23.9282 -15
19.5 12.6699 -15
22 8.33975 -25
17 17 -15
12 25.6603 -15
23 10.0718 -19
14.5 21.3301 -25
14.5 21.3301 -15
12 25.6603 -15
19 17 -15
17 17 -25
22 8.33975 -20
19.5 12.6699 -20
22 8.33975 -10
22 8.33975 -10
14.5 21.3301 -5
15 23.9282 -11
19 17 -11
