ply
format ascii 1.0
element vertex 53
property float x
property float y
property float z
end_header
0.5 1 -2.5
0.5 1 -2
0.5 1 -1.5
0.5 1.5 -4
0.5 1.5 -3.5
0.5 1.5 -3
0.5 1.5 -2.5
0.5 1.5 -2
0.5 2 -5
0.5 2 -4.5
0.5 2 -4
0.5 2 -3.5
0.5 2 -3
0.5 2 -2.5
0.5 2.5 -5
0.5 2.5 -4.5
0.5 2.5 -4
0.5 2.5 -3.5
0.5 3 -5
0.5 3 -4.5
0.5 3 -4
0.5 3.5 -5
0.5 3.5 -4.5
1 1.5 -4
1 1.5 -3.5
1 1.5 -3
1 1.5 -2.5
1 2 -5
1 2 -4.5
1 2 -4
1 2 -3.5
1 2 -3
1 2.5 -5
1 2.5 -4.5
1 2.5 -4
1 2.5 -3.5
1 3 -5
1 3 -4.5
1 3 -4
1 3.5 -5
1 3.5 -4.5
1 4 -5
1.5 2 -5
1.5 2 -4.5
1.5 2 -4
1.5 2.5 -5
1.5 2.5 -4.5
1.5 2.5 -4
1.5 3 -5
1.5 3 -4.5
1.5 3.5 -5
1.5 3.5 -4.5
2 3 -5
