ply
format ascii 1.0
element vertex 136
property float x
property float y
property float z
end_header
1.02909 -4.90884 0.669217
1.01366 -4.91205 0.669217
0.998201 -4.9151 0.670093
1.04949 -4.93323 0.685511
1.02907 -4.91728 0.682817
1.00961 -4.90108 0.680124
0.997086 -4.914 0.67972
1.05541 -4.88971 0.692349
1.04533 -4.92213 0.69734
1.02493 -4.90606 0.695469
1.01039 -4.9092 0.694595
0.993047 -4.90288 0.691476
0.973767 -4.88654 0.688737
1.05665 -4.90796 0.70736
1.03832 -4.90175 0.705965
1.02406 -4.91473 0.708236
1.00468 -4.89877 0.703697
0.992079 -4.91131 0.705965
0.976668 -4.91453 0.70509
1.05629 -4.90625 0.719625
1.03796 -4.90004 0.718206
1.0237 -4.91303 0.720501
1.00229 -4.88713 0.716238
0.992836 -4.91948 0.719625
0.972471 -4.8934 0.714496
1.05083 -4.90587 0.730135
1.03707 -4.90853 0.731886
1.02079 -4.91195 0.731886
1.00139 -4.89574 0.728999
0.990768 -4.91809 0.731886
1.03709 -4.91707 0.743856
1.01959 -4.91049 0.743267
1.0033 -4.91384 0.743267
0.987653 -4.90705 0.740927
1.02909 -4.90884 0.669217
1.01366 -4.91205 0.669217
0.998201 -4.9151 0.670093
1.04949 -4.93323 0.685511
1.02907 -4.91728 0.682817
1.00961 -4.90108 0.680124
0.997086 -4.914 0.67972
1.05541 -4.88971 0.692349
1.04533 -4.92213 0.69734
1.02493 -4.90606 0.695469
1.01039 -4.9092 0.694595
0.993047 -4.90288 0.691476
0.973767 -4.88654 0.688737
1.05665 -4.90796 0.70736
1.03832 -4.90175 0.705965
1.02406 -4.91473 0.708236
1.00468 -4.89877 0.703697
0.992079 -4.91131 0.705965
0.976668 -4.91453 0.70509
1.05629 -4.90625 0.719625
1.03796 -4.90004 0.718206
1.0237 -4.91303 0.720501
1.00229 -4.88713 0.716238
0.992836 -4.91948 0.719625
0.972471 -4.8934 0.714496
1.05083 -4.90587 0.730135
1.03707 -4.90853 0.731886
1.02079 -4.91195 0.731886
1.00139 -4.89574 0.728999
0.990768 -4.91809 0.731886
1.03709 -4.91707 0.743856
1.01959 -4.91049 0.743267
1.0033 -4.91384 0.743267
0.987653 -4.90705 0.740927
1.02909 -4.90884 0.669217
1.01366 -4.91205 0.669217
0.998201 -4.9151 0.670093
1.04949 -4.93323 0.685511
1.02907 -4.91728 0.682817
1.00961 -4.90108 0.680124
0.997086 -4.914 0.67972
1.05541 -4.88971 0.692349
1.04533 -4.92213 0.69734
1.02493 -4.90606 0.695469
1.01039 -4.9092 0.694595
0.993047 -4.90288 0.691476
0.973767 -4.88654 0.688737
1.05665 -4.90796 0.70736
1.03832 -4.90175 0.705965
1.02406 -4.91473 0.708236
1.00468 -4.89877 0.703697
0.992079 -4.91131 0.705965
0.976668 -4.91453 0.70509
1.05629 -4.90625 0.719625
1.03796 -4.90004 0.718206
1.0237 -4.91303 0.720501
1.00229 -4.88713 0.716238
0.992836 -4.91948 0.719625
0.972471 -4.8934 0.714496
1.05083 -4.90587 0.730135
1.03707 -4.90853 0.731886
1.02079 -4.91195 0.731886
1.00139 -4.89574 0.728999
0.990768 -4.91809 0.731886
1.03709 -4.91707 0.743856
1.01959 -4.91049 0.743267
1.0033 -4.91384 0.743267
0.987653 -4.90705 0.740927
1.02909 -4.90884 0.669217
1.01366 -4.91205 0.669217
0.998201 -4.9151 0.670093
1.04949 -4.93323 0.685511
1.02907 -4.91728 0.682817
1.00961 -4.90108 0.680124
0.997086 -4.914 0.67972
1.05541 -4.88971 0.692349
1.04533 -4.92213 0.69734
1.02493 -4.90606 0.695469
1.01039 -4.9092 0.694595
0.993047 -4.90288 0.691476
0.973767 -4.88654 0.688737
1.05665 -4.90796 0.70736
1.03832 -4.90175 0.705965
1.02406 -4.91473 0.708236
1.00468 -4.89877 0.703697
0.992079 -4.91131 0.705965
0.976668 -4.91453 0.70509
1.05629 -4.90625 0.719625
1.03796 -4.90004 0.718206
1.0237 -4.91303 0.720501
1.00229 -4.88713 0.716238
0.992836 -4.91948 0.719625
0.972471 -4.8934 0.714496
1.05083 -4.90587 0.730135
1.03707 -4.90853 0.731886
1.02079 -4.91195 0.731886
1.00139 -4.89574 0.728999
0.990768 -4.91809 0.731886
1.03709 -4.91707 0.743856
1.01959 -4.91049 0.743267
1.0033 -4.91384 0.743267
0.987653 -4.90705 0.740927
