ply
format ascii 1.0
element vertex 530
property float x
property float y
property float z
end_header
0.624153 -4.87227 0.933478
0.608495 -4.86452 0.930755
0.625017 -4.89938 0.952012
0.607729 -4.8722 0.94462
0.621365 -4.87753 0.961103
0.605741 -4.87011 0.956615
0.615021 -4.86157 0.993419
0.601837 -4.87345 0.993692
0.61431 -4.8696 1.00483
0.59864 -4.86151 1.00368
0.612302 -4.86737 1.01682
0.598729 -4.86923 1.01596
0.612361 -4.8747 1.03086
0.597553 -4.86668 1.0288
0.608258 -4.86262 1.04164
0.59678 -4.87445 1.04114
0.612361 -4.8747 1.03086
0.597553 -4.86668 1.0288
0.62266 -4.86062 1.04249
0.608258 -4.86262 1.04164
0.59678 -4.87445 1.04114
0.609176 -4.86997 1.05486
0.605969 -4.8581 1.06387
0.591552 -4.85987 1.06387
0.606292 -4.87453 1.08269
0.590695 -4.86699 1.07883
0.603934 -4.8625 1.09166
0.591852 -4.88365 1.09601
0.591852 -4.88365 1.09601
0.574241 -4.86629 1.0908
0.587484 -4.86182 1.10363
0.571067 -4.85395 1.10143
0.587484 -4.86182 1.10363
0.571067 -4.85395 1.10143
0.586311 -4.85923 1.11559
0.568767 -4.84168 1.11115
0.584602 -4.86649 1.12979
0.569026 -4.85852 1.12755
0.562447 -4.891 1.21108
0.572084 -4.84801 1.21261
0.55685 -4.84978 1.21261
0.571461 -4.86462 1.2294
0.555074 -4.85675 1.22697
0.579717 -4.86166 1.15288
0.597033 -4.87652 1.16861
0.580606 -4.86911 1.16459
0.592931 -4.86412 1.17913
0.578496 -4.86586 1.17913
0.543843 -4.86379 1.20392
0.523748 -4.8369 1.1959
0.541816 -4.86104 1.21587
0.521722 -4.83395 1.20863
0.540011 -4.86799 1.23026
0.492477 -4.87373 1.3456
0.475237 -4.84684 1.33596
0.492145 -4.87044 1.35757
0.474987 -4.85302 1.35137
0.4911 -4.87712 1.37137
0.474864 -4.86929 1.36782
0.512566 -4.85229 1.30193
0.496472 -4.85397 1.30193
0.510609 -4.84998 1.31129
0.495456 -4.8608 1.3156
0.510546 -4.86569 1.33015
0.534862 -4.85249 1.25255
0.518768 -4.85424 1.25255
0.534947 -4.86886 1.26949
0.518645 -4.86111 1.26613
0.576019 -4.87405 0.954902
0.588147 -4.86018 0.965812
0.572343 -4.87212 0.966891
0.558754 -4.87387 0.966035
0.572045 -4.86959 0.979731
0.576019 -4.87405 0.954902
0.588147 -4.86018 0.965812
0.572343 -4.87212 0.966891
0.558754 -4.87387 0.966035
0.572045 -4.86959 0.979731
0.487116 -4.85455 1.37876
0.472816 -4.86587 1.38062
0.486066 -4.86116 1.39257
0.470735 -4.85325 1.38897
0.468392 -4.8467 1.51661
0.456705 -4.87685 1.52468
0.468156 -4.85311 1.5298
0.454618 -4.86371 1.53365
0.467052 -4.86833 1.5486
0.450875 -4.86028 1.54558
0.462848 -4.85123 1.57026
0.476072 -4.85536 1.58611
0.459019 -4.8379 1.57993
0.444689 -4.83951 1.57908
0.473893 -4.84184 1.59576
0.460497 -4.8625 1.60114
0.473893 -4.84184 1.59576
0.460497 -4.8625 1.60114
0.475464 -4.86665 1.61621
0.460127 -4.85859 1.61307
0.473354 -4.86259 1.629
0.457169 -4.84537 1.62183
0.572908 -4.87693 0.993692
0.55564 -4.86924 0.990853
0.582178 -4.85346 1.00253
0.568084 -4.86517 1.00368
0.567818 -4.8629 1.01479
0.577627 -4.85855 0.928036
0.561493 -4.86028 0.92889
0.578864 -4.87621 0.942049
0.561527 -4.86802 0.941876
0.576019 -4.87405 0.954902
0.582178 -4.85346 1.00253
0.568084 -4.86517 1.00368
0.580232 -4.85157 1.01276
0.567818 -4.8629 1.01479
0.583466 -4.87861 1.02914
0.580232 -4.85157 1.01276
0.583466 -4.87861 1.02914
0.566964 -4.87034 1.0288
0.59678 -4.87445 1.04114
0.577988 -4.84716 1.03492
0.572852 -4.83278 1.05665
0.563308 -4.88346 1.06554
0.573131 -4.84961 1.07368
0.55903 -4.86128 1.07497
0.558972 -4.86826 1.08995
0.538563 -4.85494 1.11337
0.5357 -4.85231 1.12615
0.520643 -4.86375 1.1284
0.533703 -4.84975 1.13808
0.526572 -4.83931 1.18486
0.543843 -4.86379 1.20392
0.523748 -4.8369 1.1959
0.521722 -4.83395 1.20863
0.523748 -4.8369 1.1959
0.541816 -4.86104 1.21587
0.521722 -4.83395 1.20863
0.540011 -4.86799 1.23026
0.523888 -4.86997 1.2294
0.534862 -4.85249 1.25255
0.518768 -4.85424 1.25255
0.534947 -4.86886 1.26949
0.518645 -4.86111 1.26613
0.483406 -4.85168 1.27639
0.497596 -4.85658 1.29171
0.483268 -4.86752 1.29512
0.467094 -4.85984 1.29085
0.496472 -4.85397 1.30193
0.480245 -4.84566 1.3002
0.475237 -4.84684 1.33596
0.459985 -4.84808 1.33681
0.474987 -4.85302 1.35137
0.458936 -4.85503 1.34967
0.474864 -4.86929 1.36782
0.464668 -4.84348 1.42468
0.450313 -4.85422 1.42834
0.463621 -4.85933 1.44223
0.449202 -4.86069 1.44223
0.461614 -4.85623 1.4533
0.448932 -4.86704 1.45616
0.47249 -4.86251 1.49828
0.458956 -4.87341 1.50121
0.442805 -4.85623 1.49365
0.470464 -4.85928 1.50936
0.456892 -4.86057 1.50936
0.443358 -4.87169 1.51146
0.456705 -4.87685 1.52468
0.483924 -4.84828 1.40173
0.49925 -4.87273 1.42029
0.480988 -4.83596 1.40915
0.496092 -4.85026 1.42664
0.479036 -4.84208 1.42468
0.442805 -4.85623 1.49365
0.429266 -4.8577 1.4928
0.443358 -4.87169 1.51146
0.425566 -4.84476 1.50176
0.436427 -4.86132 1.54643
0.421222 -4.8438 1.53954
0.436139 -4.86765 1.55969
0.421694 -4.86893 1.55969
0.434948 -4.85436 1.56856
0.420543 -4.85563 1.56856
0.443315 -4.87122 1.64327
0.454835 -4.85688 1.65116
0.440422 -4.85821 1.65116
0.427683 -4.86886 1.65436
0.439187 -4.86347 1.66715
0.437556 -4.84541 1.77846
0.424023 -4.84662 1.77846
0.437948 -4.85921 1.79896
0.423582 -4.86112 1.79725
0.45033 -4.8729 1.84526
0.435065 -4.86521 1.84088
0.460955 -4.85829 1.85281
0.446514 -4.86871 1.85721
0.432137 -4.85156 1.84926
0.488605 -4.87795 1.90642
0.471521 -4.85254 1.893
0.486537 -4.87447 1.91583
0.469397 -4.8571 1.9094
0.487065 -4.8884 1.93513
0.471739 -4.89024 1.93427
0.487065 -4.8884 1.93513
0.50216 -4.90114 1.95364
0.488597 -4.92119 1.96101
0.47307 -4.92202 1.96274
0.504633 -4.93376 1.97964
0.487264 -4.91649 1.97309
0.5039 -4.88448 2.04702
0.49039 -4.90441 2.05472
0.507155 -4.90764 2.0689
0.48907 -4.89985 2.0659
0.5045 -4.92397 2.10818
0.487261 -4.91646 2.10426
0.500352 -4.90035 2.11325
0.483159 -4.89247 2.11016
0.499901 -4.89594 2.12356
0.485467 -4.91584 2.13148
0.524012 -4.90331 2.20068
0.506769 -4.89555 2.19747
0.520834 -4.89783 2.21358
0.50268 -4.88101 2.20624
0.52045 -4.90236 2.22801
0.535562 -4.91395 2.24747
0.519222 -4.91531 2.24833
0.532057 -4.88971 2.25294
0.516792 -4.90049 2.2571
0.535562 -4.91395 2.24747
0.519222 -4.91531 2.24833
0.532057 -4.88971 2.25294
0.516792 -4.90049 2.2571
0.530307 -4.89748 2.13784
0.515939 -4.91708 2.14667
0.528163 -4.90166 2.15388
0.512762 -4.90329 2.15388
0.530499 -4.92334 2.17886
0.511319 -4.89776 2.16678
0.526216 -4.89965 2.18371
0.510913 -4.91046 2.18777
0.524012 -4.90331 2.20068
0.506769 -4.89555 2.19747
0.520834 -4.89783 2.21358
0.539589 -4.91902 2.23539
0.52045 -4.90236 2.22801
0.505006 -4.90359 2.22887
0.535562 -4.91395 2.24747
0.519222 -4.91531 2.24833
0.549735 -4.89328 2.24091
0.535562 -4.91395 2.24747
0.519222 -4.91531 2.24833
0.550137 -4.89686 2.2571
0.532057 -4.88971 2.25294
0.516792 -4.90049 2.2571
0.53961 -4.84124 2.26011
0.519788 -4.81604 2.24749
0.534263 -4.80852 2.26016
0.515404 -4.78324 2.24746
0.519788 -4.81604 2.24749
0.504614 -4.81726 2.24833
0.534263 -4.80852 2.26016
0.515404 -4.78324 2.24746
0.50232 -4.81156 2.261
0.512178 -4.76895 2.25496
0.519788 -4.81604 2.24749
0.534263 -4.80852 2.26016
0.515404 -4.78324 2.24746
0.50232 -4.81156 2.261
0.512178 -4.76895 2.25496
0.509675 -4.84923 2.24991
0.493591 -4.8509 2.24991
0.504614 -4.81726 2.24833
0.491342 -4.84558 2.26181
0.50232 -4.81156 2.261
0.488223 -4.83162 2.26863
0.534563 -4.92073 2.13372
0.517136 -4.90375 2.12666
0.530307 -4.89748 2.13784
0.515939 -4.91708 2.14667
0.528163 -4.90166 2.15388
0.534563 -4.92073 2.13372
0.517136 -4.90375 2.12666
0.530307 -4.89748 2.13784
0.515939 -4.91708 2.14667
0.528163 -4.90166 2.15388
0.550499 -4.92332 2.14892
0.530307 -4.89748 2.13784
0.545384 -4.90861 2.15874
0.528163 -4.90166 2.15388
0.540811 -4.92224 2.0775
0.524485 -4.924 2.0775
0.507155 -4.90764 2.0689
0.537562 -4.91637 2.09219
0.520323 -4.90933 2.08743
0.540811 -4.92224 2.0775
0.524485 -4.924 2.0775
0.507155 -4.90764 2.0689
0.537562 -4.91637 2.09219
0.520323 -4.90933 2.08743
0.524485 -4.924 2.0775
0.537562 -4.91637 2.09219
0.520323 -4.90933 2.08743
0.536187 -4.91173 2.1034
0.519858 -4.91312 2.10426
0.537562 -4.91637 2.09219
0.520323 -4.90933 2.08743
0.536187 -4.91173 2.1034
0.519858 -4.91312 2.10426
0.518566 -4.91731 2.12027
0.519858 -4.91312 2.10426
0.531034 -4.88825 2.10845
0.518566 -4.91731 2.12027
0.534563 -4.92073 2.13372
0.517136 -4.90375 2.12666
0.454494 -4.87157 1.67038
0.439187 -4.86347 1.66715
0.423956 -4.85561 1.66307
0.451593 -4.86802 1.68148
0.436301 -4.85992 1.67823
0.420543 -4.85563 1.56856
0.405286 -4.85693 1.56856
0.389983 -4.85763 1.57026
0.416824 -4.85209 1.58047
0.401556 -4.8531 1.58132
0.400458 -4.85014 1.59066
0.414443 -4.8442 1.6051
0.399245 -4.84576 1.60425
0.415708 -4.869 1.62559
0.399632 -4.86082 1.62244
0.427683 -4.86886 1.65436
0.410011 -4.84215 1.6439
0.423956 -4.85561 1.66307
0.409524 -4.85656 1.66392
0.433013 -4.8614 1.70535
0.417803 -4.85355 1.7012
0.430968 -4.83844 1.71063
0.418254 -4.85879 1.71642
0.429728 -4.85326 1.72918
0.415325 -4.85452 1.72918
0.429728 -4.85326 1.72918
0.415325 -4.85452 1.72918
0.445455 -4.8665 1.74782
0.431041 -4.8681 1.74697
0.417398 -4.87874 1.75033
0.42644 -4.84501 1.75297
0.445455 -4.8665 1.74782
0.431041 -4.8681 1.74697
0.417398 -4.87874 1.75033
0.443427 -4.87244 1.76144
0.42644 -4.84501 1.75297
0.415277 -4.88406 1.76568
0.42774 -4.86951 1.77339
0.446514 -4.86871 1.85721
0.432137 -4.85156 1.84926
0.458767 -4.84423 1.862
0.444398 -4.85495 1.86558
0.430868 -4.8565 1.86472
0.442287 -4.85992 1.88108
0.457553 -4.85851 1.88108
0.442287 -4.85992 1.88108
0.459743 -4.88176 1.90386
0.441869 -4.85533 1.893
0.425885 -4.8387 1.88406
0.440617 -4.86982 1.91134
0.471739 -4.89024 1.93427
0.488597 -4.92119 1.96101
0.47307 -4.92202 1.96274
0.45591 -4.89598 1.95081
0.487264 -4.91649 1.97309
0.47093 -4.90875 1.96938
0.488597 -4.92119 1.96101
0.47307 -4.92202 1.96274
0.487264 -4.91649 1.97309
0.47093 -4.90875 1.96938
0.485073 -4.91185 1.98516
0.485073 -4.91185 1.98516
0.497324 -4.89607 1.99432
0.483755 -4.91605 2.00183
0.467439 -4.89936 1.99346
0.49513 -4.89998 2.01183
0.480623 -4.90177 2.01097
0.483755 -4.91605 2.00183
0.49513 -4.89998 2.01183
0.480623 -4.90177 2.01097
0.494743 -4.90471 2.0268
0.479253 -4.8966 2.02386
0.494743 -4.90471 2.0268
0.479253 -4.8966 2.02386
0.494245 -4.89977 2.03884
0.477994 -4.90138 2.03884
0.49039 -4.90441 2.05472
0.462848 -4.85123 1.57026
0.476072 -4.85536 1.58611
0.459019 -4.8379 1.57993
0.444689 -4.83951 1.57908
0.460497 -4.8625 1.60114
0.468916 -4.86098 1.6663
0.454494 -4.87157 1.67038
0.466828 -4.86599 1.68319
0.451593 -4.86802 1.68148
0.464764 -4.86234 1.69427
0.464764 -4.86234 1.69427
0.448621 -4.84517 1.68687
0.476134 -4.84728 1.70375
0.461796 -4.85815 1.70706
0.449151 -4.86941 1.70865
0.462321 -4.86367 1.72145
0.479443 -4.88097 1.72809
0.462321 -4.86367 1.72145
0.447025 -4.85563 1.71812
0.474709 -4.8677 1.73673
0.459377 -4.85971 1.73338
0.443266 -4.84258 1.72584
0.459006 -4.85578 1.74445
0.474063 -4.8787 1.76568
0.456973 -4.86143 1.7589
0.470131 -4.85585 1.77083
0.454874 -4.8573 1.77083
0.474063 -4.8787 1.76568
0.456973 -4.86143 1.7589
0.470131 -4.85585 1.77083
0.454874 -4.8573 1.77083
0.467028 -4.84141 1.78185
0.452719 -4.8434 1.78016
0.484097 -4.85861 1.78873
0.467028 -4.84141 1.78185
0.482863 -4.86344 1.80498
0.467613 -4.86524 1.80412
0.492996 -4.84504 1.82278
0.479547 -4.86457 1.8315
0.464292 -4.86637 1.83064
0.49359 -4.8593 1.84173
0.478283 -4.85175 1.83735
0.463008 -4.85291 1.8382
0.477158 -4.87519 1.86076
0.479547 -4.86457 1.8315
0.49359 -4.8593 1.84173
0.478283 -4.85175 1.83735
0.463008 -4.85291 1.8382
0.489684 -4.84609 1.84926
0.477158 -4.87519 1.86076
0.460955 -4.85829 1.85281
0.476745 -4.87098 1.87187
0.489684 -4.84609 1.84926
0.477158 -4.87519 1.86076
0.491163 -4.86921 1.87272
0.476745 -4.87098 1.87187
0.488122 -4.86458 1.88553
0.471935 -4.8568 1.88193
0.488122 -4.86458 1.88553
0.488605 -4.87795 1.90642
0.471521 -4.85254 1.893
0.486537 -4.87447 1.91583
0.469397 -4.8571 1.9094
0.501813 -4.87259 1.91669
0.486537 -4.87447 1.91583
0.502552 -4.89652 1.93793
0.487065 -4.8884 1.93513
0.50216 -4.90114 1.95364
0.488597 -4.92119 1.96101
0.55125 -4.9145 2.11854
0.531034 -4.88825 2.10845
0.518566 -4.91731 2.12027
0.548792 -4.90031 2.12666
0.534563 -4.92073 2.13372
0.517136 -4.90375 2.12666
0.530307 -4.89748 2.13784
0.531034 -4.88825 2.10845
0.548792 -4.90031 2.12666
0.534563 -4.92073 2.13372
0.517136 -4.90375 2.12666
0.550499 -4.92332 2.14892
0.530307 -4.89748 2.13784
0.556467 -4.92223 2.22415
0.537157 -4.89685 2.21186
0.554875 -4.90815 2.23127
0.539589 -4.91902 2.23539
0.511413 -4.89866 2.01097
0.52532 -4.88328 2.01834
0.512886 -4.92109 2.03527
0.529898 -4.93393 2.05241
0.50957 -4.88927 2.03416
0.529898 -4.93393 2.05241
0.50957 -4.88927 2.03416
0.523961 -4.91094 2.05684
0.5039 -4.88448 2.04702
0.524485 -4.924 2.0775
0.507155 -4.90764 2.0689
0.523961 -4.91094 2.05684
0.5039 -4.88448 2.04702
0.524485 -4.924 2.0775
0.507155 -4.90764 2.0689
0.497409 -4.92254 2.16361
0.511319 -4.89776 2.16678
0.494192 -4.8907 2.16189
0.510913 -4.91046 2.18777
0.492816 -4.90274 2.18457
0.535562 -4.91395 2.24747
0.519222 -4.91531 2.24833
0.532057 -4.88971 2.25294
0.516792 -4.90049 2.2571
0.573131 -4.84961 1.07368
0.574241 -4.86629 1.0908
0.558972 -4.86826 1.08995
0.571067 -4.85395 1.10143
0.555837 -4.85591 1.10058
0.569026 -4.85852 1.12755
0.551832 -4.8509 1.12445
0.567032 -4.85617 1.13864
0.55088 -4.85763 1.14035
0.563066 -4.84422 1.14744
0.564139 -4.86084 1.16398
0.578496 -4.86586 1.17913
0.560149 -4.84864 1.1736
0.544891 -4.85017 1.17445
0.575039 -4.84399 1.18552
0.562048 -4.86508 1.19025
0.523888 -4.86997 1.2294
0.537107 -4.86506 1.24307
0.520787 -4.85708 1.24061
0.534862 -4.85249 1.25255
0.518768 -4.85424 1.25255
0.515748 -4.85807 1.27892
0.513746 -4.85535 1.29
0.497596 -4.85658 1.29171
0.512566 -4.85229 1.30193
0.496472 -4.85397 1.30193
0.489852 -4.86472 1.48549
0.48779 -4.86126 1.49743
0.47249 -4.86251 1.49828
0.486678 -4.86728 1.51232
0.470464 -4.85928 1.50936
