ply
format ascii 1.0
element vertex 50
property float x
property float y
property float z
end_header
18 6.33975 10
15.5 10.6699 10
13 15 10
10.5 19.3301 10
8 23.6603 10
18 6.33975 5
15.5 10.6699 5
13 15 5
10.5 19.3301 5
8 23.6603 5
18 6.33975 4.1501e-13
15.5 10.6699 2.0435e-13
13 15 -6.31056e-15
10.5 19.3301 -2.16971e-13
8 23.6603 -4.27631e-13
18 6.33975 -5
15.5 10.6699 -5
13 15 -5
10.5 19.3301 -5
8 23.6603 -5
18 6.33975 -10
15.5 10.6699 -10
13 15 -10
10.5 19.3301 -10
8 23.6603 -10
12 13.0718 8
10 16.5359 8
8 20 8
6 23.4641 8
4 26.9282 8
12 13.0718 4
10 16.5359 4
8 20 4
6 23.4641 4
4 26.9282 4
12 13.0718 -1.16124e-13
10 16.5359 -2.84652e-13
8 20 -4.53181e-13
6 23.4641 -6.21709e-13
4 26.9282 -7.90237e-13
12 13.0718 -4
10 16.5359 -4
8 20 -4
6 23.4641 -4
4 26.9282 -4
12 13.0718 -8
10 16.5359 -8
8 20 -8
6 23.4641 -8
4 26.9282 -8
